<svg id="Layer_1" data-name="Layer 1" xmlns="http://www.w3.org/2000/svg" viewBox="0 0 1366 768"><defs><style>.cls-1{fill:#ffe799;}</style></defs><path class="cls-1" d="M801.84,383.2c-1.49,1.57,52.35,39.48,62.7,89.93,1.14,5.57,4.24,23.42,7.16,23.25,2.24-.13,3.3-10.78,3.5-12.74C879.06,445,803.67,381.27,801.84,383.2Z"/><path class="cls-1" d="M866.14,459c3.45,4.08,23.75-4.72,32.79-22.78a49.28,49.28,0,0,0,4.85-18,51.88,51.88,0,0,0-19.46,9.92C872.05,438.22,863,455.27,866.14,459Z"/><path class="cls-1" d="M856.73,441c3.43,2.89,19-7.2,23.95-23.39a41.52,41.52,0,0,0,1.52-15.55A43.45,43.45,0,0,0,867.48,413C858.73,423,853.58,438.37,856.73,441Z"/><path class="cls-1" d="M842.15,421.45c3.22,1.7,13.86-9,15-22.73a33.76,33.76,0,0,0-1.47-12.62,35.33,35.33,0,0,0-9.82,11.2C840.64,406.77,839.19,419.87,842.15,421.45Z"/><path class="cls-1" d="M826.21,404.1c2.79.65,8.7-9.61,6.82-20.26a26.33,26.33,0,0,0-3.65-9.28,27.71,27.71,0,0,0-5.2,10.48C822.11,393.27,823.65,403.5,826.21,404.1Z"/><path class="cls-1" d="M811.73,389.9c2.17-.25,3.8-9.14-.28-16.31a20.08,20.08,0,0,0-5-5.74,21.25,21.25,0,0,0-1.06,8.86C806,383.16,809.73,390.12,811.73,389.9Z"/><path class="cls-1" d="M777,401.8c2.54-2.22,58.21,84.1,136.18,103.43,8.61,2.14,36.23,8.1,35.78,12.64-.34,3.48-17,4.46-20.08,4.64C868.39,526.08,773.85,404.52,777,401.8Z"/><path class="cls-1" d="M891.07,506.83c6.13,5.64-8.86,36.72-37.59,49.66a77.06,77.06,0,0,1-28.34,6.43,80.94,80.94,0,0,1,16.7-29.71C858.28,514.73,885.42,501.64,891.07,506.83Z"/><path class="cls-1" d="M863.64,490.93c4.29,5.52-12.44,29.13-38,35.83a64.61,64.61,0,0,1-24.33,1.37,67.86,67.86,0,0,1,17.94-22.24C835.43,492.89,859.69,485.85,863.64,490.93Z"/><path class="cls-1" d="M834,466.85c2.45,5.13-14.91,21-36.39,21.93a52.52,52.52,0,0,1-19.58-3.1,55.3,55.3,0,0,1,18.1-14.59C811.25,463.55,831.75,462.13,834,466.85Z"/><path class="cls-1" d="M808,441c.83,4.38-15.54,12.94-32,9.32a41.15,41.15,0,0,1-14.22-6.29,43.35,43.35,0,0,1,16.66-7.43C791.38,433.94,807.22,437,808,441Z"/><path class="cls-1" d="M786.79,417.64c-.52,3.37-14.48,5.34-25.4-1.47a31.35,31.35,0,0,1-8.63-8.16,33,33,0,0,1,13.88-1.08C776.66,408.3,787.27,414.54,786.79,417.64Z"/><path class="cls-1" d="M553.84,245c1.12-1.85-59.55-27.43-80.4-74.52-2.3-5.2-9.13-22-11.95-21.2-2.16.61-.93,11.24-.7,13.2C465.23,201,552.47,247.23,553.84,245Z"/><path class="cls-1" d="M474.88,184.56c-4.25-3.25-22.2,9.66-27.19,29.23a49.29,49.29,0,0,0-.92,18.61,51.94,51.94,0,0,0,16.91-13.84C473.53,206.13,478.78,187.55,474.88,184.56Z"/><path class="cls-1" d="M488.32,200c-4-2.08-16.95,11.17-18.26,28.06a41.26,41.26,0,0,0,1.91,15.5,43.53,43.53,0,0,0,12-13.86C490.3,218,492,201.93,488.32,200Z"/><path class="cls-1" d="M506.94,216.16c-3.51-1-11.59,11.77-9.76,25.43a33.61,33.61,0,0,0,4.16,12,35.48,35.48,0,0,0,7.18-13.06C511.58,230.16,510.18,217.06,506.94,216.16Z"/><path class="cls-1" d="M525.77,229.76c-2.86,0-6.42,11.26-2.28,21.25a26.39,26.39,0,0,0,5.58,8.27,27.8,27.8,0,0,0,2.81-11.35C532.11,239.44,528.4,229.79,525.77,229.76Z"/><path class="cls-1" d="M542.75,240.51c-2.07.71-1.77,9.74,3.75,15.88a19.93,19.93,0,0,0,6.1,4.54,21.05,21.05,0,0,0-.85-8.88C549.77,245.88,544.65,239.87,542.75,240.51Z"/><path class="cls-1" d="M0,0V768H1366V0ZM671,653c-160.71,0-291-130.29-291-291S510.29,71,671,71,962,201.29,962,362,831.71,653,671,653Z"/></svg>