<svg id="Layer_1" data-name="Layer 1" xmlns="http://www.w3.org/2000/svg" viewBox="0 0 1366 129"><defs><style>.cls-1{fill:#fff;}</style></defs><g id="layer3"><path id="rect15742" class="cls-1" d="M358.46-.48a.59.59,0,0,1,0,.08V-.48Zm0,.08,11.94,97.53c-.23-.14-.44-.32-.67-.46l.79,1.43,1.7,13.87c-.27.92-.5,1.85-.71,2.79h-5.4l-8.41-6.43,5.06-9.14a28.16,28.16,0,0,0-10.19,1.53A9.2,9.2,0,0,0,350.4,102l-1.7-2.15,10.07-30.18c-3.86,0-8,.67-11,3.18-5.45,4.46-5.71,11.69-5.67,18.55l-5.28-6.7A13.1,13.1,0,0,0,338,88.12c1.25,2.91,2.61,5.75,4.05,8.55v.19a7,7,0,0,1-.55,2.71l-.14,0q-3.36.28-6.72.71a78.16,78.16,0,0,0-2.45-7.45A52.53,52.53,0,0,0,324,78.08l13.38-40.14a49.08,49.08,0,0,0-5.65,6.89c-7.34,10.63-11.91,22.89-15.88,35.11A255.19,255.19,0,0,0,309,105.6q-2.29.7-4.56,1.5l-.87-.66c-.64-3-1.33-6.07-2.09-9.08-3.2-12.67-7.07-25.45-13.62-36.8l2.75-9.26a27,27,0,0,0-6,4.18c-3.4-5-7.5-9.75-13-12.53l6.14,20.63c-.27.4-.58.78-.84,1.18C270,75.22,265.86,87.15,262.54,99.21A28,28,0,0,0,254,100.5a256.84,256.84,0,0,0-7.54-28.91c-.64-2-1.35-4-2-6,.13-.3.29-.58.41-.88A12.78,12.78,0,0,0,246,61.32l-2.18,2.77c-3.42-9.68-7.48-19.16-13.32-27.61a49.08,49.08,0,0,0-5.65-6.89l13.72,41.15-24.47,31.07a23.91,23.91,0,0,0-3.75-2.14,10.12,10.12,0,0,0-1.23-.48l3.41,4.61-4.23,5.37c-1.3-2.11-2.65-4.17-4.11-6.17a54,54,0,0,0-10.78-11.09l10.29-84c-8.17,16.33-13.24,34.05-16.38,52-1.27,7.3-2.23,14.62-3,22-.52,1.33-1,2.67-1.5,4A38.64,38.64,0,0,0,178,84.21a55.94,55.94,0,0,0-6.46-5.58A102.56,102.56,0,0,0,123.35,60a45.31,45.31,0,0,0-5.33-.37l12.23,8.9,45.41,33a34.37,34.37,0,0,0-3.79,2.37,32.71,32.71,0,0,0-9.46-4.75l4.42,9a53.63,53.63,0,0,0-5.79,6.61H145.23q-1.38-2-2.88-3.89l6.71-9.23c.36-.44.74-.87,1.09-1.32l.31-.61,4.85-6.66a40.58,40.58,0,0,0-22.71,8.21c-1-.73-2-1.44-3-2.07l.68,1.25,1,1.8A53.55,53.55,0,0,0,124.1,109c-.3-1.46-.6-2.91-.94-4.36C120.3,92.28,116.9,79.15,108,69.67l6.45,45.09h-1.52a51.1,51.1,0,0,0-6.57-5.47l2-10.1a79.66,79.66,0,0,0-5.71,7.75c-1.27-.75-2.59-1.43-3.92-2.07a196.34,196.34,0,0,0-8.42-29.06L91.3,73c-.65,0-1.31.06-2,.1-1.6-4-3.34-7.93-5.27-11.79l1.51,12.33a13.33,13.33,0,0,0-5.32,2.55c-6.66,5.45-5.58,15-5.66,23h-.14l.14.12v.89c-.12,5.45-4.21,5.54-7.34,6.93-2.8-1-5.63-1.83-8.49-2.61-.26-1.22-.52-2.44-.8-3.65l2-1.68c-.81,0-1.61,0-2.41.09-1.56-6.51-3.35-13-5.42-19.34-4-12.22-8.53-24.48-15.88-35.1a49.16,49.16,0,0,0-5.65-6.9l20.67,62a59.92,59.92,0,0,0-6.63,1.49c-4.8-.8-9.64-1.43-14.46-1.85l-1.42-.1a83.67,83.67,0,0,0-7-12.09l3.06-5.52a35.92,35.92,0,0,0-6.79.57c-.16-.19-.29-.38-.45-.57l.13.63a19.62,19.62,0,0,0-2.13.56c-.1,0-.19.09-.29.12L3.34,68a13.19,13.19,0,0,0,1.25,3.43,146.78,146.78,0,0,0,7,14,10.58,10.58,0,0,0-3.37,7.79c0,3.25,1.49,8.78-3.71,8.5a10.44,10.44,0,0,0-4.52.67v34l8.71-4.29,1357.29-6V110A37.33,37.33,0,0,0,1356.42,97l9.58-7V74.51A99.81,99.81,0,0,0,1342.83,87,54.23,54.23,0,0,0,1331.55,98c-.08-2.57-.19-5.13-.33-7.7l4.76-3.63c-1.64.63-3.25,1.36-4.86,2.05A324,324,0,0,0,1327,51.52c-3.14-17.94-8.2-35.66-16.36-52l9.76,79.71-.12.53a46.06,46.06,0,0,0-7.82,11.8,311.25,311.25,0,0,0-1-37L1302,101.29,1288.9,84.7a13.3,13.3,0,0,0,1.24,3.43,154.38,154.38,0,0,0,9.7,18.62c-3,2.18-6,4.45-8.93,6.76,0-1.78,0-3.56-.08-5.35s-.43-4.11-2-5.44a2.49,2.49,0,0,0-1.53-.55,97.86,97.86,0,0,1,2.28,12.39l-.25.2h-2.6c-.57-4-1.25-8.06-2-12.07a5.66,5.66,0,0,1,2.56-.53,78.09,78.09,0,0,0-3-9.31A68.7,68.7,0,0,0,1281,85.6q-1.55-6.07-3.4-12.07l11.87-35.6a49.16,49.16,0,0,0-5.65,6.9,99.48,99.48,0,0,0-9.7,18.15c-3.47-9.87-7.56-19.56-13.52-28.17a49.72,49.72,0,0,0-5.64-6.89l15.18,45.54c-.75,2.16-1.51,4.31-2.21,6.48a259.93,259.93,0,0,0-8.64,34.81h-2c-.86-5-1.9-9.92-3.08-14.83a87.52,87.52,0,0,0,1.09-21.26l-4.37,8.84a121.56,121.56,0,0,0-11-26.94l2.76-9.26a27.27,27.27,0,0,0-6,4.17c-3.41-5-7.51-9.74-13-12.52l6.13,20.63c-.27.39-.58.78-.84,1.18-7.86,11.89-12.23,25.69-15.76,39.43L1200.78,78.8c-.71-2.41-1.44-4.82-2.22-7.21-.65-2-1.35-4-2-6,.13-.3.29-.58.41-.88a13.19,13.19,0,0,0,1.25-3.43L1196,64.08c-3.43-9.67-7.48-19.15-13.32-27.6a50.52,50.52,0,0,0-5.65-6.89l13.72,41.15-12.4,15.75a20.36,20.36,0,0,0-1.86-5.82l-1.57,2.83c-3.18-15.73-8-31.19-15.15-45.56l7.31,59.72-5.81,10.49-.8,1c-1.29-2.1-2.65-4.18-4.11-6.18a53.94,53.94,0,0,0-10.78-11.09l10.29-84c-8.17,16.33-13.23,34.05-16.37,52-1.28,7.3-2.24,14.63-3,22-.52,1.32-1,2.65-1.49,4a40.64,40.64,0,0,0-4.93-1.63,55.66,55.66,0,0,0-6.44-5.57A102.76,102.76,0,0,0,1075.48,60a45.3,45.3,0,0,0-5.33-.36l12.24,8.9,45.4,33a37,37,0,0,0-4.6,2.94,50.17,50.17,0,0,0-10,10.25H1103.1l-3.64-8.2a7.05,7.05,0,0,1-3.4.9c2.16-2.3,4.26-4.66,6.23-7.13l.56-1.13-5.12,3.91,2.89-3.92a9.27,9.27,0,0,0-1.23.49,24.48,24.48,0,0,0-4.48,2.68,117.1,117.1,0,0,1-2-17.44c0,.1,0,.31,0,.39-.18,5.38-.78,10.77-.41,16.15a14.85,14.85,0,0,0,.36,2.52,31.33,31.33,0,0,0-2.35,2.4,49.14,49.14,0,0,0-5.37-4.81,37.4,37.4,0,0,0-3.48-2.37l.69,1.24,5.28,9.54c-.24.34-.51.66-.74,1s-.27.47-.41.7l-4,3.09h-7.86a82.29,82.29,0,0,0-8-12.77l-12.81-63c-1.44,20-2.32,40.25,1.83,60l.15.61c-12.15-9.75-25.15-18.58-39.31-25.09a21.35,21.35,0,0,0-2.19-9.33l-3.76,6.79c-.61-.24-1.19-.52-1.8-.76l1.56,1.19-9.92,17.92-2.73,4.94c-12-9.13-24.88-17.15-38.84-22.91l1.49-1.14c-.7.28-1.38.6-2.08.89-.7-.29-1.38-.61-2.08-.89l1.48,1.14a156.94,156.94,0,0,0-25,13.2L921.34,65.12c-4.16,8.26-1.81,17.88,1.69,26,.09.23.24.45.35.68-3.9,2.82-7.7,5.76-11.42,8.78-.92.21-1.84.44-2.75.69l-1.08-4.58c-.16,1.66-.28,3.35-.4,5-.52.16-1,.3-1.55.48-.76-1-1.52-2-2.33-3l.72,3.55a55.54,55.54,0,0,0-7.38,3.33l-2.64-4.78c1-1.14,2-2.31,2.91-3.49l.56-1.13-4.24,3.23L892,96.67a20.26,20.26,0,0,0-1.33,3.45c-.25-.31-.47-.63-.73-.93l.43,2.11c-.11.48-.21,1-.29,1.44l-5.64,4.31,1.6-7.86a80.31,80.31,0,0,0-6.27,8.65l-.26-.11L876,106.21l-1.85-7.82-17-71.48C855.39,47,855,67.69,861,87.07a60.2,60.2,0,0,0,5.82,13.43c-.51.36-1.05.68-1.55,1.06s-1.13.94-1.7,1.42c-3.91-1.18-7.88-2.16-11.88-3-.21-.11-.41-.22-.63-.32a8.75,8.75,0,0,0-1.23-.49l.37.5c-.85-.17-1.7-.3-2.55-.46l0,0v0c-.91-.16-1.81-.34-2.72-.48a17.18,17.18,0,0,0,.32-2.07l-3.61,1.58c-3.37-.48-6.76-.88-10.14-1.18-2.5-.22-5-.39-7.5-.4l.56.25,10.06,4.41-7.3,3.19s0,0,0,0c-.61-.46-1.24-.88-1.87-1.3a9.5,9.5,0,0,0-5.17-5A28.08,28.08,0,0,0,810,96.67l5.21,9.41c-.63-.53-1.25-1.08-1.91-1.58a35.55,35.55,0,0,0-5.49-3.39q-.93-3.57-2.12-7.07l19-38.46A34.64,34.64,0,0,0,812,62.84a59.29,59.29,0,0,0-12.77,16.33,59.22,59.22,0,0,0-12.75-16.33,34.76,34.76,0,0,0-12.69-7.26l19,38.45c-.34,1-.65,2-1,3a20.28,20.28,0,0,0-4.81,1.19c-5.37,2.12-6.86,8-6.54,13.14a5.37,5.37,0,0,1-.69,3.41H762.65c-.18-2.9-.45-5.8-.78-8.69l21.45-9.39c-2.51,0-5,.17-7.5.39-5,.44-10,1.09-15,1.94-.28-1.61-.53-3.23-.87-4.84-3-14-9-27.54-18.2-38.58L751,101q-6.18,1.48-12.19,3.57l-9.45-7.23,8.49-41.77c-9.25,11-15.24,24.54-18.2,38.58A140.6,140.6,0,0,0,717,114.75h-5.1l12-59.17c-9.26,11-15.25,24.54-18.21,38.58-.79,3.74-1.35,7.51-1.8,11.29a80.26,80.26,0,0,0-6.35-8.78l2.43,12c-3.21.23-7.22.69-7-3.79.16-3-.58-7.25-4.64-6.79-8.19.93-14.32-8-21.88-11.29C660.77,84.27,654.25,82.41,648,83a58.86,58.86,0,0,0-2.22-16.54l-15.09,45.27a51.66,51.66,0,0,0-5.43-6.11l4.43-9a32.71,32.71,0,0,0-9.46,4.75,35.79,35.79,0,0,0-5.28-3.1l.82-1.65c-.85.25-1.68.56-2.5.89-.82-.33-1.65-.64-2.5-.89l.82,1.65c-.88.42-1.74.86-2.57,1.35-.73-.49-1.45-1-2.2-1.47l1.49,1.88c-.69.42-1.35.88-2,1.34-1-.69-2-1.33-3-1.92L610.61,83a14.7,14.7,0,0,0-3.05,2.39,40.68,40.68,0,0,0-8.39,12.08c-.76-.3-1.53-.59-2.32-.83l1.41,2.84c-.5,1.12-1,2.23-1.44,3.35a78.88,78.88,0,0,0-3,9.32,4.6,4.6,0,0,1,1.55.18c-.58.79-1.16,1.58-1.71,2.39h-.43c.19-.85.37-1.72.59-2.57a2.61,2.61,0,0,0-1.26.38l-9.77-48c-.78,10.82-1.36,21.73-1.1,32.6h0a25.48,25.48,0,0,0-5.48,3.43L569,49.77c-.85,16.39-1.55,32.94-1.28,49.43l-.19-.16A38.78,38.78,0,0,0,564,96.67l3.74,6.75c.06,2.11.19,4.22.28,6.33l-2.39,1.83L552.82,73.15a60.66,60.66,0,0,0-2.15,19.76,51.71,51.71,0,0,0-5.52-6.67A162.41,162.41,0,0,0,557.6,63.07a13.13,13.13,0,0,0,1.25-3.42L540.93,82.39c-.86-.71-1.72-1.44-2.61-2.09a102.76,102.76,0,0,0-48.18-18.62,47.56,47.56,0,0,0-5.33-.37l.56.41L531,94.94l-2.38,3,.26-1.29c-.81,1-1.56,2-2.33,3a57.65,57.65,0,0,0-17.7-3l3.47,2.87-.87-.35,1.4,1.07a28.05,28.05,0,0,0-7.37,5.78c-1.77-.68-3.55-1.33-5.34-1.93a39.38,39.38,0,0,0,5.88-19.27L489.4,97c-.66.06-1.32.14-2,.23-.38-4.87-1.6-9.47-5.48-12.65-3.08-2.52-7.19-3.19-11.05-3.19l5.72,17.16c-4-.61-8-1.1-12-1.45-2.49-.22-5-.38-7.5-.39l6.16,2.7-4,3.06-1.8-3.24a20.68,20.68,0,0,0-1.83,5.59,31.35,31.35,0,0,0-5.6-6L452,93l6.12-18.35c-3.86,0-8,.66-11,3.18-6.93,5.67-5.47,15.86-5.66,24-.1,4.19-2.54,5.2-5.08,6.08-2.2-.82-4.41-1.58-6.65-2.27-.74-1.18-1.51-2.34-2.31-3.49l3.06-5.52a36.75,36.75,0,0,0-6.78.59c-.16-.19-.3-.4-.46-.59l.13.65a18.51,18.51,0,0,0-3.07.88,9.21,9.21,0,0,0-4.63,4q-2.58-.51-5.19-.93a14.16,14.16,0,0,0,.32-2.07l-3.6,1.58q-3.44-.48-6.87-.84L444.17,68a45.14,45.14,0,0,0-5.32.37A102.64,102.64,0,0,0,390.67,87c-.18.13-.34.28-.51.41l-.82-1a7.27,7.27,0,0,0,.39,1.36A53.71,53.71,0,0,0,379.39,98,244.62,244.62,0,0,0,358.5-.4ZM1093,84.92c.07-3.18-.14-11.29-.17-8.43S1092.83,82.1,1093,84.92ZM958.22,72.74l22.13,16.92,14.31,10.94-.25.44c-2.72-.42-5.45-.75-8.18-1.05A20.45,20.45,0,0,0,985,96.67l-1.67,3-.95-.1c-2.24-.19-4.49-.33-6.74-.37l.06,0h-.81l0,0c-2.25,0-4.5.18-6.74.37-4.07.36-8.15.85-12.21,1.47-1-.46-1.93-.94-2.91-1.38h0c-1.37-.62-2.74-1.22-4.13-1.8l.89-1.2a10.36,10.36,0,0,0-1.24.5l-.61.31c-.65-.27-1.29-.55-1.94-.8l1.4,1.07a27,27,0,0,0-5.73,4.06l-6.38-11.52ZM240,74.77l2.51,7.51a21.75,21.75,0,0,0-1.7,1.46c-5,4.76-8.24,11.08-10.74,17.46-.21.54-.38,1.09-.58,1.63a27.17,27.17,0,0,0-2.44-1.69l1.08-2c-.7.42-1.35.91-2,1.38-.56-.31-1.12-.61-1.71-.88A220.26,220.26,0,0,0,240,74.77Zm952.14,0,2.51,7.51c-.59.46-1.16,1-1.7,1.46a32.76,32.76,0,0,0-2.35,2.52l-2.27-4.59c1.33-2.27,2.59-4.58,3.81-6.9ZM1016.4,77,1029,86.6l17.23,13.16c-.65.79-1.27,1.6-1.88,2.41a58,58,0,0,0-17.71-3l2.36,2,10.31,8.52c-1,1.67-1.93,3.36-2.81,5.09h-.28c-1.28-.8-2.57-1.55-3.85-2.2a116,116,0,0,0-23.89-8.72c-.92-.78-1.84-1.57-2.78-2.34,2.48-3.39,5.39-6.73,7-10.39A44.73,44.73,0,0,0,1016.4,77Zm-734,1.93,9.88,33.23-.84.39c-1.29.65-2.58,1.4-3.85,2.2H276.15l.5-1.68a25.7,25.7,0,0,0-2.76,1.68h-.56c-.34-.67-.68-1.33-1-2Zm952.14,0,2.52,8.5-12.69,25.7ZM322.54,82.3l8.24,18.54c-2.75.39-5.48.84-8.2,1.37l.83-2.48c-.91.9-1.74,1.87-2.56,2.85-1.83.38-3.66.78-5.48,1.24ZM1195,83.49l5.75,17.24-1.62,2.92-6.89-14Zm-952.14,0,6.67,20a8.83,8.83,0,0,0-.9,1.21l-6.79-5.19.16-.31-.29.2-.27-.2.14.29c-1.05.65-2.07,1.34-3.05,2.09a49,49,0,0,0-5.38,4.8l-.31-.33Zm943.72,1q0,3.5.27,7a63.82,63.82,0,0,0-4.7,9.75,80.57,80.57,0,0,0-3,9.31,5.24,5.24,0,0,1,2,.32l-1.89,3.43-.3-3.21c0-.18.09-.36.14-.54-.06,0-.13,0-.19,0q-.62-5.87-1.46-11.71c.08-.29.16-.59.23-.89q4.62-6.6,8.82-13.45Zm87.31.23,10,30.07h-4.76l-6.74-5.58,3.15-9.45a49.79,49.79,0,0,0-5.65,6.89,84.58,84.58,0,0,0-5,8.14h-1.08ZM87.05,85.75l1.89,15.45a61.47,61.47,0,0,0-6.58-1.37Zm560.73,3.32L662.09,97c-.54.33-1,.7-1.56,1.06-.57-.32-1.15-.62-1.75-.89a8.8,8.8,0,0,0-1.23-.5l1.68,2.28a.91.91,0,0,0-.16.11,49.14,49.14,0,0,0-5.37,4.81A28.44,28.44,0,0,0,646.55,98c.53-3,1-6,1.23-9ZM17.45,95.22q2,3.16,4.14,6.27l1.89,9.26a33.37,33.37,0,0,0-9-10.25Zm909.12,1.72c2.35,3.17,4.95,6.26,6.48,9.55a109.17,109.17,0,0,0-14.89,6.08c-1.28.65-2.57,1.4-3.85,2.19H914c-.88-1.72-1.81-3.42-2.8-5.08l.8-.66,11.86-9.82h-.29l2.34-1.79Zm-264.26.18,2.12,1.17,5.69,3.15c-.86.78-1.69,1.59-2.5,2.42a29.25,29.25,0,0,0-6.15-5.24Zm67,.91c2.12,2.65,4.4,5.16,6.74,7.61-3.08,1.17-6.11,2.46-9.08,3.91Zm-147.5.24c0,.33,0,.66,0,1l-1.73,1.32Zm366.64.25,4.09,3.13c-2.52.44-5,.95-7.52,1.51Zm405.76.15,2.08,8.73a36.37,36.37,0,0,0-6.91-.59l4.4,7.94h-21.59l.06-.12Zm-817.61.26,2.92,2.13c-.79,1.1-1.57,2.22-2.31,3.36-1.07-.63-2.17-1.21-3.28-1.76C534.79,101.42,535.67,100.18,536.56,98.93Zm703.88,0h0l.11.39-.15-.26s0-.09,0-.13Zm-265.2.4,6.61,2.9L979,107.43c-2.82.45-5.64,1-8.44,1.57q-3.67-2.25-7.47-4.31l.33-.15L967,103Zm-511.8.06,6,2.61.72.31a53.76,53.76,0,0,0-8.17,4.85l-1.87-3.38q1.5-1.71,2.91-3.49Zm-221.73.3.29.6c1.8,2.25,3.68,4.41,5.64,6.51a17.93,17.93,0,0,0-.92,7,8.8,8.8,0,0,1,0,.89h-7.83a37.87,37.87,0,0,0-2.11-3.78c-.23-.35-.5-.67-.74-1Zm804.76.25,8.62,6.6c-.07.12-.17.24-.25.36a56,56,0,0,0-8.94-4.19Zm-400.32.11,4.92,6.66a74.3,74.3,0,0,0-5.85,8h-2.75c1.43-4.83,2.7-9.73,3.68-14.67Zm-422.23.24.84,1.13s-.1.07-.15.12a48.45,48.45,0,0,0-4.31,3.77c1.22-1.66,2.43-3.34,3.62-5Zm436.49.22,4,5.45.56.76a70.72,70.72,0,0,0-5,6.68,34.55,34.55,0,0,0-2.68-5c-.22-.35-.5-.67-.74-1Zm-146.47.5,2.58,2,.71.55,4.27,3.54-3.7,4.7c-1-.63-2.11-1.22-3.16-1.75-1.8-.91-3.62-1.74-5.47-2.54Zm67.92.08q.32,6.84,1.2,13.64h-1.7c-1.22-1.91-2.51-3.78-3.88-5.57l-.42-2.91c1.63-1.69,3.26-3.38,4.8-5.16Zm285.63.38a36.26,36.26,0,0,0,2.77,3.72c-1.34-.49-2.7-.94-4.06-1.38Zm-254.2.23.76,1.53-1.11-.82Zm-351.6.63c-.29,1.12-.63,2.24-.91,3.36-.07.25-.12.51-.18.77-.29-.2-.57-.41-.87-.6Zm135.18.07c.42.77.81,1.55,1.25,2.31l-6.47,2.83c-.11-.37-.23-.73-.37-1.08Zm-383.42,0,2.92,12.31H6.64L10.36,108Zm528.21.2,4.93,3.58-1.93,3.48c-1.23-1-2.52-2-3.84-2.93Zm-511,0,4.26,1.87.72.32c-.78.37-1.56.76-2.33,1.18ZM673,103l17.67,9.78,2.1,2H676.21a3.69,3.69,0,0,0-1.92-.52c.08.18.14.36.21.53H671a11.3,11.3,0,0,1,3.32-.53,35,35,0,0,0-3-5.77c-.22-.34-.5-.66-.73-1Zm-447,0,2.33,3.15c-.45,1.42-.86,2.86-1.23,4.31a5,5,0,0,1,2.18.36q-1.5,1.89-2.88,3.88h-.26c.29-1.42.6-2.84,1-4.24a2.5,2.5,0,0,0-1.53.56,4.65,4.65,0,0,0-1.35,2.11c-.42-.75-.84-1.49-1.31-2.21-.22-.34-.5-.66-.74-1Zm222.72,0,.7,3,.81,3.4-.81.61-2.95,2.26-.72-.33Zm740.07,1.23a95,95,0,0,0,3,10.46h-6.4Q1187.25,109.63,1188.73,104.31Zm50.69,0c.37,1.36.77,2.71,1.19,4l-3.16,6.41h-1a99.65,99.65,0,0,0,3-10.46Zm-1158.61.16,3.25,2.69,3,2.53c-1,1.66-1.92,3.35-2.79,5.08H84a43.92,43.92,0,0,0-3.85-2.19c-.59-.3-1.2-.55-1.79-.84Zm906.26.09,3.21,1.4c-1,.11-2.1.21-3.15.33,0-.58,0-1.15-.06-1.73Zm-375.19,0,1.93,2.45c-.17.17-.35.33-.52.51-.61-.66-1.27-1.28-1.93-1.91l.48-1Zm230.45.12,13.77,6c-1,1.31-2,2.65-3,4H837.3c-.71-1-1.45-1.88-2.21-2.78A27.8,27.8,0,0,0,842.33,104.71Zm-241.41.17.38.76c-.43.42-.86.84-1.27,1.27Zm-254,.49c.13.23.28.46.41.69a17.24,17.24,0,0,0-1.2,7.81c0,.32,0,.61,0,.89h-2.34Zm855.46.11,3.1,9.29h-.81l-3.17-6.4c.3-1,.61-1.92.88-2.89Zm-312.52.91a27.11,27.11,0,0,0,.39,4.2c-.5.39-1,.79-1.48,1.19l-3-1.29c1.38-1.34,2.71-2.72,4-4.1Zm69.08.15,5.23,4q-5.48,1.44-10.78,3.38a8.64,8.64,0,0,0,0-.88c0-.9,0-2.65-.08-4.05Zm-627.43.29a26.58,26.58,0,0,0-3,7.94h-10l.86-2.6Zm467.84.29,3.77,7.65h-7.55Zm-391.43.12,5.83,2.55c0,.53,0,1,0,1.56a5.39,5.39,0,0,1-.69,3.42h-1.29l-4.85-6.15c.35-.45.66-.91,1-1.38Zm688.19.23c.63,2.47,1.39,4.9,2.26,7.3h-1c-1.16-1.68-2.38-3.32-3.68-4.89.79-.81,1.6-1.59,2.38-2.41Zm-837.4.38.91,3.08c-.14.6-.29,1.2-.42,1.81L256.9,111Zm693.59,1.6a43.9,43.9,0,0,1-1.3,5.32h-2.12l-1.71-3.08L951,110Zm37.32.35-2.5,4.52-.25.45h-1a37.11,37.11,0,0,0,.82-3.7l.4-.18Zm-942.49.09,8.81,3.85.34,1H41.17l2.58-2.13Zm705.8.14,1,4.74h-1.66l-3.7-2.82Zm519.2.13c0,.23,0,.45.05.68a34.63,34.63,0,0,0,.8,3.93h-2.4Zm-719.48.45.84.61c.28,1.18.58,2.37.89,3.55H552a33.31,33.31,0,0,0,.59-4.16Zm575.18.08c-.3,1.36-.61,2.71-.89,4.07h-1.11Zm-126.44.12h0l9,4h-9.23a4,4,0,0,0,.19-1.77,9.93,9.93,0,0,1,0-2.18Zm-346.9.51,2.54,3.44h-4.44Zm13.92,0,2.54,3.44h-4.44Zm-141.22.44,3.62,3h-5.48l.14-.71c.58-.76,1.14-1.52,1.72-2.29Zm261.41.65c-.1.78-.23,1.56-.31,2.35h-1Zm-294.88.24,4.79,2.11h-5.41c-.39-.13-.76-.27-1.13-.41.58-.57,1.19-1.11,1.75-1.7Zm649.38,0,.58.43v-.21l1.37,1.89h-2.2Zm-740.12.08c.43.68.89,1.35,1.33,2h-4C401.18,114.13,402.07,113.45,402.93,112.73Zm18.4.4,1.87.81,1.87.82h-4.64Zm29.74.09.36,1.54h-.58c-.28-.18-.56-.37-.85-.54.35-.33.72-.66,1.07-1Zm455.67.17.28,1.37h-1.94Zm-162.45.39,1.06,1H742ZM220,113.84l.68.92h-1.19Zm13.93,0,.68.92h-1.2Zm626.76,0,.68.92h-1.18Zm229.15,0,.51.92h-1.18Zm-430.32.39-.34.53H657a14.79,14.79,0,0,1,2.45-.53Z"/></g></svg>