<svg id="Layer_1" data-name="Layer 1" xmlns="http://www.w3.org/2000/svg" viewBox="0 0 1366 768"><defs><style>.cls-1{fill:#fff;}.cls-2{fill:turquoise;}</style></defs><path class="cls-1" d="M-9.5,777.5V-9.5h1385v787ZM671,80.5C515.78,80.5,389.5,206.78,389.5,362S515.78,643.5,671,643.5,952.5,517.22,952.5,362,826.22,80.5,671,80.5Z"/><path class="cls-2" d="M1366,0V768H0V0H1366M671,653c160.71,0,291-130.29,291-291S831.71,71,671,71,380,201.29,380,362,510.29,653,671,653M1385-19H-19V787H1385V-19ZM671,634c-150,0-272-122-272-272S521,90,671,90,943,212,943,362,821,634,671,634Z"/><path class="cls-2" d="M768.84,367.2c-1.49,1.57,52.35,39.48,62.7,89.93,1.14,5.57,4.24,23.42,7.16,23.25,2.24-.13,3.3-10.78,3.5-12.74C846.06,429,770.67,365.27,768.84,367.2Z"/><path class="cls-2" d="M833.14,443c3.45,4.08,23.75-4.72,32.79-22.78a49.28,49.28,0,0,0,4.85-18,51.88,51.88,0,0,0-19.46,9.92C839.05,422.22,830,439.27,833.14,443Z"/><path class="cls-2" d="M823.73,425c3.43,2.89,19-7.2,23.95-23.39a41.52,41.52,0,0,0,1.52-15.55A43.45,43.45,0,0,0,834.48,397C825.73,407,820.58,422.37,823.73,425Z"/><path class="cls-2" d="M809.15,405.45c3.22,1.7,13.86-9,15-22.73a33.76,33.76,0,0,0-1.47-12.62,35.33,35.33,0,0,0-9.82,11.2C807.64,390.77,806.19,403.87,809.15,405.45Z"/><path class="cls-2" d="M793.21,388.1c2.79.65,8.7-9.61,6.82-20.26a26.33,26.33,0,0,0-3.65-9.28,27.71,27.71,0,0,0-5.2,10.48C789.11,377.27,790.65,387.5,793.21,388.1Z"/><path class="cls-2" d="M778.73,373.9c2.17-.25,3.8-9.14-.28-16.31a20.08,20.08,0,0,0-5-5.74,21.25,21.25,0,0,0-1.06,8.86C773,367.16,776.73,374.12,778.73,373.9Z"/><path class="cls-2" d="M744,385.8c2.54-2.22,58.21,84.1,136.18,103.43,8.61,2.14,36.23,8.1,35.78,12.64-.34,3.48-17,4.46-20.08,4.64C835.39,510.08,740.85,388.52,744,385.8Z"/><path class="cls-2" d="M858.07,490.83c6.13,5.64-8.86,36.72-37.59,49.66a77.06,77.06,0,0,1-28.34,6.43,80.94,80.94,0,0,1,16.7-29.71C825.28,498.73,852.42,485.64,858.07,490.83Z"/><path class="cls-2" d="M830.64,474.93c4.29,5.52-12.44,29.13-38,35.83a64.61,64.61,0,0,1-24.33,1.37,67.86,67.86,0,0,1,17.94-22.24C802.43,476.89,826.69,469.85,830.64,474.93Z"/><path class="cls-2" d="M801,450.85c2.45,5.13-14.91,21-36.39,21.93a52.52,52.52,0,0,1-19.58-3.1,55.3,55.3,0,0,1,18.1-14.59C778.25,447.55,798.75,446.13,801,450.85Z"/><path class="cls-2" d="M775,425c.83,4.38-15.54,12.94-32,9.32a41.15,41.15,0,0,1-14.22-6.29,43.35,43.35,0,0,1,16.66-7.43C758.38,417.94,774.22,421,775,425Z"/><path class="cls-2" d="M753.79,401.64c-.52,3.37-14.48,5.34-25.4-1.47a31.35,31.35,0,0,1-8.63-8.16,33,33,0,0,1,13.88-1.08C743.66,392.3,754.27,398.54,753.79,401.64Z"/><path class="cls-2" d="M567.84,253c1.12-1.85-59.55-27.43-80.4-74.52-2.3-5.2-9.13-22-11.95-21.2-2.16.61-.93,11.24-.7,13.2C479.23,209,566.47,255.23,567.84,253Z"/><path class="cls-2" d="M488.88,192.56c-4.25-3.25-22.2,9.66-27.19,29.23a49.29,49.29,0,0,0-.92,18.61,51.94,51.94,0,0,0,16.91-13.84C487.53,214.13,492.78,195.55,488.88,192.56Z"/><path class="cls-2" d="M502.32,208c-4-2.08-16.95,11.17-18.26,28.06a41.26,41.26,0,0,0,1.91,15.5,43.53,43.53,0,0,0,12-13.86C504.3,226,506,209.93,502.32,208Z"/><path class="cls-2" d="M520.94,224.16c-3.51-1-11.59,11.77-9.76,25.43a33.61,33.61,0,0,0,4.16,12,35.48,35.48,0,0,0,7.18-13.06C525.58,238.16,524.18,225.06,520.94,224.16Z"/><path class="cls-2" d="M539.77,237.76c-2.86,0-6.42,11.26-2.28,21.25a26.39,26.39,0,0,0,5.58,8.27,27.8,27.8,0,0,0,2.81-11.35C546.11,247.44,542.4,237.79,539.77,237.76Z"/><path class="cls-2" d="M556.75,248.51c-2.07.71-1.77,9.74,3.75,15.88a19.93,19.93,0,0,0,6.1,4.54,21.05,21.05,0,0,0-.85-8.88C563.77,253.88,558.65,247.87,556.75,248.51Z"/></svg>