<?xml version="1.0" encoding="utf-8"?>
<!-- Generator: Adobe Illustrator 25.3.0, SVG Export Plug-In . SVG Version: 6.00 Build 0)  -->
<svg version="1.1" id="Layer_1" xmlns="http://www.w3.org/2000/svg" xmlns:xlink="http://www.w3.org/1999/xlink" x="0px" y="0px"
	 viewBox="0 0 1366 768" style="enable-background:new 0 0 1366 768;" xml:space="preserve">
<style type="text/css">
	.st0{fill:#C4DB9C;}
</style>
<g id="g106827">
	<g id="layer3">
		<path id="path49030" class="st0" d="M766.8,475.4c0,0,67.9,243.8,54,300.6c15.3,5.6,24.9,4.2,24.9,4.2S784.8,489.3,790.4,463
			C775.1,478.2,766.8,475.5,766.8,475.4L766.8,475.4z"/>
		<path id="path45363" class="st0" d="M567.4,415.8c-0.9,5,0.7,10.2,0,15.3c-4.2,29.2-1.5,85.6,8.3,115c5,14.9,9.2,35,6.9,51.2
			c-8.1,56.5-29,110.1-40.2,166.2c-0.9,4.4-11.4,60.6-11.1,61c0.3,0.3,8.1,0.2,8.3,0c2.5-1.7,2.3-14.1,2.8-16.7
			c6.1-30.7,13.7-60.5,25-88.7c15.2-37.9,22.2-81.2,37.4-119.1c9.6-23.9,24.3-48.6,36-72c11.9-23.7,37.4-62.9,37.4-88.7
			c0-1-1.8,1.1-2.8,1.4c-13.1,4.3-6.9,16.6-15.3,27.8c-17,22.6-31.6,50.7-44.3,76.2c-5.2,10.4-8.2,19.9-12.5,30.5
			c-1.9,4.8-6.9,19-6.9,13.9c0-32.5-7.6-61.1-15.3-91.4c-0.6-2.5-5.7-17.9-4.2-19.4c4.9-4.9,39.5-64.4,37.4-66.5
			c-5.6-5.6-34.4,45.4-37.4,51.2c-5.2,10.5-5.7-16.3-4.2-20.8c4-12,8.9-28,8.3-27.8C573.7,418.1,576.2,420.2,567.4,415.8
			L567.4,415.8z"/>
		<path id="path37584" class="st0" d="M199,523.9l1.4-2.3l2.6-0.7l2.3,1.4l2.6-0.9l2.2,1.5l0.6,2.6l2.3,1l2.5,0.1l2.2,0.8l2.2-0.8
			l2,1.2l2.3-0.2l0.4,2.4l1.8,1.6l2.3,0.4l1.7,1.7l0.9,2.2l1.8,1.5l2.4-0.4l2,1.4l2.1-0.7l2.2,0.7l2,0.7l2,0.8l2,0.7l1.8,1.1l2,0.7
			l1.6,1.5l2.3,0.1l1.4,1.8l2.1,1.1l0.4,2.4l2.2,0.1l2.1-0.8l2.3,0.2l1.9-1.3l2.1,0.8l1.7,1.4l2.1,0.6l2.2,0.2l2.6-0.3l1.8,1.8
			l1.2,2.3l2.6,0.4l2.5,0.3l1.9-1.7l1.7-1.7l2.4-0.5l2.5-0.3l1.8-1.7l1.9-1.7l0.2-2.5l2.2-1l2.3,0.5l2.2,0.5l2.2-0.5l2.2-0.4
			l2.2-0.7l2.1,0.9l2.3,0.3l2.4-0.2l1.7-1.6l1.4-1.7l1.7-1.5l0.7-1.2l1.4-0.5l0.8-1.2l1.4-0.4l1.2,0.9l1.4,0.5l1.2-1l1.6-0.2
			l1.4-0.1l1.3,0.4l1.4-0.1l1.1-0.8l0.9-1l1.2-0.6l1.5,0.1l1-1.1l1.5,0.5l0.6,1.5l1.5-0.3l1.4,0.8l1.2-0.9l1.5,0.1h1.5l1.2-0.9
			l1.4,0.2l1.4,0.3l0.9,1.1l1,1l1.4,0.1l1.3-0.4l1.2-0.9l1.4,0.3l1-1.1l1-0.8l1.1-0.8h1.4l1.4-0.2l0.7-1.3l0.6-1.2l0.5-1.2l1.1-1.1
			l-0.2-1.5l0.8-1.1l1.3-0.6l1.4-0.4l0.9-1.1l1.3-0.3l1.3-0.3l1.4-0.6l0.5-1.5l1.4-0.4l1.4-0.5l1.4-0.3l1.4,0.2l1.5-0.3l1.3,0.7
			l1.3-0.8l0.3-1.4l0.2-1.4l0.7-1.2l1.2-0.6l1-0.9l1.4-0.4l1.1-0.8l0.8-3.6l2.2-3l2.6-2.5l2.3-2.8l3.8-1l3.4,2.1l3.1-2.2l3.8,0.3
			l3.1,1.3l2.4,2.4l2.9,1.5l2.9,1.6l3-2.1l3.7,0.3l3,1.9l3.5,0.4l2.9,1.5l3.2-0.8l3.2-0.2l2.6-1.8l2.9-1l2.9-1.1l1.7-2.8l2.9-1.4
			l2.4-2.4l3.4-0.1l2.8,1.8l3.3,0.2h3.1l2.8-1.4l2.9,0.9l3-0.5l1.1-3.4l0.5-3.6l3.8-0.4l2.5-3l2.7-1.6l3.4-0.1l3-1.4l2.5-2.2l-3.5-2
			l-1.2-3.8l0.8-3.7l-0.9-3.7l0.2-3.9l3.1-2.3l1.1-3.5l2.8-2.3l2.4-3.7l4.4-0.4l0.7-3.9l0.3-3.9l-1-3.6l-2.3-2.9l1-3.7l-1.4-3.5
			l2.5-2.5l1.4-3.2l3.2-1.8l1.4-3.4l3.8,0.6l3-2.4l3.5-1l3.5,0.8l2.3,3.1l0.1,3.8l2.8,2.3l2.6,2.6l2.8,2.6l3.8,0.2l3.6,0.1l3.4,1.2
			h4l3.4-2l3.1-2.4l1.8-3.6l3.9-0.1l3,2.5l3.3,1.9l3.8-0.3l3.4,1.3l3.6-0.8l3.7,0.7l2.4,2.9l3.5-1.7l1-3.8l3.7-0.1l2.9-2.3l2.3-2.6
			l3.5,0.1l3-0.9l3-0.8l2.7,2.4l3.6-0.5l3.4-0.3l2.8-2l3.5-0.4l3.5,0.6l3.8-0.4l2.8,2.6l1.1,3.4l0.5,3.6l3.6,1.4l1.8,3.4l-1.1,3.4
			v3.5l2.5,2.9l-0.3,3.8l1.8,3l3,1.9l2.4,2.7l3.5,1l3.2,1.2l3.2,1.1l3.4,0.9l3.4-1l2.6,2.8l3.5,1.4l2.2,3.4l-1.4,3.9l3.2,0.1l3,1
			l2.7,1.9l3.3,0.2h3.5l2.5,2.5l3,1.9l0.7,3.5l1.5-0.5l1.2-1.1l1.7-0.2l1-1.4l0.1-1.7l1-1.4l1-1.3l1.3-1l1.6-0.5l1.7,0.3h1.7
			l1.2,1.3l1.5,0.9h1.7l1.4-0.9l1.6-0.5l0.9,1.4l-0.1,1.7l0.5,1.6l1.5,0.9l1,1.2l1,1.2l1.2,1.1l1.2,1l1.3,1.1l1.5,0.9l1.8-0.2
			l1.4,1.3l1.8-0.7l1.7,0.9l1.7-0.6l1.4-1.2l1.1,1.4l-0.2,1.8l1.1,1.4l1.5,0.8l0.6,1.5l0.7,1.5l1.5,0.8l1.4,0.9l1.7-0.3l1.5-0.7
			l1.7-0.2l1.5-0.7l1.9-0.3l1.9,0.4l1.1,1.5l1.2,1.5l1.5,0.6l1.5-0.6l1.5-0.6l0.9-1.3l1.5-0.8l1.6,0.6l0.7-1.5l1.4-0.8l0.8-1.4
			l1.4-0.6l1.4-0.5l1.2-0.9l1.4-0.7l1.4-0.7l1.5,0.1l1.5-0.1l1.7,0.7l1.8,0.3l1-1.7l1.9-0.5l1.1-1.3l0.7-1.5l1.4-1l0.6-1.6l1.3-1.2
			l1.7-0.6l1.7,0.3l1.6,0.6h1.8l1.5-0.9l0.4-1.7l1.3-1.3l1.4-0.8l1.4-0.7l1-1.4l1.5-0.7l1.6-0.4l1.4-0.8l1.6,0.2l1.6-0.2l1.6,0.3
			l1.6-0.2l1.4,1.1l1.7-0.1l1.6-0.5l1.3-1l1.5-1l1.7,0.5l1.8,0.5l1.8-0.6l1.7,0.7l1.8-0.6l0.7,1.9l1.9,0.6l1.6,0.8l1.6,0.8l1.8,0.7
			l1.8-0.8l1.2,1.5l1.9,0.4l1,1.5l0.7,1.7l1.5,1l1.6,0.8l1.8,0.6l1.9-0.3l1.6-1.1l1.8-0.6l1.7-1.1l1.9,0.5l1.7,0.9l1.9-0.2l1.6-1.2
			l0.5-1.9l1.9-0.3l1.3-1.5l0.4-1.9l0.7-1.9l2-0.5l1.5-1.4l0.8,0.7l1,0.3l1.1,0.1l0.8,0.8l0.7-1l1.2-0.2l1.1,0.5l1.1-0.5l1-0.7
			l1.2-0.1l0.8,0.9l1.2,0.3l1.2,0.2l1-0.7l0.5-1l0.7-0.8l1.1-0.1l0.9,0.8l1,0.2l1,0.2l1.1-0.1l1-0.2l1.1-0.2l0.9-0.6l1,0.6l1.2-0.3
			l0.5,1l0.9,0.7l0.9,0.6l0.3,1.1l0.4,1.1l1.1,0.3l1.2,0.2l1.1-0.6l0.8,0.8l1.1,0.4l1,0.6l1.1-0.4l0.9-0.8l1.2,0.1l0.5,1.1l0.8,0.8
			l1.1,0.3l1,0.6l0.8,0.9l0.9,0.8l-0.7,1.1l0.4,1.3l1.1,0.2l1.1-0.3l0.7,0.8l0.8,0.7l0.7,0.8h1.1l0.6,0.8l0.5,0.9l0.9,0.4h1l1,0.2
			l1-0.2l0.9,0.4l0.8,0.5l1.1,0.2l0.5,1l1.2,2.1l2,1.4l1.7,1.6l1.4,1.9l1.3,2.4l-0.3,2.8l2.1,1.6l2.5,0.7l2.5-1.2l2.5,1.2l2,1.6
			l1.5,2l2.3,1.1l1.9,1.7l2.7,0.6l2.2-1.6l2.1,1.7h2.8l2-1.9h2.8l2.1,1.2l1.7,1.7l2.4,0.4l2,1.5l1.4-2.2l2.4-1.1l2.5,0.2l2.5,0.4
			l2.6-0.7l2.2,1.6l2.3-0.8l2-1.4l2.1-1.1l1.3-2l2.5,0.1l1.8-1.8l1.3-2.2l2.2-1.1l2.4,0.2l2.4-0.5l2.2-0.8l1.6-1.8h2.4l2.2-0.7
			l2.5,0.4l2.3-1l2.4-0.9l1.2-2.3l2.1-1.7l1.9-1.8l2.7-0.1l2.6-0.6l2.2,1.6l2.8-0.3l2.9,0.2l1.6,2.4l2.4,1l2.4,1l2.5-0.9l2.7,0.1
			l2.3,1.8v2.9l2.5,1l1.5,2.2l1.7-3.5l2.8-2.8l3.8-1.7l1.3-4v-4.4l-3.1-3.2l0.6-4.2l2.3-3.5v-4.2l0.2-4.2l4.3-0.9l1.9-4.2l4.2,0.1
			l2.9-2.9l2.3-3.3l3.9-1.1l3.7-1.4l2.8-2.8l3.8,0.3l3.8,0.4l0.7-4.2l3.2-2.8l3.9-0.8l3.8-1.2l3.2,2.4l4-0.4l4,0.4l3.2-2.4l3.6-0.9
			l3.2-1.9l3.8-1.2l3.5,2l4.3-0.8l4.2-1.5l0.5-4.7l3.7-3l1.8-3.8l1.7-4.2l-2.6-3.7l-1.2-4.3l3.3-2.1l2.5-3l3.8-0.7l3.6-1.6l3.9-1.1
			l3.9-1.2l2.9,3.2l4.4,0.3l1.8-3l3.2-1.4l3.1-1.3l3.1-1.1l2.9-1.9l1.1-3.3l3.3-1l2.1-2.8l0.1-3.7l1.7-3.3l3.2-1.8l3.4-1.4l3.1-1.6
			l2.1-2.8l3.7,0.5l2.7-2.6l-2.1-2l-2.9,0.2l-2.7-0.6l-2.2-1.6l-1.7-2.5l-2.7-1.4l-3,0.1l-2.9,0.5l-1,3.1l-3,1.4l-2.9,1l-2.4,1.9
			l-3,0.2l-2.8-1l-2.8-1.3l-3,0.2h-2.8l-2.7-0.9l-2.8-0.1l-2.7-0.9l-2.6-1.4l-1.1-2.8l-1.9-2.2l-2.8-0.8l-1.1-2.6l-1.8-2.2l-2.3-1.6
			l-2.7-0.9l-1.7-2.5l0.7-3l-2.6-1.4l-1.4-2.6l-2.3,2.2l-3.2,0.5l-3-0.8l-2.9-1.1l-3.2-0.2l-2.3-2.2l-2.9,0.6l-3,0.2v-3.2l-2.5-2.1
			l-2-2.3l-2.7-1.4l-2.1-2.1l-2.4-1.7l-0.4-3l-1.8-2.5l0.2-3.3l-2-2.6l1.7-2.6l1.2-2.9l-1.7-2.8l-3.2-0.5l-0.8-3.1l-2.7-1.7
			l-2.3-1.5l-1.4-2.4l-2.4-1.4l-1.4-2.4l0.6-2.8v-2.9l-1.2-2.8l-2.1-2l-3.1,6l-6.1,2.8l-5.1,4l-3,5.7l-6.7-0.6l-5.7,3.4l-6.9,0.4
			l-4.7,5.1l-6.2,2l-6.5-0.9l-5.4,3.3l-4.8,4.2l-6.6-2.1l-6.9-0.7l-7.3,2l-3.1,6.9l-6.4-2l-6.1,2.9l-6.5-0.4l-5.3-3.8l-5.9-3.2
			l-5.3-4.2l-5.9,4l-7.1-0.9l-4.2-5.1l-5.7-3.2l-6.4-0.3l-6.3-1l-6-2.8l-6.6,0.5l-6.8-2.3l-2.5-6.7l-6.6-1.9l-5.1-4.6l-3.2-5.8
			l-3.9-5.4l-4.4-5.7l-6.8-2.4l-2.8-6.5l-0.4-7l-4.8-5.2l-1-6.9l0.2-6.8l1.2-6.7l-4.9-4.7l-4.5-5.1l1.8-7.2l-4.2-6.2l-6.1-2.8
			l-6.7,0.1l-6.8,2.3l-6.2-3.8l-7.3,1.8l-7.1-2.5l-5.6-4.8l-3.1-6.7l-6.3,2.6l-5.7,3.7l-6.7-1.1l-6.8,0.7l-6.9-1.7l-5.1-5l-6.4,3.8
			l-7.3-1.7l-12.5-0.7l-8.5,9.1l-11.3-2.8l-8.7-7.9l-1.4,11.5l-9.9,6.1l-6.7,9l-11.1,1.8l-10,1.6l-9.2-4.2l-8,6.7l-10.5-0.5l-9-3
			l-9.3-1.6l-9.9,2l-8.8-5l-9.4-0.5l-9.2,1.8l-9.2-2.3l-9.4,1l-10-2.4l-7.4-7.2L571,211l-8.8,6.2l-9.1,5l-7.5,7.1l-7.5,7.1l-7.8,6.8
			l-10.9-4.2l-10.3,5.4l-8-7.8l-11.1-1.6l-11.6-0.4l-7.8-8.6l-9.2,5.9l-10.8,1.7l-8.6,6.3l-10.6,1.1l-9.1-6.8l-11.1,2.5l-10.5-4.4
			l-7-8.8L383,226l-10.5,3.5l-10.9,0.2l-9.7,5l-8-7.4l-10.4-3.1l-4.6,11.8l-12,3.8l-8.6,7.7l-10,5.6l2.6,11.7l1.7,11.9l-1.2,12.8
			l-9.3,8.8l-11.7,6.2l-13.2-0.1l-1.6,13.4l-9,10l-11.7,2.8l-11.4-4l-11.2-3.1l-11.5-1.1l-1.3,1.2l-1.4,1l-1,1.6l0.2,1.8l-0.5,1.7
			l-1.1,1.4l-1.1,1.5l-1.8,0.3l-1.1,1.3l-1.5,0.8l-0.6,1.7l-1.7,0.6l-1.1,1.5l-1.8,0.3l-1.7,0.3l-1.7,0.3l0.4,1.6l0.2,1.6v1.7
			l-0.7,1.5l-0.4,1.9l-1.5,1.2l1.4,1.4l-0.1,2l0.9,1.6l1,1.4l0.5,1.8l1.1,1.5l-0.7,1.7l-0.7,1.7l-0.6,1.7l-1,1.5l-1.7,1l-1.3,1.5
			l0.7,2l-1.1,1.8l-2-0.2l-1.4,1.4l-1.2,1.6h-2l-1.6,1.4l-1.9,0.8l-0.9,1.9l0.1,2.1l-0.1,2l-0.2,1.9l0.7,2l1.7,1.2l1.4,1.1l0.7,1.7
			l1.4,1.2l0.4,1.8l0.1,1.8l-0.9,1.6l-1.1,1.5l0.1,1.8l-1.4,1.4v2l1,1.5l0.8,1.7l1.2,1.3l0.3,1.7l0.8,1.5l1.3,1.1l-1.3,2l-0.2,2.4
			l-0.7,2.3l-1.7,1.7l1,2.4l-0.9,2.4l1.2,2.1l1.6,1.8l-1.1,2.2l-1.9,1.5l-2.2,1l-2.4-0.3l-0.9,2.1l-0.4,2.4l-1.9,1.6l-2.4,0.5
			l-1.1,2.1l1,2.1l0.7,2v2.1l-1.5,1.8v2.3l1.2,1.9l0.2,2.3l1.1,2.2l2.3,1l2.5-0.6l2.2,1.4l-0.4,2.4l0.3,2.4l1.2,2.3l2.4,1.1
			l-0.8,2.5l-2.2,1.4l-2.2,1.4l-2.6-0.2l-0.2,2.4v2.4v2.4l-1.2,2.2l0.3,2.6l-1.7,2l1,2.2l0.7,2.3l1.5,1.7l1.2,1.9l1,2.1l1.7,1.5
			l1.3,1.7l1.5,1.5l2,0.9l2.1,0.1l1,1.7l0.8,1.8l1.8,1.1l0.4,2.1l1.1,1.8l1.6,1.4l0.1,2.1l-0.1,2.1l0.5,2.1l2,1l1.7,1l1.4,1.5l0,0"
			/>
		<path id="path37298" class="st0" d="M798.7,392.3c13.7,98.2,66.6,183.5,77.6,282.6c3,26.7,5.1,57.3,12.5,83.1
			c0.8,2.8,3.5,28.7,5.6,27.8c18.1-9,8.3-19,8.3-40.2c0-34.7-11.2-76.9-18.1-110.8c-4.3-21.7,2-50.9,5.6-72
			c3.7-22.2,2.8-46.6,2.8-69.3c0-8.5,5.7-72.8-6.9-66.5c-2.1,1-4.5,2.1-5.6,4.2c-1.2,2.5-0.7,84.7-2.8,97
			c-2.4,14.4-1.4,29.6-1.4,44.3c0,1.5-1.1,15.5-1.4,15.3c-7.2-7.2-6.7-28.7-11.1-38.8c-10.6-24.8-22.4-50.6-34.6-74.9
			c-4.6-9.3,15.1-73.6,8.3-80.3c-7.8-7.8-15.7,51.1-16.7,54c-0.4,1.1-1.9,12-2.8,11.1c-7.6-7.6,0.2-59.4-4.2-63.7
			C808.5,389.7,806,406.9,798.7,392.3L798.7,392.3z"/>
		<path id="path37101" class="st0" d="M517,361.8c0,0-92.9,347.7-83.5,542.9c-11.8-10.3-36.7-8.6-36.7-8.6s37.3-202.6,39.6-248.5
			s-39.8-243.8-39.8-243.8l14.9-5.2c0,0,34.3,164.9,34.7,210.7c16.2-66.4,54.3-245.1,54.3-245.1L517,361.8z"/>
		<path id="path31448" class="st0" d="M959,308.5l-1.2,0.8l-1,1.2l-1.4,0.6l-0.9,1.4l-1.6,0.7l-0.8,1.7l0.1,1.9l0.1,1.9l-1.6,0.3
			l-0.8,1.6l-1.5,0.6l-1.6-0.5l-0.7,1.4l-1.1,1.1l-1.4,0.4l-1.4,0.6l-1.5,0.3l-1.5,0.3l-1.4-1l-1.3-1.1L935,322l-1.5-0.5l-1.1,1.3
			l-1.6,0.3l-1.6,0.5l-0.9,1.5l-1.6-0.4l-1.5-0.7l-1.5,0.2l-1.5-0.5l-1,1.3l-1.2,1l-0.7,1.7l-1.1,1.4l-1.7,0.1l-1.7,0.3h-1.7l-1,1.5
			l-1.6-0.7l-1.5,0.8l-0.9,1.7l-0.2,2H906l-1.5,1l-0.2,1.8v1.8l-1.4,1.2v2l-1.6-0.5l-1.2-1.2h-1.6l-1.5,0.1l-1.5-0.5l-1.3-1
			l-1.5-0.3l-1.4-0.7l-1.4,0.8l-1.6-0.4l-1.6-0.3l-1.2,1.2l-1.4,0.5l-1.5,0.1l-1.5-0.1l-1.4,0.8l-0.6,0.6l-0.3,0.8l-0.7,0.6
			l-0.9-0.3l-0.8,0.2l-0.8-0.4l-0.8,0.2l-0.7-0.4l-0.8,0.3l-0.3,0.8l-0.8,0.1l-0.8,0.1l-0.7,0.3l-0.4,0.7l-0.7,0.5v0.9l-0.8,0.3
			l-0.8-0.1l-0.8-0.2l-0.8,0.3l-0.9,0.2l-0.6,0.7l-0.4,0.9v1l-0.6,0.6l-0.5,0.7l-0.3,1l-0.9,0.2l0.6,0.8l0.1,1l-0.1,1l-0.2,0.9
			l-1-0.2l-0.9,0.6l-0.5,1l-0.4,1l0.5,1l0.1,1.1l-0.4,1l-0.4,1l-0.6,0.6l-0.6,0.7h-0.9l-0.7,0.5l-0.9,0.1l-0.8-0.3l-0.8,0.3h-0.9
			l-0.9,0.2l-0.7-0.7l-0.4-0.9l-0.7-0.6l-0.8,0.4l-0.9-0.4l-0.8-0.5l-0.7-0.7l-0.9-0.2l-0.7-0.6H845l-0.9-0.2l-0.5,0.9l-0.6,0.8
			l-1-0.4l-0.8,0.5h-0.9l-0.8-0.4l-0.8-0.2l-0.7-0.5l-0.9,0.3l-0.9,0.1l-0.6-0.9l-0.9-0.3l-0.7,0.6h-0.9l-0.9,0.3l-0.8-0.5l-0.9,0.1
			l-0.9,0.1l-0.8,0.6l-0.2,1.1l-1-0.3l-0.6-1l-0.9-0.6l-0.2-1.1l-0.2-1.1l-0.9-0.5l-0.2-1l-0.6-0.8l-0.8-0.7l-0.9-0.4l-0.9,0.5
			l-1-0.1l-0.9-0.4h-1l-0.5,1l-1.1,0.2l-0.6,0.9l-1,0.2l-0.4,1l0.1,1.1l-0.8,0.3h-0.9l-0.4,1l-0.9,0.4H811l-0.9-0.1l-0.6,0.8
			l-0.9,0.2l-0.8,0.7h-1l-0.7-0.9l-0.9-0.3l-0.7,0.6l-0.9-0.2l-0.7-0.7l-0.9-0.2l-0.6-0.9l-0.9-0.2l-0.8,0.2l-0.9-0.3L798,359
			l-0.8-0.2l-0.7-0.6l-0.8-0.3l-0.8-0.3H794l-0.8,0.2l-0.8,0.4l-1,0l-1-0.5l-1.2-0.2l-0.8,0.9l-1,0.4l-1.1-0.5h-1.1l-1-0.6h-1.1
			l-1,0.2l-1.1-0.3l-0.9-0.8l-1-0.6h-1.1l-0.9-0.8l-1.1,0.1l-0.4-1.4l-0.9-1.1l-1.3-0.5l-0.7-1.4l-1.3-0.4l-1.2,0.4l-1.2,0.4
			l-1.2-0.3l-0.6,1.3l-1.2,0.5l-0.5,1.3l-1,0.8l-1.1,0.8l-1.4-0.2l-1.2-0.6l-1.2-0.5l-0.9,0.9l-0.9,1l-1.2,0.2l-1.2,0.5l0.1,1.6
			l0.2,1.5l-1.1,0.8l-0.8,1.2l-1.2,0.5l-0.9,0.9l-1.3-0.1l-1.2,0.2l-0.7-1.5l-1.4-0.5l-1.4-0.3l-1.2,0.6l-0.6,1.2l-0.6,1.2l-1.2,0.7
			l-0.4,1.5l0.5,1.6l-0.7,1.4l0.4,1.5l1,1.1l-1.1,0.6l-0.8,1l-0.7,1l-0.8,0.9l-1.1,0.6l-1.2-0.1l-1.2,0.2l-1.1,0.5l-1-0.3l-0.7-0.9
			l-0.9,0.4l-1-0.5l-0.8-0.6l-0.7-0.7l-0.7-0.8l-0.8-0.5l-1,0.3l-0.6,1l-1-0.2l-1,0.2l-1.1-0.4l-1.1,0.3l-0.9-0.8l-0.5-1.2l-0.9,0.2
			l-0.8,0.4l-0.8,0.5l-0.9,0.1l-1,0.1l-0.8,0.6l-0.4,1l-0.6,0.8l-0.8,0.6l-1,0.1l-0.3,1l-0.7,0.8l-0.9-0.1l-0.9,0.3l-0.8,0.4H709
			l0.3-1l-0.4-1l-0.2-1l0.2-1v-1.2l-0.4-1.1l-0.8-0.7l-0.9-0.5h-1l-0.7-0.9l-0.7-0.8l-0.4-1l-1-0.6l-1,0.4l-1-0.6l-0.2-1.2l-0.8,0.6
			l-1,0.2l-1-0.3h-1l-0.6-0.9l-0.9-0.5l-0.9-0.6l-0.8-0.6l-0.6-0.9l-0.2-1.1l-0.1-1.1l-0.3-1l-0.9-0.5l-0.8-0.6l-0.7-0.8l-0.5-1
			l0.7,0.3l0.2,0.8l-0.1,0.7l0.1,0.7l-0.4,0.5l-0.3,0.5l-0.3,0.6v0.7l-0.5,0.5v0.7l-0.5,0.4l-0.7-0.2l-0.2,0.6l-0.5,0.3v0.7
			l-0.4,0.5l-0.6,0.2l-0.5-0.2l-0.6-0.1l-0.5,0.4l-0.1,0.7l-0.5,0.4h-0.6l-0.6,0.2l-0.5,0.3l-0.1,0.7l-0.2,0.6l-0.2,0.6l-0.1,0.7
			l-0.4,0.5l-0.6,0.1l-0.6,0.1l-0.5-0.2l-0.5-0.2h-0.5L678,370l-0.5,0.1l-0.5,0.1l-0.5,0.2H676l-0.5-0.3l-0.4-0.5l-0.5-0.1l-0.5-0.2
			l-0.5,0.1l-0.5,0.1l-0.5-0.2h-0.5l-0.6,0.1l-0.5,0.3l-0.6-0.1l-0.6-0.1l-0.2,0.7l-0.3,0.5l-0.6,0.2l-0.5,0.3l-0.6-0.2l-0.4-0.5
			l-0.5,0.4l-0.6-0.2l-0.6,0.1l-0.5-0.4l-0.5-0.4l-0.4-0.4l-1.4-0.1l-1.2,0.7l-1.4-0.5l-1.2,0.6l-1.4,0.2l-1.2-0.9l-1.3,0.3
			l-1.3,0.3l-1.3,0.7l-1.4-0.2l-1.3,0.8l-0.7,1.4l-1.4-0.2l-1.2-1l-1.4-0.5l-1.4,0.3l-1.1-1.1l-1.4-0.2l-1.2-0.9l-1.4-0.2l-1.1-1.1
			l-1.2-0.9v-1.7l-0.7-1.5l-1.4-0.2l-1.2-0.8l-1.4-0.1l-1.1-1.1l-0.6-1.5l-1.2-0.9l-0.7-1.4l-1-1.1l-1.4-0.4l-1.4,0.3l-1.3,0.6
			l-1.3,0.6L621,359l-0.6,1.4l-0.1,1.7l-1.2,0.9l-1.4-0.7l-0.9-1.4l-1.5,0.1l-1.4-0.6l-1.1,1l-1,1.2l-1.4,0.5l-1.5-0.5l-0.9-1.1
			l-1.4-0.5l-1.4-0.6l-1.2,0.7l-1.2,0.6l-1.3-0.5l-1.3-0.6l-1.1,0.8l-1.3-0.6l-1.2-0.9l-1.2-1.1h-1.4l-0.5,1.6l-1.5,0.4l-1.2,0.9
			l-1.5-0.2l-1.8-1.1l-2,0.3l-1.5,1.3l-1.9,0.4l-1.8,1l-1,2l-2-0.7l-2,0.1l-1.7,0.7l-1.6,1l-1.7,0.5l-1.6,1l-1.7,1l-1.9-0.9
			l-1.8,0.4l-1.8,0.4l-2.2-0.5l-1.5-1.9l-2,0.3l-2,0.1l-2.1,0.4l-2,0.5l-2.2-0.7l-1.4-2.2l-1.1,2l-2,0.6l-2,0.3l-1.9,0.6l-1.1,1.9
			l-2,0.6l-1.8,0.8l-1.4,1.5l-0.5,2.5l-1.5,1.9l-2.2,0.4l-2.1,0.9l-2,0.6l-2.1,0.3l-2.2,0.4l-1.4,1.9l-2.1,0.6l-1.9-1.2l-2-1.3
			l-2.1,0.6l-1.1-2.4l-2.3-0.7l-2.1-1h-2.2l-2.2-0.5l-2-1.2l-1.6-1.8l-1.4-2l-0.4-2.6l-1.9-1.6l-1.4-2l-0.8-2.3l-1.8,1.4l-2.3-0.2
			l-1.9,1.2l-2.2,0.1l-2.2-1l-1.5-2.1l-2.1-1.4l-2.3,0.5l-0.9,0.7l-1.1,0.4l-1.2,0l-1.2-0.2l-1,0.7l-0.3,1.2l-1,0.5l-0.8,0.8
			l-0.6,1.2l-1,0.7l-1.2,0.1l-1.2-0.4h-1.2l-1-0.8l-1.1-0.5l-1.1,0.2l-1.2-0.4l-1.3-0.1l-1-0.9l-0.8-1.1l-1.2,0.2l-1.2-0.5l-1.3,0.1
			l-0.9,1l-1.3-0.8l-0.4-1.6l-0.1-1.5l0.3-1.4l-1.4-0.5l-1.4,0.3l-0.6-1.5l-1.1-1l-0.3,1.3l-0.4,1.2l-0.3,1.3l-0.5,1.1l-1.1,0.6
			l-0.5,1.2l-0.9,0.8l-0.9,0.8l-1.2-0.5l-1.2,0.2l-1.3,0.3l-0.7,1.2l-1.2,0.4l-1.1-0.9h-1.2l-0.9,0.9l-1.2,0.2h-1.2l-1.3-0.5
			l-0.7-1.4l-1-1.2l-1.4,0.1l-0.2-1.5l-1-1l-1.2,0.2h-1.2l-1.1-0.7l-1.1-0.5l-1,0.8l-0.7,1.1l-1.2,0.5l-1.3-0.5l4.7-1h4.8l3.2-3.7
			l2.9-4.1l2.1-4.7l4.1-2.5l4.4-1.4l4.5-1.2l5.3,1.2l5.4-0.3l1.8,6.2l4.8,3.8l4.9-0.8l4.9,0.7l4.9-1l3.7-3.6l2.2-4.6l-0.6-5.4
			l3.9-2.4l3.1-3.6l1.9-4.4l3.9-2.2l3.3-3.2l1.2-4.7l-2.1-5.4l1.5-5.3l1-5.6l3.9-3.2l4.7-0.7l3.2-3.8l1.7-5.2l4.7-1.6l4.4-1.5
			l4.5-1.1l4.4,2.4l4.8,0.1l4.2,2.5l4.5,1.6l4.6,0.2l4.6,0.9l5.2-0.7l4.8-2.4l3.8,5.2l5.7,0.7l3.9-4.4l-0.1-6.6h5.6l4.7-3.2l0.3-5.3
			l1.1-5.1l-0.5-5.4l0.9-5.2l1.2-5.2l-0.3-5.5l2-4.7l1.6-5l0.9-6.3l5-2.9l1.1-5.7l2.4-5.1l5.3,1.1l5.2-1.1l5.8,0.8l3.8-4.7l4.2,0.8
			l3.8-1.6l1.2-4.7l4-1.8l0.5-4.6l3.4-2.5l2.5-3.1l3.1-2.3l4,0.9l3.5,2.6l3.9-0.6l3.7-1.4l4.1-0.3l4,1.4l3,3.3l2.9,3.5l3.2-1.8
			l1.8-3.4l3.8,1.4l3-2.6l3.1-1.9l1-3.9l2.4-2.8l3.4-1l2-3.1l2-3.1l3.8-0.8l1.7-3.8l3.6-0.8l3.6,1.4l2.9-2.4l3.6-0.5l4.3,0.3l4,1.9
			l2.7-3.6l3.7-2.2l3.9-1l4.1,0.4l3,3.4l3.8,2l2.2-4.4l3.9-2.4l4.5-1.4l4.3,2.6l1.8-4.6l-1.5-5l3.2-3l2.4-3.8l1.3-3.6l1.4-3.5
			l1.5-3.5l2.8-2.3l1.9-3.1l1.2-3.6l1.7-3.3l2.8-2.2l1.7-3.6l3.1-2.1l2.3-3.5l4,0.1l0.7-4.3l3.3-2.2l0.4-4l1.4-3.7l1.5,1.1l1.2,1.5
			l1.6,0.9l1.7,0.2l2,0.3l1.3-1.6l1.7,0.9l1.7,0.8l1.7-0.3h1.7l1.7,0.3l1.7,0.2l1.7,1.1l0.8,2.1l1.8-0.5l1.8,0.8l0.8,2l0.8,1.9h2
			l1.5,1.5l1.4,1.4l1.6,1l1.6,1.3l1.8-0.6l1.7,0.2l1.7,0.6l1.3,1.5l1.7,0.8l1.4,1.9h2.1l1.8-0.6l1.6-1.1l1.6-1.1l1.9-0.2l1.8-0.6
			l1.8-0.6l1.9-0.9l0.6-2.2l1.3-1.7l2.1-0.1l1.1-2.1l0.5-2.4l1.8-1.2l2-0.8l0.3-2.5l-1.4-2.1l-0.3-2.3l-0.1-2.3l1-1.8l1.2-1.6
			l1.4-1.4l1.6-1.1l1.7,1.4l2,0.4l1.5-1.7l2.2,0.3h1.8l1.7-0.5l1.7,0.5l1.7-0.3l1.4-1.4l1.9,0.5l1.9,0.7l1.6-1.1l1.9,1.2l2.1,0.3
			l1.2,2l1.7,1.4l0.1,2.3l1.2,2l-0.1,2.3l0.8,2.2l0.1,2.1l-0.6,2v2.1l-0.8,1.9l0.7,2.2l1.1,2.1l-1.5,1.6l-0.3,2.4v2.1l0.3,2.1
			l1.6,1.4l1.1,1.8l0.5,2.2l1.8,1.2l-0.1,2.1l0.6,2l0.9,2.1l0.1,2.2l-1.8,1.1l-0.4,2.3l1.1,1.9v2.2l-0.8,1.8v2.1l2.1,0.2l1.4,2
			l1.6,1.6l0.2,2.3l0.6,2.2l1.6,1.4l1.9,0.9l1,2l0.1,2.2l-0.7,1.9l-0.6,2l0.5,2.2l0.7,2.2l1.5,1.7l-0.7,2.1l0.4,2.3l1.8,1.4l1.4,1.9
			l0.8,2.4l-0.6,2.3l1.7,1.4l2.1-0.3l1.3,2.1l2.1,0.3l0.6,2.2l1.6,1.5l0.9,2.1l1.7,1.2l0.9,2.2l0.7,2.3l-1.2,1.9l-1,2l1.5,1.4
			l0.2,2.1l-0.5,1.8l-0.2,1.9l0.3,1.9l1,1.6l1.6,1l0.4,2l-1.1,1.4l-0.3,1.8l-1.1,1.2l-0.8,1.5l-1.4,1.1l-1.6,0.7l-1,1.7l0.3,2.1
			l0.7,1.6l-0.3,1.7l0.3,1.7l0.9,1.4l1,1.6l-0.1,1.9l1.4,0.8l1.4,1l0.2,1.7l-0.3,1.6l0.1,1.7l0.5,1.6l1.2,1.1l0.9,1.4l0.5,1.7
			l1.1,1.3l0.5,1.8l0.7,1.8l0.8,1.9l1.7,0.7l1.6,0.2l1.6,0.1l1.6,0.6l1.3,1.3l1.8,0.5l1,1.8l1.6,0.5l1.5,1l0.9,1.8l-0.4,1.9l0.1,1.9
			l0.7,1.8l1.3,1.3l0.3,1.9l0.1,1.9l1.2,1.4l-0.3,1.7l0.3,1.8l0.5,1.7l-0.1,1.8l-0.7,1.5l-0.5,1.6l-1.1,1.4l0.3,1.9l-0.4,1.6
			l-0.3,1.7l0.2,1.8L959,308.5L959,308.5"/>
		<path id="path31446" class="st0" d="M1254.1,623.6l-1.5-0.3h-1.5l-1.4-0.6l-1.5,0.2l-1.6-0.6l-1.7,0.5l-1.1,1.2l-1.1,1.2l-1.4-0.9
			l-1.6,0.4l-1.4-0.7l-0.8-1.4l-1.5,0.4l-1.5-0.1l-1.3-0.7l-1.4-0.6l-1.3-0.8l-1.3-0.9l-0.4-1.5l-0.2-1.5l-0.7-1.4l-0.7-1.4h-1.6
			l-1.4-0.9l-1.5-0.7l-1.6,0.3l-0.9-1.4l-0.7-1.4l-1.3-0.9l-0.8-1.3h-1.5l-1.5-0.2l-1.6,0.5l-1.7,0.1l-1.3-1.1l-1.4-0.9l-1.2-1.2
			l-1.7,0.2l-0.8-1.4l-1.6-0.5l-1.7,0.4l-1.4,1.1l-1.4-1.2l-1.8-0.4l-1.3,1l-1.1,1.1l-1.7-0.2l-1.3,1.2l-0.8-1.4l-0.1-1.6l-1.1-1.1
			l-1.2-1l-0.8-1.3l-0.3-1.5l-0.9-1.2l-0.6-1.4l-1.5-0.5l-0.9-1.3l-1-1.3l-1.6-0.1l-1.4-0.7l-1.1-1l-1.1-1.1l-1.5-0.4h-0.8l-0.8,0.3
			l-0.9-0.1l-0.5-0.7l-0.7-0.4l-0.3-0.7l-0.7-0.4l-0.3-0.8l-0.8-0.3l-0.8,0.3l-0.6-0.4l-0.6-0.5l-0.7-0.3l-0.7,0.2l-0.8-0.2
			l-0.6,0.5l-0.7-0.4l-0.6-0.6l-0.5-0.7l-0.8-0.3l-0.8-0.5h-0.9l-0.9,0.3l-0.7,0.6h-0.8l-0.8,0.1l-0.8,0.4l-0.8-0.5l-0.1,0.9
			l-0.6,0.7l-0.7,0.5l-0.7,0.4l-0.7-0.8l-1-0.3l-1,0.3l-0.9,0.4l-0.3,0.9l-0.6,0.7l-0.9,0.3l-0.9,0.3h-0.9h-0.9l-0.6-0.7l-0.9-0.2
			l-0.7-0.5l-0.4-0.8l-0.8-0.4l-0.6-0.6l-0.8-0.5l-0.1-0.9l0.5-0.9l-0.1-0.8l-0.9-0.3l-0.3-0.8l-0.3-0.8v-0.8l-0.5-0.7l-0.1-0.9
			l-0.6-0.6l-0.6-0.6l-0.9,0.2h-0.9l-0.5-0.9l-1-0.3l-0.6-0.6l-0.3-0.8l-0.5-0.7l-0.2-0.8l-0.8-0.4l-0.7-0.5l0.2-0.9l-0.4-0.8
			l-0.9-0.1l-0.7-0.6l-0.8-0.4l-0.3-0.9l-0.7-0.6l-0.7-0.5l-1-0.2l-0.8,0.5l-0.5-0.8l0.2-0.9l-0.3-1l0.6-0.8l0.5-0.8l-0.3-0.9
			l0.5-0.8v-0.9l-0.1-0.9l-0.4-0.9l-0.9-0.3l-0.7-0.7l-0.4-0.9l-0.7-0.7l-1,0.3l-0.9-0.6l-1,0.1l-0.8-0.5l-0.9,0.3l-0.7,0.7
			l-0.8-0.4l-0.7-0.6l-0.9,0.3l-0.9-0.4l-0.7-0.6l-0.6-0.7l-0.9,0.1l-0.8-0.5l-1-0.2l-0.7-0.7l0.1-1l-0.5-0.8l-0.9-0.1l-0.5-0.8
			l-0.1-0.9l-0.5-0.7l0.2-0.9l-0.5-0.7l-0.7-0.4l-0.5-0.7l-0.5-0.7l-0.5-0.7l-0.1-0.8l-0.4-0.7l-0.4-0.7l-0.6-0.6l-0.7-0.5l-0.8-0.3
			l-0.8-0.7l-0.4-1l-0.7-0.9h-1.1l-1-0.4l-0.4-1l-0.7-0.7l-0.4-1l-0.8-0.7l-0.9-0.6l-0.6-0.9l-0.1-1.1l-0.3-1l-0.8-0.7l-0.2-1.1
			l-0.8-0.7l0.6-1.1v-1.3l-0.6-1.2l0.3-1.3l-0.7-1.1l-1.1-0.6l-1.1-0.6l-0.7-1l-1.2,0.4l-1.2-0.5l-1.2,0.4l-1.2-0.2l-1.4-0.2
			l-0.8-1.1l-0.5-1.2l-0.5-1.1l-1.3-0.1h-1.2l-1-0.7l-1.2-0.5l-0.9,1l-0.8,1.1l-1.4-0.2l-1.4,0.2l-1.2-0.5l-1.2-0.1l-0.8-0.9l-1-0.7
			l0.5-1.4l-0.7-1.2l-0.8-1.1l-1.3-0.5l-1.2,0.3l-1.2,0.3l-1.3-0.4l-1.2,0.6l-0.6,1.3l-1.4,0.4l-0.7,1.2v1.4l-1.1-0.4h-1.2l-1.2,0.2
			h-1.2l-1.2-0.4l-0.8-0.9l-1-0.7l-1.1-0.5l-0.5-0.9v-1l-1-0.4l-0.3-1l-0.2-0.9v-0.9v-0.9l-0.3-0.9l-0.9-0.5l-1.1,0.2l-0.6-0.8
			l-0.9-0.5l-0.6-1l-1-0.5l-0.2-1.1l0.4-1l-0.8-0.5l-0.8-0.3l-0.9-0.3l-0.7-0.6l-0.8-0.6l-0.9-0.1l-0.9,0.3l-0.9,0.1l-1-0.2
			l-0.8-0.6l-0.9,0.4h-1l-0.6-0.7l-0.8-0.4l-0.9-0.3l-0.7-0.6l0.9-0.4l0.4-0.9l0.5-0.7l0.8-0.5l0.7-0.7l0.5-0.9l-0.1-1l-0.4-0.9
			l-0.7-0.7l0.1-1l0.1-0.9l0.3-0.9l-0.3-1l-1-0.5l-0.3-1l0.6-0.9l-0.8-0.2l-0.8-0.6l-0.5-0.8l-0.7-0.7l0.2-1l-0.3-0.9l-0.3-0.9
			l-0.2-0.9l0.1-1l0.6-0.8l0.6-0.7l0.5-0.8l-0.4-0.9l-0.2-0.9v-1l0.3-0.9l0.3,0.7l-0.3,0.6l-0.6,0.3l-0.4,0.5h-0.6l-0.6,0.1
			l-0.6,0.2l-0.4,0.5h-0.7l-0.5,0.4l-0.7-0.1l-0.4-0.5l-0.6,0.2l-0.6-0.2l-0.4,0.4h-0.6l-0.5-0.3l-0.2-0.5l-0.4-0.5l-0.6-0.1
			l-0.5,0.3l-0.6-0.1l-0.4-0.4l-0.5-0.3l-0.6-0.2l-0.5,0.3l-0.5,0.2l-0.5,0.2l-0.5,0.4h-0.6l-0.5-0.4l-0.5-0.3l-0.2-0.4l-0.2-0.5
			l-0.4-0.3l-0.2-0.5l-0.4-0.2l-0.4-0.2l-0.5-0.2l-0.4-0.3l-0.2-0.5V468l-0.3-0.4l-0.2-0.5l-0.4-0.3l-0.4-0.3l-0.3-0.5l-0.4-0.3
			l-0.5-0.3l-0.6-0.2l-0.3-0.4l-0.4-0.5l-0.5,0.3h-0.6l-0.5-0.3l-0.6-0.1l-0.3-0.5v-0.6l-0.6-0.1l-0.3-0.6l-0.5-0.3v-0.6l-0.1-0.5
			v-0.5l-0.9-1l-1.2-0.4l-0.7-1.2l-1.3-0.5l-1.1-0.8l-0.3-1.4l-1.1-0.7l-1.1-0.7l-1.4-0.5l-0.9-1.2l-1.4-0.4l-1.4,0.4l-0.9-1.1
			l-0.1-1.3l-0.7-1.2l-1.2-0.8l-0.1-1.4l-0.9-1.1l-0.2-1.4l-0.9-1.1l-0.1-1.4l-0.3-1.4l1-1l0.4-1.4l-0.9-1l-0.4-1.3l-1-1l-0.1-1.4
			l0.5-1.3l-0.3-1.4l0.4-1.3v-1.4l-0.7-1.2l-1.2-0.8l-1.3-0.5l-1.4-0.5l-1.4,0.2l-1.3,0.4l-1.2,1l-1.5-0.3l-0.5-1.4l0.2-1.4
			l-1.1-0.9l-0.6-1.3l-1.4-0.1h-1.4l-1.4-0.7l-0.8-1.3v-1.4l-0.6-1.2l-0.6-1.3l-1.4-0.4l-1.2-0.4l-0.6-1.1l-0.6-1.2l-1.4-0.3
			l-0.5-1.2l-0.3-1.3v-1.4l-1.1-0.9l-1.4,0.6l-1.3-0.8l-1.4-0.3l-0.9-1.1l-0.6-1.9l-1.6-1.2l-1.9-0.2l-1.6-1.1l-2-0.6l-2,0.5l-1-1.8
			l-1.5-1.3l-1.7-0.7l-1.8-0.5l-1.6-0.9l-1.8-0.5l-1.9-0.6l-0.8-1.8l-1.6-0.9l-1.4-0.8l-1.2-1.8l0.1-2.1l-1.7-1.2l-1.5-1.4l-1.7-1.2
			l-1.8-1.1l-1.1-1.9l0.4-2.2l-2.1,0.4l-1.8-1l-1.6-1.2l-1.8-0.9l-2,0.4l-1.8-1l-1.8-0.8h-2l-2,1.1l-2.3,0.2l-1.9-1.3l-2.1-0.8
			l-1.9-0.9l-1.7-1.3l-1.8-1.2l-2.2,0.2l-1.9-1.1l-0.7-2.2l-0.6-2.1l-1.9-1.1l0.7-2.2l-1.2-2l-0.9-2l-1.6-1.5l-1.2-1.8l-0.7-2.1
			v-2.2l0.2-2.2l1.4-1.8l-0.3-2.2l0.3-2.1l0.9-1.9l-2.2-0.4l-1.5-1.7l-2.1-0.6l-1.7-1.4l-1-2.2l0.2-2.3l-0.6-2.3l-2-1.3l-1.1-0.2
			l-1-0.5l-0.9-0.7l-0.7-0.9l-1.2-0.2l-1.1,0.5l-1.1-0.4l-1.1-0.1l-1.2,0.3l-1.2-0.3l-1-0.7l-0.6-1.1l-0.9-0.8l-0.2-1.2l-0.5-1.1
			l-1-0.6l-0.7-1l-0.7-0.9l-0.2-1.2l0.1-1.2l-1-0.7l-0.6-1.1l-1-0.8h-1.3l-0.4-1.4l0.7-1.2l0.8-1l1.2-0.7l-0.7-1.2l-1.2-0.7l0.6-1.3
			l-0.2-1.4l-1,0.6l-1.1,0.5l-1,0.6l-1.1,0.3l-1.2-0.3l-1.2,0.4l-1.1-0.2l-1.2-0.1l-0.6-1l-1-0.7l-1.1-0.7l-1.3,0.3l-1.2-0.6
			l-0.2-1.3l-0.9-0.8h-1.2l-1-0.7l-0.9-0.8l-0.6-1.2l0.4-1.3v-1.4l-1-0.9l0.8-1v-1.3l-1-0.7l-0.8-0.8L830,289l-0.5-1.1l-1.2-0.2
			l-1.2,0.2l-1.2-0.5l-0.6-1.2l4,2.6l3.4,3.3h4.8l4.7-0.5l4.6-1.4l4.6,1.2l4.1,2.1l4,2.2l3.1,4.3l4.1,3.5l-2.8,4.9l1.1,5.6l4,2.8
			l3.2,3.8l4.2,2.8l5,0.4l4.6-1.3l3-3.7l4.4,1.2h4.6l4.2-1.4l4.3,1.4l4.4,0.4l3.9-2l1.9-4.7l4.5-2.2l4.3-2.6l4.9,0.7l3.8,2.8
			l4.8-0.1l4.6-1.9l4.5,2.2l4.2,2.1l3.9,2.4l1.7,4.4l3.4,3.3l1.4,4.3l2.2,4l3.1,3.2l2.8,3.6l4.2,3.1l5,1.8l-0.6,5.7l3.7,4.3h5.8
			l4.2-4l4.1,3.8l5.4,1.3l3.6-2.9l4.1-2.3l3.1-3.6l4-2.5l4.2-2.3l3.3-3.5l4.5-1.5l4.3-1.9l4.7-3.2l5.5,1.6l4.5-2.6l5-1.4l3.1,4.3
			l4.5,2.8l3.7,4.4l5.8-0.3l2.5,3.3l3.8,1.6l3.9-1.9l4,1.6l3.4-2.4l4.1,0.8l3.9-0.1l3.7,0.7l2.4,3.3l0.8,3.9l3.2,2.3l3.6,1.7
			l3.2,2.6l2,3.5l0.1,4l-0.2,4l3.4,1.1l3.5-0.8l1.9,3.4l3.8,0.5l3.5,1l3.3-1.6h3.5l3.1,1.7l3.5-0.5l3.5-0.5l3.3,2.1l3.7-1.1l3.1,2
			l1.7,3.2l3.6,0.5l3,2.2l2.9,3.1l1.7,3.9l4.2-0.3l4.1,1.1l3.5,2.1l2.8,3v4.1l1.5,3.8l4.4-1.2l4.4,1.2l4.2,2.2l1.5,4.5l4.3-1.5
			l2.2-4l4.2,0.4l4.2-0.7l3.2-1.3l3.2-1.2l3.4-1.1l3.5,0.5l3.4-0.5l3.2-1.4l3.4-0.8l3.4,0.5l3.6-1l3.6,0.8l3.9-0.5l2.8,2.8l3.3-2
			l3.8,0.9l2.9-2.2l3.4-1.3l0.4,1.7v1.7l0.6,1.6l1.1,1.4l1.3,1.5l2-0.1l0.6,1.7l0.7,1.6l1.4,1l1.2,1.1l1.1,1.3l1.1,1.3l0.6,1.8
			l-0.8,1.8l1.7,0.9l0.8,1.7l-0.7,1.7l-0.6,1.7l1.5,1.4v2l0.1,1.7l0.5,1.7l0.4,1.9l1.7,0.9l1.1,1.4l0.9,1.5v1.8l0.7,1.6l-0.2,2.1
			l1.5,1.4l1.7,0.8l1.8,0.4l1.9,0.4l1.5,1.2l1.7,0.8l1.7,0.8l1.9,0.7l1.8-0.9l2.1-0.2l1.5,1.4l2.2-0.5l1.9-1.1l2.1,0.5l2,0.9
			l1.8-1.3l0.3-2.2l1.3-1.6l1.5-1.5l1.8-0.4l1.9-0.1l1.9,0.1l1.8,0.4l0.6,1.8l1.2,1.6h2.2l1.4,1.7l1.2,1.2l1.5,0.8l1,1.5l1.4,1
			l1.9,0.1l1.1,1.6l0.9,1.7l1.9,0.4l0.6,2l1.4,1.6l-0.4,2l0.3,2l-1.4,1.5l-0.4,2l-1.6,1.3l-0.8,1.8l-1.3,1.4l-1.7,0.8l-1.4,1.3
			l-1.8,0.5l-0.9,1.8l-0.6,2h-2.1l-1.7,1.2l-1.4,1.2l-1.1,1.5l0.3,1.9l-0.4,1.8l-1.1,1.7l0.5,1.9l-1.4,1.2l-0.9,1.6l-0.6,1.9
			l-1.4,1.4l-2-0.5l-1.8,1.2l-0.4,1.8l-1.4,1.3l-1.8,0.6l-1.4,1.3l1.4,1.5l-0.3,2.1l0.1,2l-1.4,1.5l-1,1.7l0.2,1.9l0.8,1.8l-0.5,1.9
			l-1.3,1.4l-1.8,0.6l-1.7,0.8l-1,1.6l-0.9,1.8v2l-1.9,0.7l-1.2,1.6l0.4,2l-0.3,2.1l-0.9,2l-1.9,1l0.3,2l1.7,1.2l-0.4,2.1l1.4,1.6
			l-1,1.7l0.2,2l-0.7,1.9l0.5,1.9l-0.8,2l-1,1.9l-2.1,0.4l-2,0.6l0.2,1.8l-1.2,1.4l-1.5,0.8l-1.4,0.9l-1,1.3l-0.3,1.6l0.5,1.7
			l-1,1.5h-1.6l-1.4,0.8l-1.6-0.1l-1.5,0.5l-1.7-0.3l-1.6-0.7l-1.8,0.3l-1.1,1.5l-0.5,1.4l-1.3,0.8l-0.9,1.2l-0.2,1.5l-0.3,1.6
			l-1.3,1l0.5,1.4l0.3,1.5l-1,1.1l-1.2,0.8l-1,1.1l-0.7,1.3l0.1,1.5l-0.3,1.4l-0.7,1.3v1.5l-0.8,1.4l-0.7,1.5l-0.6,1.7l0.9,1.6
			l1.1,1.2l1.1,1.2l0.8,1.5v1.7l1,1.5l-0.4,1.7l0.8,1.4l0.4,1.6l-0.5,1.7l-1.5,0.9l-1.1,1.2l-0.7,1.5l0.1,1.7l-1,1.3l-1.1,1.2
			l-0.1,1.6l-1.4,0.8l-1,1.2l-0.7,1.4l-1.2,1l-1.4,0.4l-1.4,0.6h-1.7l-1,1.4l-1.4,0.7l-1.3,0.8l-1,1.2l-1.4,0.7l0,0"/>
		<path id="path31388" class="st0" d="M134.4,610.8l1.5-0.3h1.5l1.4-0.6l1.5,0.2l1.6-0.6l1.7,0.5l1.1,1.2l1.1,1.2l1.4-0.9l1.6,0.4
			l1.4-0.7l0.8-1.4l1.5,0.4l1.5-0.1l1.3-0.7l1.4-0.6l1.3-0.8l1.3-0.9l0.4-1.5l0.2-1.5l0.7-1.4l0.7-1.4h1.6l1.4-0.9l1.5-0.7l1.6,0.3
			l0.9-1.4l0.7-1.4l1.3-0.9l0.8-1.3h1.5l1.5-0.2l1.6,0.5l1.7,0.1l1.3-1.1l1.4-0.9l1.2-1.2l1.7,0.2l0.8-1.4l1.6-0.5l1.7,0.4l1.4,1.1
			l1.3-1.2l1.8-0.4l1.3,1l1.1,1.1l1.7-0.2l1.3,1.2l0.8-1.4l0.1-1.6l1.1-1.1l1.2-1l0.8-1.3l0.3-1.5l0.9-1.2l0.6-1.4l1.5-0.5l0.9-1.3
			l1-1.3l1.6-0.1l1.4-0.7l1.1-1l1.1-1.1l1.5-0.4h0.8l0.8,0.3l0.9-0.1l0.5-0.7l0.7-0.4l0.3-0.7l0.7-0.4l0.3-0.8l0.8-0.3l0.8,0.3
			l0.6-0.4l0.6-0.5l0.7-0.3l0.8,0.1l0.8-0.1l0.6,0.5l0.8-0.3l0.5-0.6l0.5-0.7l0.8-0.3l0.8-0.5h0.7l0.9,0.2l0.7,0.6h0.8l0.8,0.1
			l0.8,0.4l0.8-0.5l0.1,0.9l0.6,0.7l0.7,0.5l0.8,0.4l0.7-0.8l1-0.3l0.9,0.3l0.9,0.4l0.3,0.9l0.6,0.7l0.9,0.3l0.9,0.3h0.9h0.9
			l0.6-0.7l0.9-0.2l0.7-0.5l0.4-0.8l0.8-0.4l0.6-0.6l0.8-0.5l0.1-0.9l-0.3-0.8l0.1-0.9l0.9-0.3l0.3-0.8l0.2-0.8v-0.8l0.5-0.7
			l0.1-0.9l0.6-0.6l0.6-0.7l0.9,0.2h0.9l0.5-0.9l1-0.3l0.6-0.6l0.3-0.8l0.5-0.7l0.2-0.8l0.8-0.4l0.7-0.5l-0.2-1l0.4-0.8l0.9-0.1
			l0.7-0.6l0.8-0.4l0.3-0.9l0.7-0.6l0.7-0.6l1-0.2l0.8,0.5l0.5-0.8l-0.2-0.9l0.3-1l-0.6-0.8l-0.5-0.8l0.3-0.9l-0.5-0.8v-0.9l0.1-1
			l0.4-0.9l0.9-0.3l0.7-0.8l0.4-0.9l0.7-0.7l1,0.3l0.9-0.6l1,0.1l0.8-0.5l0.9,0.3l0.7,0.7l0.8-0.4l0.7-0.6l0.9,0.3l0.9-0.4l0.7-0.6
			l0.6-0.7l0.9,0.1l0.8-0.5l1-0.1l0.7-0.7l-0.1-1l0.6-0.8l0.9-0.1l0.5-0.8l0.1-0.9l0.5-0.7l-0.2-0.9l0.5-0.7l0.7-0.4l0.4-0.7
			l0.5-0.7l0.5-0.7l0.1-0.8l0.4-0.8l0.4-0.7l0.6-0.6l0.7-0.5l0.8-0.3l0.8-0.7l0.4-1l0.7-0.9h1.2l1-0.4l0.5-1l0.7-0.8l0.3-1l0.8-0.7
			l0.9-0.6l0.5-0.9l0.2-1.1l0.3-1l0.8-0.7l0.2-1.1l0.8-0.7l-0.6-1.1v-1.3l0.6-1.2l-0.3-1.3l0.7-1.1l1.1-0.5l1.1-0.6l0.7-1l1.2,0.4
			l1.2-0.5l1.2,0.4l1.2-0.2l1.4-0.2l0.8-1.1l0.5-1.2l0.6-1.1l1.2-0.1h1.3l1-0.7l1.2-0.5l0.9,1l0.8,1.1l1.4-0.3l1.4,0.2l1.2-0.5
			l1.2-0.1l0.8-0.9l1-0.7l-0.5-1.4l0.7-1.2l0.8-1.1l1.3-0.5l1.2,0.3l1.2,0.3l1.3-0.4l1.2,0.6l0.6,1.4l1.4,0.3l0.7,1.2v1.4l1.1-0.4
			h1.2l1.2,0.2h1.2l1.2-0.4l0.8-0.9l1-0.7l1.1-0.4l0.5-0.9v-1l0.9-0.4l0.4-1l0.2-0.9V495v-0.9l0.3-0.9l0.9-0.5l1.1,0.2l0.6-0.8
			l0.9-0.5l0.5-1l1-0.5l0.2-1.1l-0.4-1l0.8-0.5l0.8-0.3l0.9-0.3l0.7-0.6l0.8-0.6l1-0.2l0.9,0.3l0.9,0.1l1-0.2l0.8-0.6l0.9,0.4h1
			l0.6-0.7l0.8-0.4l0.9-0.3l0.7-0.6l-0.9-0.4l-0.5-0.9l-0.5-0.8l-0.8-0.5l-0.7-0.7l-0.4-0.9l0.1-1l0.4-0.9l0.7-0.7l-0.1-1v-0.9
			l-0.3-0.8l0.3-1l1-0.4l0.3-1l-0.6-0.9l1-0.2l0.8-0.5l0.5-0.8l0.7-0.7l-0.2-1l0.3-0.9l0.3-0.9l0.2-0.9l-0.1-1l-0.6-0.8l-0.6-0.7
			l-0.5-0.8l0.3-0.9l0.2-0.9v-1l-0.3-0.9l-0.3,0.7l0.3,0.6l0.6,0.3l0.4,0.5h0.6l0.6,0.1l0.6,0.2l0.4,0.5h0.6l0.5,0.4l0.7-0.1
			l0.4-0.5l0.5,0.2l0.6-0.2l0.4,0.4h0.6l0.5-0.3l0.2-0.5l0.4-0.4l0.6-0.1l0.5,0.3l0.6-0.1l0.4-0.4l0.5-0.3l0.6-0.2l0.5,0.3l0.5,0.2
			l0.5,0.2l0.5,0.4h0.6l0.5-0.4l0.5-0.3l0.2-0.4l0.2-0.5l0.4-0.3l0.2-0.5l0.4-0.3l0.4-0.2l0.5-0.2l0.4-0.3l0.2-0.5v-0.5l0.3-0.4
			l0.2-0.5l0.4-0.3l0.4-0.3l0.3-0.5l0.4-0.3l0.5-0.3l0.6-0.2l0.3-0.5l0.4-0.4l0.5,0.3l0.6,0.1l0.5-0.3l0.6-0.1l0.3-0.5v-0.6l0.6-0.1
			l0.3-0.5l0.5-0.3v-0.6l0.1-0.5v-0.5l0.9-1l1.3-0.4l0.7-1.2l1.2-0.5l1.1-0.8l0.3-1.4l1.1-0.7l1.1-0.7l1.4-0.5l0.9-1.2l1.4-0.4
			l1.4,0.4l0.9-1.1l0.2-1.4l0.6-1.3l1.2-0.8l0.1-1.4l0.9-1.1l0.2-1.4l0.9-1.1l0.1-1.4l0.3-1.4l-1-1l-0.4-1.4l0.9-1l0.4-1.3l1-1
			l0.1-1.4l-0.5-1.3l0.3-1.4l-0.4-1.3v-1.4l0.7-1.2l1.2-0.8l1.3-0.5l1.3-0.5l1.4,0.2l1.3,0.4l1.2,1l1.5-0.2l0.6-1.4l-0.2-1.4
			l1.1-0.9l0.6-1.3l1.4-0.1h1.5l1.4-0.7l0.8-1.3v-1.4l0.6-1.2l0.6-1.3l1.4-0.4l1.2-0.4l0.6-1.1l0.6-1.2l1.4-0.3l0.6-1.2l0.3-1.3
			l0.1-1.4l1.1-0.9l1.4,0.6l1.3-0.8l1.4-0.3l0.9-1.1l0.6-1.9l1.6-1.2l1.9-0.2l1.6-1.1l2-0.6l2,0.5l1-1.8l1.6-1.3l1.7-0.7l1.7-0.5
			l1.6-0.9l1.8-0.5l1.9-0.6l0.8-1.8l1.6-0.9l1.6-0.9l1.1-1.7l-0.1-2.1l1.7-1.2l1.5-1.4l1.7-1.2l1.8-1.1l1.1-1.9l-0.4-2.1l2.1,0.4
			l1.8-1l1.6-1.2l1.7-0.9l2,0.4l1.8-1l1.8-0.7l2-0.1l2,1.2l2.3,0.1l1.9-1.2l2.1-0.8l1.8-1l1.7-1.2l1.8-1.2l2.2,0.2l1.9-1.1l0.7-2.1
			l0.6-2.1l2-1.1l-0.7-2.2l1.2-2l0.9-1.9l1.6-1.5l1.3-1.8l0.7-2.1v-2.2l-0.2-2.2l-1.4-1.7l0.3-2.3l-0.2-2.1l-0.9-1.9l2.2-0.4
			l1.5-1.7l2.1-0.6l1.7-1.4l0.9-2.1l-0.2-2.3l0.6-2.3l2-1.3l1.1-0.2l1-0.5l0.9-0.7l0.7-0.9l1.2-0.2l1.1,0.5l1.1-0.4l1.1-0.1l1.2,0.3
			l1.2-0.3l1-0.7l0.6-1.1l0.9-0.8l0.1-1.2l0.5-1.1l1-0.6l0.7-1.1l0.8-0.9l0.2-1.2l-0.1-1.2l1-0.7l0.6-1.1l1-0.8h1.4l0.4-1.4
			l-0.7-1.2l-0.8-1l-1.2-0.7l0.7-1.2l1.2-0.7l-0.6-1.3l0.2-1.4l1,0.6l1,0.5l1,0.6l1.1,0.3l1.2-0.3l1.2,0.4l1.1-0.2l1.2-0.1l0.5-1.1
			l1-0.7l1.1-0.7l1.3,0.3l1.2-0.6l0.2-1.3l0.9-0.8h1.2l1-0.7l0.9-0.8l0.6-1.2l-0.4-1.2l-0.1-1.4l1-0.9l-0.8-1v-1.3l1-0.7l0.8-0.8
			l0.4-1.1l0.5-1l1.2-0.2l1.2,0.1l1.2-0.5l0.6-1.2l-4,2.6l-3.4,3.3h-4.7l-4.7-0.5l-4.6-1.4l-4.6,1.2l-4.1,2.2l-4,2.3l-3.2,4.3
			l-4.1,3.5l2.8,4.9l-1.1,5.6l-4,2.8l-3.2,3.7l-4.2,2.8l-5,0.4l-4.7-1.2l-3-3.7l-4.4,1.2h-4.6l-4.2-1.4l-4.2,1.4l-4.4,0.4l-4-2
			l-1.9-4.7l-4.5-2.2l-4.3-2.6l-4.9,0.7l-3.9,2.8l-4.8-0.1l-4.6-1.9l-4.4,2.2l-4.2,2.1l-3.9,2.4l-1.6,4.4l-3.4,3.3l-1.4,4.3l-2.2,4
			l-3.2,3.2l-2.8,3.6l-4.2,3.2l-5,1.8l0.6,5.7l-3.7,4.3h-5.8l-4.2-4l-4,3.8l-5.4,1.3l-3.6-3l-4.2-2.3l-3-3.6l-4-2.5l-4.2-2.3
			l-3.3-3.6l-4.4-1.4l-4.3-1.9l-4.7-3.2l-5.5,1.6l-4.5-2.6l-5-1.4l-3.1,4.3l-4.5,2.8l-3.7,4.4l-5.8-0.3l-2.6,3.2l-3.8,1.6l-3.9-2
			l-4.2,1.7l-3.4-2.4l-4.1,0.9l-3.8-0.1l-3.7,0.7l-2.3,3.2l-0.8,4l-3.2,2.3l-3.6,1.7l-3.2,2.6l-2,3.6v4l0.2,4l-3.4,1.1l-3.5-0.8
			l-1.9,3.4l-3.8,0.5l-3.5,1l-3.3-1.6H251l-3.1,1.7l-3.5-0.5l-3.5-0.5l-3.2,2.1l-3.7-1.1l-3.1,2l-1.8,3.2l-3.6,0.5l-3,2.2l-2.9,3.1
			l-1.7,3.9l-4.2-0.3l-4.2,1.1l-3.5,2.1l-2.8,3v4.1l-1.5,3.8l-4.4-1.1l-4.4,1.2l-4.2,2.2l-1.4,4.5l-4.3-1.5l-2.2-4l-4.2,0.3
			l-4.2-0.7l-3.2-1.3l-3.2-1.2l-3.4-1.1l-3.5,0.5l-3.5-0.6l-3.2-1.4l-3.4-0.8l-3.5,0.5l-3.6-1l-3.6,0.8l-3.9-0.5l-2.8,2.8l-3.3-2
			l-3.7,0.9l-2.9-2.1l-3.3-1.3l-0.4,1.7v1.7l-0.6,1.6l-1.1,1.3l-1.3,1.5h-2l-0.6,1.7l-0.8,1.6l-1.4,1l-1.2,1.1l-1,1.3l-1.1,1.3
			l-0.6,1.9l0.8,1.8l-1.7,0.9l-0.8,1.7l0.7,1.7l0.6,1.7l-1.5,1.4v2l-0.1,1.7l-0.5,1.7l-0.4,1.9l-1.7,0.9L101,421l-0.9,1.5v1.8
			l-0.7,1.6l0.2,2.1l-1.5,1.4l-1.7,0.8l-1.8,0.4l-1.8,0.4l-1.5,1.2l-1.7,0.9l-1.7,0.8l-1.9,0.7l-1.8-0.9l-2-0.2l-1.6,1.4l-2.2-0.5
			l-1.9-1.1l-2.1,0.5l-2,0.9l-1.8-1.3l-0.3-2.2l-1.2-1.6l-1.4-1.4l-1.8-0.4l-1.9-0.1l-1.9,0.1l-1.8,0.4l-0.4,2l-1.2,1.6h-2.2
			l-1.4,1.7l-1.2,1.2l-1.5,0.8l-0.9,1.2l-1.4,1L48,438l-1.1,1.6l-0.9,1.7l-1.9,0.4l-0.6,2l-1.4,1.6l0.4,2l-0.3,2.1l1.4,1.5l0.4,2
			l1.6,1.3l0.8,1.8l1.3,1.4l1.7,0.8l1.4,1.3l1.8,0.6l0.9,1.8l0.6,1.9h2.1l1.7,1.2l1.4,1.2l1.1,1.5l-0.3,1.9l0.4,1.8l1.1,1.7
			l-0.6,1.8l1.4,1.2l0.9,1.6l0.6,1.9l1.4,1.4l2-0.5l1.8,1.1l0.4,1.8l1.4,1.3l1.8,0.6l1.4,1.3l-1.4,1.5l0.3,2.1l-0.1,2.1l1.4,1.5
			l1,1.7l-0.2,1.9l-0.8,1.8l0.5,1.9l1.3,1.4l1.8,0.6l1.8,0.8l1,1.6l0.9,1.8v2l1.9,0.7l1.2,1.6l-0.4,2l0.3,2.1l0.9,2l1.9,1l-0.3,2
			l-1.7,1.2l0.4,2.1l-1.4,1.6l1,1.7l-0.2,2l0.7,1.8l-0.5,1.9l0.8,1.9l1,1.9l2.1,0.4l2,0.5l-0.2,1.8l1.2,1.4l1.5,0.8l1.4,1l1,1.3
			l0.3,1.6l-0.5,1.7l1,1.5h1.6l1.4,0.9l1.6-0.1l1.5,0.5l1.7-0.3l1.6-0.7l1.8,0.3l1.1,1.5l0.5,1.4l1.3,0.8l0.9,1.2l0.2,1.5l0.3,1.6
			l1.3,1l-0.5,1.5l-0.3,1.5l1,1.1l1.2,0.8l1,1.1l0.7,1.3l-0.1,1.5l0.3,1.4l0.7,1.4v1.5l0.8,1.4l0.7,1.5l0.6,1.7l-0.8,1.6l-1.1,1.2
			l-1.1,1.2l-0.8,1.5l-0.1,1.7l-1,1.5l0.5,1.7l-0.8,1.4l-0.4,1.6l0.5,1.7l1.5,0.9l1.1,1.2l0.7,1.5l-0.1,1.6l1,1.3l1.1,1.2l0.1,1.6
			l1.4,0.8l0.9,1.2l0.7,1.4l1.2,1l1.5,0.4l1.4,0.6h1.7l1,1.4l1.4,0.7l1.3,0.8l1,1.2l1.4,0.7l0,0"/>
	</g>
</g>
</svg>
