<?xml version="1.0" encoding="utf-8"?>
<!-- Generator: Adobe Illustrator 25.3.0, SVG Export Plug-In . SVG Version: 6.00 Build 0)  -->
<svg version="1.1" id="Layer_1" xmlns="http://www.w3.org/2000/svg" xmlns:xlink="http://www.w3.org/1999/xlink" x="0px" y="0px"
	 viewBox="0 0 1366 768" style="enable-background:new 0 0 1366 768;" xml:space="preserve">
<style type="text/css">
	.st0{fill:#2C3B17;}
</style>
<path id="path106866" class="st0" d="M1391.3,503.6c-2.3-2.2-43.6,24.9-45.9,26.2c-38.5,23.1-93.6,40.4-137.8,45.9
	c-69.8,8.7-140.4,7.7-209.9,16.4c-25.1,3.1-54.5,6.9-83.3,10.5c-2.7-0.7-7.8-2.2-8.5-2.3c-18.6-4.7-146.9,4.6-160.7,11.5
	c-9.6,4.8-33.3-0.3-42.7-4.9c-5.8-2.9-62.1,9.9-85.3-1.6c-9.9-4.9-20.4,7.6-31.2,4.9c-0.5-0.1-108.5-11.9-111.5-11.5
	c-9.8,1.2-18.1,5.5-26.2,8.2c-0.9,0.3-1.7,0.5-2.6,0.7c-10.2-1-21.5-1.7-32.3-2.5c-12.6-3.9-24.6-9.8-34-13
	c-10.2-3.4-22.2-1.5-32.8-3.3c-22.7-3.8-45.3-7.5-67.2-14.8c-17.5-5.8-41.6,3.3-59,3.3c-9.9,0-15.2-12.6-26.2-9.8
	c-13.1,3.3-26.6,2.7-39.4,8.2c-0.4,1.8-0.8,3.6-1,5.5c-60.1-12-112.2-31.8-143.4-67.8L-22,808c74.2,7.2,187.6,16,327,18
	c79.1,1.2,111.2-0.7,284-4c166.1-3.2,211.5-3,402-7c167.2-3.6,399.9-9.5,405-51c1.1-9.3-10-14-17.8-40.6c-8.4-28.8-1.8-52.4,0-75.4
	C1380.3,620.8,1413,525.3,1391.3,503.6z"/>
<path id="path117690" class="st0" d="M1029.3,390.8c-1.5,0.8,10,14.9,19.4,41.1c1.2,3.4,2.4,7,3.5,10.8c-0.9,0.7,0.5,4.9,3,11.4
	c1.6,6.9,3,14.3,4.1,22.4c2,15.3,2.9,30.7,2.7,46.2c-4.4-7-9.3-13.7-14.7-20c2.8-3.1,5-4.6,4.7-5.1s-3.2-0.1-7.2,2.2
	c-3-3.3-6-6.5-9.1-9.4c-2.3-6.5-3.9-10.2-4.7-10.1c-0.6,0.1-0.7,2-0.5,5.5c-4.9-4-10.1-7.6-15.7-10.7c-1.3-2.3-2.7-4.6-3.9-6.6
	c-14.4-24.1-23.6-39.2-25.9-38.6s2.5,15.5,12.8,37.7c-1.2-0.4-2.3-0.7-3.3-1c-1-1.9-1.9-3.8-2.9-5.5c-2.6-4.9-5.7-9.5-9.1-13.9
	c-1.5-1.9-3.2-3.5-5.1-5c-2.9-2.3-5.2-2.4-5.5-1.9c-0.2,0.2,0.8,1.8,2.1,3.9c1,1.7,1.9,3.5,2.7,5.4c1.9,4.2,3.4,7.9,5.7,14.2
	c1.5,4.1,3,8.4,4.6,13.4c0.5,1.4,0.9,2.9,1.4,4.3c0.1,0.4,0.2,0.8,0.4,1.2c0,0.1,0.1,0.3,0.1,0.3s0,0,0.1,0.3
	c4.4,12.2,9.8,27.4,15.1,43.4c-0.8,1.5-1.7,2.9-2.5,4.5c-1.3-0.8-2.6-1.8-3.8-2.6c-3.7-2.4-7.2-4.4-10.2-6c-1.7-3.1-3.5-6.2-5.3-9.1
	c0.7-4.1,1.2-7.2,2-10.3c0.4-1.6,0.8-3.1,1.3-4.7c0.8-1.9,1.3-3.2,1.1-3.4c-0.3-0.4-2.2,0-4.2,2.1c-1.3,1.4-2.4,3-3.3,4.6
	c-0.7,1.2-1.3,2.5-1.9,3.8c-1.1-1.7-2.2-3.4-3.4-5c1.2-7.6,1.4-12.5,0.3-12.7c-0.8-0.1-2.3,2.4-4.3,6.9c-5.1-7-10.5-13.8-16.3-20.3
	c-14.6-16.3-26-24.9-27.6-23.8s6.7,11.3,18.6,28.3c2.9,4.1,5.8,8.5,8.9,13.1c0.8,2.8,1.6,5.6,2.6,8.9c1.5,4.7,3.4,10.5,5.2,16.1
	c-0.7,1.8-1.2,3.2-1.9,5.2c-0.2,0.6-0.5,1.4-0.7,2.1c-1.9-4-3.8-8-5.7-11.8c-5.1-10-10.9-19.7-17.5-28.9c-2.7-3.7-5.2-7-7.8-10
	c2.5-8.2,4.7-12.8,3.9-13s-3.7,3-7.2,9.4c-2.6-2.8-5.4-5.5-8.3-7.9c-3.2-2.6-6.6-4.9-10.3-6.7c-6.4-3.1-10.6-2.9-10.8-2.3
	s2.9,2.2,7.3,5.8c2.7,2.2,5.2,4.7,7.5,7.4c3.7,4.2,7,8.7,10,13.4c-2,5.1-3.7,10.3-4.9,15.6c-2.2,9.4-3.5,19-3.8,28.6
	c-1.9-0.4-3.9-0.8-5.8-1.1c-20.8-3.1-33.1-1.3-33.3,0.3s12.7,2.8,30.7,7.7c2,0.5,4.1,1.2,6.2,1.8c-3.2,11.9-5.1,24.1-5.7,36.5
	c-1.9-7.2-4-13.8-6.2-20c0-0.2-0.1-0.3-0.2-0.4c4-3.5,6.5-5.6,5.9-6.2c-0.4-0.5-3.2,0.1-7.5,2c-4-9.8-7.5-15.4-8.9-15.1
	c-1.6,0.3-0.4,7.6,1.6,19c-5.3,3.2-10.2,6.9-14.6,11.2c-3.8-3.8-8.1-7.2-12.6-10.2c-1.1-0.7-2.2-1.4-3.2-1.9c1.1-3.5,2.2-7,3.1-9.8
	c2-6.4,3.5-11.3,4.6-16c1.8-7.7,1.9-12.3,0.5-12.5c-1.2-0.1-3.2,3.9-6.9,11c-1.9,3.7-4.8,9.6-7.3,15.2c-1.1,2.5-2.3,5.2-3.6,8.1
	c-2.4-0.6-4-0.5-4.2-0.1s0.9,1.4,3.1,3c-0.8,1.9-1.5,3.7-2.2,5.7c-1.6,4.1-2.9,8.3-4,12.6c-0.2-3.6-0.4-7.1-0.5-10.5
	c-0.8-17.7-1.4-29.8-2.8-41.1c-1.3-10.2-2.9-16.2-4.3-16.1s-2.3,6.1-3.2,16.2c-0.7,9.1-1.7,25.5-1.7,41.2c0,3.5,0,7.1,0.1,10.8
	c-4.2-9.5-9-18.8-14.1-27.9c-11.3-19.6-20.4-30.4-21.7-29.8s5.2,12.3,14.3,32.3c8.2,17.9,15.3,36.3,21.2,55.1c0,0,0,0,0-0.1
	c-7.7-12.4-16.6-23.9-26.7-34.4c-8.2-8.4-15.5-14-21.9-17.7c-6.1-3.5-10.2-4.6-10.8-3.9s2.3,3,7,7.2c6.3,5.8,12.2,12.2,17.6,18.9
	c8.7,10.8,16.6,22.3,23.7,34.2c1.3,2.2,2.7,4.4,4,6.7c-2.5-3.6-5-7.2-7.7-10.7c-4.6-6.2-9.7-12-15.1-17.5c-4.7-4.9-10.1-9-16.1-12.3
	c-2.6-1.4-5.5-2.5-8.4-3.2c-2.8-0.7-5.7-0.8-8.5-0.4c-2.8,0.4-5.4,1.4-7.8,2.9c-5.3,3.5-6.1,6.4-5.6,6.7s2.8-2,7.8-4.1
	c3.8-1.7,8.1-1.9,12-0.5c2.2,0.8,4.3,1.8,6.2,3.1c4.7,3,8.7,6.9,13.2,11.9c4.8,5.5,9.2,11.3,13.2,17.3c6.5,9.5,12.2,19.1,18.5,30.1
	c-5.9-4.9-12.1-9.2-18.8-13c-8.2-10.2-18.5-18.6-30.2-24.6c-10.6-5.4-18.3-6.5-19-5.4s5.3,4.6,13.6,10.9c3.1,2.3,6.3,5,9.6,7.9
	c-7.5-2.2-12.4-2.6-12.9-1.7c-0.7,1.3,6.3,4.6,16.5,10.4c3.4,1.9,7,4.1,10.8,6.5c1.2,1.5,2.3,3,3.5,4.5l0.2,0.2
	c7.3,10.2,13.3,21.3,18,32.9c3.7,8.8,5.9,14.6,7.6,14.4s2.7-6.2,1-16c-1-5.7-2.6-11.3-4.9-16.7l0,0c10.3,9.4,19.2,20.2,26.3,32.3
	c5.3,9,7.7,15.1,9.4,14.8c1.3-0.2,2-4,0.8-10.3l0.7-0.7c0.1,0.2,0.1,0.5,0.2,0.7c0.6,2.5,1.7,4.8,3.4,6.8c1.3,1.4,2.4,1.8,2.8,1.6
	c0.8-0.4-0.2-2.9-0.4-7.8c0.5,0.2,1.1,0.3,1.6,0.1c1-0.7-0.5-3.3-1-7.9c0-0.3,0-0.7-0.1-1.1c1.4-1.7,2.8-3.6,4.4-5.5
	c1.5,10.4,3.7,16.8,5.4,16.7s2.7-6.8,3.5-17.6c0.2-2.8,0.4-6.4,0.7-9.6c1.2-1.2,2.4-2.4,3.6-3.4c-0.1,5.6-0.1,10.7,0,14.4
	c0.2,7.7,0.8,12.6,2.6,12.8s4.2-4.4,6.2-12.1c1.5-5.8,2.6-11.8,3.2-17.8c2.5,4.3,4.8,8.4,6.9,12.1c1.1,1.9,2.2,3.7,3.2,5.4
	c0.5,2.3,1,4.4,1.4,6.4c1,4.6,1.6,7.4,2.7,7.5c0.8,0.1,1.9-1.5,2.8-4.4c1.7,1.8,3,2.7,3.7,2.5c1.7-0.6,0.6-6.3-2.4-15.2
	c-0.1-3.7-0.5-7.3-1.2-10.9c-0.6-3.4-1.5-6.8-2.5-10.2c0.5,1.3,0.9,2.7,1.3,4c1.8,5.5,3.2,11,4.4,16.7c1.5,8,1.5,13,2.6,13.2
	c0.8,0.2,2.2-1.6,3.2-5c1.7,4.8,3.2,7.5,4.1,7.3s1.2-3,1-7.9c0.5-1.3,0.9-2.6,1.1-4c3.3,9.8,6.9,15.2,8.2,15s0.3-5.4-0.8-13.7
	c0.6-2.3,1.2-5.1,1.8-8.5c0,3.3,0.3,6.7,1,9.9c1.2,5.5,3,8.3,4.1,8.2s1.4-3.2,2-8.4c0.7-5.7,1.8-11.4,3.4-17
	c2.2,3.3,4.3,6.6,6.1,9.8c1.1,2.5,2.2,5,3.4,7.5c0-10.6-2.1-20.6-4.7-30.7c0,0-0.1-0.1-0.1-0.1c1.4-3.4,3-6.9,4.9-10.5
	c2.4,11.3,5.4,22.4,9.1,33.3c3.4,9.9,6.1,15.5,7.4,15.3c0.9-0.1,1-3.2,0.5-8.2c2.1,5,4,7.7,4.9,7.5c1.4-0.3,0.3-7.2-0.9-18.3
	c1.2-2.5,2.7-5.3,4.9-9.3c0.2-0.3,0.4-0.7,0.6-1c0.1,1,0.2,2.1,0.3,3.1c2.2,16.5,5.9,26.3,7.6,26.1s1.1-10.3,1.2-26.5
	c0-2.1,0.1-4.3,0.1-6.6c2,5,3.8,9.3,5.2,12c2.4,12.8,5.5,20.6,7.1,20.5c0.2-0.1,0.4-0.2,0.5-0.4c0.4,1.5,0.8,2.3,1.3,2.3
	c2,0.1,4.5-14.3,8-36.6c1.7,8.5,3.1,14.6,4.4,14.5c2.1,0,4.2-12.3,2.8-32.3c-0.1-1.2-0.2-2.5-0.3-3.8c0.3,0.4,0.7,0.8,1,1.1
	c3.5,4.4,6,7.6,8,10.3c1.2,13.5,1.6,21.9,3.3,22c1.1,0.1,2.7-3.4,4-9.7c0.7,6,1.5,9.6,2.5,9.7c1.6,0,3.4-7.1,5.1-19.4
	c1.8-13.6,2.7-27.3,2.8-41c3.1,4,5.8,7.9,8.3,11.8c0,0.1,0,0.1,0,0.2c-0.6,12.4-0.8,24.6,1.8,37.3c0.9-3.2,1.6-6.3,2.3-9.5
	c1.4-4.3,3-8.5,4.9-12.6c3.2,6.3,5.9,12.9,8.1,19.7c2,6.1,3.1,9.7,4.4,9.7s2.8-3.7,2.9-10.4c0-4-0.4-8.1-1.2-12
	c1.4,3.8,2.8,7.1,4.1,9.8c0.7,10.1,0.9,16.3,2.4,16.5s4.5-6.8,6.1-19c0.6,1.6,1.4,3.1,2.3,4.6c1,5.8,2,9.3,3.1,9.3s2.2-3.4,3.1-9.4
	c2.1,3.9,4.1,5.8,5.1,5.5c1.2-0.4,0.1-6.3,0-16.1c0-6.8,0.4-13.7,1.2-20.5c0.2-1.6,0.4-3.3,0.6-4.9c-0.4,4.1-0.6,8.3-0.5,12.5
	c0.1,4.4,0.5,8.8,1.2,13.2c-1.4,11.1-1.3,18,0.8,18.5c1,0.2,2.3-1.1,3.8-3.5c1.7,3.3,3.4,5,4.3,4.8c1.3-0.3,1.4-3.7,1.5-9.3
	c0-2.4,0-5,0.1-7.8c0.8-2.2,1.7-4.4,2.6-6.9c1.7-4.7,3.4-9.9,5.3-15.4c2.2,7.1,4.9,14,8.1,20.7c4.3,8.9,8.4,14,10.3,13.5
	s1.6-6.4,0-15.6c-0.8-4.4-2-10.5-3.4-17.1c1.6,1.1,3.3,2.3,5.1,3.6c1,3.8,2.2,8.1,3.1,11.3c3.6,12.7,6.3,20.6,8.4,20.4
	s3.2-8.1,2.4-20.7c2.4,2.1,4.5,4,6.6,5.9c0.1,0.4,0.1,0.8,0.2,1.3c0.5,5.5-0.7,8.9,0.7,9.6c0.6,0.2,1.3,0,1.9-0.3
	c0.9,5.9,0.3,9,1.4,9.4c0.5,0.2,1.8-0.4,3-2.3c1.2-2,1.9-4.3,2.2-6.6c0.6,0.8,1.1,1.4,1.6,1.4c0.5,5.5,1.8,8.8,3.2,8.8
	c2.1,0,3.5-7.6,7.6-19.1c0.5-1.5,1.2-3.1,1.9-4.7c3.7,4.7,7,9.6,10,14.7c5.2,9,7.7,15.1,9.4,14.8c1.3-0.2,2-4,0.8-10.3
	c0.2-0.2,0.5-0.5,0.8-0.8c0,0.2,0.1,0.5,0.2,0.7c0.6,2.5,1.7,4.8,3.4,6.8c1.3,1.4,2.4,1.8,2.8,1.6c0.8-0.4-0.2-2.9-0.4-7.8
	c0.5,0.2,1.1,0.3,1.6,0.1c1-0.7-0.6-3.3-1-7.9c0-0.3,0-0.7-0.1-1.1c1.4-1.7,2.8-3.6,4.4-5.5c1.5,10.4,3.7,16.8,5.4,16.7
	s2.7-6.8,3.5-17.6c0.2-2.8,0.4-6.4,0.7-9.6c1.2-1.2,2.4-2.4,3.6-3.4c-0.1,5.6-0.1,10.7,0,14.4c0.2,7.7,0.8,12.6,2.6,12.8
	s4.2-4.4,6.2-12.1c1.5-5.8,2.6-11.8,3.2-17.8c2.5,4.3,4.8,8.4,6.9,12.1c1.1,1.9,2.2,3.7,3.3,5.4c0.5,2.3,1,4.4,1.4,6.4
	c1,4.6,1.6,7.4,2.7,7.5c0.8,0.1,1.9-1.5,2.8-4.4c1.7,1.8,3,2.7,3.7,2.5c1.7-0.6,0.6-6.3-2.4-15.2c-0.1-3.7-0.5-7.3-1.2-10.9
	c-0.6-3.4-1.5-6.8-2.5-10.2c0.4,1.3,0.9,2.7,1.3,4c1.8,5.5,3.2,11,4.4,16.7c1.5,8,1.6,13,2.7,13.2c0.8,0.2,2.2-1.6,3.2-5
	c1.7,4.8,3.2,7.5,4.1,7.3s1.2-3,1-7.9c0.5-1.3,0.9-2.6,1.1-4c3.3,9.8,6.8,15.2,8.1,14.9s0.3-5.4-0.8-13.7c0.6-2.3,1.2-5.1,1.8-8.4
	c0,3.3,0.3,6.7,1,9.9c1.2,5.5,3,8.4,4.1,8.2s1.4-3.2,2-8.4c0.7-5.7,1.8-11.4,3.4-17c2.2,3.3,4.3,6.6,6.1,9.8c1,2.5,2.2,5,3.4,7.5
	c0-10.6-2.1-20.6-4.7-30.7c0,0,0-0.1-0.1-0.1c1.4-3.4,3-6.9,4.9-10.5c2.3,11.3,5.4,22.4,9.1,33.3c3.4,9.9,6.1,15.6,7.4,15.4
	c0.9-0.1,0.9-3.2,0.5-8.2c2.1,5,4,7.7,4.9,7.5c1.4-0.3,0.3-7.2-0.9-18.3c1.2-2.5,2.7-5.3,4.9-9.3l0.6-1c0.1,1,0.2,2.1,0.3,3.1
	c2.2,16.5,5.9,26.3,7.6,26.1s1.1-10.3,1.2-26.5c0-5.7,0.2-11.9,0.6-18.5c0.6-0.9,1.2-1.8,1.8-2.7c0.3,8.4,1.1,16.8,2.5,25.1
	c2.4,13.9,5.8,22.2,7.5,22c0.2,0,0.4-0.2,0.5-0.4c0.4,1.5,0.8,2.3,1.3,2.3c2.1,0.1,4.5-14.4,8-36.8c2.1-13.1,4.6-29.5,7.8-46.8
	c2.8-3,5.5-5.9,8.4-8.5c2.6-2.5,5.4-4.9,8.4-7c8.8-6.1,16-10.4,23.6-13.5c13.9-5.8,24.3-8.2,23.9-9.4s-10.8-1.5-27.3,3.2
	c-9.7,3-19,7.3-27.6,12.9c-2,1.3-4,2.7-5.9,4.2c1.3-6.4,2.7-12.6,4.2-18.6c2-8.5,4.5-16.8,7.4-25c3-8.2,5.5-13.9,8.8-19.2
	c1.4-2.4,3.1-4.7,4.9-6.8c3-3.4,5.4-4.9,5-5.5s-3.8-0.2-8.5,3c-2.7,1.9-5.2,4.1-7.4,6.6c-4.6,5.1-8.5,11.4-12.4,19.5
	c-3.8,8.2-7,16.7-9.5,25.5c-2.7,9-5,18.5-7,28.7c-0.1,0.4-0.1,0.7-0.2,1.1c-0.3,1.8-0.7,3.6-1,5.4c-0.5,0.5-1,1.1-1.5,1.7
	c1.7-17.8,3.8-33.9,5.1-46c0.3-2.8,0.5-5.2,0.7-7.5c1.7-4.1,3.4-8,5.1-11.6c7-15.1,12.1-24.4,10.6-25.1s-9.4,7.5-18.7,22.4
	c-8.3,13.4-14.9,27.8-19.8,42.8c-2.2,1.7-4.7,3.7-7.4,6c-2,1.8-4.2,3.8-6.3,5.9c1.8-16,4.2-31.7,6-43.9c0-0.2,0.1-0.3,0-0.3
	s0-0.2,0-0.3c0-0.4,0.1-0.7,0.1-1c0.1-1.2,0.3-2.5,0.4-3.7c0.5-4.2,1-7.9,1.6-11.4c0.8-5.4,1.4-8.6,2.3-12.2
	c0.4-1.6,0.8-3.1,1.3-4.7c0.8-1.9,1.3-3.2,1.1-3.4c-0.4-0.4-2.2,0-4.2,2.1c-1.3,1.4-2.4,3-3.3,4.6c-2.1,3.9-3.9,8-5.2,12.3
	c-0.5,1.5-1,3.2-1.5,4.8c-0.8,0.3-1.7,0.7-2.6,1.2c4.7-19.2,6.1-32,4.2-32.2s-7,13.1-14.8,34.3c-0.7,1.8-1.4,3.8-2.1,5.9
	c-4,3.1-7.7,6.6-11.1,10.4c-0.4-2.9-0.8-4.4-1.3-4.4c-0.7,0-1.4,3.2-2.2,8.8c-6.8,8.9-12.2,18.8-16.2,29.2
	c-2.7-12.6-4.5-25.3-5.4-38.1c-0.4-6.7-0.5-12.9-0.3-18.7c0.9-5.6,1.4-9.2,0.5-9.6c0.3-3.2,0.6-6.2,1.1-9.2
	c3.3-22.5,10.4-35.2,9.1-35.7s-11.2,11.7-16.8,34.7c-2.1,8.8-3.3,17.7-3.7,26.7c-0.5-0.3-0.9-0.6-1.5-0.9c-3.1-1.5-6.5-2.3-10-2.3
	c-3.4,0-6.8,0.6-10,1.8c-3.3,1.2-6.4,2.9-9.2,5c-6.2,4.5-11.3,10.2-16.2,17c-1.5,2-2.9,4.1-4.2,6.3c-0.9-0.5-1.7-1.1-2.6-1.5
	c0.5-1.5,0.8-2.8,1.3-4.2c2.7-5.7,5.4-11.2,8.3-16.4c4.8-8.8,10.2-17.2,16.4-25.1c4.5-5.8,7.4-9,6.6-9.7s-5.5,1.2-11.9,6.3
	c-4.3,3.4-8.3,7.3-11.8,11.4c-0.2-0.4-0.3-0.6-0.6-0.6c-0.9-0.1-2.7,3-5.1,7.6c-1.4,1.9-2.9,3.8-4.3,5.9
	c-4.6,6.6-8.7,13.5-12.5,20.7c0,0-0.1,0-0.1,0.1s0,0.1,0,0.2c-1.3,2.5-2.6,5.2-3.8,7.8c-0.4-9-0.8-16.9-1.3-23.7
	c1.9-10.4,4-20.1,6.1-28.8c6.1-25.1,11-40.1,9.3-40.5s-10,13.8-18.7,38.8c-0.2,0.7-0.5,1.5-0.7,2.2c-0.5-1.5-1.1-2.5-1.6-2.5
	c-1.4,0-2.3,6.1-3.1,16.2c0,0.4-0.1,1.2-0.1,1.6c-1.6,5.6-3.2,11.5-4.6,17.7c-0.8-4.4-1.6-8.8-2.4-12.9c-3.8-18.6-8.8-38-11.9-48.8
	c-3.4-12-6-19-7.7-18.9s-2.2,7.5-1.2,19.8c1,13.7,3.3,28.2,6.5,49.4c0.4,2.8,0.9,5.9,1.3,8.9c-3.1-5-5.9-9.1-8.3-12.5
	c-1-1.5-1.9-3.1-2.9-4.6c2.2-2.2,3.4-3.4,2.9-4s-2.2-0.3-5,0.7c-2.1-3.2-4.2-6.3-6.2-9.1c-4.4-6.3-9.3-12.9-12.4-17.1
	c-6-8-9.4-12.5-10.8-12.1c-1.6,0.4-0.4,5.9,3.7,14.8c2.4,5.4,5.3,11,9.3,18.4c1.7,3.2,3.9,7.2,6,11.2c-1.1,0.9-2.2,1.8-3.4,2.8
	c-4.7,4.2-8.9,8.9-12.5,14c-6.3-4.4-13.1-8.1-20.1-11.1c-0.3-13.9-0.6-22.6-2.6-22.8c-1.8-0.2-4.6,7.1-7,19.4
	c-5.6-1.6-9.1-1.8-9.4-1.2c-0.5,0.9,2.9,2.9,8.5,6.5c0,0.2-0.1,0.3-0.1,0.5c-1.2,7.7-2,15.8-2.6,24.7c-4-16.2-9.9-31.8-17.4-46.7
	c-0.8-1.6-1.6-3-2.4-4.4c-2.7-12.1-6.7-23.8-11.8-35.1c-12.2-26.6-26.8-39.6-28.3-38.9L1029.3,390.8z M931.5,460.4L931.5,460.4z
	 M997.9,473.6c1.2,0.8,2.6,1.6,3.9,2.5c4.5,9.5,9.8,21,13.9,32.4c-0.6,0.8-1.2,1.5-1.8,2.4c-4.4-11.4-9-21.9-13.2-31
	c0.1,0.2,0.1,0.2,0,0.1l-0.1-0.3l-0.5-1.2c-0.6-1.5-1.3-2.9-1.9-4.4C998,473.9,998,473.7,997.9,473.6L997.9,473.6z M924.1,486.7
	c0.2,0.4,0.4,0.7,0.6,1c5.1,8.6,9.7,17.8,14.8,28.6c2.9,6.3,5.8,12.9,8.7,19.7l-0.9,1c-0.5-0.2-1-0.5-1.5-0.7
	c-0.3-1.5-0.6-2.5-1-2.5s-0.5,0.6-0.8,1.6c-1-0.5-2-1.1-3.1-1.6c-6.6-2.9-13.3-5.5-20.2-7.5c-0.1-3.9-0.1-7.8,0-11.4
	c0.9-5.6,1.4-9.1,0.5-9.6c0.3-3.2,0.6-6.2,1-9.2C922.8,492.7,923.4,489.6,924.1,486.7L924.1,486.7z M1142.1,490.2l0.4,0.8
	c2.9,5.4,5.4,11,7.6,16.8c2.7,7.5,5.4,15.4,7.8,23.6c0.2,0.6,0.3,1.2,0.5,1.8c-1.7-1.8-3.3-3.7-5-5.4c-2.1-2.1-4.1-4.1-6.1-5.9
	c-1.5-1.7-3.1-3.4-4.7-5c0.5-2.5,0.5-4.1-0.3-4.3c-0.6-0.2-1.5,0.3-2.8,1.3c-2.7-2.6-5.4-4.9-8.1-7.2
	C1134.6,500.9,1138.2,495.3,1142.1,490.2L1142.1,490.2z M1254.4,491.2c1.9,0,3.8,0.3,5.6,0.8c1.2,0.3,2.3,0.7,3.3,1.1
	c-0.4,1.1-0.8,2.2-1.1,3.5c-2,7-3.6,14.1-4.6,21.3c-2,1.1-4.2,2.4-6.4,3.9c-0.6-1.7-1.1-3.5-1.7-5.1c-0.1-0.2-0.1-0.3-0.2-0.4
	c4-3.5,6.5-5.6,5.9-6.2c-0.4-0.5-3.2,0.1-7.5,2c-3.2-8-6.2-13.2-7.9-14.6c1.8-1.6,3.8-2.9,5.9-4c2.1-1.1,4.4-1.7,6.7-2
	C1253,491.2,1253.7,491.2,1254.4,491.2L1254.4,491.2z M1323.4,492.5L1323.4,492.5c0,0.2-0.1,0.3-0.1,0.5c-0.3,1.2-0.6,2.5-0.8,3.8
	c-0.1,0.4-0.2,0.7-0.2,1.1c0,0.1,0,0.2-0.1,0.3s0,0.1,0-0.1c-2.4,9.4-4.8,20.4-6.7,32.4c-0.7,0.2-1.3,0.4-1.9,0.7
	c0.2-1.5,0.3-3,0.5-4.5c1.3-10.9,4.2-22.4,6.6-31.6C1321.6,494.1,1322.5,493.3,1323.4,492.5L1323.4,492.5z M1025.9,496.5
	c2.4,2.7,4.9,5.5,7.2,8.5c0.2,1.2,0.7,3,0.9,4.3c-0.7,0.8-1.3,1.6-2,2.5c-0.2-0.7-0.4-1.4-0.7-2.1
	C1029.8,505.2,1028,500.8,1025.9,496.5L1025.9,496.5z M1102.5,497.7c3.8,2.7,7.9,5.8,12.1,9.4c0.6,0.5,1.2,1.1,1.8,1.6
	c-0.2,0.4-0.4,0.7-0.7,1.1c-3.8-4.5-6.7-6.9-7.8-6.4c-1.5,0.6,0.2,5.9,3.5,14.2c-3.2,6.1-6,12.4-8.4,18.8
	C1103,521.7,1102.7,506.5,1102.5,497.7L1102.5,497.7z M1238,498.7c-0.1,2.9,0.8,8.8,2.3,17c-5.3,3.2-10.2,7-14.6,11.2
	c-1.5-1.5-3-2.8-4.5-4c1.6-3.1,3.2-6,5-8.9C1230.1,507.8,1233.6,502.9,1238,498.7L1238,498.7z M1304.2,514.2
	c-0.9,3.7-1.7,7.5-2.3,11.4c-0.8,5-1.2,10.1-1.5,15.2c-0.3,0.3-0.6,0.5-0.9,0.8c0.1-7.6,0.2-14.1,0.2-19.8
	C1301.1,519.2,1302.6,516.7,1304.2,514.2L1304.2,514.2z M1018.5,516.8l0.4,1.2c-0.3-0.1-0.6-0.1-0.9-0.2L1018.5,516.8z M1126,517.8
	c1.8,1.9,3.7,3.9,5.5,5.9c-1,1.4-2,3-3,4.7c-1.4-2.4-2.8-4.7-4.1-6.8C1124.9,520.4,1125.5,519.1,1126,517.8L1126,517.8z
	 M1036.4,520.4c0.6,2.8,1,5,1.7,8c-0.4-0.3-0.8-0.6-1.3-0.9c-0.4-1.7-0.9-3.3-1.4-4.9C1035.8,521.9,1036.1,521.2,1036.4,520.4
	L1036.4,520.4z M1208,521c0.3,0.3,0.7,0.7,1,1c-0.9,1.5-1.8,3.2-2.6,4.8c0.5-1.7,0.9-3.5,1.4-5.1L1208,521z M1018.3,523
	c0.8,0.7,1.6,1.6,2.6,2.4c0.4,1.5,0.7,3.1,1.1,4.7c-0.2,0.5-0.5,1.1-0.7,1.6C1020.4,528.7,1019.4,525.8,1018.3,523L1018.3,523z
	 M1241.6,523.2c0.2,1.1,0.7,3.6,0.9,5c-1.2,1-2.5,2.1-3.7,3.3c0.1-1.8-0.1-2.9-0.7-3c-1-0.2-3,1.9-5.4,6c-0.2-0.3-0.5-0.6-0.7-0.8
	c0.4-0.5,0.8-1,1.2-1.5C1236.2,528.7,1239,525.7,1241.6,523.2L1241.6,523.2z M1076.1,524.4c1.2,5.7,2.3,11.7,3.3,18.1l0.3,1.9
	c0.4,2.5,0.7,5,1.1,7.5c-1.5-0.2-3-0.3-4.6-0.2c-0.2-0.6-0.4-1.1-0.6-1.7C1076.1,541.1,1076.2,532.6,1076.1,524.4L1076.1,524.4z
	 M1046.8,524.7c4.3,7.2,8.2,14.7,11.6,22.4c-1-1.2-2.1-2.4-3.1-3.5c-1.3-1.4-2.7-2.8-4-4.1C1049.8,534.3,1048.3,529.3,1046.8,524.7
	L1046.8,524.7z M1256.2,529.5c-0.2,2.3-0.4,4.7-0.6,7.1c-0.5-1.7-0.9-3.3-1.4-4.9C1254.9,530.9,1255.5,530.1,1256.2,529.5
	L1256.2,529.5z M1217.3,531c0.7,0.9,1.4,1.6,2.1,2.5c-1.9,2.1-3.7,4.3-5.4,6.7c-0.3-0.2-0.5-0.2-0.7-0.3c0.4-1,0.9-2.1,1.3-3.2
	C1215.5,534.6,1216.4,532.8,1217.3,531z M1138.1,531.7c0.5,0.7,1,1.3,1.5,2c1.3,1.7,2.6,3.5,3.9,5.3c-2-1.6-4.2-3.2-6.4-4.5
	c0.2-0.6,0.5-1.3,0.7-1.9C1137.9,532.2,1138,532,1138.1,531.7L1138.1,531.7z M966.5,533.5c0.5,1.4,0.9,2.9,1.4,4.3
	c-0.4,1.6-0.7,3.1-1.1,4.8c-0.5-1.2-1.1-2.4-1.6-3.7C965.6,537,966.1,535.2,966.5,533.5L966.5,533.5z M1314.8,535.1
	c-0.7,4.9-1.3,10-1.8,15.1c-0.1,0.8-0.1,1.6-0.2,2.5c0-1.6-0.1-3.3-0.1-4.9c0-3.5,0.2-7,0.4-10.3L1314.8,535.1z M1118.7,535.9
	c0.7,1.9,1.5,3.9,2.2,5.9c-0.5,1-1,2-1.6,3.1c-0.3-0.1-0.7-0.2-0.9-0.2c-0.6-1.1-1.2-2.1-1.8-3
	C1117.4,539.7,1118.1,537.8,1118.7,535.9L1118.7,535.9z M921.4,537.3c4,1.7,8,3.6,12.5,5.8c2,1,4,2.2,6,3.4
	c-5.4,7.8-9.9,16.3-13.4,25.2C924.1,560.3,922.4,548.8,921.4,537.3z M996.1,539.4l0.7,0.7c-0.1,0.2-0.1,0.3-0.2,0.5
	C996.4,540.2,996.2,539.8,996.1,539.4L996.1,539.4z M1291.8,539.4c-0.4,4-0.8,8.3-1.2,12.6c-0.9,1.2-1.8,2.5-2.7,3.8
	c-0.7,1-1.3,2.1-2,3.2C1287.5,552.3,1289.4,545.8,1291.8,539.4L1291.8,539.4z M1135.1,541.1c2.9,2.5,5.6,5.2,8.1,8.1l0.2,0.2
	c-1.2,0.7-2.3,1.5-3.5,2.3C1138.3,548,1136.7,544.5,1135.1,541.1L1135.1,541.1z M1225.8,542c0.5,0.7,1,1.5,1.5,2.2
	c-1.2,1.6-2.4,3.2-3.5,4.9c-0.5-0.6-1-1.2-1.6-1.7C1223.4,545.5,1224.6,543.7,1225.8,542z M1267.7,542.1c1.3,6.8,2.8,13.8,4.6,21
	c-0.9,4.6-1.5,9.1-1.9,13.5c-0.3,2.7-0.4,5.4-0.6,8c-0.8-8.4-1.5-17.1-1.8-25.8l-0.1-1.6C1267.8,552,1267.7,547,1267.7,542.1
	L1267.7,542.1z M1211.9,542.9L1211.9,542.9L1211.9,542.9L1211.9,542.9L1211.9,542.9z M1040.6,545.4c0.5,0.6,1,1.2,1.5,1.8
	c0.8,4,1.6,7.9,2.4,12.1c-0.7,0.3-1.3,0.5-2,0.9C1042,555.4,1041.4,550.5,1040.6,545.4L1040.6,545.4z M1335.8,546.3
	c-0.3,1.2-0.6,2.5-0.9,3.7c-3.2,14.2-4.7,28.7-4.7,43.2c-2.3,4.1-4.2,8-5.9,11.7c-0.7-11.7-0.8-23.5-0.2-35.2c0.1-3,0.3-6.1,0.6-9.2
	C1328.5,555.3,1332.3,550.6,1335.8,546.3L1335.8,546.3z M1246.6,549.5c0.4,2.1,0.6,3.4,1,5.5c-0.9-1.5-1.8-2.8-2.7-4.2l0,0
	L1246.6,549.5L1246.6,549.5z M1008.6,550.8c1.4,1.3,2.7,2.5,4.1,3.9c0.1,0.4,0.2,0.8,0.3,1.2c-1.6,5.6-3,11.5-4.3,17.5
	c-0.6-2.1-1.3-4.2-1.9-6.3C1007.5,561.1,1008,555.9,1008.6,550.8L1008.6,550.8z M948.3,552.2c0.6,0.4,1.2,0.8,1.8,1.3
	c-0.3,1.5-0.6,3-0.8,4.5c-0.7,4.9-1.2,10-1.5,15.2l-0.9,0.8c0.1-7.6,0.2-14.1,0.2-19.8C947.5,553.5,947.9,552.9,948.3,552.2
	L948.3,552.2z M1081,553.3c1,7.4,1.9,14.7,2.7,21.9c-0.8-3.1-1.6-6.2-2.6-9.4c-1.1-3.6-2.4-7.3-3.7-11
	C1078.9,554.2,1080.3,553.7,1081,553.3z M855.4,553.3c4.1,3.9,7.9,8,11.3,12.5c-1.9,2.1-3.7,4.3-5.4,6.7c-1.2-0.7-2-1-2.5-0.8
	c-0.6,0.3-0.4,1.6,0.5,3.6c-2.2,3.1-4.2,6.3-6,9.6c-1.6,2.9-3.1,5.9-4.5,9c0.1-1.7,0.2-3.4,0.4-5.2c0.6-7,1.5-13.7,2.5-20.2
	c0.9-4.9,2-9.7,3.5-14.5C855.2,553.8,855.3,553.6,855.4,553.3L855.4,553.3z M1218.2,554.6l0.4,0.7l0.7,1.2l-0.3,0.5
	c-1.1,0.9-2.3,1.8-3.4,2.8c0.6-1.2,1.1-2.3,1.7-3.4C1217.6,555.7,1217.9,555.2,1218.2,554.6L1218.2,554.6z M889,555.5
	c1.3,7.2,3.6,19.6,5.9,31.8c-3-5-6.4-9.9-10-14.6c1.3-7.2,1.9-11.7,0.5-12c-1-0.2-3,1.9-5.4,6l-0.7-0.8c0.4-0.5,0.8-1,1.2-1.5
	C883.6,561.1,886.4,558.1,889,555.5L889,555.5z M1140,552c2.6,3.3,13.7,10.6,16.3,14.5c4,5.8,7.6,11.7,11.3,17.8
	c-0.1,2.3-0.2,4.4-0.3,6.5c-1.9-1.3-3.8-2.6-5.7-3.8c-0.2-0.3-0.4-0.7-0.6-1l-0.4-0.6c-4.7-7.9-10.3-15.3-16.6-22.1l-0.5-1.5
	C1145.4,559.5,1138.4,553.8,1140,552z M1300.3,555.8c0.2,6.1,0.8,12,1.5,17.6c-0.6,1-1.3,2-1.9,3c-0.3,0.5-0.6,0.9-0.8,1.4
	c0,0.1-0.1,0.1-0.1,0.2c0.1-3.6,0.3-7,0.4-10.3c-0.1-3.6,0-6.9,0-10.3L1300.3,555.8L1300.3,555.8z M1111.8,558.1l0.4,0.3
	c0.1,0.9,0.2,1.7,0.3,2.7c-1.8,4.7-3.4,9.6-4.8,14.7l0,0c-0.8,2.9-1.5,5.7-2.1,8.4C1107.2,576.1,1109.2,567.4,1111.8,558.1
	L1111.8,558.1z M1236,558.2c0.5,0.8,0.9,1.6,1.4,2.4c-0.3,0.8-0.6,1.6-0.9,2.6c-0.2,0.1-0.5,0.2-0.7,0.3c-0.6-0.8-1.2-1.6-1.8-2.4
	c0.1-0.4,0.2-0.9,0.2-1.3C1234.8,559.2,1235.3,558.8,1236,558.2L1236,558.2z M1046.5,567.7c0.3,1.4,0.7,2.6,1,4l-0.2-0.2l-1.3-1.5
	c-0.4-0.4-0.8-0.9-1.1-1.3C1045.4,568.4,1046,568,1046.5,567.7z M961.3,568.7c0.2,0.5,0.4,1,0.5,1.5c-0.6,4.1-1.1,8.2-1.5,12.4
	c-0.1,0.8-0.1,1.6-0.2,2.5c0-1.6-0.1-3.3-0.1-4.9c0-3.5,0.2-7,0.3-10.3L961.3,568.7z M939.1,571.8c-0.4,4-0.8,8.3-1.2,12.6
	c-0.9,1.2-1.8,2.5-2.7,3.8c-0.7,1-1.3,2.1-2,3.2C934.8,584.7,936.8,578.2,939.1,571.8L939.1,571.8z M1243.8,572.8L1243.8,572.8
	c3.8,7.7,7,14.8,9.7,21.5c-1-2.2-2-4.4-3.1-6.7l0,0c-2-4-4.2-7.9-6.4-11.6C1244,574.9,1243.9,573.9,1243.8,572.8L1243.8,572.8z
	 M1058.4,573.4c0.1,0.1,0.1,0.2,0.2,0.4s0,0.3-0.1,0.4C1058.5,573.9,1058.4,573.6,1058.4,573.4L1058.4,573.4z M873.1,574.4
	c0.7,1,1.3,2,2,3c-0.8,1.9-1.5,3.9-2.2,6c-1.1-1.3-2.2-2.4-3.3-3.5C870.8,577.9,872,576.1,873.1,574.4L873.1,574.4z M915.1,574.5
	c1.3,6.8,2.8,13.8,4.6,21c-0.9,4.6-1.5,9.1-1.9,13.5c-0.3,2.7-0.5,5.4-0.6,8c-0.8-8.4-1.5-17.1-1.8-25.8l-0.1-1.6
	C915.2,584.4,915.1,579.4,915.1,574.5L915.1,574.5z M1231.8,577.9l1.1,2.1c-0.4-0.4-0.8-0.8-1.3-1.1l-0.2-0.2
	C1231.5,578.4,1231.6,578.2,1231.8,577.9L1231.8,577.9z M1132.4,580.3l1.5,0.8l0.5,0.3c1.4,4.7,2.8,9.4,4,13.8
	c-1.3-0.4-2.6-0.8-3.8-1.1h-0.1c-0.5-2-1-4.1-1.5-6.1s-1-4-1.5-6C1131.8,581.5,1132.1,580.9,1132.4,580.3L1132.4,580.3z
	 M1290.4,580.5c0,0.2,0,0.4,0.1,0.7c0-0.1-0.1-0.2-0.1-0.3S1290.3,580.6,1290.4,580.5z M865.6,586.9c0.1,0.2,0.2,0.4,0.4,0.7
	l3.7,6.3c-0.8,3-1.5,6.3-2.2,9.6c-2.1-1.1-4.3-2-6.6-2.8c-0.5-0.2-1.1-0.3-1.6-0.5c1.7-4,3.4-7.8,5.3-11.5
	C864.9,588.1,865.3,587.5,865.6,586.9L865.6,586.9z M1208.1,587c-1.4,6.8-2,13.7-1.8,20.6c0,0,0,0,0,0.1c-0.3,1.2-0.7,2.5-1,3.7
	c-0.9-3.9-2.1-8.4-3.3-13.3c0.4-1.5,0.9-3.1,1.3-4.6C1204.8,591.3,1206.3,589.2,1208.1,587L1208.1,587z M1020.6,588.1
	c1.3,7,2.4,13.4,3.2,19.4c-2.1-3.1-4.5-6.3-7.1-9.5c0.4-2.4,0.8-4.6,1.2-7.1C1018.8,589.9,1019.7,589,1020.6,588.1L1020.6,588.1z
	 M947.7,588.1c0.2,6.1,0.8,12,1.5,17.6c-0.6,1-1.2,2-1.9,3.1c-0.3,0.5-0.5,0.9-0.8,1.4l-0.1,0.2c0.1-3.6,0.2-7,0.4-10.3
	c-0.1-3.6,0-7,0-10.3L947.7,588.1z M882.2,588.4c0.9,1.5,1.7,3,2.6,4.5c-0.4,0.9-0.7,1.7-1,2.6c-0.2,0.1-0.5,0.2-0.7,0.3
	c-0.6-0.8-1.2-1.6-1.8-2.4C881.5,591.7,881.8,590,882.2,588.4L882.2,588.4z M1229.8,592.2c0.7,1,1.4,1.9,2.2,3
	c-0.1,1.7-0.2,3.3-0.3,5s-0.1,3.4-0.2,5.2l0,0c-1,0.4-1.9,0.8-2.9,1.3C1228.8,602.1,1229.2,597.3,1229.8,592.2L1229.8,592.2z
	 M971.9,596.6c2.1,5.8,4.3,11.7,6.2,16.8c-0.2,4.2-0.4,8.3-0.4,12.2c-2.3,4.1-4.2,8-5.9,11.7c-0.7-11.7-0.8-23.5-0.2-35.2
	C971.6,600.3,971.7,598.5,971.9,596.6L971.9,596.6z M1067.8,600.2l1.7,5.6c-0.6-1.4-1.3-2.8-2-4.3L1067.8,600.2z M1287.1,603.4
	c0.2,0.3,0.3,0.7,0.5,1.1c-0.3,1.2-0.7,2.5-0.9,3.7C1286.8,606.7,1286.9,605.1,1287.1,603.4L1287.1,603.4z M857.5,604.9
	c3,2.2,5.8,4.6,8.5,7.2c-0.1,0.4-0.1,0.9-0.2,1.3c-4,6.2-7.4,12.8-9.9,19.8l-0.2,0.6c-1.2,3.2-2.2,6.6-3,9.9
	c-0.9-3.9-2.1-8.4-3.3-13.3C851.6,621.8,854.3,613.3,857.5,604.9L857.5,604.9z M891.2,605.2L891.2,605.2c3.8,7.7,7,14.8,9.7,21.5
	c-1-2.2-2-4.4-3.1-6.7l0,0c-2-4-4.2-7.9-6.4-11.6C891.4,607.3,891.3,606.2,891.2,605.2L891.2,605.2z M879.1,610.3
	c0.4,0.7,0.8,1.4,1.1,2.1c-0.4-0.4-0.8-0.8-1.3-1.1l-0.2-0.2C878.8,610.8,879,610.5,879.1,610.3L879.1,610.3z M937.8,612.9
	c0,0.2,0,0.5,0.1,0.7c0-0.1-0.1-0.2-0.1-0.3S937.7,613,937.8,612.9L937.8,612.9z M877.1,624.6c0.7,1,1.5,1.9,2.2,3
	c-0.1,1.7-0.2,3.3-0.3,5s-0.1,3.4-0.2,5.2h-0.1c-0.9,0.4-1.9,0.8-2.9,1.3C876.2,634.5,876.6,629.7,877.1,624.6z M934.5,635.8
	l0.5,1.1c-0.3,1.2-0.7,2.5-0.9,3.7C934.2,639,934.3,637.5,934.5,635.8L934.5,635.8z"/>
<path id="path115081" class="st0" d="M291.3,385.5c-1.6,0.4,5.8,17,8.1,44.7c0.3,3.6,0.5,7.4,0.6,11.3c-1,0.4-0.8,4.8-0.1,11.8
	c-0.2,7.1-0.8,14.6-1.8,22.7c-2,15.3-5.1,30.4-9.3,45.3c-2.4-7.9-5.4-15.7-9-23.1c3.5-2.2,6-3.1,5.8-3.8s-3-1-7.5,0.3
	c-2-3.9-4.1-7.8-6.3-11.4c-0.5-6.9-1.1-10.9-1.9-11c-0.6-0.1-1.2,1.8-1.9,5.2c-3.7-5.2-7.8-10-12.3-14.4c-0.7-2.6-1.4-5.1-2-7.4
	c-7.6-27-12.6-44-15-44c-2.2,0-1.5,15.6,2.6,39.7c-1-0.7-2-1.3-3-1.9c-0.4-2.1-0.9-4.2-1.4-6.1c-1.2-5.4-3-10.7-5.2-15.8
	c-1-2.2-2.2-4.3-3.6-6.2c-2.2-2.9-4.3-3.7-4.8-3.3c-0.2,0.2,0.3,1.9,1,4.3c0.5,1.9,0.9,3.9,1.2,5.9c0.8,4.5,1.2,8.5,1.9,15.2
	c0.4,4.4,0.7,8.9,1,14.1c0.1,1.5,0.1,3,0.2,4.5c0,0.4,0,0.8,0.1,1.3c0,0.1,0,0.3,0,0.3s0,0,0,0.3c1.1,12.9,2.4,29.1,3.3,45.9
	c-1.2,1.2-2.4,2.3-3.6,3.6c-1-1.2-2-2.4-3-3.5c-3-3.2-5.8-6.1-8.3-8.5c-0.9-3.5-1.8-6.9-2.7-10.2c1.7-3.8,3-6.6,4.6-9.4
	c0.8-1.4,1.6-2.8,2.5-4.2c1.2-1.6,2.1-2.8,1.9-3c-0.2-0.5-2.1-0.6-4.6,1c-1.6,1-3.1,2.2-4.4,3.6c-0.9,0.9-1.9,2.1-2.8,3.2
	c-0.6-2-1.3-3.8-2-5.7c3.1-7.1,4.6-11.8,3.6-12.2c-0.8-0.3-2.9,1.8-5.9,5.5c-3.1-8.1-6.6-16.1-10.5-23.9
	c-9.8-19.5-18.6-30.7-20.5-30.1s3.5,12.6,10.6,32.2c1.7,4.7,3.4,9.7,5.2,15c0.1,2.9,0.1,5.8,0.2,9.2c0.2,4.9,0.5,11,0.8,16.9
	c-1.1,1.5-2,2.8-3.2,4.5c-0.4,0.6-0.8,1.2-1.2,1.8c-0.8-4.3-1.6-8.7-2.5-12.8c-2.3-11-5.5-21.9-9.4-32.4c-1.6-4.3-3.3-8.1-5-11.6
	c4.6-7.2,7.8-11.1,7.1-11.6s-4.4,1.9-9.4,7.2c-1.8-3.3-3.8-6.6-6-9.7c-2.4-3.4-5.2-6.5-8.3-9.2c-5.4-4.6-9.5-5.5-9.9-5
	s2.2,2.9,5.6,7.5c2,2.9,3.8,5.9,5.4,9c2.5,5,4.5,10.2,6.2,15.5c-3.3,4.4-6.2,9-8.8,13.8c-4.6,8.5-8.3,17.4-11.1,26.7
	c-1.8-0.9-3.5-1.8-5.3-2.6c-19.3-8.4-31.6-9.8-32.2-8.3s11.6,6,27.7,15.3c1.8,1.1,3.7,2.2,5.5,3.4c-6.2,10.7-11.2,22.1-14.9,33.8
	c0-7.5-0.2-14.4-0.8-20.9c0-0.2,0-0.3,0-0.5c4.8-2.4,7.7-3.7,7.3-4.5c-0.3-0.5-3.1-0.8-7.8,0c-1.3-10.5-3.2-16.9-4.7-16.9
	c-1.6-0.1-2.4,7.2-3.3,18.7c-5.9,1.7-11.6,4.1-17,7c-2.7-4.7-5.9-9-9.5-13c-0.9-1-1.8-1.9-2.6-2.7c2-3.1,3.9-6.2,5.5-8.7
	c3.6-5.7,6.3-10.1,8.5-14.3c3.8-7,5-11.4,3.8-11.9c-1.1-0.5-4.1,2.9-9.5,8.9c-2.8,3.1-7.1,8-11,12.8c-1.7,2.1-3.6,4.4-5.5,6.9
	c-2.2-1.2-3.8-1.5-4.1-1.2s0.6,1.6,2.2,3.6c-1.2,1.6-2.4,3.2-3.6,4.9c-2.6,3.6-4.9,7.3-7.1,11.1c0.7-3.5,1.5-7,2.2-10.2
	c3.8-17.3,6.4-29.2,7.9-40.4c1.4-10.2,1.4-16.4,0-16.7s-3.8,5.3-7.2,14.9c-3.1,8.6-8.2,24.2-12.3,39.3c-0.9,3.4-1.8,6.9-2.7,10.5
	c-1.6-10.3-3.8-20.5-6.5-30.6c-5.8-21.8-11.8-34.6-13.3-34.5s1.8,13.2,5.5,34.8c3.3,19.4,5.4,39,6.2,58.7c0,0,0,0,0-0.1
	c-4.2-14-9.9-27.4-16.9-40.2c-5.8-10.3-11.3-17.5-16.6-22.8c-5-5-8.7-7.1-9.4-6.6s1.5,3.5,4.9,8.8c4.6,7.3,8.6,14.9,12.1,22.8
	c5.6,12.7,10.3,25.8,14.1,39.2c0.7,2.5,1.4,5,2.1,7.5c-1.5-4.2-3-8.3-4.6-12.3c-2.8-7.2-6.2-14.1-10.1-20.8
	c-3.3-5.9-7.4-11.3-12.3-16c-2.2-2.1-4.6-3.8-7.3-5.2c-2.5-1.4-5.3-2.2-8.1-2.6c-2.8-0.3-5.6,0-8.3,0.8c-6,2-7.6,4.5-7.1,5
	s3.2-1.2,8.6-1.9c2.1-0.3,4.2-0.2,6.3,0.2c1.9,0.5,3.8,1.3,5.4,2.4c1.9,1.3,3.7,2.9,5.2,4.6c3.8,4.1,6.6,8.9,9.6,14.9
	c3.2,6.5,5.9,13.3,8.3,20.2c3.8,10.9,6.8,21.6,10.1,33.9c-4.4-6.2-9.3-12-14.8-17.4c-5.3-12-13-22.8-22.8-31.6c-8.9-8-16-11-17-10.2
	s3.9,5.9,10.3,14.1c2.4,3.1,4.9,6.5,7.2,10.2c-6.7-4.1-11.3-5.7-12-4.9c-1,1,4.9,6,13.3,14.4c2.8,2.7,5.7,5.8,8.7,9.1
	c0.7,1.7,1.5,3.5,2.2,5.3l0.1,0.2c4.4,11.8,7.4,24,8.9,36.5c1.3,9.5,1.9,15.6,3.6,15.9s4.2-5.3,5.1-15.2c0.5-5.8,0.4-11.6-0.4-17.4
	l0,0c7.6,11.7,13.3,24.5,17,38c2.8,10,3.5,16.5,5.2,16.8c1.3,0.2,3-3.4,3.4-9.8l0.9-0.5v0.7c-0.1,2.5,0.4,5.1,1.5,7.4
	c0.9,1.7,1.9,2.4,2.3,2.3c0.9-0.2,0.6-2.8,1.6-7.7c0.4,0.4,1,0.5,1.5,0.5c1.2-0.5,0.3-3.4,1.1-7.9c0.1-0.3,0.1-0.7,0.2-1
	c1.8-1.3,3.6-2.7,5.7-4.2c-1.3,10.4-0.8,17.2,0.9,17.5s4.3-5.9,7.9-16.1c0.9-2.7,2.1-6.1,3.1-9.1c1.5-0.9,3-1.7,4.3-2.4
	c-1.5,5.4-2.8,10.3-3.7,13.9c-1.8,7.5-2.4,12.4-0.8,13s5.2-3.1,9.2-10.1c3-5.3,5.5-10.7,7.7-16.4c1.3,4.8,2.4,9.3,3.5,13.4
	c0.6,2.2,1.2,4.1,1.8,6c-0.1,2.3-0.2,4.5-0.3,6.5c-0.3,4.7-0.4,7.6,0.7,8c0.8,0.3,2.2-1,3.8-3.5c1.1,2.2,2.2,3.4,3,3.3
	c1.8-0.1,2.2-5.9,1.6-15.3c0.8-3.6,1.4-7.2,1.7-10.8c0.3-3.5,0.3-7,0.2-10.5c0.1,1.4,0.2,2.8,0.2,4.2c0.3,5.7,0.3,11.5-0.1,17.2
	c-0.6,8.1-1.9,13-0.9,13.4c0.8,0.4,2.6-1,4.4-4c0.4,5.1,1.2,8,2.1,8.2s1.9-2.6,3-7.4c0.8-1.1,1.5-2.3,2.1-3.6
	c0.6,10.3,2.7,16.5,4,16.5s1.7-5.1,2.8-13.5c1.2-2.1,2.5-4.7,3.9-7.7c-0.9,3.2-1.4,6.5-1.6,9.8c-0.3,5.6,0.7,8.8,1.8,9
	s2.2-2.8,4.1-7.6c2.2-5.4,4.7-10.6,7.7-15.5c1.3,3.8,2.5,7.5,3.3,11.1c0.4,2.7,0.8,5.4,1.4,8.2c2.8-10.3,3.3-20.5,3.4-30.9
	c0,0,0-0.1,0-0.2c2.2-2.9,4.7-5.9,7.4-8.9c-0.6,11.5-0.6,23,0.2,34.5c0.7,10.5,1.9,16.6,3.2,16.7c0.9,0.1,1.7-2.8,2.6-7.8
	c0.8,5.4,1.9,8.5,2.8,8.5c1.4,0.1,2.2-6.8,3.9-18c1.8-2.1,4-4.4,7.1-7.7c0.3-0.3,0.6-0.5,0.8-0.8c-0.1,1-0.3,2.1-0.5,3.1
	c-2.2,16.5-1.1,27,0.6,27.2s3.7-9.7,8-25.3c0.6-2,1.2-4.2,1.8-6.3c0.6,5.3,1.2,10,1.9,12.9c-1,13,0,21.4,1.6,21.6
	c0.2,0,0.4-0.1,0.6-0.2c0,1.5,0.2,2.5,0.6,2.6c2,0.6,8-12.7,17.2-33.3c-0.6,8.6-0.8,14.9,0.5,15.2c2,0.5,7.2-10.8,11.1-30.4
	c0.2-1.2,0.4-2.5,0.6-3.7c0.2,0.4,0.4,0.9,0.6,1.3c2.3,5.2,3.9,8.9,5.1,12.1c-2.3,13.3-4.1,21.5-2.5,22.1c1.1,0.4,3.5-2.6,6.4-8.3
	c-0.9,6-1.1,9.7-0.1,10c1.5,0.5,5.1-6,10-17.4c5.3-12.7,9.7-25.7,13.4-38.9c1.9,4.7,3.6,9.2,5,13.5l-0.1,0.2
	c-3.8,11.8-7.2,23.6-7.9,36.5c1.7-2.8,3.2-5.7,4.7-8.5c2.5-3.8,5.1-7.4,8-10.9c1.4,7,2.4,14,2.8,21.1c0.4,6.4,0.5,10.2,1.8,10.5
	s3.7-2.9,5.5-9.3c1.1-3.9,1.7-7.9,1.9-11.9c0.4,4.1,0.9,7.6,1.5,10.5c-1.9,9.9-3.4,16-2,16.5s6.1-5.4,10.8-16.8c0.2,1.7,0.5,3.4,1,5
	c-0.6,5.9-0.5,9.5,0.6,9.7s3-2.7,5.4-8.2c1,4.3,2.5,6.7,3.5,6.6c1.3,0,1.7-6.1,4.2-15.6c1.8-6.6,3.9-13.1,6.5-19.5
	c0.6-1.5,1.2-3,1.9-4.6c-1.5,3.9-2.7,7.9-3.8,11.9c-1.1,4.3-1.8,8.6-2.2,13c-4.3,10.3-6,17.1-4,18c0.9,0.4,2.5-0.5,4.6-2.4
	c0.8,3.6,2,5.7,3,5.8c1.4,0.1,2.4-3.2,3.8-8.6c0.6-2.3,1.4-4.8,2.1-7.5c1.4-1.8,2.8-3.8,4.3-6c2.8-4.1,5.8-8.7,9.1-13.5
	c0.3,7.4,1.1,14.8,2.4,22.1c1.9,9.7,4.5,15.7,6.5,15.7s3.2-5.8,4-15.1c0.4-4.4,0.8-10.6,1.1-17.4c1.3,1.5,2.6,3.1,4,4.8
	c0,3.9,0,8.3,0,11.8c0.1,13.2,0.8,21.5,2.8,21.9s5.2-7,7.7-19.3c1.8,2.6,3.3,5.1,4.8,7.4c0,0.4-0.1,0.9-0.2,1.3
	c-0.9,5.5-3,8.4-1.8,9.5c0.6,0.3,1.3,0.4,1.9,0.2c-0.7,5.9-2,8.8-1.1,9.4c0.5,0.3,1.8,0,3.5-1.5c1.7-1.6,3-3.6,3.8-5.8
	c0.3,0.9,0.7,1.6,1.1,1.8c-1,5.5-0.5,9,0.8,9.3c2,0.5,5.3-6.4,12.3-16.5c0.9-1.3,2-2.7,3-4c2.3,5.4,4.3,11,5.8,16.8
	c2.8,10,3.5,16.5,5.2,16.8c1.3,0.2,3-3.4,3.4-9.8l0.9-0.5v0.8c-0.1,2.5,0.4,5.1,1.5,7.4c0.9,1.7,1.9,2.4,2.3,2.2
	c0.9-0.2,0.6-2.8,1.6-7.7c0.4,0.4,1,0.5,1.5,0.5c1.2-0.4,0.3-3.4,1.1-7.9c0.1-0.3,0.1-0.7,0.2-1c1.8-1.3,3.6-2.7,5.7-4.2
	c-1.3,10.4-0.8,17.2,0.9,17.5s4.4-5.9,7.9-16.1c0.9-2.6,2.1-6,3.1-9.1c1.5-0.9,3-1.7,4.4-2.4c-1.5,5.4-2.9,10.3-3.7,13.9
	c-1.8,7.5-2.5,12.4-0.8,13s5.2-3.2,9.2-10.1c3-5.3,5.5-10.7,7.7-16.4c1.3,4.8,2.4,9.3,3.5,13.4c0.6,2.2,1.2,4.1,1.8,6
	c-0.1,2.3-0.2,4.5-0.3,6.5c-0.3,4.7-0.4,7.6,0.7,8c0.8,0.3,2.2-1,3.8-3.5c1.1,2.2,2.2,3.4,3,3.3c1.8-0.1,2.2-5.9,1.6-15.3
	c0.8-3.6,1.4-7.2,1.7-10.8c0.3-3.5,0.3-7,0.2-10.5c0.1,1.4,0.2,2.8,0.2,4.2c0.3,5.7,0.3,11.5-0.1,17.2c-0.6,8.1-1.9,13-0.9,13.4
	c0.8,0.4,2.6-1,4.4-4c0.5,5.1,1.2,8,2.1,8.2s1.9-2.6,3-7.4c0.8-1.1,1.5-2.3,2.1-3.6c0.6,10.3,2.7,16.5,4,16.5s1.7-5.1,2.8-13.5
	c1.2-2.1,2.5-4.6,3.9-7.7c-0.9,3.2-1.4,6.5-1.6,9.8c-0.3,5.6,0.7,8.8,1.8,9s2.2-2.8,4.1-7.6c2.1-5.4,4.7-10.6,7.6-15.6
	c1.3,3.8,2.5,7.5,3.3,11.1c0.4,2.7,0.8,5.4,1.4,8.2c2.8-10.3,3.3-20.5,3.4-30.9c0,0,0-0.1,0-0.2c2.2-2.9,4.7-5.9,7.4-8.9
	c-0.6,11.5-0.6,23,0.2,34.5c0.7,10.5,1.9,16.6,3.2,16.7c0.9,0.1,1.7-2.8,2.6-7.8c0.8,5.4,1.9,8.5,2.8,8.5c1.4,0.1,2.2-6.8,3.8-18
	c1.8-2.1,4-4.4,7.1-7.7l0.8-0.8c-0.2,1-0.3,2.1-0.5,3.1c-2.2,16.5-1.1,27,0.6,27.2s3.7-9.7,8-25.2c1.5-5.5,3.3-11.4,5.4-17.7
	c0.8-0.7,1.6-1.4,2.5-2.2c-1.9,8.2-3.3,16.5-4.1,24.8c-1.3,14-0.2,23,1.5,23.2c0.2,0,0.4-0.1,0.6-0.2c0,1.5,0.2,2.5,0.6,2.6
	c2,0.6,8.1-12.8,17.3-33.5c5.4-12.1,12.1-27.3,19.6-43.2c3.5-2.2,6.9-4.2,10.3-6.1c3.2-1.8,6.6-3.3,10-4.6
	c10.1-3.7,18.2-5.9,26.3-6.9c15-2,25.6-1.6,25.5-2.9s-10-4.2-27.2-4c-10.2,0.3-20.2,2.1-29.9,5.3c-2.3,0.7-4.6,1.6-6.8,2.5
	c2.9-5.8,5.9-11.5,8.9-16.9c4.1-7.6,8.6-15,13.5-22.1c5-7.2,9-12,13.5-16.3c2-1.9,4.2-3.7,6.5-5.3c3.8-2.5,6.5-3.3,6.3-4
	s-3.6-1.2-9,0.7c-3.1,1.1-6.1,2.6-8.8,4.4c-5.8,3.8-11.2,8.8-17,15.7c-5.8,7-11.1,14.4-15.8,22.1c-4.9,8-9.6,16.6-14.1,25.9l-0.5,1
	c-0.8,1.7-1.6,3.3-2.3,4.9l-1.9,1.2c6.3-16.7,12.5-31.7,16.9-43.1c1-2.6,1.8-4.9,2.6-7.1c2.7-3.5,5.4-6.8,8-9.9
	c10.6-12.8,18-20.5,16.7-21.5s-11.1,4.8-23.9,16.8c-11.5,10.8-21.6,23-30.2,36.2c-2.6,1-5.5,2.3-8.7,3.9c-2.4,1.2-5,2.6-7.6,4
	c5.8-15,12.2-29.6,17.1-40.8c0.1-0.2,0.1-0.3,0.1-0.2s0.1-0.2,0.1-0.3c0.1-0.3,0.2-0.7,0.4-1c0.5-1.2,0.9-2.3,1.4-3.5
	c1.6-3.9,3-7.4,4.5-10.6c2.2-5,3.6-7.9,5.4-11.2c0.8-1.4,1.6-2.8,2.5-4.2c1.2-1.6,2-2.8,1.9-3c-0.2-0.5-2.1-0.6-4.6,1
	c-1.6,1-3.1,2.2-4.4,3.6c-3.1,3.2-5.8,6.8-8.2,10.6c-0.9,1.3-1.8,2.8-2.7,4.3c-0.9,0.1-1.8,0.3-2.8,0.5c9.5-17.4,14.2-29.3,12.4-30
	s-10.2,10.8-23.2,29.3c-1.1,1.6-2.3,3.3-3.5,5.1c-4.7,1.9-9.1,4.3-13.4,7.2c0.4-2.9,0.3-4.5-0.1-4.6c-0.7-0.2-2.1,2.8-4.3,7.9
	c-8.8,6.9-16.6,14.9-23.2,24c0.6-12.8,2.2-25.6,4.6-38.2c1.3-6.6,2.9-12.6,4.5-18.2c2.3-5.2,3.7-8.5,3-9.2c1.1-3,2.2-5.9,3.4-8.6
	c9-20.8,19.2-31.3,18-32.1s-13.8,8.4-25.2,29.2c-4.2,7.9-7.8,16.2-10.5,24.8c-0.4-0.4-0.7-0.8-1.2-1.2c-2.6-2.2-5.7-3.9-9-4.8
	c-3.3-0.9-6.7-1.2-10.1-0.9c-3.5,0.4-6.9,1.2-10.2,2.5c-7.2,2.8-13.5,6.9-20,12.3c-2,1.6-3.8,3.2-5.7,5c-0.7-0.8-1.4-1.5-2.1-2.2
	c0.8-1.3,1.5-2.4,2.3-3.7c4.1-4.8,8.1-9.4,12.3-13.7c6.9-7.3,14.4-14,22.3-20.1c5.8-4.4,9.5-6.7,8.8-7.6s-5.6-0.2-13.1,3
	c-5,2.2-9.9,4.9-14.4,8c-0.1-0.4-0.2-0.7-0.4-0.8c-0.9-0.4-3.4,2.2-6.9,6.1c-1.9,1.4-3.7,2.9-5.7,4.5c-6.1,5.2-12,10.8-17.4,16.8
	c0,0-0.1,0-0.2,0s0,0.1,0,0.2c-1.9,2.1-3.8,4.3-5.7,6.6c1.9-8.9,3.6-16.5,4.9-23.2c4.6-9.6,9.1-18.4,13.4-26.3
	c12.3-22.6,21-35.9,19.5-36.8s-13.2,10.8-28.1,32.6c-0.4,0.6-0.9,1.4-1.3,2c-0.1-1.6-0.4-2.7-0.9-2.9c-1.4-0.3-3.8,5.3-7.2,14.9
	c-0.1,0.4-0.4,1.1-0.5,1.5c-3,5-6,10.3-9,15.9c0.4-4.5,0.7-8.9,1-13.1c1.2-19,1.3-39,1.1-50.2c-0.2-12.4-0.9-19.9-2.5-20.2
	s-4,6.7-6.3,18.9c-2.5,13.5-4.1,28.1-6.5,49.4c-0.3,2.9-0.7,5.9-1,9c-1.7-5.6-3.3-10.3-4.8-14.2c-0.5-1.8-1.1-3.5-1.6-5.3
	c2.6-1.5,4.1-2.4,3.9-3.1s-2.1-0.9-5-0.6c-1.2-3.7-2.5-7.2-3.6-10.4c-2.6-7.3-5.6-14.8-7.6-19.7c-3.8-9.3-5.9-14.5-7.3-14.5
	c-1.6,0-1.9,5.6-0.3,15.2c1,5.8,2.3,12,4.2,20.1c0.8,3.6,1.9,8,2.9,12.4c-1.3,0.5-2.6,1.1-4,1.8c-5.6,2.8-10.9,6.3-15.8,10.2
	c-5-5.9-10.5-11.2-16.5-16c3.3-13.5,5.2-22,3.4-22.7c-1.7-0.6-6.3,5.6-11.8,16.9c-5-3-8.3-4.1-8.8-3.6c-0.7,0.7,2,3.6,6.5,8.5
	c-0.1,0.2-0.1,0.3-0.2,0.5c-3.1,7.1-6,14.8-8.9,23.2c0.3-16.6-1.3-33.3-4.8-49.5c-0.4-1.7-0.8-3.3-1.2-4.9
	c0.5-12.4-0.3-24.7-2.3-36.9C303.6,401.5,292.9,385.2,291.3,385.5L291.3,385.5z M164.8,450.9c0.1,0.4,0.2,0.8,0.3,1.2
	c2.7,9.6,4.8,19.7,6.9,31.5c1.2,6.9,2.3,14,3.3,21.2l-1.1,0.7c-0.4-0.4-0.8-0.7-1.2-1.1c0.1-1.5,0.1-2.6-0.3-2.7s-0.7,0.5-1.2,1.4
	c-0.9-0.8-1.6-1.6-2.5-2.3c-5.6-4.5-11.4-8.7-17.5-12.5c0.9-3.8,1.9-7.5,2.9-11c2.3-5.1,3.7-8.5,3-9.1c1.1-3,2.2-5.9,3.4-8.6
	C162.1,456.4,163.5,453.5,164.8,450.9z M239.5,457.3L239.5,457.3c1,1.1,2.1,2.2,3.2,3.5c2.2,11.6,3.9,23.2,5,34.9
	c-0.8,0.6-1.6,1.2-2.4,1.9c-1.3-12.1-3-23.5-4.8-33.4c0,0.2,0,0.2,0,0.1c0-0.1,0-0.3,0-0.4l-0.2-1.3c-0.2-1.6-0.5-3.2-0.7-4.7
	C239.7,457.7,239.6,457.5,239.5,457.3L239.5,457.3z M260.7,486.8c1.7,3.2,3.3,6.6,4.8,10c-0.1,1.2-0.1,3.1-0.2,4.4
	c-0.9,0.6-1.7,1.3-2.5,1.9c0-0.7-0.1-1.5-0.1-2.2C262.2,496.1,261.5,491.4,260.7,486.8L260.7,486.8z M81.3,497.5
	c3,4.8,5.5,9.8,7.7,15c-2.4,1.6-4.7,3.2-7,5.1c-0.9-1-1.7-1.5-2.2-1.4c-0.7,0.1-0.8,1.4-0.5,3.6c-2.9,2.4-5.7,5-8.3,7.8
	c-2.3,2.4-4.5,4.9-6.7,7.5c0.6-1.6,1.1-3.2,1.7-4.9c2.4-6.6,5-12.9,7.6-18.8c2.1-4.5,4.5-8.9,7.1-13.1C81,498,81.1,497.7,81.3,497.5
	z M149.2,499.1c3.4,2.7,6.8,5.5,10.5,8.9c1.7,1.5,3.3,3.1,4.9,4.8c-7.3,6.2-13.8,13.2-19.4,20.9C145.8,522,147.1,510.5,149.2,499.1
	L149.2,499.1z M248.2,504.5l0.1,1.3c-0.3-0.2-0.5-0.3-0.8-0.4L248.2,504.5z M193.7,507c0.1,1.5,0.1,3,0.2,4.5
	c-0.8,1.4-1.5,2.8-2.3,4.3c-0.2-1.3-0.4-2.6-0.6-4C192,510.2,192.8,508.6,193.7,507z M334.4,507.8c3,3.6,6.1,7.7,9.3,12.2l1.4,2
	l-0.9,0.9c-2.5-5.4-4.7-8.4-5.9-8.2c-1.6,0.2-1.3,5.7-0.3,14.6c-4.7,5.1-9,10.4-13,16C328.6,531,332.3,516.2,334.4,507.8
	L334.4,507.8z M113.2,508.3c-0.6,7.3-1.6,19.9-2.5,32.3c-1.6-5.7-3.6-11.2-5.9-16.7c3.1-6.6,4.8-10.8,3.6-11.4
	c-0.9-0.5-3.4,1.1-6.8,4.5c-0.2-0.3-0.3-0.7-0.5-1l1.6-1.1C106.4,512.3,110,510.1,113.2,508.3L113.2,508.3z M246.5,510.3
	c0.6,0.9,1.2,1.9,1.9,3c0,1.6-0.1,3.2-0.1,4.8c-0.4,0.5-0.7,0.9-1.1,1.4C247,516.4,246.8,513.3,246.5,510.3L246.5,510.3z
	 M374.5,510.6c0.1,0.3,0.1,0.6,0.2,0.9c1.4,6,2.4,12,3,18.2c0.7,8,1.2,16.3,1.4,24.8c0,0.6,0,1.2,0,1.8c-1.1-2.2-2.2-4.4-3.4-6.5
	c-1.5-2.6-2.9-5-4.3-7.2c-1-2.1-2.1-4.1-3.2-6c1.1-2.3,1.5-3.8,0.8-4.3c-0.5-0.3-1.6-0.1-3,0.6c-1.9-3.1-3.9-6.1-5.9-9
	C364.5,519.1,369.4,514.7,374.5,510.6L374.5,510.6z M264.6,512.6c-0.1,2.8-0.3,5-0.5,8.2l-1-1.2c0-1.7,0-3.4,0-5.1
	C263.7,513.8,264.2,513.2,264.6,512.6L264.6,512.6z M273.6,519.3c2.3,8.1,4.1,16.4,5.4,24.7c-0.7-1.4-1.4-2.8-2.1-4.2
	c-0.9-1.7-1.9-3.4-2.9-5C273.9,529.5,273.8,524.3,273.6,519.3L273.6,519.3z M171.3,520.4c0.5,0.6,0.9,1.1,1.4,1.7
	c-0.7,1.4-1.3,2.8-2,4.2c-2,4.7-3.8,9.4-5.4,14.3c-0.4,0.2-0.7,0.4-1.1,0.6c2.1-7.3,3.9-13.6,5.3-19
	C170.1,521.5,170.7,521,171.3,520.4L171.3,520.4z M220.7,520.4l0.5,0.8l-0.3,0.4C220.9,521.3,220.8,520.9,220.7,520.4L220.7,520.4z
	 M92.9,522.4c0.4,1.1,0.8,2.2,1.2,3.4c-1.2,1.6-2.5,3.4-3.7,5.2c-0.8-1.5-1.5-2.9-2.2-4.2C89.8,525.2,91.3,523.8,92.9,522.4
	L92.9,522.4z M301.9,526.6c-0.4,5.8-0.8,11.9-1.5,18.3c-0.1,0.6-0.1,1.3-0.2,1.9c-0.3,2.5-0.6,5-0.9,7.6c-1.4-0.6-2.8-1.1-4.3-1.4
	c-0.1-0.6-0.1-1.2-0.2-1.8C297.6,542.8,300,534.6,301.9,526.6L301.9,526.6z M82.3,532.6l0.2,0.7c0.6,2.2,1.3,4.6,2,7.1
	c-1.6,2.7-3.1,5.6-4.6,8.7c-1.8-1.6-3.7-3.1-5.6-4.4c-0.5-0.3-0.9-0.6-1.4-0.9c2.6-3.4,5.3-6.7,8.1-9.7
	C81.5,533.6,81.9,533.1,82.3,532.6L82.3,532.6z M351.8,533.3c1.3,2.3,2.5,4.7,3.8,7.2c-1.3,1.1-2.7,2.4-4.2,3.7
	c-0.7-2.7-1.4-5.2-2.2-7.6C350.1,535.4,351,534.3,351.8,533.3L351.8,533.3z M133.4,533.4c-0.5,6.9-0.9,14-0.9,21.4
	c-2,4.2-3.8,8.4-5.3,12.6c-1,2.6-1.8,5.1-2.6,7.6c1.4-8.3,3-16.9,4.9-25.4c0.1-0.5,0.2-1,0.4-1.5
	C130.9,542.9,132.2,538.1,133.4,533.4L133.4,533.4z M229.8,534.7c1,1.6,2,3.1,3,4.8c0,0.4,0,0.8,0,1.2c-3,5-5.9,10.3-8.7,15.8
	c0-2.2-0.1-4.4-0.2-6.6C226.1,544.4,228,539.5,229.8,534.7L229.8,534.7z M157.4,537c-1.4,3.8-2.9,7.8-4.4,11.8
	c-1.2,0.9-2.4,1.9-3.5,3c-0.9,0.8-1.8,1.7-2.7,2.6C149.9,548.4,153.4,542.6,157.4,537z M262.1,537.8c0.3,0.7,0.7,1.4,1,2.1
	c-0.2,4-0.5,8-0.8,12.3c-0.7,0.1-1.4,0.2-2.2,0.3C260.9,547.8,261.6,542.9,262.1,537.8z M98,538.3c0.5,1.7,0.9,3.3,1.3,5.1
	c-0.5,0.6-1,1.4-1.6,2.3c-0.3,0-0.5,0-0.8,0.1c-0.4-1-0.7-1.9-1.1-2.8C96.6,541.4,97.3,539.8,98,538.3z M179.6,539.7
	c0.1,0.5,0.1,1,0.2,1.5c-1.6,3.8-3.2,7.7-4.6,11.6c-0.3,0.8-0.5,1.5-0.8,2.3c0.4-1.6,0.8-3.2,1.2-4.8c0.9-3.4,1.9-6.7,3-9.9
	L179.6,539.7z M477.4,540.1c1.1,0,2.3,0,3.4,0.2c2.5,0.5,5,1.4,7.2,2.7c1.1,0.6,2,1.2,2.9,1.9c-0.7,1-1.3,2-2,3.1
	c-3.8,6.2-7.1,12.7-10,19.3c-2.2,0.5-4.6,1.2-7.2,2.1c-0.1-1.8-0.2-3.7-0.3-5.4c0-0.2,0-0.3,0-0.5c4.8-2.4,7.7-3.7,7.3-4.5
	c-0.3-0.5-3.1-0.8-7.8,0c-1-8.6-2.5-14.3-3.8-16.2c2.1-1.1,4.4-1.8,6.8-2.3C474.9,540.3,476.1,540.1,477.4,540.1L477.4,540.1z
	 M465,543.8c-0.9,2.8-1.5,8.7-2.1,17c-5.9,1.7-11.6,4.1-17,7c-1.1-1.8-2.2-3.4-3.3-5.1c2.3-2.5,4.7-5,7.1-7.3
	C454.9,550.5,459.6,546.7,465,543.8z M69.9,547.8c2.3,2.9,4.4,6,6.4,9.1l-0.5,1.2c-5.5,4.9-10.5,10.5-14.8,16.6
	c-0.1,0.2-0.2,0.3-0.3,0.5c-2,2.8-3.8,5.8-5.4,8.8c0.2-4,0.2-8.6,0.2-13.7C59.8,562.6,64.6,555.1,69.9,547.8L69.9,547.8z
	 M340.2,548.8c0.2,2,0.4,4.2,0.6,6.3c-0.8,0.8-1.5,1.7-2.3,2.6c-0.3-0.2-0.6-0.3-0.8-0.5c-0.3-1.2-0.6-2.4-0.9-3.3
	C337.8,552.2,339,550.5,340.2,548.8L340.2,548.8z M359.9,549.8c0.3,0.8,0.7,1.5,1,2.3c0.8,2,1.6,4.1,2.4,6.2c-1.5-2.1-3.2-4.2-5-6.1
	l1.2-1.7L359.9,549.8z M161.4,555c-1.4,6-2.4,11.8-3.1,17.4c-0.9,0.8-1.7,1.6-2.6,2.5l-1.2,1.1l-0.2,0.2c1-3.4,2.1-6.7,3.1-9.8
	c0.9-3.5,1.8-6.7,2.6-10L161.4,555z M299.2,555.9c-0.9,7.4-1.9,14.7-3,21.8c0-3.2,0-6.4-0.1-9.8c-0.1-3.8-0.4-7.7-0.8-11.6
	C296.9,556.2,298.4,556,299.2,555.9L299.2,555.9z M102.4,556.8L102.4,556.8c1.7,8.4,2.9,16.1,3.8,23.3c-0.3-2.4-0.8-4.8-1.2-7.3l0,0
	c-0.9-4.4-2-8.7-3.2-12.8C102,558.9,102.2,557.8,102.4,556.8L102.4,556.8z M430.3,557.5c0.2,0.4,0.5,0.8,0.7,1.2
	c-1.3,1.2-2.5,2.7-3.8,4c0.9-1.5,1.8-3.1,2.7-4.6L430.3,557.5z M354.6,558c2.1,3.2,4,6.5,5.7,9.9c0,0.1,0.1,0.2,0.1,0.3
	c-1.3,0.4-2.6,0.8-4,1.3C355.9,565.5,355.3,561.7,354.6,558L354.6,558z M89.4,558.6c0.2,0.8,0.4,1.5,0.6,2.3c-0.3-0.5-0.6-1-0.9-1.4
	l-0.2-0.2L89.4,558.6z M549.1,559.9L549.1,559.9c-0.1,0.1-0.2,0.3-0.2,0.4c-0.6,1.1-1.2,2.2-1.8,3.4c-0.2,0.3-0.3,0.7-0.5,1
	l-0.1,0.3c-0.1,0.1,0,0.1,0,0c-4.7,8.4-9.9,18.5-14.9,29.6c-0.7,0-1.4,0.1-2.1,0.2c0.5-1.4,1.1-2.9,1.6-4.3
	c4.1-10.2,9.8-20.5,14.5-28.8C546.9,561,548,560.4,549.1,559.9L549.1,559.9z M262.1,560.8c0,1.4,0,2.7-0.1,4.2l-0.1-0.3
	c-0.3-0.6-0.6-1.2-0.9-1.8s-0.5-1-0.8-1.5C260.9,561.2,261.5,560.9,262.1,560.8L262.1,560.8z M462.2,568.3c-0.1,1.1-0.3,3.7-0.4,5
	c-1.5,0.7-3,1.4-4.5,2.2c0.5-1.7,0.6-2.8,0.1-3.1c-0.9-0.5-3.4,1.1-6.8,4.5c-0.2-0.3-0.3-0.7-0.5-1l1.6-1.1
	C455.5,572.2,459,570.1,462.2,568.3L462.2,568.3z M327.6,568.5l0.3,0.4c-0.1,0.9-0.2,1.7-0.3,2.7c-2.9,4.1-5.8,8.4-8.5,13l0,0
	c-1.5,2.6-2.9,5.1-4.2,7.6C318.5,584.7,322.7,576.8,327.6,568.5L327.6,568.5z M272.1,569.4c0,0.1,0,0.3,0.1,0.4l-0.2,0.4
	L272.1,569.4L272.1,569.4z M182.5,569.5c0.6,6.1,1.1,12.4,1.6,17.8c-1.3,4-2.5,7.9-3.5,11.7c-3.3,3.3-6.2,6.6-8.7,9.8
	c2.3-11.5,5.3-22.8,8.9-34C181.3,573,181.9,571.2,182.5,569.5z M436.6,569.6c0.5,1,0.9,1.9,1.4,3c-2.4,1.5-4.7,3.2-7,5.1
	c-0.2-0.2-0.4-0.3-0.6-0.5c0.7-0.9,1.4-1.8,2.1-2.7C433.9,572.6,435.2,571.1,436.6,569.6L436.6,569.6z M83.8,572
	c0.4,1.1,0.9,2.2,1.3,3.4c-0.5,1.6-1,3.1-1.6,4.8s-1,3.3-1.5,4.9h-0.1c-1,0.1-2,0.3-3.1,0.5C80.3,581.3,82,576.7,83.8,572L83.8,572z
	 M231.8,573.8c-0.5,7.1-1.2,13.6-2,19.6c-1.2-3.5-2.7-7.2-4.4-11c1-2.2,1.9-4.3,3-6.5C229.6,575.1,230.7,574.5,231.8,573.8
	L231.8,573.8z M363.8,575.8c1.6,3.9,3.2,7.9,4.7,12.4c2.3,6.6,4.3,13.3,6.3,20.2c-0.7,2.2-1.3,4.2-2,6.2c-1.5-1.8-3-3.5-4.5-5.2
	c-0.1-0.4-0.2-0.8-0.3-1.2c-0.1-0.2-0.1-0.5-0.2-0.7c-2.5-8.9-6-17.5-10.3-25.6l-0.1-1.6C359.7,578.5,361.8,577,363.8,575.8
	L363.8,575.8z M524.8,575.9c-1.8,3.3-3.6,6.8-5.2,10.4c-2,4.6-3.8,9.3-5.4,14.3l-1.1,0.6c2.1-7.3,3.9-13.6,5.3-19
	C520.6,580,522.7,577.9,524.8,575.9L524.8,575.9z M145.3,576.4c0,0.2-0.1,0.4-0.1,0.7v-0.4L145.3,576.4z M474.5,578.2
	c-0.8,2.2-1.6,4.4-2.4,6.7c0-1.8-0.1-3.4-0.1-5.1C472.9,579.3,473.7,578.7,474.5,578.2z M428.3,579.7L428.3,579.7L428.3,579.7
	L428.3,579.7z M441.9,582.5c0.3,0.8,0.6,1.7,0.9,2.5c-1.5,1.2-3.1,2.5-4.6,3.8c-0.4-0.7-0.7-1.4-1.1-2
	C438.8,585.2,440.3,583.8,441.9,582.5L441.9,582.5z M431.4,592.6l0.2,0.7c0.1,0.4,0.3,0.9,0.4,1.4l-0.4,0.4c-1.3,0.6-2.7,1.2-4,1.8
	c0.8-1,1.7-2,2.5-2.9C430.5,593.6,430.9,593.1,431.4,592.6z M482.4,593.4c-0.5,6.9-0.9,14-1,21.4c-2,4.2-3.8,8.4-5.3,12.6
	c-1,2.6-1.8,5.1-2.6,7.6c1.4-8.3,3-16.9,4.9-25.4c0.1-0.5,0.2-1,0.3-1.5C479.9,602.9,481.2,598.1,482.4,593.4L482.4,593.4z
	 M460.1,595c-0.2,2.1-0.3,3.4-0.4,5.5c-0.5-1.6-1-3.2-1.5-4.7l0,0L460.1,595L460.1,595z M341.8,595.3l1.2,1.2
	c0.1,0.1,0.3,0.3,0.4,0.4c0.1,4.9,0.3,9.8,0.3,14.4c-1.1-0.7-2.2-1.4-3.3-2h-0.1c0.1-2.1,0.1-4.2,0.2-6.3s0-4.1,0-6.1
	C340.9,596.3,341.4,595.8,341.8,595.3L341.8,595.3z M506.4,597c-1.4,3.8-2.9,7.8-4.4,11.8c-1.2,0.9-2.4,1.9-3.5,3
	c-0.9,0.8-1.8,1.7-2.7,2.6C498.9,608.4,502.4,602.6,506.4,597z M136.3,597.6c0.1,0.4,0.1,0.8,0.2,1.2c-0.6,1.1-1.3,2.2-1.9,3.3
	L136.3,597.6z M274.3,597.7c0,2.1,0.1,4,0.1,5.9c-0.2-1.5-0.5-3.1-0.8-4.7L274.3,597.7z M529.7,598.8c-2,4.6-3.9,9.3-5.7,14.1
	c-0.3,0.8-0.5,1.5-0.8,2.3c0.4-1.6,0.8-3.2,1.2-4.8c0.9-3.4,1.9-6.7,3-9.9L529.7,598.8z M447.6,600.7c0.2,0.9,0.5,1.7,0.7,2.6
	c-0.6,0.7-1.1,1.5-1.6,2.3c-0.2,0-0.5,0-0.8,0.1c-0.4-0.9-0.7-1.8-1.1-2.8c0.2-0.4,0.4-0.8,0.5-1.2
	C446.2,601.4,446.9,601.1,447.6,600.7L447.6,600.7z M547.1,615c-0.6,1.1-1.2,2.2-1.8,3.4c-6.7,12.9-12,26.5-15.7,40.5
	c-3.3,3.3-6.2,6.6-8.7,9.8c2.3-11.5,5.3-22.8,8.9-34c0.9-2.9,1.9-5.8,2.9-8.7C537.8,621.8,542.6,618.3,547.1,615z M510.4,615
	c-1.4,6-2.4,11.8-3.1,17.4c-0.9,0.8-1.7,1.6-2.6,2.5l-1.2,1.1l-0.2,0.2c1-3.4,2.1-6.7,3.1-9.8c0.9-3.5,1.8-6.7,2.6-10
	C509.5,615.9,510,615.5,510.4,615L510.4,615z M451.4,616.8L451.4,616.8c1.7,8.4,2.9,16.1,3.8,23.3c-0.4-2.4-0.8-4.8-1.2-7.3l0,0
	c-0.9-4.4-2-8.7-3.2-12.8C451,618.9,451.2,617.8,451.4,616.8L451.4,616.8z M438.4,618.6c0.2,0.8,0.4,1.5,0.6,2.3
	c-0.3-0.5-0.6-1-1-1.4l-0.2-0.2L438.4,618.6z M413.2,621.3c-3.1,6.2-5.4,12.7-7.1,19.4c0,0,0,0,0,0.1c-0.6,1.1-1.3,2.2-1.9,3.3
	c0.2-4,0.2-8.6,0.2-13.7c0.8-1.3,1.7-2.8,2.5-4.1C408.9,624.6,410.9,623,413.2,621.3L413.2,621.3z M432.8,632
	c0.5,1.1,0.9,2.2,1.3,3.4c-0.5,1.6-1,3.1-1.6,4.8s-1,3.3-1.5,4.9h-0.1c-1,0.1-2.1,0.3-3.1,0.5C429.3,641.3,431,636.7,432.8,632
	L432.8,632z M494.4,636.4c0,0.2-0.1,0.4-0.1,0.7c0-0.1,0-0.2,0-0.4L494.4,636.4z M485.3,657.7c0.1,0.4,0.1,0.8,0.2,1.2
	c-0.7,1.1-1.3,2.2-1.9,3.3L485.3,657.7z"/>
<path id="path120058" class="st0" d="M1223.4,15.5c-16.7-3.1-61.8,169.2-67.4,174.7c-0.2,0.2-3.3-58.4-3.3-65.6
	c0-25.7-6.5-49.4,0-75.4c0.9-3.7,10.6-28.7,9.8-29.5c-16.2-16.2-24.1,42.7-26.2,49.2c-25.5,76.4,24.7,144.1-13.1,219.8
	c-2.5,5.1,0.1,26.2-3.3,29.5c-3.8,3.7-26.7-35.2-29.5-39.4c-27-40.5-13.1-96.6-13.1-144.3c0-13.8,16.1-98.7,3.3-111.5
	c-18.1-18.1-10.2,116.3-19.7,111.5c-22.3-11.1-60.5-101.7-65.6-101.7c-28.5,0,41.7,90.9,45.9,95.1c32.3,32.3,4.7,129.4,19.7,144.3
	c17.4,17.4,37.9,71.8,19.7,108.2c-4.2,8.4-19.1-38.2-39.4-78.7c-33.3-66.6-39.4-27.5-39.4-127.9c0-3.2-0.1-5.4-0.1-8.1
	c2.2-12.6,4.5-28.2,2.4-38.5c-0.6-2.8-2.3-5.3-2.9-8.1c-0.2-0.9-0.5-5.1-1.2-5.8c-0.9-0.9-4.5,0.4-5.8,0c-0.7-0.2-5.7-3-6.4-2.3
	c-0.4,0.4,1.2,23.7,1.2,25.5c0,6-0.6,11.8-0.6,18c0,6.5-0.2,13-0.7,19.4c-4,20.6-7.6,41.9-8.9,42.6c-4,2-19.7-49.7-19.7-52.5
	c0-22.9-38.5-76.7-55.8-85.3c0,0.3,0,0.6,0,0.9c-4.8-4-9.5-7.5-11.8-9.2c0,15,0.9,14.7,9.9,26.7c0.2,0.3,3.6,3.5,6.8,6.8
	c8.6,17.5,26.5,26.5,37.7,73.2c19.5,81.2,66.4,111.3,111.5,213.2c5.5,12.5,14.6,34.2,23,42.6c5.3,5.3,4.4,42.7,6.6,49.2
	c10.3,30.9-9.2,158.1,9.8,177.1c3.4,3.4,27.6-1.3,29.5-3.3c3.9-3.9-1.3-11.1,0-16.4c7.6-30.4-11.1-112.4,0-134.5
	c7.3-14.6,9.8-48,9.8-62.3c0-110.1,16.8-250.2,65.6-347.7c5.2-10.5,27.3-74.4,23-78.7C1224.5,16,1224,15.7,1223.4,15.5L1223.4,15.5z
	"/>
<path id="path117782" class="st0" d="M383.6,661.5C394.2,188,480.2,8.3,488-22.8c0.9-3.6,18.6-53.4,0-44.1
	c-10,5-44.7,88.8-60.3,104.4s-0.2,44.2-23.2,55.7c-15.7,7.8-18.2-43.8-23.2-48.7C351.7,14.9,304.8,1.7,304.8-53
	c0-5.4-8.2-52.1-18.6-41.8c-2.1,2.1,0,18,0,20.9c0,18.6,0.3,58.3,11.6,69.6c29.8,29.8,55.7,59.5,55.7,113.7c0,3.3,2.1,18.8,0,20.9
	c-0.6,0.6-54.5-59.7-60.3-62.6c-3.9-1.9-128.8-52.2-97.4-20.9c13.1,13.2,51.6,17.6,71.9,30.2c30.6,19,74.3,61.3,71.9,83.5
	c-5.9,54.8-13.1,146.1-20.9,146.1c-8.1,0-32.2-33.8-36-39.4c-10.7-16.1-43.4-40-54.5-51c-21.4-21.4-24.2-75.3-39.4-90.5
	c-14.9-14.9-0.4,49.4,0,51c17.2,68.9,46,67.5,85.8,120.6c3.7,5,14.8,11.8,16.2,16.2c3.5,10.6,10.5,25.6,16.2,37.1
	c0.9,1.7-16.6,201.8-23.2,241.2c-1.6,9.7-13.7,62.8-4.6,71.9C297.6,682.1,366.4,684.5,383.6,661.5L383.6,661.5z"/>
<path id="path119420" class="st0" d="M943.6-227.7l-1,0.2l-0.9-0.4l-0.6,0.7l-0.8,0.6l-0.8,0.5l-0.4,0.8l-0.5,0.8l-0.1,0.9l-0.8,0.4
	l-0.6,0.6l-0.9-0.2l-0.8,0.5l-0.2,0.9l0.2,0.9l-0.7,0.6l-0.7,0.6l-0.6,0.8l0.1,1l-0.8,0.5l-0.9,0.2l-0.7,0.5l-0.2,0.9l-0.6,0.6
	l-0.8,0.2l-0.3,0.8l-0.1,0.9l-0.8,0.4l-0.5,0.7l0.2,0.8l-0.1,0.8l0.1,0.9l-0.6,0.7l-0.5,0.8l0.2,1l0.5,0.9l-0.4,1l-0.3,1l0.2,1
	l0.6,0.8l0.9,0.5l0.7,0.9h1.1l0.3,0.9l0.1,1v1l0.7,0.7l0.4,0.8l0.5,0.7l-0.7,0.7l-0.9,0.4l0.1,1l-0.3,1l-0.6,0.7l-0.6,0.7l-0.3,1
	l0.5,0.9l-0.6,0.7l-0.1,1v0.9l-0.3,0.9l-0.7,0.7l-1,0.2l-0.8,0.4l-0.5,0.8l-0.2,0.4l-0.3,0.4l0.1,0.4l0.2,0.4l-0.3,0.2l-0.4,0.1
	l-0.2,0.4l-0.3,0.3l0.2,0.4l0.4,0.2l0.1,0.4l-0.2,0.4v0.4v0.4l0.1,0.4l0.2,0.3l0.2,0.3l0.1,0.4l0.3,0.3l0.1,0.4l0.2,0.4l0.2,0.4h0.4
	l0.4,0.2l-0.1,0.4l-0.3,0.3l0.3,0.3v0.4l-0.2,0.3v0.4l0.1,0.4l0.1,0.4l0,0.4l-0.3,0.3l-0.1,0.4l0.1,0.4l-0.1,0.4l-0.1,0.4l-0.4,0.2
	l-0.2,0.4l-0.4,0.1l-0.4,0.1h-0.5l-0.3,0.4l-0.4,0.2h-0.3l-0.3,0.3l-0.4,0.1l0.3,0.4v0.4l-0.1,0.5l0.3,0.4l0.3,0.2l0.3,0.3l0.4,0.2
	l0.2,0.4l-0.2,0.4l-0.5,0.1l-0.1,0.5l-0.2,0.4l-0.2,0.4v0.5l0.1,0.4l0.2,0.4l-0.4-0.1l-0.2-0.4l-0.3-0.4h-0.9l-0.3-0.7l-0.3-0.2
	l-0.4-0.1l-0.4,0.2h-0.4l-0.4-0.1l-0.3-0.3l-0.4-0.2l-0.4-0.1l-0.4,0.2l-0.4,0.2l-0.1-0.4l0.2-0.4v-0.4l0.1-0.4l-0.1-0.4l-0.2-0.4
	l-0.4-0.2l-0.3-0.4l-0.2-0.3l-0.4-0.1l-0.2-0.3l-0.1-0.4l-0.2-0.4v-0.4l-0.3-0.3l-0.4-0.1l-0.4-0.1h-0.4l-0.2-0.4l-0.4-0.1l-0.3-0.3
	l-0.3-0.3l-0.4,0.2l-0.4-0.1l-0.4,0.2l-0.3,0.4l-0.5,0.1l-0.4-0.2l-0.3,0.3l-0.3,0.2l-0.4,0.3v0.5l-0.4-0.2l-0.4,0.1l-0.4,0.1
	l-0.3-0.3l-0.3-0.2l-0.3-0.2l-0.3-0.2l-0.2-0.4l-0.4,0.1l-0.3,0.3l-0.4,0.1l-0.2,0.4l-0.4-0.1l-0.4,0.1l-0.4-0.1l-0.4,0.2l0.3,0.2
	l0.3,0.1v0.4l0.2,0.3v0.4l-0.2,0.3l0.2,0.3l0.1,0.4h0.3l0.3,0.2l0.4,0.1l0.2,0.3l0.2,0.3l0.2,0.3l0.2,0.3v0.4l0.2,0.3v0.4l-0.2,0.3
	l-0.2,0.3l0.1,0.3l-0.2,0.3l-0.1,0.3l-0.1,0.3l-0.2,0.2l-0.2,0.3v0.3l-0.1,0.3l-0.2,0.3l0.1,0.3l-0.1,0.3l-0.3,0.2v0.4l0.2,0.3
	l-0.1,0.4l0.2,0.3l-0.2,0.3l0.1,0.4l-0.3,0.2l-0.2,0.3v0.3l0.1,0.3l0.1,0.3v0.4l-0.1,0.3l-0.2,0.3l-0.3,0.2l-0.2,0.3l-0.3,0.2
	l-0.3,0.2l-0.3,0.2v0.4l-0.3,0.2l-0.3,0.1h-0.4l-0.2,0.2l-0.3,0.2L902-154l-0.3-0.1l-0.3,0.1l-0.3,0.1l-0.2,0.2l-0.3-0.1l-0.3,0.2
	l-0.5,0.1h-0.5l-0.4-0.3l-0.3-0.4l-0.2-0.4l-0.2-0.4v-0.4l-0.2-0.4l-0.4-0.1h-0.4l-0.4,0.1h-0.4H896l-0.4-0.1h-0.4l-0.4,0.2
	l-0.3-0.3l-0.4-0.1l-0.4,0.2l-0.4,0.1l-0.3,0.2l-0.3,0.2l-0.4-0.2l-0.4,0.1l-0.4-0.1l-0.4-0.1l-0.4,0.1l-0.3,0.3l-0.3-0.2l-0.2-0.4
	l-0.3-0.3h-0.4l-0.2-0.3v-0.4l-0.2-0.4l0.1-0.4v-0.5l-0.4-0.3l-0.4-0.1l-0.4-0.1l-0.3-0.3l-0.4-0.1l-0.3-0.3l-0.3-0.3l0.1-0.4
	l-0.3-0.4l0.2-0.4l-0.1-0.4l-0.2-0.4l-0.4-0.1l-0.4-0.2l-0.4,0.1l-0.4-0.2l-0.2-0.4l-0.3-0.3l-0.4-0.1l-0.1-0.4l-0.2-0.4l0.2-0.4
	v-0.4l-0.3-0.4l-0.2-0.4l-0.4-0.1l-0.4-0.1L882-165l-0.4,0.1l-0.4,0.2l-0.2,0.4l-0.2,0.4l-0.4,0.2v0.4l-0.3,0.3l0.1,0.4l-0.2,0.4
	l-0.2,0.3l-0.1,0.4v0.4l-0.2,0.4l0.3,0.3v0.4l-0.3,0.3l-0.3,0.2l-0.4-0.1l-0.3,0.2l-0.4,0.1l-0.4,0.2l-0.1,0.4l-0.3,0.3l-0.3-0.3
	l-0.4-0.1l-0.4,0.1l-0.4,0.2l-0.3-0.2l-0.4-0.1h-0.4l-0.4-0.1l-0.2,0.4l-0.4,0.1l-0.2,0.4L873-158h-0.4h-0.4l-0.1,0.5l-0.4,0.2v0.4
	l-0.2,0.3l-0.2,0.4l-0.1,0.4l0.1,0.4l-0.2,0.4l0.2,0.4l-0.2,0.4l0.3,0.3v0.4l0.2,0.3v0.4l-0.4,0.2l-0.1,0.4l0.1,0.4v0.4l0.3,0.3
	l0.2,0.4v0.4l-0.1,0.4l0.2,0.3v0.4l0.2,0.4l0.4,0.1l-0.5-0.1h-0.6l-0.5-0.4h-0.6l-0.5,0.3l-0.6,0.1h-0.6l-0.6-0.1l-0.3-0.6L867-150
	l-0.6,0.1l-0.6-0.2l-0.5-0.4l-0.4-0.5l0.1-0.6l-0.2-0.6l-0.6-0.4l-0.4-0.6l0.2-0.7v-0.7l-0.6-0.3l-0.5-0.4l-0.7,0.2l-0.6-0.3
	l-0.6-0.2l-0.6-0.1l-0.6-0.1h-0.6l-0.4,0.5l-0.6,0.3l-0.6-0.1l-0.6,0.1l-0.6-0.1l-0.6,0.1l-0.3-0.5l-0.6-0.2l-0.6-0.1l-0.5,0.4
	l-0.6,0.1l-0.4,0.4l-0.5,0.4h-0.6l-0.6,0.1l-0.5,0.4l-0.5-0.4l-0.4-0.5H849l-0.6,0.2l-0.4,0.4l-0.2,0.5l-0.3,0.6l-0.6,0.1l-0.5,0.4
	l-0.5,0.3l-0.6-0.2h-0.6l-0.2,0.6l-0.6,0.2l-0.4,0.4l-0.4,0.4l-0.6-0.2l-0.5,0.3l-0.5,0.3h-0.6l0.2,0.5l0.1,0.5l-0.1,0.5l0.3,0.4
	l-0.1,0.5l0.2,0.5l-0.3,0.4l-0.4,0.3l-0.2,0.5l-0.2,0.5l-0.4,0.3l-0.4,0.3v0.6l0.4,0.4v0.5l0.1,0.5l-0.2,0.5l0.2,0.6l-0.4,0.3
	l-0.5,0.2l-0.2,0.5l-0.1,0.5l-0.5,0.1l-0.3,0.4l-0.4,0.3l-0.2,0.4l-0.5,0.1l-0.3,0.4h-0.5l-0.4,0.4l-0.5,0.1l-0.4,0.2l0.2,0.4
	l0.2,0.4l0.2,0.5l-0.2,0.5l0.3,0.3l0.4,0.3l0.2,0.5l0.5,0.2l0.4,0.2l0.3,0.4l0.1,0.5l0.1,0.5l0.4,0.2l0.4,0.3l0.1,0.5l0.2,0.4v0.6
	l-0.3,0.5l-0.4,0.3l-0.4,0.3l-0.1,0.6l-0.4,0.4l0.3,0.5l0.1,0.6l0.4,0.3l0.3,0.4l0.5,0.3l0.1,0.5v0.5l0.3,0.4l0.1,0.5l0.2,0.5
	l-0.4-0.1l-0.3-0.2l-0.4,0.1l-0.4,0.1l-0.3,0.2l-0.3,0.1l-0.3,0.2l-0.3,0.2l-0.3,0.1l-0.3,0.2h-0.4l-0.3,0.3l-0.3-0.2l-0.3-0.1H834
	h-0.3l-0.2-0.3l-0.3-0.2l-0.3-0.2h-0.4l-0.3-0.1l-0.3-0.1h-0.4l-0.2-0.2h-0.4h-0.4l-0.4,0.2l-0.2,0.3l-0.3-0.2l-0.3-0.2l-0.3-0.2
	l-0.3-0.2v-0.4v-0.4l-0.1-0.4l-0.3-0.3l-0.1-0.5l-0.4-0.2l-0.4-0.1h-0.4l-0.3-0.3l-0.3-0.1l-0.2-0.3l-0.2-0.2l-0.3-0.3l-0.3-0.3
	l-0.5,0.1l-0.4-0.1H824l-0.2,0.3h-0.4h-0.4l-0.4,0.1h-0.4l-0.3-0.2l-0.3-0.1h-0.4H821l-0.3,0.2l-0.4-0.1l-0.3-0.1l-0.3-0.1l-0.3-0.2
	l-0.4-0.1v0.3l-0.3,0.2v0.3l-0.1,0.3l-0.2,0.2v0.3l0.1,0.3l-0.1,0.3l-0.2,0.2l-0.2,0.2l-0.1,0.3l-0.1,0.3l-0.2,0.2l-0.2,0.3H817
	l-0.3,0.1l0.1,0.3l-0.1,0.3l0.1,0.3l-0.1,0.3l-0.2,0.3v0.6l-0.1,0.3v0.3l0.2,0.3l0.2,0.3h0.3v0.3l0.2,0.2l0.1,0.3v0.3l-0.3,0.2
	l-0.1,0.3v0.3l0.2,0.3L817-121h-0.3l-0.2,0.2l-0.1,0.3l0.1,0.3l0.3,0.2l0.2,0.2l0.1,0.3v0.3l-0.1,0.3l0.2,0.2v0.3l-0.2,0.3l0.1,0.3
	v0.3v0.3l-0.2,0.2l-0.3,0.1l-0.2,0.3l-0.3,0.1l0.2,0.3l0.2,0.3v0.3l-0.2,0.3l0.3,0.2v0.3l0.3,0.2l0,0.3l-0.1-0.4l-0.2-0.4l0.3-0.3
	v-0.4l-0.3-0.3l-0.4-0.1v-0.4l-0.3-0.3l-0.3-0.2l-0.3-0.1l-0.2-0.3l-0.3-0.2h-0.4l-0.4-0.1l-0.4-0.1l-0.4,0.1l-0.4-0.1l-0.3-0.2
	l-0.2-0.4l-0.4-0.2l-0.2-0.3v-0.4l-0.2-0.3l0.1-0.4l-0.4-0.1l-0.2-0.3h-0.4l-0.4,0.1l-0.4-0.1l-0.3-0.2l-0.3,0.2l-0.4,0.1l-0.3-0.2
	h-0.3l-0.3,0.1l-0.3-0.2l-0.3,0.1l-0.3-0.1l-0.3,0.1l-0.2,0.3l-0.3-0.2l-0.2-0.3h-0.4l-0.3-0.2l-0.4-0.1l-0.3,0.1l-0.4,0.1l-0.2,0.3
	l-0.3,0.2l-0.1,0.3l-0.2,0.3h-0.4l-0.3,0.1l-0.3,0.1l-0.3,0.2l-0.2,0.3l-0.2,0.4l-0.4,0.2l-0.4-0.2l-0.4,0.2l-0.4-0.1h-0.4l-0.3-0.2
	l-0.3-0.2l-0.3,0.2l-0.1,0.3l-0.3,0.1h-0.3l-0.3-0.1l-0.3-0.1l-0.3,0.2h-0.3l-0.3-0.1l-0.2-0.3l-0.3,0.2h-0.3l-0.3-0.1h-0.3
	l-0.3,0.1l-0.3,0.2l-0.1,0.3l-0.3,0.2l-0.2,0.2v0.3l-0.2,0.3h-0.3l-0.2,0.2v0.3l-0.3,0.1h-0.3l-0.2,0.3l-0.3,0.2l-0.2,0.2l0,0.4
	l-0.1,0.3l0,0.3l-0.2,0.2v0.3l-0.1,0.3l0.1,0.3l-0.2,0.2v0.3l-0.2,0.2l-0.1,0.3l0.1,0.3l0.2,0.3l-0.1,0.3l-0.1,0.3l0.1,0.3v0.3
	l-0.3,0.2v0.3h-0.3l-0.2,0.2h-0.3l-0.3,0.1l-0.3,0.1H789l-0.3,0.1l-0.2,0.2v0.3l-0.2,0.3l-0.2,0.3l0.1,0.3l-0.3,0.2h-0.3l-0.2,0.3
	l-0.1,0.3l-0.2-0.2l-0.2-0.1l-0.1-0.3l-0.2-0.2h-0.3H786l-0.3-0.1l-0.1-0.3l-0.2-0.2l-0.2-0.1l-0.2-0.2h-0.3l-0.2,0.1h-0.3l-0.3,0.1
	l-0.2-0.1l0.1-0.3l-0.2-0.2l-0.3-0.1l-0.2-0.3l-0.2-0.1h-0.3v-0.3l-0.2-0.2l-0.2-0.2l-0.3-0.1l-0.3-0.1l-0.3,0.1l-0.1-0.3l-0.2-0.2
	l-0.3,0.1h-0.3l-0.2-0.1H780l-0.3,0.1l-0.2-0.2l-0.2-0.2h-0.2h-0.3l-0.2-0.1l-0.3-0.1l-0.3,0.1l-0.2-0.2l-0.2-0.2h-0.2l-0.2-0.1
	l-0.1-0.2l-0.2-0.1l-0.3-0.1l-0.3,0.2H776l-0.3,0.1l-0.2-0.2h-0.3l-0.2-0.2l-0.2-0.2l-0.3-0.1h-0.3l-0.2-0.2l-0.1-0.2l-0.2-0.2
	l-0.2-0.2l-0.1-0.2l-0.2-0.2l-0.7,0.5l-0.6,0.6l-0.7,0.5l-0.7,0.5l-0.2,0.9l-0.7,0.7l0.6,0.8l0.2,0.9l-0.1,0.8l-0.3,0.7v0.8v0.8
	L770-105l-0.5,0.7l0.4,0.7l0.1,0.8l-0.7,0.4l-0.7,0.3l-0.8-0.1l-0.7,0.5l-0.8-0.1l-0.8-0.2l-0.8-0.1l-0.7,0.4l-0.6,0.6l-0.8,0.3
	l-0.8-0.4l-0.8,0.4l-0.7,0.5l-0.1,0.9l-0.8,0.4l-0.2,0.8l-0.6,0.4l-0.1,0.8l-0.1,0.7v0.7l-0.7,0.2l-0.4,0.6l-0.5,0.7l0.1,0.8
	l0.3,0.7l0.3,0.7l-0.5,0.6v0.8l-0.4,0.6l-0.1,0.7v0.8l-0.6,0.5l-0.4,0.8l-0.8,0.2l-0.1,0.8l-0.5,0.6l0.2,0.8l0.2,0.8l-0.1,0.8
	l-0.3,0.7l0.2,0.8l0.5,0.7l0.8,0.3l0.5,0.7l-0.1,0.8l0.5,0.7l-0.1,0.8l-0.3,0.7l-0.4-0.1l-0.3,0.2h-0.4l-0.4,0.1l-0.4-0.3l-0.3-0.3
	l-0.4,0.2l-0.4-0.1l-0.2-0.3l-0.3-0.3l-0.4,0.1l-0.4-0.2v-0.4l-0.1-0.4l-0.4-0.2l-0.1-0.4v-0.4l-0.2-0.3l-0.2-0.3l0.2-0.4V-81
	l-0.3-0.3l-0.2-0.3l-0.4-0.1l-0.3-0.3l-0.1-0.3l-0.3-0.1l-0.2-0.3l-0.1-0.4v-0.4h-0.4l-0.2-0.3l-0.4-0.2l-0.5,0.1l-0.2-0.4l-0.2-0.4
	l-0.3,0.3l-0.4,0.2l-0.4,0.1l-0.4-0.1l-0.4-0.1h-0.4l-0.4,0.1l-0.4,0.2l-0.5,0.1l-0.2,0.4l-0.2,0.4l0.1,0.4l-0.4,0.1l-0.3,0.2
	l-0.3-0.1l-0.3-0.2l-0.3,0.1h-0.4l-0.3-0.2l-0.3-0.1l-0.3,0.2l-0.3-0.1l-0.3-0.1l-0.3-0.1l-0.2-0.3l-0.4-0.1l-0.3-0.1l-0.3-0.2
	l-0.3,0.2l-0.1,0.3l-0.1,0.3l-0.1,0.3v0.3l0.3,0.2l-0.1,0.3v0.3l-0.1,0.3l-0.2,0.3l0.2,0.2v0.3v0.3l0.1,0.3l0.2,0.3l0.2,0.2
	l-0.3,0.1l-0.1,0.3l-0.2,0.2l-0.2,0.2l-0.1,0.2l-0.1,0.3l-0.2,0.2l-0.1,0.3l-0.3,0.1l-0.2,0.2l-0.2,0.3l0.1,0.3l-0.2,0.2h-0.3
	l-0.2,0.2l-0.2,0.1l-0.2,0.2l-0.1,0.3l-0.1,0.3l-0.1,0.2l-0.2,0.2l-0.3,0.1l-0.3-0.1l-0.3,0.2l0.1,0.3l-0.1,0.3l-0.2,0.3l-0.3,0.1
	l-0.3,0.1l-0.2,0.3v0.3l-0.1,0.2l-0.2,0.2l-0.1,0.3l-0.3,0.1l-0.2,0.3v0.4l0.2,0.2l-0.2,0.3l0.1,0.3l-0.1,0.3l-0.2,0.2l-0.2,0.2
	l-0.2,0.2l-0.3-0.1l-0.3,0.1h-0.3l-0.2,0.2l-0.4-0.2l-0.4-0.1l-0.3-0.4l-0.4-0.2l0.1-0.5l-0.3-0.4l-0.3-0.4l-0.5-0.1l-0.3-0.3
	l-0.1-0.4l-0.3-0.4l-0.5-0.1l-0.2-0.4l-0.1-0.4l-0.4-0.1l-0.3-0.3l-0.5,0.1H724l-0.4-0.3l-0.3-0.3l-0.4-0.2l-0.4-0.1l-0.4-0.2
	l-0.4-0.2l-0.4,0.2l-0.5,0.1l-0.4-0.3l-0.5,0.1h-0.6l-0.3-0.4l-0.1-0.5l-0.4-0.3l-0.5,0.2l-0.5-0.2l-0.4,0.2l-0.5,0.1l-0.3,0.3
	l-0.3,0.4v0.5l-0.3,0.4h-0.4l-0.5,0h-0.5l-0.3,0.4l-0.4,0.2l-0.5,0.2l-0.1,0.5l-0.3,0.4l-0.3-0.4H712l-0.5,0.1l-0.5-0.1l-0.5,0.1
	l-0.4-0.1h-0.5l-0.4-0.2l-0.3,0.3l-0.2,0.4l-0.4,0.3l-0.3,0.3l-0.5-0.2l-0.5,0.1h-0.5l-0.4,0.3l0.6,0.9l-0.3,1.1l-0.3,1l0.3,1
	l0.6,0.8l0.4,0.9v1l0.4,1l-1.2,0.1l-0.9,0.8l-0.3,1.1l-0.3,1.1l-0.2,1l-0.5,0.9l-0.4,1l0.3,1l0.8,0.5l0.7,0.7l0.5,0.8l0.8,0.6l0.2,1
	l0.8,0.6l0.6,0.7l0.8,0.4l0.6,1l1,0.5l-0.5,1.1l0.5,1.1l1,0.2l0.7,0.8l1,0.1l1,0.3l0.1,1l0.8,0.7l-0.1,1l0.1,0.9l0.1,1l-0.5,0.9
	l-0.3,1l-0.9,0.5l-0.6,0.8v1h-1.1l-0.7,0.8l-0.3,0.8l-0.4,0.8l-0.6,0.7v0.9v0.9l-0.6,0.7l-0.2,0.8l-0.5,0.7l-0.2,0.9l-0.6,0.7
	l-0.5,0.9l-1,0.2l-0.7,0.5l-0.7,0.6l-0.9,0.2l-0.4,0.9l-0.2,0.9l-0.5,0.7l-0.8,0.4l-0.7,0.6l-0.2,0.6l-0.1,0.6l-0.6,0.2l-0.5,0.4
	l-0.3,0.5l-0.2,0.5l-0.2,0.5l-0.4,0.4l-0.5,0.5l-0.7-0.1l-0.6,0.1l-0.5-0.4l-0.6,0.2l-0.6,0.2l-0.3,0.6l-0.4,0.5l-0.5,0.4l-0.3,0.5
	l-0.7,0.2l-0.2,0.6l-0.5,0.4l-0.3,0.6l-0.6,0.1l-0.7,0.1l-0.3-0.6l-0.6-0.3h-0.7l-0.5-0.4l-0.6,0.3l-0.6,0.3l-0.7-0.1l-0.6-0.4
	l-0.5,0.3l-0.5,0.4l-0.6-0.1l-0.6,0.1l-0.6-0.2l-0.6,0.2l-0.5-0.4l-0.3-0.5l-0.6,0.1l-0.5-0.3l-0.5-0.2l-0.5,0.1l-0.5-0.1l-0.5-0.2
	l-0.5-0.3l-0.5,0.2L678-18h-0.6l-0.5-0.3l-0.5-0.3l-0.6-0.1l-0.5,0.4l-0.5,0.3h-0.6l-0.3-0.5l-0.5-0.3l-0.5-0.2h-0.6l-0.6,0.2
	l-0.5,0.3l-0.5-0.3l-0.6-0.2l0.2,0.4l0,0.4v0.5v0.4l-0.3,0.4l-0.5,0.1l0.2,0.5l-0.3,0.4l-0.1,0.4l0.1,0.4l-0.2,0.4l-0.1,0.4l0.2,0.4
	l0.4,0.2L670-13v0.5l-0.3,0.4l-0.1,0.4l-0.4,0.2l-0.2,0.4l-0.4,0.2l-0.4,0.2l-0.4,0.1l-0.4,0.2l-0.3,0.4v0.5l-0.5,0.1l-0.4,0.3
	l0.2,0.4l-0.2,0.4L666-8l-0.3,0.3l-0.3,0.3l-0.2,0.4l-0.1,0.4l0.2,0.4l-0.1,0.4l0.3,0.3l-0.2,0.4v0.4l-0.1,0.4l0.1,0.4l0.2,0.4v0.4
	l-0.2,0.4l-0.2,0.4l-0.1,0.4L665-1.4L664.8-1l-0.1,0.4v0.4l-0.3,0.3v0.5l0.4,0.4v0.4l-0.2,0.4l-0.4,0l-0.3,0.4l-0.2,0.4l-0.4,0.2
	L662.9,3l-0.1,0.4l-0.3,0.4l0,0.4l-0.5-0.1l-0.4,0.3l-0.3,0.3l-0.2,0.4l-0.4,0.1h-0.4l-0.4,0.2l-0.3,0.4l-0.5-0.1l-0.4-0.3l-0.5,0.1
	l-0.4,0.3l-0.4-0.3l-0.2-0.5L656.8,5l-0.4-0.3L656,4.5l-0.3-0.3L655.1,4l-0.4,0.2l-0.4,0.2l-0.5-0.1l-0.5,0.1L653,4.1l0,0.5L652.9,5
	l-0.4,0.2L652,5.6l-0.5-0.1l-0.4,0.3L651,6.2l-0.5,0.2l-0.2,0.4L650,7.1l0.2,0.4L650,8l-0.4,0.1l-0.3,0.2l-0.2,0.4L648.7,9l-0.4,0.1
	L648,9.3l-0.3,0.3l-0.4,0.1L647,9.9l-0.3,0.3l-0.4,0.2l-0.3,0.3l-0.2,0.4l-0.4,0.2l0.1,0.4l-0.1,0.4l-0.4,0.2l-0.2,0.4l-0.1,0.4
	l0.2,0.4v0.4l-0.2,0.4l-0.4,0.2l-0.4,0.2h-0.5l-0.3,0.3l-0.4,0.3l-0.1,0.4v-0.3v-0.3l0.2-0.2l0.1-0.3l-0.1-0.3l-0.3-0.1l-0.1-0.2
	l-0.1-0.3v-0.3l-0.1-0.3V13l-0.2-0.2l-0.2-0.2h-0.3h-0.3l-0.2-0.2h-0.3l-0.3-0.1l-0.2-0.2h-0.3l-0.1-0.2l-0.2-0.2l-0.2-0.2l-0.1-0.2
	h-0.3l-0.2,0.1l-0.2,0.1l-0.3-0.1l-0.3-0.1l-0.1-0.3l-0.3,0l-0.3,0.1l-0.2,0.1h-0.5h-0.2l-0.2,0.1l-0.2-0.1l-0.2,0.1h-0.2l-0.2-0.1
	l-0.2-0.2L635,11l-0.2-0.2l-0.1-0.3l-0.2-0.1v-0.3l-0.2-0.2l-0.2,0.1l-0.3-0.1l-0.3,0.1l-0.1,0.3l-0.3,0.1l-0.2-0.1l-0.2-0.2h-0.3
	l-0.2-0.2L632,9.8l-0.2-0.3l-0.1-0.2h-0.2l-0.3-0.1L631,9.1l-0.2-0.2l-0.3,0.3l-0.3,0.2l-0.1,0.4l-0.4,0.2l-0.3,0.3l-0.4,0.1h-0.4
	h-0.4l-0.4,0.3l-0.1,0.5l0.1,0.4l-0.1,0.5l-0.3,0.3l-0.5,0.1h-0.5l-0.3,0.3v0.4v0.4l-0.4,0.2l-0.2,0.4v0.4l-0.3,0.3l-0.2,0.3
	l-0.2,0.5l0.2,0.4v0.5l-0.1,0.5l-0.4,0.2l0.3,0.3l0.2,0.4l0.2,0.4l0.1,0.4l-0.3,0.2l-0.3,0.3l-0.2,0.4l-0.4,0.1l-0.2,0.4l-0.4,0.2
	l-0.1,0.4l-0.4,0.2l-0.4,0.3l-0.2,0.4l-0.5,0l-0.4,0.2l-0.5-0.2l-0.5,0.2l-0.3-0.4l-0.3-0.4l-0.4,0.2l-0.2,0.4l-0.3,0.4l-0.4,0.1
	l-0.4-0.2l-0.4,0.1l-0.4-0.2l-0.4-0.1v0.4l-0.3,0.3l-0.3,0.3l-0.3,0.3l-0.3,0.3l-0.2,0.3l-0.2,0.4v0.4l-0.4-0.2l-0.2-0.4l0.3-0.4
	l-0.2-0.5l-0.1-0.4l-0.4-0.2l-0.3-0.2l-0.3-0.3l-0.1-0.4v-0.4v-0.4l-0.3-0.3l-0.4-0.2l-0.2-0.4l-0.2-0.3l-0.1-0.4l-0.4,0.1h-0.4
	l-0.4-0.1l-0.4,0.1l-0.3-0.3l-0.1-0.5l-0.4-0.3l-0.5,0.1l-0.3-0.3h-0.4l-0.2-0.4l-0.2-0.4l-0.1-0.4l-0.3-0.3l-0.4-0.1l-0.4-0.1
	l-0.5-0.1l-0.2-0.5l-0.4-0.3l-0.2-0.4l-0.4-0.2l-0.4-0.1l-0.4-0.2H604l-0.5-0.1l-0.4,0.3l-0.3,0.4l-0.3,0.4l-0.4-0.2l-0.5,0.1
	l-0.4,0.1h-0.5l-0.5-0.1l-0.5,0.1l-0.2-0.5l-0.5-0.2l-0.3-0.3l-0.2-0.4l-0.2-0.4v-0.5l-0.3-0.4l0.1-0.5l-0.3-0.3l-0.4-0.2l-0.2-0.4
	v-0.4v-0.4l-0.3-0.3l-0.2,0.3l-0.1,0.4l-0.3,0.2l-0.3,0.2l0,0.4l-0.2,0.3l-0.1,0.4l0,0.4l-0.4,0.1l-0.4-0.1L595,14l-0.3,0.3
	l-0.4,0.2l-0.1,0.4l-0.4,0.2l-0.4-0.1l-0.3,0.1l-0.3,0h-0.4l-0.3-0.2l-0.3,0.2l-0.3,0.2l-0.3-0.2l-0.4,0.1l-0.3,0.2l-0.2,0.3H590
	l-0.2,0.3h-0.3l-0.3,0.1l-0.3,0.2h-0.4l-0.3,0.2l-0.4-0.1l-0.2,0.3l-0.3,0.2l-0.3,0.2l-0.4-0.1l-0.3,0.2l-0.3,0.1h-0.4l-0.4-0.1
	l-0.4,0.1l-0.3,0.3l-0.3-0.2l-0.4-0.1l-0.2-0.3l-0.4-0.1L583,17l-0.2,0.3l-0.2,0.3l-0.3,0.2l0.1,0.4l-0.1,0.4l-0.4,0.1l-0.2,0.4
	l-0.2,0.3l-0.2,0.3l-0.4,0.1l-0.2,0.4l-0.3,0.2l-0.3,0.2l-0.4,0.1l-0.4-0.2H579l-0.3-0.2l-0.3,0.2l-0.3-0.1l-0.3-0.2h-0.3l-0.3-0.1
	l-0.2-0.3v-0.4v-0.4l-0.3-0.2l-0.2-0.3l-0.3-0.1H576l-0.3-0.1l-0.3-0.2l-0.1-0.3l-0.2-0.2v-0.3l0.1-0.3l-0.2-0.3h-0.3h-0.3l-0.2-0.3
	l-0.2-0.3l-0.2-0.3v-0.4l-0.2-0.3l-0.3-0.1l-0.3-0.1l-0.3,0.1l-0.3-0.1l-0.3-0.2l-0.2-0.3h-0.4l-0.3-0.1l-0.2-0.2l-0.2-0.3l-0.3-0.2
	l-0.1-0.3l-0.3-0.1h-0.3l-0.3-0.2h-0.3l-0.3,0.2l-0.4-0.1l-0.4-0.1l-0.3,0.2l0.2-0.3l-0.2-0.3l-0.1-0.3l-0.2-0.2L567,12l-0.2-0.2
	l-0.1-0.3l-0.3-0.2l-0.2-0.3v-0.4l0.3-0.3V9.8l-0.4-0.1l-0.4-0.2V9.2l-0.2-0.3l-0.4-0.2l-0.4,0.2l-0.4,0.1l-0.3,0.3L563.8,9
	l-0.3-0.2l-0.4-0.1l-0.3-0.3l-0.4-0.1L562,8.3l-0.4-0.2l-0.1-0.4l-0.1-0.4L561.2,7l-0.3-0.2l-0.3-0.2l-0.4-0.1l-0.3-0.2l-0.4-0.2
	L559,6.3l-0.2-0.4l-0.4-0.2V5.3l-0.2-0.4l-0.3-0.2h-0.4l-0.4,0.2l-0.4-0.1l-0.3,0.2l-0.3,0.2l-0.3-0.2h-0.4L555,4.7l-0.3-0.2h-0.4
	l-0.3,0.2h-0.4l-0.3-0.1l-0.4,0.1l-0.4-0.2l-0.4-0.1l-0.3-0.2l-0.3-0.2l-0.3-0.2l-0.3,0.2h-0.4l-0.3-0.2l-0.4-0.1l-0.2-0.3l-0.2-0.3
	L549,2.8l-0.3-0.3l-0.2-0.4l-0.1-0.4l-0.1-0.5l0.3-0.4l-0.3-0.2l-0.3-0.2l-0.4-0.2h-0.4L547-0.2l-0.4-0.2h-0.4l-0.4-0.1l-0.2,0.2
	l-0.2,0.3l-0.1,0.3l0.2,0.3L545.3,1L545,1.2l-0.2,0.2l-0.3,0.1l-0.3-0.1l-0.3-0.1l-0.2,0.2h-0.3L543,1.8l-0.2,0.3l-0.3,0.2l-0.3-0.1
	l-0.3-0.1L541.7,2l-0.1-0.3l-0.3-0.1L541,1.7h-0.3l-0.3-0.1l-0.3-0.2l-0.3-0.2l-0.3,0.1l-0.3,0.1L539,1.6l-0.3,0.1l-0.2,0.2
	l-0.3-0.1l-0.3-0.1L537.8,2l0.1,0.3l-0.2,0.2l-0.2,0.2l0.1,0.3l-0.1,0.3l-0.2,0.2l-0.3,0.1l-0.1,0.3L536.5,4l-0.1,0.3v0.3l-0.3,0.1
	h-0.3L535.8,5l-0.3,0.1l0.2,0.3v0.3l-0.2,0.2l-0.1,0.3v0.3l-0.2,0.2l0.1,0.3l-0.1,0.3l-0.2,0.2h-0.2l-0.2,0.2L534.5,8l-0.3,0.1
	L534,8.3l-0.1,0.3v0.3L533.5,9L533,8.9l-0.4,0.2L532.2,9h-0.5l-0.4-0.2l-0.3-0.3L530.9,8l-0.1-0.4l-0.2-0.3L530.3,7l0.1-0.4l0.2-0.4
	l-0.2-0.4L530,5.5l-0.3-0.3l-0.4-0.3L529,4.8L528.6,5L528.2,5l-0.3,0.3l-0.2,0.4L527.4,6L527,6.1l-0.3-0.2l-0.4-0.1L525.9,6h-0.4
	l-0.4-0.1h-0.4l-0.1-0.4l-0.4-0.2h-0.4l-0.3,0.2l-0.3,0.1l-0.3,0.2l-0.4-0.1l-0.4,0.2l-0.3,0.2l-0.2,0.3l-0.3-0.1L521,6.1l-0.2-0.3
	l-0.3-0.2h-0.4l-0.3-0.1h-0.4l-0.3-0.1l-0.3,0.3v0.4l-0.3,0.3l-0.4,0.2l-0.4,0.1l-0.3,0.2H517l-0.3-0.3h-0.4L516,6.4l-0.3,0.3h-0.4
	H515h-0.3l-0.3-0.1l-0.3-0.2l-0.3,0.3l-0.3,0.4l-0.5,0.2L512.5,7l-0.3,0.3l-0.4,0.1l-0.4,0.1h-0.4h-0.4l-0.4,0.1l-0.4,0.3h-0.4
	l-0.5,0l-0.5-0.1l-0.3,0.4l-0.5,0.2l-0.5,0.1l-0.3,0.4l-0.4,0.2L506,9.1l-0.5,0.1l-0.3,0.3h-0.5l-0.4,0.3l-0.5-0.3l-0.4-0.3h-0.6
	l-0.5,0.3l-0.4-0.3L501.6,9l-0.2-0.5L501,8.2l-0.2,0.4L500.5,9L500,9.1l-0.3,0.3l-0.3,0.4h-0.5l-0.4,0.2l-0.4,0.2l-0.4,0.2l-0.2,0.4
	l-0.1,0.4l-0.2,0.4l-0.1,0.5l-0.1,0.4l-0.4,0.2l-0.4,0.2l-0.2,0.5l-0.5,0.2l-0.2,0.5l-0.4,0.3l0.4,0.4v0.5l-0.2,0.5v0.5l-0.5-0.1
	l-0.5,0.2h-0.5l-0.4,0.3l0.1,0.6l-0.3,0.5l-0.4,0.3l-0.5,0.3L492,18v-0.2l-0.1-0.2h-0.2h-0.2h-0.2l-0.2-0.1h-0.2l-0.2-0.1l-0.2-0.1
	l-0.1-0.2l-0.1-0.2l-0.1-0.2l0.1-0.2v-0.2l0.1-0.2l-0.2,0.1h-0.2l-0.1-0.2l-0.1-0.1h-0.2h-0.2l-0.2-0.1h-0.2h-0.2l-0.2-0.1h-0.2
	l-0.2,0.1h-0.2l-0.2,0.1l-0.1-0.2h-0.2l-0.1-0.1l-0.1-0.1l-0.2-0.1l-0.1-0.2l-0.2-0.1l-0.1-0.2l-0.2-0.1l-0.2,0.1h-0.2l-0.2-0.1
	l-0.2-0.1l-0.2,0.1l-0.1-0.2l0-0.2l-0.2-0.1l-0.1-0.2l-0.2-0.1l-0.1-0.2v-0.2l-0.1-0.2l-0.1-0.2l0.1-0.2v-0.2l0.2-0.1l-0.1-0.2
	l0.1-0.2l-0.1-0.2l-0.1-0.1l-0.1-0.2v-0.2l-0.1-0.2v-0.2l-0.3,0.2l0,0.3l0,0.3l-0.2,0.3l-0.2,0.3l-0.1,0.3l-0.3,0.1l-0.3,0.1
	l-0.3,0.2l-0.3,0.1l-0.4,0.1l-0.2,0.3l-0.4-0.1l-0.2-0.3l-0.3,0.2l-0.4-0.1l-0.1-0.3l-0.3-0.2h-0.4l-0.3-0.2l-0.3,0.1l-0.3,0.1
	l-0.3-0.2h-0.3l-0.3,0.1l-0.3,0.1l-0.2,0.3l-0.2,0.2l-0.2,0.3l-0.3,0.2h-0.3l-0.3,0.1l-0.2,0.2l-0.1,0.3l-0.1,0.3l-0.2,0.2l-0.1,0.4
	l-0.3,0.2l-0.3,0.1l-0.3-0.1l0.2,0.3l-0.1,0.4l-0.2,0.2l-0.2,0.2l0.2,0.3l0.1,0.3v0.3l-0.1,0.3l-0.3-0.2l-0.4,0.1l-0.3-0.2h-0.4
	l-0.4,0l-0.2,0.3l-0.4,0.1l-0.2,0.3v0.4l0.1,0.3l-0.1,0.3l-0.2,0.2l-0.2,0.3l-0.2,0.3h-0.4l-0.3,0.2h-0.3h-0.3l-0.3,0.1h-0.3
	l-0.3,0.1h-0.3h-0.3l-0.2,0.2h-0.3l-0.3,0.2l-0.4-0.1l-0.3,0.2l-0.4-0.1l-0.3-0.1l-0.2-0.3l-0.1-0.3l-0.3-0.1l-0.3,0.1l-0.3-0.1
	l-0.2-0.3l-0.3,0.1l-0.3-0.1l-0.2-0.2h-0.3l-0.2-0.2v-0.3l-0.1-0.3l-0.2-0.2l-0.2-0.3l-0.3-0.1l-0.3-0.1l-0.3-0.1l-0.3-0.2l-0.3-0.2
	l-0.3-0.1l-0.3-0.1l-0.3,0.2l-0.3,0.2l-0.4-0.1l-0.4,0.1h-0.4l-0.3-0.3l-0.3-0.2l-0.1-0.3l-0.1-0.3l-0.3-0.2v-0.4l-0.2-0.3v-0.3
	l0-0.3l-0.2-0.2v-0.3l-0.1-0.3l0-0.3l-0.2-0.2v-0.3v-0.3v-0.3l0.1-0.3l-0.1-0.3l-0.1-0.3l-0.2-0.2l-0.3-0.2v-0.4l-0.1,0.3v0.3
	l-0.1,0.3l-0.3,0.1l-0.2,0.2h-0.3l-0.2,0.2v0.3l-0.2,0.2l-0.3,0.1l-0.2-0.2l-0.3,0.1l-0.2,0.2l-0.2,0.2l-0.3,0.1l-0.3-0.1l-0.1,0.3
	l0.1,0.3l-0.2,0.2l-0.1,0.2l-0.1,0.3l-0.2,0.2l-0.3,0.1l-0.2,0.2l-0.2,0.1l-0.1,0.3v0.3l-0.2,0.2l-0.3-0.2L451,16l-0.1,0.3l-0.3,0.1
	l-0.3-0.2l-0.2-0.2l-0.3,0l-0.3-0.2h-0.3h-0.3l-0.1,0.3l-0.3,0.1l-0.3-0.1l-0.3,0.1l-0.2-0.1l-0.2-0.2l-0.3,0.1l-0.3-0.1h-0.3
	l-0.2,0.1l-0.2,0.2l-0.3,0.1l-0.3,0l-0.3-0.1l-0.2,0.2l-0.2,0.2l-0.3,0.1l-0.1,0.3h-0.3H444l-0.2,0.2l-0.2,0.2h-0.3l-0.2,0.2
	l-0.1,0.3l-0.1,0.2l-0.1-0.1l-0.2-0.1l-0.2,0.1l-0.2-0.1h-0.2l-0.2-0.1h-0.2h-0.2l-0.1-0.2l-0.2-0.1l-0.2-0.1l-0.2,0.1l-0.1,0.2
	l-0.2,0.1l-0.2,0.1H440l-0.1,0.2l-0.2,0.1l-0.1,0.2l-0.1,0.1l-0.1,0.2V19v0.2l-0.1,0.2h-0.2l-0.2-0.1h-0.4l-0.1,0.2l-0.2,0.1
	l-0.1,0.2l-0.2,0h-0.2l-0.1,0.2l-0.2,0l-0.1,0.2H437h-0.2l-0.2,0l-0.1,0.2l-0.2,0.1H436l-0.1-0.2l-0.2,0l-0.2-0.1l-0.2-0.1l-0.2-0.1
	L435,20v-0.2l0.1-0.2l-0.2-0.1l-0.1-0.2l-0.2-0.1l-0.2,0l-0.1-0.2l-0.2-0.1l-0.2-0.1l-0.1-0.2l-0.2-0.1l-0.1-0.1l-0.2-0.1l-0.2,0.1
	l-0.1-0.1l-0.1-0.1h-0.2l-0.1-0.2l-0.1-0.1l-0.1-0.1h-0.2l-0.1-0.1v-0.2l-0.2-0.1l0.2-0.1l0.1-0.2l-0.1-0.2v-0.2l-0.1-0.1l-0.2-0.1
	l-0.1-0.2l0.1-0.2l-0.2-0.1l-0.1,0.1l-0.2,0.1l-0.2-0.1l-0.2-0.1h-0.2h-0.2l-0.2,0.1l-0.1-0.2l-0.1-0.1H430l-0.2-0.1l-0.1-0.1v-0.2
	l-0.1-0.1h-0.2v-0.2v-0.2l-0.1-0.2l-0.2-0.1l-0.1-0.1l0-0.2V14v-0.2l0.1-0.2v-0.2l0.1-0.1l0.1-0.1l0-0.2l-0.1-0.2l0.1-0.1v-0.2
	l-0.2-0.1h-0.2l-0.1-0.1h-0.2h-0.2l-0.1-0.1l-0.1-0.1h-0.2l-0.1-0.2l0.1-0.2l-0.1-0.2l-0.2-0.1h-0.2l-0.1-0.1l-0.1-0.1l-0.1-0.1
	h-0.5l-0.4,0.4l-0.4,0.3l-0.5-0.1l-0.5,0.2l-0.5,0.1l-0.5-0.3l-0.5,0.2h-0.6l-0.5-0.3l-0.2-0.5l-0.4-0.4l-0.5,0.2l-0.5-0.2l-0.5-0.1
	l-0.4-0.3l-0.6,0.2l-0.5-0.3l-0.4,0.4l-0.4,0.4l-0.5,0.2h-0.5l-0.4-0.4l-0.6,0.1l-0.6,0.1l-0.5,0.3l-0.4,0.4l-0.6,0.1l-0.3,0.6
	l0.3,0.6l-0.6,0.3l-0.3,0.5l-0.6-0.1l-0.5,0.4l-0.4-0.4l-0.5-0.3l-0.6-0.1l-0.6,0.1l-0.4,0.4l-0.4,0.4l-0.5,0.1l-0.4,0.4l-0.2,0.5
	l-0.5,0.3l0,0.6l-0.5,0.3l-0.4,0.4v0.5l-0.1,0.5v0.5l-0.2,0.5l-0.2,0.5l-0.5,0.3l-0.1,0.5l-0.1,0.5l-0.1,0.5l-0.4,0.4l-0.4,0.4
	l-0.5,0.3l-0.2,0.5h-0.5l-0.5,0.2h-0.5l-0.5,0.1l-0.1-0.4V22l-0.3-0.3l-0.4,0l0.2-0.4v-0.4l-0.1-0.4l-0.3-0.3v-0.4l-0.3-0.3
	l-0.2-0.3l-0.4-0.2l0.1-0.4l-0.1-0.4v-0.4l-0.2-0.3v-0.4l0-0.4l0.1-0.4l0.1-0.4v-0.4l-0.3-0.3l-0.1-0.4l-0.3-0.3l-0.4-0.2l-0.2-0.4
	h-0.4l-0.4-0.2l-0.4-0.3l-0.1-0.4l0.1-0.4l0.1-0.4v-0.5l-0.4-0.4l0.4-0.3v-0.5l0.3-0.2l0.3-0.3l0.2-0.4l0.2-0.4l0.2-0.4l-0.2-0.4
	l-0.3-0.3L397.6,8l-0.2-0.4l-0.5-0.1V7l-0.1-0.4l-0.5-0.2l-0.4-0.4h-0.5L395,6.3l-0.4-0.3l-0.3-0.4V5.2l-0.3-0.4l-0.3-0.3l-0.2-0.3
	V3.8l-0.2-0.4l-0.2-0.3V2.7l-0.1-0.4l0-0.4l-0.7,0.4l-0.8,0.3L391,3l-0.8-0.2l-0.8-0.2L388.8,2l-0.5-0.7L387.6,1l-0.9,0l-0.6,0.6
	l-0.8,0.4l-0.8-0.3l-0.4,0.7L384,3.3l-0.6,0.6l-0.3,0.8l-0.4-0.7l-0.9-0.1l-0.8,0.4l-0.8-0.3l-0.7,0.4h-0.8l-0.8,0.1l-0.7-0.1
	l-0.5-0.6l-0.3-0.7l-0.7-0.3L375.4,2l-0.6-0.5L374.2,1l-0.3-0.7v-0.8l-0.4-0.7L373.4-2l-0.8-0.3l-0.7-0.4l-0.8,0.1h-0.8l-0.7-0.2
	h-0.8l-0.8-0.3L367.8-4l-0.6-0.5l-0.7-0.4L366-5.5v-0.8l-0.1-0.8l0.5-0.7l-0.7,0.2l-0.5,0.4L364.6-7l-0.6,0.3l-0.7,0.1l-0.7,0.3
	l-0.7,0.2l-0.7-0.3L360.7-7l-0.6-0.4l-0.8-0.1l-0.8,0.1L358-6.8l-0.8,0.1l-0.8-0.1l-0.6-0.6l0.1-0.5l-0.2-0.4l-0.3-0.3L355.2-9v-0.4
	l0.2-0.4v-0.5l0.2-0.4l-0.2-0.4l-0.2-0.4l-0.1-0.4l-0.3-0.3l-0.3-0.4l0.1-0.5l-0.1-0.4l-0.3-0.3v-0.5l0.2-0.4l0.3-0.4v-0.5l-0.3-0.4
	v-0.5l0.2-0.5l0.2-0.5l-0.2-0.4l-0.2-0.5l-0.4-0.4h-0.6l-0.1-0.5l-0.3-0.4v-0.5l-0.2-0.4h-0.5l-0.4-0.1l-0.5-0.1l-0.4-0.2l-0.2-0.4
	l-0.4-0.3l-0.4-0.2l-0.4-0.2l-0.3-0.4l-0.5-0.2l-0.3-0.4l-0.3-0.4V-24l-0.4-0.4l-0.1-0.5l0.3-0.4l-0.2-0.5l0.2-0.5l-0.2-0.5
	l-0.5-0.1l-0.3-0.3l-0.2-0.4l-0.5,0l-0.2-0.4v-0.5V-29l-0.4-0.3l-0.4-0.3l-0.5,0l-0.5,0L344-30l-0.1-0.5l-0.3,0.6l-0.7,0.1l-0.6-0.2
	h-0.6l-0.5,0.5h-0.7L340-30l-0.7-0.1l-0.6-0.1l-0.6,0.4l-0.6-0.2l-0.5-0.4l-0.5-0.3l-0.4-0.4l-0.5-0.3l-0.5-0.3l-0.6,0.2l-0.5,0.5
	l-0.6,0.1l-0.6-0.3h-0.6h-0.6l-0.6,0.2l-0.4,0.5l-0.6,0.4h-0.7l-0.4,0.5l-0.3,0.6l-0.4,0.5l0.1,0.7l-0.5,0.4v0.7l-0.6-0.5V-28
	l-0.6-0.3l-0.6-0.3h-0.7l-0.6,0.4l-0.6-0.2h-0.7l-0.1,0.8l-0.7,0.4l-0.7,0.3l-0.7-0.2l-0.6,0l-0.6-0.2l-0.6-0.2l-0.6-0.1l-0.5,0.3
	l-0.6,0.2l-0.1,0.6l-0.4,0.5l-0.5,0.3l-0.4,0.4l-0.3,0.5l-0.2,0.5l-0.7-0.1l-0.6,0.3l-0.5,0.4l-0.6,0.1l-0.1,0.7l-0.5,0.5l-0.5,0.5
	l0.1,0.7l-0.6-0.3l-0.2-0.6l-0.5-0.5l-0.6-0.1l-0.6,0.3l-0.6-0.1h-0.6l-0.6-0.4l-0.3-0.6l-0.4-0.6l-0.7-0.1l-0.7-0.2v-0.7l-0.3-0.6
	l-0.2-0.7l0.3-0.6l-0.5-0.4l-0.5-0.3l-0.6,0.3h-0.7l-0.2-0.6l-0.6-0.3l-0.5-0.3l-0.4-0.3v-0.6l-0.3-0.6l-0.3-0.6l-0.6-0.1l-0.4-0.5
	l-0.6-0.1l-0.5-0.3l-0.5-0.3l-0.6,0.1l-0.5-0.4l-0.3-0.5l-0.4-0.4l-0.2-0.6l-0.3-0.5h-0.7l-0.4-0.5v-0.7l-0.5-0.6l0.6-0.5l0.1-0.7
	l-0.6-0.4L294-38l-0.2-0.7l-0.2-0.7l-0.5,0.5h-0.7l-0.7,0.3l-0.7-0.2l-0.4-0.5l-0.5-0.5h-0.7l-0.6-0.5l-0.5-0.5h-0.8l-0.3-0.6
	l-0.4-0.6l-0.1-0.7l-0.3-0.6l-0.2-0.6l0.2-0.7l-0.7,0.4l-0.4,0.6l0.2,0.7l-0.2,0.7l0.6,0.4l0.1,0.7l-0.1,0.7l0.5,0.5l-0.1,0.7
	l0.5,0.6l-0.5,0.5l-0.2,0.6v0.6l-0.4,0.5l0.2,0.6l-0.3,0.6l0.5,0.5l0.5,0.4l0.1,0.7l0.1,0.7l-0.7,0.4l-0.2,0.8l-0.2,0.8l0.5,0.6
	l0.1,0.6l0.4,0.5l0.2,0.6l0.5,0.4l-0.1,0.6l0.3,0.6l0.3,0.6l-0.1,0.6l-0.6,0.4l-0.5,0.5l-0.6,0.4l-0.5,0.5l0.2,0.8l-0.5,0.6
	l-0.7,0.4l-0.3,0.7l0.5,0.6l-0.1,0.8l0.3,0.7l0.3,0.7l0.1,0.8l-0.5,0.7l-0.6,0.5L284-16l-0.7-0.2l-0.7,0.3l-0.3,0.6l-0.7,0.2
	l-0.7-0.2l-0.7,0.2l-0.7,0.1l-0.4,0.6l-0.8-0.2l-0.6,0.5l-0.7-0.1l-0.7-0.2l-0.1,0.8l-0.5,0.6l-0.7,0.3l-0.5,0.6l-0.3-0.3l-0.4-0.2
	l-0.5,0.1h-0.5l-0.4,0.1l-0.4-0.1h-0.4l-0.4,0.2l-0.2-0.4l-0.3-0.4l-0.4-0.2l-0.3-0.4l-0.4-0.1l-0.5,0.1l-0.5,0.1l-0.5-0.1l-0.4-0.3
	l-0.2-0.4h-0.4l-0.3-0.3l-0.3-0.2l-0.3-0.3l-0.4-0.1l-0.3-0.3l-0.3-0.3l-0.3-0.3l-0.1-0.4l-0.2-0.4l-0.4-0.1l-0.2-0.4l-0.4,0.1
	l-0.4-0.2l-0.5,0.1l-0.5-0.1l-0.4-0.3l-0.5,0.1l-0.4,0.2l-0.5,0.1l-0.4,0.2h-0.5l-0.2-0.4l-0.4-0.2l-0.4-0.2l-0.5-0.1l-0.5-0.2
	l-0.5,0.2l-0.5,0.1l-0.4-0.3l-0.5-0.2l-0.5,0.1l-0.3,0.5l-0.5,0.2l-0.4,0.4l-0.5,0.2l-0.6-0.1l-0.5-0.3l-0.4,0.4l-0.2,0.4l-0.1,0.5
	l-0.5,0.3l-0.3,0.4l-0.3,0.4l0.1,0.5v0.5L251-14l0.1,0.3l0.3,0.2l0.2,0.3l-0.3,0.2l-0.1,0.3l0.1,0.3l-0.1,0.3l-0.3,0.2v0.3l-0.2,0.2
	l-0.2,0.2v0.3l-0.1,0.3v0.4l0.2,0.2l-0.3,0.1l-0.3,0.2l-0.3,0.2v0.3l-0.2,0.2l-0.1,0.3l-0.1,0.3l0.2,0.3L249-7.9l-0.3,0.1l-0.3,0.2
	v0.3L248.4-7l-0.2,0.2l0.1,0.3v0.3l-0.1,0.3L248-5.5h-0.4l-0.2,0.3l-0.1,0.3l0.1,0.3v0.3l-0.1,0.3l0.2,0.2v0.3V-3l0.2,0.2l-0.1,0.3
	l-0.1,0.3l0.2,0.1l0.1,0.4l0.1,0.3l0.1,0.3l0.2,0.2l0.2,0.2l0.1,0.3l0.3,0.2L248.9,0l0.2,0.3h0.4h0.3l0.2,0.2l0.3,0.2l0.1,0.4
	l-0.1,0.3l0.4,0.1l0.2,0.3l-0.5,0.1L250,2.3l-0.3,0.3l-0.4,0.3l-0.5-0.2h-0.5L247.9,3l-0.3,0.4l-0.5,0.2h-0.5l-0.5-0.2l-0.3-0.5
	l-0.4,0.2h-0.5l-0.4,0.1h-0.4l-0.4,0.4v0.5l-0.5,0.1l-0.4,0.2l-0.5,0.1l-0.4-0.2l-0.4,0.2L241,4.8h-0.5L240.1,5l-0.2,0.4l-0.3,0.3
	l-0.2,0.4l-0.4,0.2l-0.4,0.2l-0.3,0.3l-0.4-0.4h-0.6l-0.4-0.4l-0.3-0.4L236.1,6l-0.6,0.1l-0.5-0.3h-0.6V5.3l-0.3-0.4l-0.3-0.4
	l-0.4-0.3l-0.5-0.3L233,3.2l-0.3-0.5l-0.5-0.1l-0.5,0.2l-0.5,0.2l-0.3,0.5v0.6l-0.5,0.2l-0.5-0.1h-0.5l-0.5,0.2L228.4,5L228,5.5
	l-0.6-0.3l-0.6,0.2l-0.4-0.5l-0.2-0.6l-0.6,0.1L225,4.2l-0.2,0.9l0.3,0.8l-0.6,0.6l-0.6,0.6L223.3,8l0.1,0.9l-0.8,0.4l-0.9,0.2h-0.9
	l-0.6,0.7l-0.8-0.4l-0.8-0.4l-0.8,0.4L217,9.5l-0.5,0.8l-0.9,0.1l0.3,0.8l0.6,0.6l0.6,0.7v0.9l-0.1,0.9l0.1,0.9l-0.6,0.7l-0.4,0.8
	l-0.8,0.4l-0.3,0.9l-0.2,0.8v0.9l-0.8,0.4l-0.4,0.8l-0.8,0.3H212l0.3,0.8l-0.1,0.8l-0.1,0.8l-0.6,0.6l-0.6,0.7l0.1,0.9h-0.9
	l-0.6,0.7v0.9l-0.7,0.6l0.3,0.8l0.1,0.8l0.5,0.8l-0.1,0.9l0.6,0.7l0.8,0.3l0.7,0.5h0.8l0.1,0.8l0.5,0.7l0.5,0.7h0.8l0.7,0.4l0.5,0.5
	l0.3,0.7l0.2,0.7l0.5,0.7l-0.2,0.8l0.2,0.8l0.5,0.6l-0.3,0.8l0.3,0.8l-0.5,0.2l-0.1,0.5l-0.5,0.1l-0.3,0.4l-0.3,0.4v0.5l0.1,0.5
	l-0.2,0.5l-0.4,0.3l-0.4,0.1l-0.5,0.1l-0.5-0.1l-0.5,0.1l-0.5-0.1l-0.2,0.5l-0.5,0.2l-0.5,0l-0.3-0.4l-0.3-0.3l-0.4-0.2l-0.4-0.2
	l-0.4-0.1l-0.4-0.1l-0.3-0.3l-0.5-0.1l-0.4,0.3l-0.5-0.2l-0.4-0.2h-0.6l-0.4,0.4l-0.5,0.2l-0.2,0.5l-0.4,0.2l-0.4,0.2l-0.4,0.2
	l-0.4,0.1l-0.4,0.1l-0.4-0.1l-0.3,0.4h-0.5l-0.4,0l-0.4-0.1l-0.4-0.1l-0.2-0.4l-0.4-0.1l-0.3-0.4l-0.4-0.1l-0.3-0.3l-0.5-0.2
	l-0.5,0.2l-0.2-0.5l-0.5-0.3l-0.4-0.1l-0.4,0.1l-0.4,0.2l-0.4,0.1l-0.2,0.4l-0.3,0.3l-0.1,0.5l-0.4,0.3l-0.4,0.3H194l-0.4,0.2
	l-0.3,0.4l-0.2,0.4l-0.4,0.3l-0.4,0.3l-0.2,0.4v1l-0.3,0.4l-0.4,0.3l0.1,0.5l0.2,0.4l-0.4,0.4l-0.1,0.5l-0.1,0.4l-0.2,0.4l-0.1,0.5
	l0.2,0.4l0.3,0.4v0.5l0.4,0.2l0.4,0.3l0.2,0.5l0.4,0.2l-0.1,0.5l0.2,0.5l0.3,0.5l-0.1,0.5l-0.4,0.3l-0.1,0.6l0.4,0.3l0.3,0.4
	l0.1,0.5l0.4,0.3l0.2,0.5v0.5l0.1,0.5l-0.2,0.5l-0.6,0.1l-0.4,0.4l-0.2,0.5l-0.2,0.5l-0.2,0.5l0.2,0.5l-0.1,0.5l-0.3,0.4l0.5,0.2
	l0.3,0.4l0.1,0.6l0.5,0.2l-0.4,0.3l-0.2,0.4l-0.1,0.5v0.5l-0.4,0.3l-0.4,0.2l-0.2,0.4l-0.1,0.5l-0.4,0.3l-0.1,0.5v0.5l-0.2,0.4h-0.5
	l-0.5-0.1l-0.4,0.3l-0.3,0.4l-0.1,0.4L189,72l0.2,0.4l-0.1,0.4l-0.4,0.2l-0.1,0.4v0.4l-0.2,0.3l-0.2,0.3l-0.2,0.3l-0.3,0.2h-0.4
	l-0.2,0.2l-0.1,0.3v0.4l-0.3,0.2l-0.4,0.2h-0.4l-0.2,0.3l-0.1,0.4l-0.4-0.1l-0.3,0.2h-0.4l-0.4,0.1h-0.7l-0.2,0.3l-0.4,0.2l-0.3-0.2
	l-0.4-0.1l-0.4,0.1l-0.3-0.1l-0.3-0.1l-0.3-0.1h-0.3l-0.3-0.1l-0.3-0.2l-0.3-0.1l-0.3,0.3h-0.4l-0.4-0.1l-0.4,0.1l-0.4-0.2l-0.1-0.4
	l-0.4,0.1l-0.3,0.2l-0.4-0.1l-0.3-0.2l-0.3,0.3h-0.4l-0.3,0.3v0.4l-0.1,0.3l-0.3,0.2l-0.2,0.3l-0.3,0.1l-0.4,0.1l-0.3,0.2h-0.4
	l-0.3,0.1l-0.3-0.3h-0.4l-0.3,0.2l-0.4,0.2l-0.4,0.4l-0.5,0.1l-0.5,0.2h-0.6l-0.5,0.2l-0.5,0.1l-0.1,0.5l-0.4,0.4l-0.4,0.4l-0.6,0.1
	l-0.3,0.5v0.5v0.5l-0.2,0.5l-0.3,0.4l-0.5,0.2l0.2,0.5l-0.3,0.5l0.4,0.3l0.1,0.5l-0.1,0.5l0.1,0.5v0.5l-0.1,0.4V88l0.2,0.5l-0.2,0.5
	l-0.3,0.4l-0.3,0.4l0.3,0.5l-0.2,0.5l-0.4,0.3v0.5l-0.2,0.4l-0.3,0.3v0.4l0.1,0.4l0.1,0.4l-0.1,0.4l0.3,0.4v0.5l-0.1,0.5l0.2,0.4
	l-0.2,0.4l-0.3,0.4l-0.3,0.4l-0.3,0.4l0.3,0.4l-0.1,0.5v0.5l-0.1,0.4l-0.4,0.3v0.5l-0.2,0.4l-0.4,0.2l0.1,0.5l-0.4,0.3v0.5l-0.3,0.4
	l0.3,0.4v0.5l0.1,0.4l0.2,0.4l-0.8-0.5l-1,0.1l-0.9,0.5l-0.9-0.4l-0.8,0.4l-0.8,0.4l-0.9,0.1l-0.8,0.4l-0.6-0.7l-0.9-0.3l-0.4-0.8
	l-0.7-0.6l-0.8-0.4l-0.6-0.7l-0.8-0.5l-0.3-0.9l-0.7,0.6l-0.7,0.6l-1-0.2l-0.9,0.5l-0.8-0.6l-1,0.1l-0.9,0.1l-0.9,0.1l-0.5,0.8
	l-0.1,0.9l-0.1,0.9l-0.4,0.8l-0.8,0.5l-0.7,0.6l-0.3,0.9l-0.8,0.5l-0.9,0.4l-0.9,0.3l-0.8,0.6l-0.3,1h-1l-0.8-0.6l-0.8,0.6l-1-0.2
	l-0.6,0.7l-0.6,0.7l0.2,0.9l0.1,0.9l-0.5,0.7l-0.3,0.8l-0.4,0.7l-0.4,0.7l-0.8,0.2l-0.6,0.6l-0.9,0.3l-0.8-0.5l-0.8,0.2l-0.7,0.4
	l-0.7,0.4l-0.8-0.1h-0.8l-0.8,0.1l-0.8,0.2l-0.7-0.4h-0.8l-0.8-0.3l-0.7-0.4l-0.6-0.5l4.6-4.3l4.7-4.2l3.2-5.7l0.1-6.5l4.8-4.8
	l2.8-6.2l-4.8-5.5l0.8-7.3l6.7,1.5l5.9-3.6l5.6-3.2l6.3-1.4l1.3-7l6.4-3.2l3.6-5.4l2-6.1l2.4-6l1.4-6.3l-2.4-6l-3.8-5.2l-6.9-1
	l-4.1-5.7l-2.2-6.1l-0.9-6.4l-1.7-7l1-7.1l5.4-4.5l5-5l0.4-7.1l-5.4-4.8l-3.4-5.5l-4.1-4.9l-4.1-4.8l-0.2-6.3l-0.4-6.3l3.6-5.2
	l-5.2-2.7l-3.9-4.4l-1.6-5.7l-4-4.4l-3.4-4.6l-2.2-5.3l-3.2-4.8l-3-4.8l-0.9-6.2l-2.3-5.9l1.5-6.6l5.5-3.8l-3.1-4.8l-5.5-1.7
	l-3.5-4.1l-3.9-3.8l1.4-6.2l-3.2-5.5l-4.2-4.4l-5.7-2.1l-5.7-1.5l-5.2-2.9l0.1-6.3l-4.2-4.7l-4.2-3.3l-4-3.6l-4.3-3.3l-4.8-2.4
	l0.8-0.9l0.2-1.2l0.2-1.2l-0.3-1.2l-1.3-0.5l-0.8-1.1l-0.3-1.3l0.3-1.3l0.1-1.2v-1.2l0.3-1.2l1.2-0.6l-0.1-1.1l-0.2-1.1l-0.4-1.1
	l-0.2-1.1l0.7-1l0.8-0.9l0.6-1.2l-0.3-1.3l0.4-1.1l0.6-1.1l0.8-1l1-0.7l0.7-1.1l-0.1-1.3l-1-1l0.2-1.4l-0.8-1l-0.4-1.1l-1-0.9
	l-0.2-1.3l-0.2-1.3l0.1-1.3l1.1-0.7l0.9-1l0.2-1.3L75-230h1.4l0.9-1.1l0.1-1.2l0.7-1l0.3-1.1l0.5-1.1l-0.1-1.3l0.7-1.1l1.1-0.6
	l0.7-1.1l0.1-1.4l1-1l0.2-1.4l-0.3-1.3l0.1-1.3l0.3-1.3l0.3-1.3l0.3-1.3l-0.8-1.2v-1.4l-1.4-0.5l-0.5-1.4l-1.1-0.7l-1.1-0.8l-0.9-1
	l-1-0.8l3.3,0.4l3.1,1.1l3.2-1.7l3.4,1.4l2.1,2.6l3.1,1.3l2.8,1.7l2.1,2.5l3.5,0.5l2.9-1.9l3,1.4l3.2,1l3.1,2.2l3.7-1l2.3-2.6
	l3.2-1.5l3.2-1.1l3.3-0.4l3.1-1.3l3.1-1.1l2.1-2.6l1.6-2.9l2.1-2.6l1.5-3l3-1.6l3.4-0.5l2.9,1.8l3.4,0.7l3.3-1.4l3.4,1.3l3.6-0.8
	l1.7-3.3l3-1.6l2.5-2.3l3.4-0.1l3.4,0.3l2.8-2l3.4-0.1l2.4-2.2l2.1-2.6l3.5-0.2l3.5,0.3l2.9-2.4l3.7,0.4l3.5-1.5l3.3-2l-0.6-4
	l2.1-3.5l2.9,1.9l2.1,2.8l1.7,3l2.4,2.5l3.6,1l2.3,3l3.6,0.5l3.6-0.6l3.7,1.2l3.8-0.8l3.8-1.3l1.9-3.5l3.4,1.3l3,1.9l3.7-0.6l3.2,2
	l3.3-3.5l3.5-3.2l4.6-1.1l4.7-1l3.8,3.1l4.9-0.4l4,2.5h4.8l4.2,1.5l4.3,1.4l2.4,3.8l3.1,3.3l4.5-0.6l4.5-0.2l3,3.9l4.9,0.7l3.4,2.9
	l4.4,0.8l4.3-0.5l4.2-0.8l4.2,2.1l2.1,4.2l4.4,2.2l4.5-1.9l5-0.8l3.7,3.4l3.8,2.6l3.3,3.2l5.1-1.9l2-5l4.9,0.6l4.9,0.5l4.7-0.1
	l4.5-1.5l1.1-4.8l3.8-3.1l4.1-1.5l4.3-0.8l4.2,1l4.3,0.2l3.7-1.9l3.3-2.5l3.5-2.1l3.7-1.9l4.3-0.2l3.5-2.4l4.1-0.4l4-1.1l3.9-2.7
	l2.2-4.2l2.7-3.8l3-3.5l4.7-0.3l4.6-1l4.4,2l4.8,0.2l4.6,0.5l4.5,0.8l4.4,1.6l3.5,3.1l2.9-4l3.6-3.3l4.9,0.7l4.8-1l5.2,1.2l4.7-2.5
	l5.2,0.8l4.6-2.4l5.7-0.9l5,3l0.6,6l4.9,3.4l5.4-0.6l4.6-2.9l4.6,2.8l5.3,1.1l2.2,4.6l4.1,3.1l3.8,3.3l3.8,3.3l5.2,2.7l5.7-1.1
	l4.1,3.8l3.5,4.3l5.4-2.3l5.7,1.5l5-2.8l3.2-4.7l5.3-1l4.8,2.4l5.5,0.2l4.1-3.6l2.6-4.7l1.8-5.1l5.7-0.1l4.3-3.8l5.5-1.1l4.4-3.5
	l5.9,0.1l4,4.4l4.7,2.1l5.1-0.6l4.7,1.7l4.9,1.1l3.8-3.4l3.1-4l3.1-4.1l4.7-2.2l5.3,0.5l5-1.7l3-4.9l5.7-0.8l2.7,5.7l6,1.7l-0.5,5.8
	l1.8,5.6l5.3,1.4l4.6,3l5.5,2.5l5.3-2.9l5.8,0.6l3.7,4.5l5-2l4.8-2.4l3,4.7l5.1,2.4l5.6,1l4.9-3v2.9l2.1,2.1l0.6,2.6l0.5,2.7
	l2.5,1.6l2.2,2l0.8,2.9l-0.4,3l1.6,2.7l2.9,1.1l3-0.5l2.8,1l2.1,2l0.8,2.8l2.5,1.4l1.8,2.4l2.2,1.9l1.4,2.6l2.8,1.1l2.9-0.7l0.8,2.9
	l2.7,1.5l3-1l2.6,1.7l1.9,2.1l2.9,0.1l2.2,1.6l2.7,0.5l2.6,0.3l2.6,0.6l2.7-0.3l2.6,0.4l2.8-0.3l2.8,0.2l2.7-1.1l1.6-2.4l1.4-2.6
	l2.5-1.5l2.9,0.8l2.8-1l2.4,1.2l2.2,1.6l2.8-0.3l2.5,1.3l2.4,1.8l3-0.4l2.9-0.1l2.4-1.6l2.7-0.5l2.6,0.9l2.6,0.9l2.7-0.7l2.8,1.5
	l3-1.2l2.6,1.8l0.7,3.1l2.5-1l2.3-1.3l2.7,0.1h2.6l2.5,1.1l2.7-0.6h2.7L943.6-227.7L943.6-227.7"/>
<path id="path124746" class="st0" d="M571.5-28.3l0.6-0.2l0.6,0l0.5-0.4l0.7-0.1l0.6,0.3l0.6,0.1l0.7,0.1l0.5,0.5l0.3,0.5l0.3,0.5
	l0.2,0.6l0.3,0.5l0.4,0.6l0.1,0.7l0.6,0.4l0.7-0.1l0.5,0.4l0.4,0.5l0.1,0.7l-0.1,0.7l0.5,0.5l0.6,0.4l0.7-0.3l0.7,0.2l0.4,0.5
	l0.6,0.3l0.7-0.2l0.6,0.4l0.5-0.5l0.7,0l0.6-0.2l0.6-0.3v0.6l0.1,0.5l0.1,0.6l0.5,0.4l0.1,0.6L588-18l0.6,0.1l0.5,0.4l0.6,0.1
	l0.5,0.3l0.3,0.5l0.2,0.6l0.6,0.2l0.2,0.5l0.2,0.5l0.4,0.4l0.4,0.4l0.2,0.5l0.2,0.5l0.5,0.3l0.5,0.4l0.3,0.5l-0.3,0.6l0.3,0.6
	l0.3,0.5l0.5,0.2v0.6l0.3,0.5l0.3,0.5l0.5,0.3l0.5,0.3l0.4,0.4l-0.3,0.2l-0.1,0.4l-0.1,0.4l0.1,0.4l-0.2,0.4l-0.2,0.3v0.4v0.4
	L596-4.3l-0.2,0.4L595.4-4l-0.4,0.3l-0.2,0.3l-0.2,0.4l-0.3,0.3h-0.4l-0.2,0.3l-0.2,0.3l0.2,0.4v0.4v0.4l0.1,0.4v0.4l0.2,0.3h-0.5
	l-0.3,0.3L593,0.9l-0.1,0.4l-0.2,0.3l-0.3,0.2l-0.1,0.4l-0.3,0.2l0.3,0.3v0.4l0.4,0.1l0.2,0.3l0.1,0.3l0.1,0.4v0.4v0.4l0.2,0.3
	l0.3,0.2l-0.1,0.4l0.2,0.4l-0.3,0.3l-0.4,0.2l0.1,0.4L593.2,8l0.4,0.3l0.3,0.4l0.5,0.2l0.5-0.2l0.2,0.5l-0.3,0.4l0.5,0.2l0.2,0.4
	l0.1,0.4l-0.1,0.4l0.1,0.4l0.1,0.4l-0.2,0.4l0.2,0.4l-0.2,0.4l-0.4,0.2l0.4-0.3l0.5-0.1v-0.5l0.4-0.4l0.3-0.3l0.5-0.1h0.5l0.3-0.4
	l0.5,0.1l0.3,0.4l0.4-0.2l0.5,0.1l0.4-0.3l0.4-0.3l0.5,0.2l0.5-0.1l0.4-0.2h0.5l0.4-0.1l0.5,0.1l0.4-0.2l0.4-0.2h0.5l0.5,0.1
	l0.4,0.3l0.4,0.3l0.2,0.4l0.2,0.4l0.3,0.4l0.5,0.1l0.5,0.2l0.5-0.1l0.2-0.4l0.2-0.4l0.5-0.2l0.5-0.1l0.5,0.2h0.5l0.4-0.3l0.5-0.2
	l0.5-0.3l0.5,0.1l0.5,0.1l0.5,0.2l0.5-0.2l0.2-0.5l0.3-0.4l0.5-0.1l0.4,0.1l0.4,0.1l0.4,0.2l0.4,0.1l0.4,0.3l0.1,0.5l0.5,0.1
	l0.5,0.2l0.3,0.4l0.2,0.4l0.5,0.1l0.3,0.3h0.5h0.5l0.3,0.4l0.4,0.3l0.5,0.1h0.6l0.5,0.2h0.6l0.5,0.3h0.6l0.6,0.1l0.6,0.1l0.7-0.1
	l0.6,0.4l0.2,0.6l0.5,0.5v0.6l-0.1,0.6l-0.1,0.7l0.5,0.5l0.5,0.3L628,19l0.2,0.5v0.6l0.4,0.4l0.3,0.4l0.5,0.2l0.5,0.2l0.2,0.5
	l0.3,0.5l0.6,0.2l0.3,0.5l0.2,0.5l0.1,0.5v0.6l0.3,0.4l-0.5,0.4h-0.6l-0.5,0.4l-0.3,0.6l-0.4,0.5l-0.5,0.4l-0.3,0.6l-0.6,0.1
	l-0.4,0.5l0.1,0.7l0.3,0.6l0.1,0.6l-0.3,0.6l0.2,0.6l-0.4,0.5l-0.3,0.5v0.6l0,0.6l-0.1,0.6v0.6l0.3,0.5l0.1,0.6l-0.2,0.6l-0.1,0.6
	l0.6,0.3l0.6,0.3l0.6,0.3l0.2,0.7l0.1,0.6v0.6l0.2,0.6l-0.2,0.6l0.2-0.2h0.3v-0.3l0.2-0.2l0.2-0.1l0.2-0.2l0.2-0.2l0.3-0.1l-0.1-0.3
	v-0.3l0-0.2l0.2-0.2l0.2-0.2l0.3-0.2L632,38l0-0.3l0.3-0.1h0.3l0.2-0.1l0.2-0.1h0.3l0.3-0.1l0.2,0.2l0.3,0.1h0.3l0.2,0.1l0.3-0.1
	l0.3,0.1l0.3,0.2l0.3,0l0.2-0.2l0.3-0.1l0.2-0.2l0.2-0.2v-0.3l0.2-0.2v-0.3l0.1-0.3l0.2-0.2l0.1-0.3l0.3,0.2l0.3-0.1l0.2-0.2
	l0.2-0.3l0.2-0.2l0.2-0.2l0.2-0.2l0.2-0.1l0.3,0l0.3-0.1L640,34l0.2-0.2l0.3-0.1l0.3-0.1l0.2-0.2l0.3-0.1l0.2,0.3l0.2,0.3l0.2,0.3
	l0.3,0.2l0.3-0.2h0.4l0.3,0.2h0.3l0.4,0.4l0.1,0.6l0.5,0.3l0.5,0.3l0.3,0.5l0.2,0.5v0.6V38l0.4,0.4V39l-0.1,0.6l0.4,0.5l-0.4,0.5
	l-0.4,0.5l-0.1,0.6l0.2,0.6l0.4,0.5l0.5,0.3l0.6-0.4l0.7,0.1l0.5,0.4l0.6-0.1l0.6-0.1l0.5,0.3l0.5,0.3l0.6,0.2l0.3,0.5V45v0.6
	l-0.1,0.6l0.4,0.4l0.5,0.4l-0.3,0.5l-0.5,0.3l-0.5,0.4l-0.4,0.5v0.6l0.4,0.5l0.1,0.6l-0.3,0.6l-0.6,0.3l-0.6-0.2l-0.5,0.3l-0.5,0.3
	l-0.2,0.6l-0.1,0.6l-0.4,0.5l-0.6,0.1v0.6l0.3,0.6l0.5,0.3l0.5,0.3v0.6v0.6l0.3,0.6l0.6,0.3l-0.5,0.4v0.6l0.2,0.6l0,0.7l-0.3,0.5
	l-0.2,0.5l-0.2,0.5v0.6l0.4,0.3l0.4-0.1l0.4-0.1l0.3-0.3l0.4-0.2l0.4,0.1l0.4,0.1l0.4,0.1v-0.5l0.3-0.3l0.2-0.4l0.3-0.3h0.4l0.4-0.2
	l0.4,0.1l0.4-0.2l0.3-0.2h0.4l0.3-0.2l0.4-0.1l0.1-0.4l0.2-0.4l0.3-0.2l0.1-0.4l0.3-0.2l0.3-0.2l0.1-0.4l0.4-0.2h0.4l0.3-0.2
	l0.3-0.3l0.1-0.4l0.3,0.4h0.5l0.4,0.2l0.3,0.3l0.2,0.3l0.4,0.2l0.2,0.4l0.4,0.1l0.4-0.1l0.3-0.3l0.3-0.4l0.4-0.1l0.4-0.2l0.4,0.2
	l0.4,0.2h0.4l0.4-0.1l0.4-0.2l0.3-0.3l0.3-0.2l0.4-0.1l0.4-0.1l0.4,0.2l0.4,0.1l0.3-0.2l0.2-0.3h0.4h0.4l0.3-0.3l0.2-0.4l0.4,0.1
	l0.4-0.2l0.8,0.3l0.8,0.3l0.3,0.8l0.2,0.8l0.8-0.4l0.7-0.5l0.8,0.2l0.7,0.4l0.8,0.2l0.6,0.5l0.4,0.7v0.8l0.6,0.5v0.8l0.3,0.7
	l-0.3,0.7l0.4,0.5l0.4,0.6l0.7,0.3l0.4,0.6l0.2,0.7l0.1,0.7l0.4,0.6l0.6,0.4l0.1,0.7v0.7l0.1,0.7l-0.1,0.7l-0.4,0.6l-0.2,0.7v0.8
	l-0.6,0.5l0.4,0.6l0.6,0.3l0.4,0.6l-0.1,0.7l0.6,0.3h0.7l0.4,0.5l0.5,0.4l0.2,0.7l0.7,0.3l0.5,0.5h0.7l0.7-0.2l0.5,0.4l0.7-0.3
	l0.6,0.4l0.6-0.6l0.8,0.1l0.7,0.2l0.7,0.3l0.4,0.6l0.6,0.3l0.4,0.6l0.4,0.5l0.6,0.4l0.6,0.3l0.4,0.6l-0.1,0.7l0.7,0.2l0.5,0.4
	l0.3,0.6l0.1,0.7v-0.4l-0.1-0.3l-0.2-0.2v-0.3l0.3-0.1l0.2-0.3v-0.3l0.1-0.3l0.2-0.3v-0.3l0.3-0.1l0.2-0.2l0.3,0.2l0.3-0.1l0.2-0.3
	l0.3-0.1l0.2-0.1h0.3h0.2l0.2-0.1l0.2-0.2l0.2-0.2h0.3l0.2-0.1l0.2-0.2l0.2-0.1h0.3l0.2-0.1l0.2-0.2l0.1-0.3h0.3L700,78l0.2-0.1h0.3
	h0.2l0.2-0.1l0.2-0.2h0.3l0.1-0.3l0.2-0.1L702,77h0.3l0.2-0.1h0.2h0.3h0.2l0.2-0.2h0.3h0.3l0.3,0.1l0.3-0.1l0.2-0.3l0.2-0.2l0.2-0.2
	l0.2-0.2l0.3-0.1l0.2-0.3l-0.1-0.3l0-0.1l-0.3-0.2l0.1-0.3v-0.3l0.2-0.2l0.2-0.2l0.3,0.4v0.5l0.3,0.3h0.5l0.1,0.5l-0.2,0.5l0.2,0.4
	l0.5,0.2l0.2,0.3l0.2,0.4l0.4,0.2l0.2,0.4l0.1,0.4l0.2,0.4l0.4,0.2l0.2,0.4l0.2,0.5l0.6,0.2l0.5,0.1l0.5-0.2l0.5-0.2h0.5l0.5-0.2
	l0.3-0.4l0.5,0.1l0.4,0.3l0.2,0.4l0.4,0.3l0.2,0.4l0.2,0.5l0.4,0.3l0.2,0.4l0.1,0.4l-0.1,0.4l0.1,0.4l-0.1,0.4V84l0.4,0.3v0.4
	l-0.1,0.4l0.1,0.4l-0.3,0.4v0.4l-0.3,0.3l-0.3,0.3v0.5l0.2,0.4l-0.2,0.4l0.1,0.5l-0.3,0.4l-0.1,0.5l0.3,0.4l-0.1,0.5l-0.1,0.4
	l0.3,0.3l0.2,0.5l0.2,0.4l0.2,0.4l0.3,0.3l0.1,0.4l0.3,0.4L717,94l0.3,0.3l0.3,0.3l0.4-0.5l0.5-0.3l0.2-0.6l0.1-0.6l0.4-0.4l0.3-0.5
	l0.6-0.2l0.3-0.6l0.7-0.2l0.7-0.2l0.5-0.5l0.1-0.7l0.5-0.4l0.7,0.1l0.6,0.1l0.6,0.2l0.7,0.2l0.6-0.4l0.5,0.4l0.6,0.2h0.6l0.6,0.2
	l0.5-0.5h0.7l0.5-0.4h0.7l0.5-0.4v-0.7l0.6-0.2l0.5-0.3l0.6-0.3l0.2-0.6l0.8,0.2l0.4,0.7l-0.1,0.7l0.2,0.7h0.7l0.6,0.3l0.6,0.3
	l0.5,0.4h0.7h0.6l0.6,0.2l0.4,0.5l0.6-0.3l0.5-0.4l0.7-0.1l0.6,0.3l0.6,0.2l0.6,0.2l0.6,0.3l0.5,0.5l0.2-0.7l0.7-0.3l0.7-0.1
	l0.7,0.2l0.5,0.4h0.6l0.6,0.3l0.6-0.1v0.7l0.4,0.6l0.7,0.2l0.5,0.5L750,93l0.4,0.5l0.1,0.7l-0.4,0.5l-0.3,0.6l-0.6,0.3l-0.1,0.6
	l0.1,0.6l0.4,0.5l0.4,0.5h0.7l0.5,0.5l-0.1,0.7l-0.3,0.6l0.3,0.6l0.2,0.7l0.6,0.2l0.6-0.2l0.5,0.3l0.6,0.1l0.5,0.3l0.5,0.3l0.5,0.4
	v0.6l0.3,0.6l0.6,0.2l-0.1,0.6l0.2,0.6l0.6,0.1l0.5,0.3l0.5,0.4l0.6,0.1l0.3,0.5l0.5,0.4h0.6l0.5,0.2l0.6-0.1l0.5,0.3l0.3,0.5
	l0.4,0.4l0.1,0.6l0.4,0.4l0.2,0.5l0.3,0.4l0.3,0.5v0.6v1.1l0.6,0.2l0.3,0.5l0.5-0.3l0.6,0.1l0.3,0.5l0.4,0.4l0.4,0.3l0.4,0.3
	l0.3,0.4l0.4,0.4l0.5,0.2h0.6l0.5-0.3l0.6,0.1l0.4,0.5l0.6,0.1l0.4,0.2l0.4,0.2l0.5-0.2h0.4l0.2,0.5l0.4,0.4l0.5-0.1l0.5,0.2
	l0.4-0.2l0.3-0.3l0.4-0.2h0.5l0.5-0.1l0.5-0.2l0.4,0.3l0.5,0.1l0.4-0.3h0.5l0.3-0.3l0.3-0.3l0.2-0.4l0.4-0.2l0.4-0.3l0.2-0.4h0.5
	l0.4-0.3l0.5,0.2l0.5-0.1l0.5-0.3l0.4-0.3l0.3-0.5l-0.2-0.6l0.5-0.1l0.4-0.2l0.5-0.1l0.4-0.2l0.3,0.4l0.4,0.3l0.5-0.2l0.5,0.2
	l0.5-0.1h0.5l0.4,0.3l0.4,0.3l0.2,0.4l0.2,0.5l0.5,0.1l0.5,0.1l0.4-0.4l0.1-0.5v-0.5l0.3-0.4l0.5-0.1l0.4-0.4h0.5h0.5l0.4-0.2
	l0.5-0.1l0.3-0.4l0.5-0.1l0.5,0.2l0.5-0.2l0.4,0.3l0.5-0.1l0.1,0.3l0.3,0.2l0.3,0.2l0.3-0.1l0.1,0.3l0.3,0.1l0.1,0.2l0.1,0.2v0.3
	l-0.1,0.3l0.2,0.2l0.1,0.2v0.3l0.1,0.3l0,0.3l-0.3,0.2l0.1,0.2l-0.1,0.2l0.2,0.2v0.3l0.2,0.2l0.1,0.2v0.2l0.2,0.2l0.1,0.2v0.2v0.2
	l0.1,0.2l0.1,0.2l0.2,0.2l0.2,0.2v1.1l-0.1,0.3l-0.2,0.2h-0.3l-0.1,0.3l-0.2,0.2l-0.2,0.2l-0.3,0.1h-0.3l-0.2,0.2h-0.3l-0.1,0.2
	l-0.1,0.3l-0.2,0.2l-0.3,0.1l-0.2,0.2l-0.2,0.2v0.3l-0.1,0.2l-0.1,0.2v0.3l-0.1,0.3l-0.1,0.3v0.6l0.2,0.2l0.3,0.1l0.2,0.2l0.2,0.3
	l-0.1,0.3l0.2,0.5l0.5,0.1l0.4,0.2l0.4,0.2l0.5,0.1l0.5,0.2h0.5l0.4-0.3h0.5l0.4,0.4l0.4,0.3l0.1,0.5l0.3,0.4l-0.2,0.5l-0.1,0.5
	l0.4,0.4h0.5l0.3,0.4l0.5,0.2l0.5-0.2l0.4,0.2l0.2,0.5l0.5,0.1l0.3,0.4l0.2,0.5l-0.2,0.5l-0.2,0.5l0.2,0.5l0.3,0.4l0.4,0.3l-0.1,0.5
	l0.2,0.5l0.5,0.2l0.4,0.3l0.5-0.2l0.5,0.2l0.4,0.3l0.2,0.5l0.1,0.5l0.4,0.3l0.2,0.4l0.1,0.5v0.5l0.2,0.4l-0.2,0.4v0.5l0.1,0.5
	l-0.1,0.5l0.4,0.2l0.5-0.1l0.4,0.1h0.4l0.3,0.4l0.2,0.4l0.5,0.3l0.5-0.2l0.5,0.1l0.2,0.4l0.3,0.3l0.5,0.1l0.1,0.5l0.5,0.2l0.3,0.4
	l0.2,0.4h0.7l0.7,0.3h0.8l0.6-0.5l0.4-0.6l0.5-0.5l0.8,0.1l0.6-0.5l0.7-0.3l0.7,0.3l0.7-0.2l0.6-0.4l0.6-0.4l0.5-0.5l0.2-0.7
	l0.6-0.4l0.8-0.1l0.7,0.5l0.8-0.2l0.5-0.6l0.5,0.6l0.8,0.1h0.8l0.6,0.5l0.7,0.1h0.7h0.8l0.5,0.5l0.7,0.2l0.6,0.3l0.2,0.7l0.6,0.4
	h0.8l0.6,0.5l0.6,0.5l0.1,0.8h0.8l0.7-0.3l0.8,0.1l0.5,0.6l0.6,0.6l0.8-0.1l0.7,0.5l0.2,0.8l0.6-0.5l0.8-0.1l0.8-0.3l0.7,0.3
	l0.4-0.8l0.7-0.5l0.9,0.1l0.7-0.5l0.7,0.4h0.8l0.8,0.1l0.7,0.4l0.5-0.5l0.6-0.4l0.6-0.5l0.2-0.7l0.4-0.6l0.5-0.6l0.8-0.1l0.7-0.3
	l0.9,0.1l0.6,0.6l0.8,0.2l0.7,0.6l0.4,0.9l-0.3,0.9l1,0.2l0.4,0.9l0.9,0.2l0.8-0.5l0.9-0.3l0.8,0.5l0.9,0.3l0.9,0.3l0.3,0.9l0.6,0.7
	l0.7-0.7l0.9-0.2l0.9,0.3l0.9-0.4l0.5,0.8l0.9,0.2l0.5,0.8l0.9,0.3h0.8l0.8-0.1l0.7,0.5l0.6,0.6l0.8-0.4l0.9-0.1l0.9,0.2l0.5,0.8
	l0.8-0.6l0.3-0.9l0.9-0.4l1-0.2l0.6-0.8l0.9-0.3l1,0.1l0.8-0.6v-1.1l0.6-0.9l0.8-0.6l0.9-0.5l0.5-0.9l-0.2-1l-0.7-0.8l0.1-1.1
	l0.9,0.1l1-0.1l0.8-0.4l0.8-0.5l0.2-1.1l1-0.6l0.9-0.4l1,0.1l0.9-0.5h1l1,0.2l0.7,0.8l0.8,0.4l0.6,0.8l0.9,0.2l0.9,0.2l0.2,0.5
	l0.1,0.5l-0.2,0.5l-0.2,0.5l-0.2,0.5l-0.1,0.5l-0.5,0.1l-0.4,0.4v0.5l0.1,0.4l0.1,0.4l0.1,0.4l0.4,0.3v0.5l-0.3,0.4v0.5l0.2,0.5
	l0.3,0.4v0.5l-0.2,0.5l0.1,0.6l-0.4,0.4l0.3,0.4l0.2,0.5v0.5v0.5l0.4,0.4l0.1,0.6l0.4,0.4h0.6l0.5,0.2l0.5,0.1l0.2,0.4l0.2,0.4
	l0.4,0.4v0.6l0.5,0.1l0.4,0.4l0.5,0.1l0.5,0.1l0.5,0.1l0.4-0.4l0.4,0.4h0.5l0.4,0.3l0.4,0.2l0.3,0.4h0.5l0.2,0.5l0.5,0.2l0.1,0.5
	l0.4,0.3v0.5l0.3,0.4l0.4,0.3l0.5,0.1l-0.2,0.5l-0.3,0.4v0.5v0.5v0.6l0.4,0.4l0.4,0.3l0.4,0.3l0.5-0.2h0.5l0.5-0.1l0.5-0.2l0.5-0.3
	l0.5,0.1l0.5-0.2h0.5h0.6l0.6,0.1l0.6,0.1l0.5-0.3l0.2-0.6l0.3-0.5l0.3-0.6l0.6-0.2v-0.6l0.1-0.6l0.2-0.6l0.6-0.3l0.6-0.1l0.6-0.1
	l0.2-0.6l0.5-0.5l0.5-0.4l0.6-0.2l0.2-0.6l0.5-0.4l0.6,0.2l0.5,0.4l0.7,0.1l0.5-0.5l0.5,0.2l0.5,0.2l0.4-0.4h0.6h0.5h0.5h0.6
	l0.4,0.4l0.6-0.1l0.5-0.2h0.6l0.5,0.4l0.5,0.4l0.1,0.6l0.5,0.4l0.6-0.1l0.4,0.4l0.6,0.1h0.6l0.5-0.3l0.6-0.1l0.5,0.1l0.6,0.1
	l0.5-0.1l0.3,0.5l0.4,0.4l0.5,0.2l0.5,0.3l0.2,0.5l0.4,0.4l0.6,0.2l0.2,0.6l0.3,0.1l0.2,0.3v0.3v0.3v0.3l-0.1,0.3l-0.2,0.3v0.3v0.3
	l0.1,0.3l-0.1,0.3l-0.3,0.2l0.1,0.3l0.2,0.2l-0.1,0.3l0.1,0.3h-0.3l-0.2,0.2l-0.3,0.1l-0.1,0.3l-0.1,0.3l-0.1,0.3l-0.2,0.3h-0.3v0.6
	l-0.2,0.3l-0.3,0.1l-0.1,0.3v0.3v0.3l-0.2,0.3l-0.1,0.3l0.1,0.3l-0.1,0.3l-0.3,0.2v0.3l0.1,0.3l0.2,0.2l0.2,0.2l0.2,0.2l0.2,0.3
	l0.1,0.3l-0.1,0.3v0.3v0.3l-0.1,0.3v0.3l0.2,0.2l0.2,0.1l0.2,0.2l0.1,0.3v0.3l0.1,0.3l0.3,0.1l0.2,0.2l0.1,0.3l-0.1,0.3v0.3
	l-0.2,0.2l0.1,0.3l0.1,0.3l0.3,0.1l0.2,0.3l0.7,0.4l0.8,0.1l0.4,0.7l0.8,0.2l0.7-0.5l0.8,0.2l0.8-0.2l0.6-0.5l0.8-0.1l0.4-0.7
	l0.7-0.2l0.7,0.3l0.6,0.5l0.8-0.2l0.7-0.4l0.7-0.2l-0.1,0.9l0.6,0.7l0.7,0.3l0.7,0.3l0.3,0.7l0.7,0.4l0.8,0.1l0.8-0.1l0.6,0.5h0.8
	l0.5,0.5l0.6,0.4h0.7l0.7,0.2l0.7,0.1l0.6,0.4l0.6,0.4l0.7-0.2l0.7,0.4l0.7-0.3l0.7-0.3l0.7,0.3h0.7l0.6-0.3l0.7-0.4l0.4-0.7
	l0.7-0.5l0.2-0.8h0.9l0.7-0.5l0.6,0.6l0.8,0.1l0.7-0.2l0.6-0.4l0.8-0.1l0.5-0.6h0.8l0.5-0.6l0.8-0.1l0.7,0.3l0.5,0.6l0.7,0.3
	l0.7,0.4l0.6,0.5l0.9-0.1l0.7,0.6l0.8-0.4l0.6-0.6h0.2l0.2,0.1l0.2,0.1l0.2,0.1l0.2,0.2l0.2,0.1l0.2,0.1l0.2,0.1l0.2,0.1l0.2,0.1
	l0.2-0.1h0.3l0.2-0.1l0.2,0.1l0.2,0.1h0.2l0.3-0.1l0.2-0.2l0.3-0.1l0.3,0.1l0.2,0.2l0.2,0.2h0.3l0.2,0.2h0.3l0.2,0.2l0.2,0.2
	l0.2,0.2l0.2,0.2l0.2,0.2l0.1,0.2v0.6l0.1,0.2l-0.1,0.2l0.1,0.2l0.2,0.2l0.1,0.2v0.2v0.2v0.2v0.2v0.2l-0.1,0.2h0.3l0.2,0.2l0.1,0.2
	v0.3l0.3,0.1l0.3-0.2l0.1,0.3l0.3,0.1l0.3,0.1l0.2,0.2l0.2,0.2l0,0.3l-0.1,0.3l0.2,0.2v0.3l0.2,0.2l0.1,0.3l-0.2,0.2l-0.1,0.2
	l0.1,0.3l0.7-0.4l0.1-0.9l0.1-0.8l0.1-0.8l0.5-0.5l0.7-0.3l0.5-0.6l0.7-0.4l0.4-0.7l0.8-0.2l0.5-0.7v-0.8l-0.2-0.8l0.3-0.7v-0.8
	l0.7-0.5l0.2-0.9l0.5-0.7l0.8-0.2l0.8-0.3l0.7-0.4l0.1-0.8l0.3-0.7l0.3-0.7l-0.5-0.7l-0.2-0.8l0.3-0.9l-0.5-0.8l-0.2-0.9l0.2-0.9
	l0.8-0.4l0.4-0.8l0.1-0.9l0.4-0.8l0.4-0.9l0.9-0.3l0.8-0.2l0.8-0.4l0.8-0.3l0.8,0.2l0.7-0.5l0.8,0.2l0.7-0.4l0.8,0.1l0.8-0.1
	l0.7-0.5l0.8,0.2l0.8,0.1h1l0.9,0.6l0.8-0.5l0.8-0.6l-0.2-1.1l0.6-0.9l0.8-0.7l1-0.2l0.3-0.8l0.5-0.7l0-0.9l-0.3-0.9l-0.4-0.8
	l-0.1-0.9l0.8-0.6l0.1-1l1.2-0.1l0.9,0.8l1.1,0.4l0.6,1l1-0.6l1.1-0.1l1.2-0.1l0.8-0.9l0.6-0.9l0.4-1.1l0.9-0.6l0.9-0.6l1-0.6
	l1.1,0.3l1-0.3l0.8-0.6l0.6,0.9l0.8,0.6l0.1,1.1l0.4,1l0.6,0.9l0.8,0.6l0.7,0.7l0.8,0.6l0.6,1l1.2,0.2l1-0.6l1.1,0.1l0.8,0.5l1,0.2
	l1,0.1l1,0.2l0.8-0.6l0.6-0.8l1-0.3l1,0.4l0.8-0.7h1l0.8,0.5h1l1-0.3l0.9-0.4l1,0.2l0.8,0.6l0.7,0.7l1,0.2l0.3,1l1,0.4l1-0.3
	l0.8-0.7l1-0.1l0.8-0.6l0.7,0.8l0.8,0.6l1.1-0.1l1,0.5l0.6,0.7l0.5,0.7l1,0.2l0.6,0.7l0.8,0.4l0.9,0.3l0.9,0.4l0.6,0.8l0.1,0.2
	l0.1,0.2v0.2l0.2,0.1v0.4v0.2l-0.2,0.1l-0.1,0.2v0.2l0.1,0.2l-0.1,0.2l-0.2,0.1l-0.1,0.2l-0.1,0.2v0.2l-0.1,0.2l0.1,0.2l0.2,0.1v0.2
	l0.1,0.2v0.2l-0.1,0.2v0.2l0.1,0.1l0.1,0.1l0.1,0.2l0.1,0.2l0.1,0.1l0.1,0.2l0.2,0.1h0.2l0.1,0.2l0.2,0.1l0.2,0.1l0.1,0.2l0.2,0.2
	l0.2,0.1h0.2l0.2-0.1h0.2l0.2,0.2h0.2l0.2,0.1l0.2-0.1l0.2,0.1h0.2l0.2-0.1v0.2l0.1,0.1l0.1,0.2v0.2l0.1,0.2v0.2l-0.1,0.2v0.2v0.2
	v0.2l0.1,0.2l0.1,0.2l0.2,0.1l0.1,0.2l0.1,0.2v0.2l0.1,0.3l0.2,0.2l0.3,0.1l0.2,0.2l0.3-0.2l0.3,0.1l0.3-0.1l0.3,0.2l0.3,0.1
	l0.3,0.2l0.3-0.2l0.3,0.1l0.2,0.2l0.2,0.3l0.3,0.1l0.3,0.1h0.4l0.2,0.3v0.4l0.2,0.3v0.3v0.3l-0.1,0.3l0.1,0.3l0.2,0.3l0.3,0.1
	l0.2,0.2l0.2,0.3l0.3,0.2l0.1,0.3l0.3,0.1l0.4-0.1l0.3,0.1l0.2,0.2l0.2,0.2l0.2,0.3l0.3,0.1l0.3,0.2l0.3-0.1h0.3l0.3-0.1l0.3,0.2
	l0.3,0.1h0.3l0.2,0.3v0.4l0.3,0.1l0.3,0.1l0.4,0.2l0.1,0.4h0.4l0.3,0.1l0.4,0.1l0.3-0.2l0.3,0.2h0.7l0.3-0.1l0.2-0.3l0.2-0.3h0.4
	l0.3-0.1l0.2-0.3l0.2-0.3l0.5-0.4l0.3-0.6l0.4-0.5l0.5-0.4l0.6-0.4l0.7-0.3l0.4-0.6l0.1-0.7l-0.7-0.5V173l0.5-0.6v-0.8l0.3-0.6v-0.7
	l-0.2-0.7l0.2-0.7l0.6-0.4h0.7l0.7-0.2l0.6-0.5l0.7,0.1l0.6,0.3l0.4,0.6l0.7,0.2l0.6-0.5V168l0.6-0.4l0.7-0.1l0.6-0.4l0.7-0.1
	l0.7-0.1l0.6-0.4l0.7-0.2l0.3-0.6l0.6-0.2l0.3-0.6l0.6-0.2l0.6,0.2h0.6l0.6,0.2l0.5,0.4h0.7l0.6-0.2l0.4-0.5l0.7,0.1l0.5-0.4
	l0.5-0.4l0.1-0.6l0.6-0.2l0.6,0.2l0.6-0.3h0.6l0.6-0.2l0.7,0.2l0.6,0.3l0.3,0.6l0.7-0.1l0.6,0.3l0.5-0.4l0.6-0.3l0.5-0.4l0.3-0.6
	l0.5-0.3l0.4-0.4v0.2v0.2l0.2,0.2h0.2v0.2l0.1,0.2l-0.2,0.1v0.2v0.2l0.1,0.2l0.1,0.1l0.1,0.2l0.2,0.1v0.2l0.2,0.1l0.2,0.1l-0.1,0.2
	l-0.2,0.1l-0.1,0.1v0.2l0.1,0.2l0.1,0.2v0.2l-0.2,0.2l-0.2,0.1l-0.1,0.2v0.2l0.1,0.2l0.1,0.2v0.2l0.1,0.2l0.2,0.1h0.2l0.2,0.1
	l0.1,0.2v0.2h0.2l0.2-0.1l0.2,0.1h0.2h0.2l0.2,0.1h0.2l0.2,0.1l0.2,0.1l0.2,0.1l0.1,0.1h0.2l0.1,0.1l0.1,0.1l0.2,0.1l0.1,0.1v0.2
	v0.2l0.1,0.1l0.1,0.2l0.2,0.1l0.2,0.1v0.2v0.2l-0.1,0.2l-0.2,0.1v0.2v0.2h0.7l0.6,0.4l0.7,0.2l0.6-0.4l0.2-0.7l0.7-0.4l0.7,0.2
	l0.7-0.2l0.8-0.1l0.6,0.5l0.7,0.2l0.7-0.3l0.3,0.7v0.7l0.7,0.3l0.6,0.5l0.6-0.1l0.6,0.2l0.6-0.3l0.6-0.3l0.5-0.3l0.6-0.3l0.6-0.3
	l0.2-0.6l0.6-0.4l0.1-0.7l0.3-0.6l-0.1-0.6l0.2-0.6l0.6-0.4l0.6-0.3l0.6-0.1l0.4,0.4l0.2,0.6l0.4,0.4l0.6,0.1l-0.2,0.6l0.3,0.6
	l0.5,0.3l0.4,0.4l0.2,0.6l0.1,0.6l0.3,0.5l0.3,0.5l0.6-0.1h0.7l0.3,0.6l0.6,0.4l0.5,0.2l0.6,0.2l0.4,0.4l0.3,0.5l0.4,0.4l0.5,0.2
	l0.5,0.4h0.6l0.5-0.4l0.6-0.1l0.6,0.1l0.6-0.3l0.6,0.1l0.6-0.1l0.5,0.3l0.4,0.4l-0.2-0.7l0.4-0.6v-0.7l-0.6-0.4l0.4-0.5l0.2-0.6
	l-0.2-0.6l0.3-0.6l0.2-0.6v-0.6l0.2-0.6l0.3-0.6v-0.7l-0.5-0.5l-0.5-0.5l-0.1-0.7l0.6-0.2l0.4-0.5l0.2-0.6l0.3-0.6l0.7,0.1l0.5-0.5
	l0.7-0.1l0.4-0.6l0.5-0.3l0.6-0.2l0.5-0.4l0.6-0.2l0.7-0.1l0.3-0.6l0.2-0.6l0.4-0.5l0.6-0.1l0.6-0.1l0.4,0.5l0.6,0.3l0.6-0.1
	l0.6,0.3l0.6,0.1l0.5,0.2l0.6-0.3l0.6,0.2l0.4-0.5l0.5-0.4l0.6-0.2l0.4-0.4l0.6-0.1l0.5-0.3h0.6l0.5-0.4l0.6-0.2l0.6,0.1l0.6-0.1
	l0.5-0.2h0.6l0.5-0.4l0.3-0.5l0.6-0.2l0.3-0.5l0.2-0.6l0.4-0.4l0.1-0.6l0.6-0.2l0.3-0.6l0.2,0.1l0.1,0.1l0.2,0.1v0.2l-0.1,0.2v0.2
	l0.1,0.2l0.1,0.1l0.1,0.1l0.1,0.1h0.2h0.2l0.1,0.1l0.1,0.1h0.2l0.1,0.1l0.1,0.1h0.2v0.2l0.2,0.1l0.2,0.1l0.1,0.2l0.1,0.1l0.1,0.2
	l0.2,0.1h0.2l0.1,0.1l0.2,0.1l0.2-0.1h0.2l0.1,0.1h0.2l0.1,0.2l0.1,0.1l0.2,0.1h0.2l0.2,0.1h0.2l0.1,0.1h0.2v0.2l0.1,0.1h0.2
	l0.1,0.1l0.1,0.1l0.2,0.1l0.2,0.1h0.2l0.1,0.1l0.1,0.2l0.1,0.1l0.1,0.1v0.2l0.1,0.2l-0.1,0.2v0.2l0.1,0.2l0.2,0.1v0.2l-0.1,0.2
	l0.1,0.1l0.1,0.1v0.2l0.1,0.1l0.4-0.2l0.5-0.1l0.5-0.2l0.5,0.1l0.4-0.4h0.5h0.5l0.4,0.2l0.1-0.5l0.5-0.3l0.5-0.2l0.2-0.5l0.5,0.1
	h0.5l0.5-0.2h0.5l0.5,0.2l0.4,0.2l0.3,0.4l0.4,0.3l0.5-0.1l0.4,0.3l0.5-0.2l0.5,0.1l0.4,0.4l0.5,0.3l0.5-0.3l0.6,0.1l0.2-0.5
	l0.5-0.3l0.5-0.1l0.5-0.2h0.5l0.4,0.4h0.5l0.5,0.2l0.5-0.2l0.5,0.3l0.5,0.1l0.5-0.1l0.3,0.4l0.4,0.4l0.1,0.5l0.2,0.4l0.5,0.3
	l0.5,0.2l0.2,0.5l0.1,0.5l0.2,0.5l0.4,0.4l0.5,0.1l0.5,0.1l0.3,0.4l0.5,0.1h0.5l0.4,0.2l0.3,0.4l0.5,0.2l0.5-0.1l0.5,0.2l0.5-0.2
	l0.5-0.2l0.5,0.2l0.5-0.2l0.5-0.3l0.6-0.1l0.4-0.5l0.5-0.3l0.6-0.2h0.6l0.4-0.4l0.6-0.1l0.6-0.4l0.6-0.3l0.7,0.1l0.7,0.2l0.7,0.1
	l0.6,0.4v0.7l0.6,0.4l0.4-0.4l0.2-0.5l0.5-0.4l0.5-0.2l0.4-0.4l0.4-0.4l0.6-0.1l0.3-0.5l0.7-0.1l0.5-0.4l0.6,0.2l0.6,0.4l0.6-0.2
	l0.3-0.5l0.5-0.3l0.4-0.4l-0.2-0.6l0.3-0.6l0.2-0.6l0.5-0.4l0.6-0.1l0.4-0.4l0.1-0.6l0.6-0.3l0.1-0.6l0.3-0.5l0.6-0.3l0.5-0.4
	l0.2-0.6l-0.3-0.6v-0.6l-0.1-0.6V153l0.2-0.6l0.6-0.2l0.5-0.4l0.2-0.5l0.5-0.3h0.6l0.6-0.2l0.2-0.6l0.6-0.2l0.5-0.3l0.6-0.2V149
	l0.3-0.5l0.3-0.5v-0.6l0.3-0.9l0.7-0.5l0.6-0.6l0.4-0.8l0.6-0.7l0.9-0.1l0.6-0.6h0.9h0.8l0.7-0.4l0.8,0.2l0.8-0.4l0.8,0.3l0.8,0.4
	l1-0.1l0.6-0.7l0.9,0.5l1-0.1l0.4,0.8l0.5,0.8l0.9-0.1l0.9,0.1l1-0.1l0.6-0.7l0.8,0.2l0.8,0.2l0.6,0.6l0.8,0.2l0.8,0.3h0.8l0.8,0.1
	l0.7-0.4l0.8-0.7l0.4-0.9l1-0.2l1,0.2l0.9,0.4l0.5,0.9l0.9-0.1l0.9,0.2h0.9l0.8-0.3l0.6,0.7l0.8,0.4l0.8,0.2l0.8,0.2l0.6,0.5
	l0.7,0.4l0.7,0.5l0.8,0.2l0.7,0.5l0.7,0.5l0.5,0.8l0.8,0.5l0.1,0.9l-0.2,0.9l0.7,0.5l0.9,0.2l0.9,0.1l0.6,0.7l0.3,0.8l0.1,0.9
	l0.6,0.7v0.9l-0.5-0.4l-0.1-0.7v-0.7l-0.4-0.5v-0.7l-0.5-0.5l0.1-0.7l-0.4-0.5l-0.3-0.7l-0.7-0.3l-0.6-0.5v-0.8l0.5-0.5l0.2-0.7
	v-0.7l-0.1-0.7l0.7-0.1l0.5-0.5l0.7-0.2l0.5-0.5l0.3-0.7l0.1-0.7v-0.7l0.1-0.7l0.2-0.7l-0.2-0.7l0.6-0.3l0.4-0.6l0.1-0.6l0.4-0.5
	l0.6-0.4l0.1-0.7l0.7,0.3h0.7h0.7l0.7-0.2l0.1-0.8l0.6-0.5l0.6-0.4l0.5-0.5l0.7,0.1l0.6,0.3l0.7-0.2l0.7,0.2h0.7l0.5-0.5l0.6-0.3
	l0.5-0.4l0.4-0.5l0.6-0.3l0.3-0.6l0.1-0.6l0.5-0.5l0.5-0.4l0.1-0.7v-0.7v-0.7l-0.2-0.7l0.3-0.6l-0.1-0.7l0.2-0.7l0.7-0.3l0.5-0.5
	l0.4-0.6l0.1,0.1l0.1,0.1l0.1,0.1h0.5l0.1,0.1h0.2l0.1,0.2l0.2,0.1h0.2h0.2l0.1,0.1l0.1,0.1l0.1,0.2l0.1,0.1l0.1-0.1l0.1-0.2
	l0.1-0.2h0.2l0.1-0.1h0.2h0.2h0.2l0.1,0.1h0.2h0.1h0.2l0.2-0.1l0.2,0.1l0.1,0.1l0.2,0.1l-0.1,0.2l0.1,0.2l0.2,0.1l0.1,0.2l0.2-0.1
	h0.2l0.2,0.1h0.2v0.2l0.1,0.1l0.2,0.1h0.2h0.2h0.2l0.2,0.1h0.2l-0.2,0.1l-0.2,0.1v0.2l-0.1,0.2l0.1,0.2v0.4v0.2l0.2,0.1h0.2l0.1,0.2
	v0.2l0.1,0.2v0.2l0.1,0.1v0.2l0.6-0.8v-1l0.5-0.8l0.8-0.5l-0.4-0.9l-0.3-0.9l0.2-1l0.4-0.9l0.2-0.9l0.3-0.9l0.3-0.9l0.5-0.8l0.2-1
	l-0.4-0.9l-0.9-0.6l-0.2-1l1-0.1l1-0.4l1,0.3l0.9,0.6l0.8-0.6l0.9-0.4l0.9-0.6l0.3-1l0.7-0.7l0.3-0.9l0.9-0.4l0.9-0.2l0.6-0.8
	l0.9-0.5l-0.1-1l0.6-0.8l0.5-0.7l0.2-0.9l0.1-0.8l0.1-0.9l-0.5-0.8l-0.7-0.6l0.2-0.9l-0.1-0.9l0.2-0.8l0.4-0.8l0.5-0.7l0.8-0.4
	l0.2-0.8l0.3-0.8l0.3-0.8l0.1-0.8l-0.1-0.3l-0.9-0.5l-0.5-0.8l-0.9-0.3l0.4-0.9l-0.1-1l-0.3-1l0.5-0.9l0.4-0.9l-0.4-0.9l0.7-0.7
	l0.8-0.5l-0.3-0.9l0.4-0.9l0.2-0.9l0.6-0.7l0.3-0.1h0.3h0.3l0.3,0.1l0.3-0.1l0.2-0.2l0.3,0.1h0.3l0.3-0.1l0.1-0.3l0.3-0.2l0.2-0.2
	l0.2-0.2l0.1-0.3l-0.2-0.3l0.1-0.3l-0.2-0.2v-0.3l-0.1-0.3l0.2-0.2v-0.3l-0.1-0.2v-0.3l0.1-0.3v-0.3v-0.3l0.1-0.3l0.2-0.2l0.1-0.3
	l0.2-0.1l0.3-0.1l0.1-0.3l-0.1-0.3l0.2-0.2l-0.1-0.3l0.1-0.3l0.3-0.1l0.2-0.2l0.1-0.3v-0.3V77v-0.3l-0.2-0.3l0.1-0.3l0.1-0.2
	l0.2-0.2l0.3-0.1l0.1-0.3l0.1-0.3l0.3-0.1l0.3-0.1l0.3,0.1l0.3,0.1l0.3-0.1l0.2-0.2h0.3l0.2-0.2l0.2-0.2l0.1-0.3v-0.3l0.3-0.1
	l0.3,0.1l0.3,0.1l0.2-0.2l-5.1,1.4l-5-1.8l-4.2-3.1l-2.1-4.8l-2.8-4.1l0.4-4.9l0.3-4.8l-2.2-4.3l0.4-4.3l1.9-3.9l0.8-4.2l-0.6-4.2
	l1.6-4.2l-1.5-4.3l3.1-3.4v-4.5l0.2-4.4l-2.4-3.7l-1.1-4.1l-2-3.7l-1.6-4.1l-0.2-4.4l-0.2-4.5l2.4-3.8l-4.1-1.6l-4.2-1.1l-1.2-4.4
	l-3.6-2.9l-1.8-4.1l-2.9-3.3l-4.1-1.5l-4-1.6l2-4.7l4.8-1.8l0.4-4.7l0.7-4.7l-0.3-4.8l-3.3-3.4l-1.9-4.1l-0.4-4.5l-0.3-4.3l1.2-4.1
	l-0.2-4.4l-2.7-3.6l-1.4-4l0.2-4.3l-0.3-4.6l-3.6-2.8l3.6-3.4l4.9,0.8l4.7-0.7l3.2-3.6l3-3.5l0.5-4.6l1.8-4.1l1.8-4.1l0.7-4.3
	l2.9-3.2l2.8-3.1l3.1-2.9l1.1-4.4l-0.6-4.4l2.7-3.5l3.4-2.9l-0.3,0.3l-0.4,0.1l-0.4,0.2l-0.4-0.2l-0.4,0.3h-0.5l-0.4-0.1l-0.4-0.2
	l-0.4,0.2l-0.5-0.1l-0.5-0.1l-0.3-0.4l-0.4-0.3v-0.5l-0.4-0.2l-0.4-0.2h-0.4l-0.4-0.2l-0.4,0.2l-0.4-0.2l-0.4-0.3l-0.1-0.6l-0.5-0.1
	l-0.5,0.1l-0.4,0.2h-0.4l-0.4,0.2l-0.3,0.3l-0.4,0.1l-0.4,0.1l-0.4,0.2l-0.3,0.3l-0.3,0.4l-0.2,0.4l-0.4,0.2l-0.3,0.3l-0.3,0.4
	l-0.4,0.1l-0.3,0.3l-0.4,0.2l0.2,0.4l-0.1,0.5l-0.1,0.5l-0.4,0.3l-0.3,0.3l-0.3,0.4l-0.4,0.2l-0.2,0.5l-0.5-0.3l-0.5,0.2l-0.5-0.1
	l-0.5,0.2l-0.2-0.4l-0.4-0.3l-0.5-0.1l-0.3-0.4l-0.4,0.1l-0.5,0.1l-0.5-0.2l-0.5,0.2l-0.3,0.4l-0.3,0.4l-0.5-0.1l-0.5,0.3l-4-0.3
	l-3.4,2.3l-3.7-1.4l-2.6-3l-3.6,0.2l-3.5-0.7l-2.5-3l-3.9-0.1l2.1-3.7l-1-4.2l-2.1-3.4l-3-2.7l-1.3-3.9l-2.1-3.5l-4.1-0.5l-3.8-1.4
	l-3.3-0.7l-2.5-2.3l-2.9-2.1l-3.5,0.6l-3.2-1.2l-3.1-1.6l-3.2,1.6l-3.5-0.1l-3.6,1l-3.3,1.6l-3.4-1.6l-3.5-1.3l-1.3-3.6l-3.7-1.1
	l-2.8-2l-2.7-2.2l-2.5-3.7l-3.8-2.4l-4.4,0.3l-4.4,0.6l-2.1,3.7l-3.5,2.4l-3.7,1.8l-4,1.1l-1.1,3.7l-1.7,3.4l-2.9,2.5l-3.6,1.4
	l0.9,4l-1.9,3.6l-3.4,2l-2,3.4l-4-0.9l-4.1,0.6l-3.5,2.6l-4.3-0.4l-2.9,3.2l-3.7,2.2l-0.5,4.2l-1.2,4.1l-1.7-3.8l-3.8-1.6l-2.9-2.9
	l-4-0.5l-3.6-1.7l-4-0.3l-3.3,2.7l-4.2-0.4l-9-2.3l-7.1-5.9l-9.2-0.1l-8.6,3.4l-3.9-7.7l-4.3-7.5l-4.8-7.5l-7.7-4.5l-8.5-4.4l-9,3.2
	l-7.7,4.5l-5.7,6.9l-8.4,0.4l-8.4,0.7l-7.1-4.8l-8.2-2.3l-7.3,4.4l-8.4-1.3l-8.3-2.6l-7.7,4.2l-7.6,2.8l-7.6,2.8l-4.8,7l-8,2.9
	l-9.5,2.2l-6,7.6l-8.5-3.9l-9.3-0.9l-4.8-7.4l-7.9-3.9l-6.9-5.3l-8.4-2.1l-6.7,5.4l-8.6-0.5l-6.7,4.5l-7.2,3.8l-7.8,3.6l-7.2,4.6
	l-8.2-2.6l-8.5-0.7l-7.7-2.8l-7.5-3.2l-6.3-5.2l-6.2-5.2l-8,5l-9.3-1.4l-7.1-5.3l-6.9-5.6l-9.2-0.7l-6.3,6.8L730-185l-8.3,3.2
	l-7.2,4.1l-5.6,6l-7,4.2l-6.4,5.2l-8.3-3.3l-4.3-7.9l-8.4-2l-6.9-5.2l-7.2,6l-9.2,2.1l-9-2.1l-8-4.5l-1.3,1.1l-1.8-0.2l-1.5-0.6
	l-1.4-0.8l-1.3,0.9l-1.6-0.1l-1.5,0.1l-1.4,0.5l-1.5,0.2l-1.5,0.2l-1.1,1.2l-1.5,0.6l-1.6-0.5l-1.6,0.6l-1.6,0.6l-0.7,1.6l-1.6,1.1
	l-1.5,1.2l-0.2,1.9l-0.2,1.9l-0.1,1.9l0.2,1.9l0.6,2.1l2,0.8l-1.2,1.3l-0.4,1.8l-1.3,1.4l-1.9-0.2l-1.1,1.2l-1.4,0.9l-1.6,0.5
	l-1.5,0.9l-1.3,0.8l-1.1,1.1l-1.5,0.5l-1.5-0.1l-1.5-0.4l-1.5,0.5l-1-1.3l-1.6,0l-1.3-0.8l-1.5-0.5l-0.7-1.6l-1.7-0.5l-1.6-0.5
	l-1.5,0.9l-1.7,0.1l-1.1,1.3l-1,1.6l-1.9,0.1l-1,1.6l0.4,1.8l-0.8,1.3l-1.2,0.9l-0.8,1.5l-1.7,0.3l-1.1,1.5l-1.2,1.4h-1.9h-1.9
	l-1.8-0.1l-1.7-0.5l-1.2-1.3l-1.4-1.1l0.6,1.1l0.5,1.1l-0.4,1.2l-0.2,1.2l1.3,0.1l1,0.8l0.3,1.2l0.6,1.1l-0.3,1.1l-0.7,0.9l-0.8,0.8
	l-0.7,0.9l-0.2,1.4l0.9,1l-0.5,1.2l-1,0.8l-1.3-0.2l-1.2,0.5l-0.8,1l-0.8,1v1.2l-0.3,1.2l-0.2,1.2l-0.7,1v1.2l0.3,1.2l0.6,1l1,0.7
	l-0.2,1.3l0.8,1l-0.7,1l-0.6,1.2l1.1-0.2l1.1,0.3l1.1,0.5l1.2-0.3l0.6,1l0.8,0.9l1.1,0.6l1.3-0.1l-0.2,1.3l0.9,1l1.2,0.2l0.8,0.9
	l1.1,0.4l0.5,1.1l1.1,0.3l0.9,0.7l0.8,0.9l0.5,1.1l1.1,0.6l1.2,0.2l0.8,1l-0.3,1.2l-0.1,1.2l0.8,0.9l0.1,1.1l0.7,0.9l0.5,1.1
	l-0.4,1.1l-0.1,1.2l-0.6,1l0.2,1.1l0.3,1.1l0.2,0.5l-0.2,0.5v0.5l-0.4,0.3l-0.2,0.5l0.2,0.5l-0.1,0.5l-0.4,0.4h-0.5L572-85l-0.4,0.3
	l-0.5,0.2L571-84l-0.3,0.4l-0.5,0.1l-0.5,0.2l-0.1,0.5l-0.2,0.4v0.5l-0.1,0.5l-0.5,0.1l-0.5,0.2l-0.4,0.3l-0.2,0.5l-0.5,0.2
	l-0.5,0.3l-0.3,0.5l0.1,0.6l0.2,0.4l0.1,0.4l0.2,0.5L567-77l-0.1,0.5l0.1,0.5l0.1,0.4v0.5l0.1,0.5l-0.3,0.4v0.5l-0.3,0.4H566
	l-0.5-0.2l-0.5,0.2l-0.3,0.5l-0.4,0.3l-0.1,0.5l-0.1,0.5l-0.4,0.4l0.3,0.4l-0.1,0.5v0.5l-0.4,0.3l-0.4,0.3l-0.5,0.2l-0.2,0.4
	l-0.1,0.5l-0.1,0.4l-0.2,0.4l-0.4,0.2l-0.3,0.4l-0.4,0.2h-0.5L560-66l-0.1,0.5l-0.3,0.7l0.1,0.7l-0.5,0.5l-0.1,0.7l0.6,0.4l0.5,0.6
	l0.2,0.7v0.7l-0.4,0.6v0.7l-0.6,0.4l-0.4,0.6l0.3,0.6l0.2,0.7l-0.4,0.6l0.2,0.7l0.7,0.3l0.3,0.7l-0.3,0.8l0.3,0.7l-0.3,0.6l-0.2,0.7
	l-0.2,0.7v0.7l0.2,0.7l0.5,0.5l-0.1,0.7v0.7l0.4,0.6l0.7,0.2l0.5,0.6v0.7l0.8,0.3l0.3,0.8l0.7,0.3l0.8,0l-0.3,0.8l0.3,0.8l0.5,0.6
	l0.5,0.6l0.2,0.8l0.8,0.3l0.8,0.2l0.8-0.2l0.4,0.5l0.6,0.4h0.8l0.5,0.6l0.1,0.7l-0.4,0.6l0.2,0.7l0.1,0.7l-0.1,0.7l-0.2,0.7
	l-0.2,0.7l0.4,0.6v0.8l-0.5,0.7l-0.2,0.8l0.3,0.8l0.3,0.8l0.8,0.3l0.4,0.7L571.5-28.3L571.5-28.3"/>
<path id="path125032" class="st0" d="M352.8,275.1c7-9.3,81.2-41.8,132.2-55.7s83.5-37.1,90.5-76.5s8.8-150.7,8.8-150.7l25.5,4.6
	c0,0-13.5,88.1-15.8,153c46.4-48.7,81.2-58,92.8-74.2s36.7-174.7,36.7-174.7h16.2c0,0-27.5,174.7-39,193.3s-97.4,62.6-111.3,88.1
	s-44.1,51-83.5,60.3s-153.2,78.9-153.2,78.9V275.1z"/>
</svg>
