<svg id="Layer_1" data-name="Layer 1" xmlns="http://www.w3.org/2000/svg" viewBox="0 0 1366 768"><defs><style>.cls-1{fill:#fbd680;}.cls-2{fill:#fce3ab;}</style></defs><path id="path106866" class="cls-1" d="M1391.29,503.62c-2.26-2.25-43.61,24.86-45.92,26.25-38.47,23.08-93.57,40.39-137.78,45.92-69.79,8.72-140.38,7.71-209.94,16.4-25.08,3.14-54.48,6.9-83.29,10.55-2.69-.72-7.77-2.16-8.55-2.35-18.64-4.66-146.94,4.58-160.74,11.48-9.58,4.79-33.35-.27-42.65-4.92-5.77-2.88-62.13,9.94-85.28-1.64-9.86-4.92-20.39,7.62-31.17,4.92-.52-.13-108.51-11.86-111.53-11.48-9.84,1.23-18.07,5.48-26.24,8.2-.85.28-1.71.47-2.57.69-10.16-1-21.47-1.68-32.31-2.48-12.6-3.91-24.58-9.83-34-13-10.18-3.39-22.25-1.52-32.8-3.28-22.7-3.78-45.3-7.45-67.25-14.76-17.51-5.84-41.56,3.28-59,3.28-9.93,0-15.2-12.6-26.25-9.84-13.06,3.26-26.55,2.71-39.36,8.2a52,52,0,0,0-1,5.45c-60.09-12-112.17-31.83-143.35-67.78L-22,808c74.15,7.15,187.56,16,327,18,79.12,1.16,111.2-.68,284-4,166.13-3.2,211.51-3,402-7,167.21-3.56,399.93-9.45,405-51,1.14-9.35-10-14-17.83-40.6-8.45-28.75-1.77-52.39,0-75.44C1380.26,620.84,1413,525.3,1391.29,503.62Z"/><path id="path117690" class="cls-2" d="M1029.26,390.81c-1.46.77,10,14.86,19.4,41.11,1.23,3.44,2.37,7.05,3.46,10.78-.88.67.53,4.87,3,11.37,1.61,6.91,3,14.29,4.09,22.37a322.81,322.81,0,0,1,2.71,46.18,160.14,160.14,0,0,0-14.67-20c2.82-3.06,5-4.57,4.65-5.13s-3.19-.15-7.19,2.22c-3-3.3-6-6.47-9.08-9.4-2.29-6.49-3.86-10.22-4.68-10.11-.57.07-.74,2-.52,5.49a104.48,104.48,0,0,0-15.65-10.7c-1.32-2.29-2.65-4.59-3.88-6.65-14.37-24.08-23.58-39.25-25.87-38.65s2.55,15.52,12.79,37.72c-1.19-.39-2.3-.74-3.33-1-1-1.92-1.93-3.79-2.9-5.55a86.64,86.64,0,0,0-9.13-13.86,31.29,31.29,0,0,0-5.08-5c-2.87-2.26-5.15-2.43-5.47-1.91-.16.25.75,1.75,2.11,3.86a58.71,58.71,0,0,1,2.73,5.36c1.94,4.18,3.42,7.93,5.71,14.18,1.49,4.09,3,8.42,4.59,13.37q.69,2.12,1.38,4.32c.12.41.25.81.37,1.22,0,.06.09.27.1.33s0,0,.11.31c4.36,12.16,9.84,27.41,15.06,43.38-.85,1.48-1.7,2.91-2.55,4.48-1.26-.85-2.59-1.8-3.81-2.57-3.73-2.37-7.17-4.37-10.25-6-1.73-3.14-3.49-6.16-5.28-9.12.67-4.1,1.24-7.16,2-10.26a43.11,43.11,0,0,1,1.35-4.67c.76-1.87,1.26-3.19,1.09-3.38-.35-.39-2.19,0-4.16,2.13a22.45,22.45,0,0,0-3.34,4.63c-.66,1.16-1.26,2.49-1.86,3.81-1.12-1.72-2.24-3.36-3.37-5,1.19-7.65,1.37-12.55.28-12.69-.85-.11-2.3,2.42-4.26,6.89a252.41,252.41,0,0,0-16.3-20.32c-14.58-16.3-26-24.85-27.64-23.84s6.68,11.31,18.6,28.32c2.86,4.08,5.84,8.47,8.87,13.1.79,2.76,1.62,5.6,2.64,8.87,1.46,4.68,3.37,10.53,5.19,16.13-.66,1.78-1.22,3.25-1.92,5.16-.23.64-.49,1.39-.74,2.08-1.88-4-3.75-8-5.73-11.76a232.44,232.44,0,0,0-17.46-28.9c-2.65-3.71-5.24-6.95-7.83-9.95,2.55-8.17,4.67-12.75,3.9-13s-3.71,3-7.21,9.36A87.88,87.88,0,0,0,916,462a52.44,52.44,0,0,0-10.35-6.73c-6.39-3.09-10.57-2.9-10.84-2.26s2.88,2.21,7.3,5.81a65.08,65.08,0,0,1,7.52,7.36,112.23,112.23,0,0,1,10,13.41,112.5,112.5,0,0,0-4.94,15.56,146,146,0,0,0-3.79,28.64c-1.94-.41-3.89-.84-5.8-1.13-20.84-3.13-33.09-1.3-33.29.28s12.71,2.81,30.68,7.66c2,.54,4.11,1.18,6.17,1.85A175.28,175.28,0,0,0,903,568.92c-1.94-7.21-4-13.8-6.21-20,0-.15-.11-.28-.16-.42,4-3.53,6.46-5.57,5.89-6.23-.39-.45-3.23.09-7.52,2-4-9.83-7.48-15.44-8.91-15.13-1.58.35-.43,7.59,1.64,19a88,88,0,0,0-14.63,11.17,82.26,82.26,0,0,0-12.56-10.15c-1.11-.72-2.19-1.36-3.24-1.94,1.1-3.55,2.19-7,3.07-9.84,2-6.39,3.47-11.34,4.57-16,1.83-7.71,1.91-12.3.55-12.48-1.19-.15-3.25,3.85-6.86,11-1.89,3.73-4.77,9.6-7.35,15.24-1.13,2.49-2.35,5.23-3.57,8.11-2.44-.57-4-.52-4.24-.09s.94,1.4,3.06,3c-.75,1.86-1.5,3.74-2.22,5.66a112.73,112.73,0,0,0-4,12.57c-.19-3.57-.38-7.12-.54-10.47-.84-17.65-1.4-29.8-2.81-41.09-1.26-10.2-2.89-16.17-4.27-16.13s-2.33,6.09-3.15,16.23c-.73,9.08-1.66,25.51-1.68,41.16,0,3.49,0,7.13.14,10.84a312,312,0,0,0-14.14-27.86c-11.28-19.56-20.38-30.39-21.74-29.84s5.18,12.34,14.28,32.25a464.65,464.65,0,0,1,21.18,55.12s0,0,0-.06a204.94,204.94,0,0,0-26.73-34.43c-8.21-8.42-15.45-14-21.92-17.66-6.1-3.48-10.2-4.6-10.78-3.93s2.34,3,7,7.23a167.32,167.32,0,0,1,17.57,18.92,303.28,303.28,0,0,1,23.72,34.2c1.33,2.18,2.65,4.43,4,6.68-2.5-3.64-5-7.22-7.69-10.72a159.59,159.59,0,0,0-15.1-17.49,67.78,67.78,0,0,0-16.06-12.28,34.41,34.41,0,0,0-8.38-3.18,23.53,23.53,0,0,0-8.5-.41,19.62,19.62,0,0,0-7.79,2.93c-5.26,3.48-6.13,6.36-5.57,6.68s2.83-2,7.83-4.07a16.23,16.23,0,0,1,12-.48,27.81,27.81,0,0,1,6.19,3.07c4.72,3,8.65,6.86,13.19,11.94a172.42,172.42,0,0,1,13.2,17.32c6.5,9.54,12.19,19.09,18.52,30.1a131.41,131.41,0,0,0-18.76-13,93.23,93.23,0,0,0-30.15-24.63c-10.64-5.4-18.34-6.52-19-5.42s5.29,4.64,13.62,10.91c3.11,2.33,6.35,5,9.63,7.93-7.55-2.23-12.41-2.6-12.91-1.65-.66,1.26,6.27,4.58,16.54,10.43,3.4,1.93,7,4.11,10.8,6.52,1.16,1.45,2.31,3,3.45,4.52l.16.22a161.64,161.64,0,0,1,18,32.91c3.73,8.85,5.9,14.56,7.62,14.41s2.68-6.25,1-16a79.73,79.73,0,0,0-4.86-16.68l0,0a138,138,0,0,1,26.27,32.26c5.26,9,7.67,15.06,9.37,14.85,1.29-.16,2-4,.77-10.35l.74-.74c.06.19.13.51.18.68a15.85,15.85,0,0,0,3.36,6.75c1.3,1.41,2.41,1.81,2.8,1.59.78-.44-.16-2.91-.42-7.83a2,2,0,0,0,1.61.06c1-.73-.54-3.34-1-7.93,0-.35-.05-.71-.07-1.07,1.36-1.73,2.81-3.56,4.41-5.5,1.46,10.37,3.71,16.75,5.39,16.67s2.68-6.82,3.49-17.59c.21-2.79.44-6.39.66-9.61,1.23-1.22,2.42-2.36,3.58-3.44-.09,5.61-.08,10.73,0,14.37.21,7.71.84,12.61,2.58,12.8s4.16-4.41,6.23-12.14a120.93,120.93,0,0,0,3.18-17.8c2.47,4.3,4.75,8.41,6.88,12.06,1.12,1.93,2.2,3.69,3.25,5.36.53,2.29,1,4.43,1.4,6.4,1,4.64,1.61,7.42,2.74,7.5.84.06,1.92-1.5,2.77-4.37,1.67,1.81,3,2.72,3.74,2.46,1.69-.56.63-6.28-2.39-15.2a68,68,0,0,0-1.17-10.9,90.72,90.72,0,0,0-2.49-10.15c.45,1.33.88,2.65,1.3,3.95a146.15,146.15,0,0,1,4.36,16.65c1.52,8,1.55,13,2.64,13.2.84.15,2.22-1.6,3.25-5,1.74,4.78,3.2,7.46,4.11,7.34s1.16-3,1-7.9a17.81,17.81,0,0,0,1.11-4c3.3,9.83,6.86,15.23,8.15,14.95s.31-5.38-.79-13.72c.63-2.31,1.23-5.14,1.78-8.45a47.28,47.28,0,0,0,1,9.93c1.18,5.45,3,8.35,4.09,8.21s1.39-3.23,2-8.4a109.28,109.28,0,0,1,3.41-17c2.22,3.31,4.3,6.59,6.06,9.84,1.06,2.51,2.19,5,3.43,7.52,0-10.63-2.13-20.62-4.68-30.73a.61.61,0,0,1-.07-.14c1.41-3.39,3-6.89,4.86-10.5a284.78,284.78,0,0,0,9.09,33.32c3.41,9.9,6.11,15.55,7.39,15.35.87-.13,1-3.16.48-8.18,2.13,5,4,7.69,4.89,7.51,1.37-.27.33-7.16-.92-18.34,1.19-2.48,2.69-5.3,4.87-9.3.18-.34.4-.68.58-1,.12,1,.22,2.13.35,3.14,2.18,16.46,5.93,26.32,7.64,26.12s1.1-10.31,1.22-26.47c0-2.1.07-4.34.13-6.58,2,5,3.78,9.3,5.16,12,2.37,12.85,5.5,20.63,7.14,20.45a.76.76,0,0,0,.5-.4c.37,1.5.79,2.34,1.27,2.35,2,.06,4.48-14.35,8-36.58,1.69,8.45,3.08,14.56,4.4,14.55,2.09,0,4.19-12.32,2.83-32.26-.08-1.21-.23-2.52-.34-3.78.31.37.65.75,1,1.12,3.55,4.44,6,7.57,8,10.35,1.19,13.5,1.6,21.86,3.29,22,1.12.07,2.7-3.38,4-9.68.65,6,1.46,9.64,2.53,9.68,1.57.05,3.43-7.09,5.12-19.39a330.55,330.55,0,0,0,2.83-41c3.06,4,5.82,7.94,8.31,11.78,0,.06,0,.12,0,.17-.62,12.43-.81,24.64,1.78,37.3.89-3.17,1.63-6.33,2.29-9.47a134.59,134.59,0,0,1,4.86-12.63,140.31,140.31,0,0,1,8.13,19.69c2,6.06,3.1,9.7,4.45,9.7s2.8-3.72,2.9-10.39a57.21,57.21,0,0,0-1.2-12c1.45,3.85,2.84,7.14,4.14,9.79.69,10.1.89,16.31,2.36,16.46s4.54-6.82,6.12-19a23.7,23.7,0,0,0,2.27,4.57c1,5.82,2,9.27,3.09,9.27s2.21-3.41,3.13-9.36c2.05,3.9,4.1,5.78,5.07,5.47,1.25-.39.1-6.32,0-16.1a169.52,169.52,0,0,1,1.2-20.48c.18-1.62.38-3.26.6-4.91a106.71,106.71,0,0,0-.54,12.46,83.45,83.45,0,0,0,1.22,13.16c-1.45,11.07-1.34,18,.81,18.46,1,.19,2.31-1.08,3.85-3.49,1.7,3.29,3.37,5,4.35,4.79,1.33-.27,1.44-3.67,1.47-9.34,0-2.41,0-5,.13-7.83.85-2.15,1.72-4.4,2.59-6.87,1.65-4.67,3.38-9.9,5.29-15.39a157.35,157.35,0,0,0,8.06,20.72c4.32,8.89,8.36,14,10.34,13.53s1.6-6.42,0-15.63c-.76-4.36-2-10.46-3.42-17.12,1.63,1.11,3.32,2.29,5.08,3.56,1,3.81,2.18,8.06,3.09,11.35,3.55,12.71,6.3,20.59,8.38,20.43s3.17-8.1,2.42-20.67c2.37,2.07,4.53,4,6.57,5.9.06.42.13.85.18,1.27.51,5.55-.7,8.89.67,9.61a2.44,2.44,0,0,0,1.9-.31c.87,5.89.35,9,1.38,9.38.52.2,1.75-.44,3-2.31a16.14,16.14,0,0,0,2.17-6.64c.56.83,1.08,1.39,1.55,1.43.47,5.53,1.85,8.81,3.17,8.81,2.08,0,3.49-7.6,7.6-19.08.53-1.5,1.25-3.13,1.86-4.7a130.62,130.62,0,0,1,10,14.67c5.25,9,7.66,15.06,9.37,14.84,1.29-.16,2-4,.76-10.34.24-.23.5-.48.75-.75,0,.2.13.52.18.69a15.73,15.73,0,0,0,3.36,6.75c1.29,1.4,2.4,1.8,2.8,1.58.77-.44-.16-2.91-.43-7.82a2.14,2.14,0,0,0,1.62.06c1-.73-.55-3.34-1-7.94,0-.35,0-.71-.06-1.06,1.36-1.74,2.8-3.56,4.4-5.5,1.46,10.37,3.72,16.75,5.4,16.67s2.68-6.82,3.48-17.59c.21-2.79.45-6.39.66-9.61q1.86-1.83,3.58-3.44c-.08,5.61-.08,10.72,0,14.37.21,7.7.85,12.61,2.58,12.8s4.17-4.42,6.23-12.14a122.42,122.42,0,0,0,3.19-17.8c2.47,4.3,4.75,8.4,6.87,12.06,1.12,1.93,2.2,3.69,3.26,5.36.53,2.29,1,4.43,1.4,6.4,1,4.64,1.61,7.42,2.74,7.49.84.06,1.92-1.49,2.77-4.36,1.66,1.81,3,2.72,3.73,2.46,1.69-.57.63-6.28-2.38-15.2a69.29,69.29,0,0,0-1.17-10.91,94.21,94.21,0,0,0-2.5-10.15c.45,1.33.89,2.65,1.3,4a146.15,146.15,0,0,1,4.36,16.65c1.52,8,1.56,13,2.65,13.19.84.15,2.22-1.6,3.25-5,1.74,4.78,3.19,7.46,4.1,7.34s1.17-3,1-7.9a19,19,0,0,0,1.11-4c3.3,9.83,6.85,15.23,8.14,14.94s.32-5.37-.78-13.72c.63-2.3,1.23-5.14,1.78-8.44a47.18,47.18,0,0,0,1,9.92c1.18,5.46,3,8.36,4.09,8.22s1.39-3.24,2-8.41a109.51,109.51,0,0,1,3.41-17c2.22,3.31,4.31,6.59,6.07,9.85,1,2.5,2.18,5,3.43,7.52,0-10.64-2.14-20.62-4.69-30.73a.91.91,0,0,0-.07-.14c1.42-3.4,3-6.89,4.87-10.5a282,282,0,0,0,9.09,33.31c3.41,9.91,6.11,15.56,7.39,15.36.87-.14.94-3.17.48-8.19,2.12,5,4,7.69,4.89,7.51,1.37-.27.32-7.15-.93-18.33,1.2-2.48,2.69-5.31,4.87-9.31l.59-1c.12,1,.22,2.13.35,3.13,2.17,16.47,5.92,26.32,7.64,26.13s1.09-10.32,1.21-26.47c0-5.66.23-11.88.63-18.54.62-.91,1.17-1.77,1.83-2.71a185.74,185.74,0,0,0,2.5,25.06c2.41,13.9,5.76,22.23,7.47,22a.73.73,0,0,0,.51-.39c.36,1.5.79,2.33,1.26,2.35,2.06.06,4.5-14.43,8-36.78,2.07-13.11,4.6-29.49,7.77-46.77,2.78-3,5.54-5.86,8.39-8.54a78.79,78.79,0,0,1,8.41-7.05c8.78-6.14,16-10.36,23.63-13.5,13.92-5.81,24.3-8.15,23.87-9.42s-10.76-1.52-27.32,3.19A107.74,107.74,0,0,0,1380,536a69,69,0,0,0-5.89,4.18c1.33-6.39,2.69-12.61,4.19-18.59a256.61,256.61,0,0,1,7.4-25c3-8.22,5.54-13.9,8.82-19.24a47.88,47.88,0,0,1,4.94-6.79c3-3.41,5.42-4.92,5-5.51s-3.78-.22-8.51,3a38.69,38.69,0,0,0-7.37,6.57c-4.57,5.14-8.51,11.36-12.36,19.54a176.49,176.49,0,0,0-9.54,25.46c-2.69,9-5,18.52-7,28.66-.07.36-.13.73-.2,1.09-.35,1.81-.66,3.59-1,5.37-.52.55-1,1.11-1.53,1.67,1.71-17.79,3.85-33.9,5.13-46,.3-2.78.51-5.19.71-7.53,1.71-4.11,3.43-8,5.1-11.65,7-15.15,12.08-24.44,10.56-25.1s-9.45,7.52-18.7,22.36a196.21,196.21,0,0,0-19.8,42.79c-2.25,1.69-4.73,3.69-7.4,6-2,1.78-4.18,3.77-6.33,5.87,1.76-16,4.16-31.73,6-43.86,0-.23.06-.32,0-.26s0-.23,0-.28c0-.35.07-.69.1-1,.14-1.25.27-2.48.42-3.68.5-4.22,1-7.92,1.55-11.43.85-5.35,1.44-8.57,2.34-12.19a48.54,48.54,0,0,1,1.35-4.68c.76-1.86,1.27-3.18,1.1-3.37-.36-.39-2.2,0-4.17,2.12a22.92,22.92,0,0,0-3.34,4.64,64.94,64.94,0,0,0-5.18,12.29c-.51,1.54-1,3.17-1.47,4.84-.79.34-1.65.74-2.55,1.18,4.72-19.23,6.1-32,4.25-32.21s-7,13.11-14.81,34.31c-.67,1.82-1.38,3.84-2.08,5.86a77.43,77.43,0,0,0-11.06,10.36c-.39-2.85-.85-4.44-1.33-4.44-.69,0-1.36,3.21-2.16,8.76a118.59,118.59,0,0,0-16.2,29.2,270.48,270.48,0,0,1-5.4-38.1c-.44-6.73-.51-12.91-.34-18.74.91-5.57,1.37-9.16.54-9.62.28-3.17.62-6.24,1.06-9.18,3.33-22.45,10.42-35.17,9.1-35.67s-11.18,11.7-16.76,34.73a144.72,144.72,0,0,0-3.68,26.7c-.54-.29-.9-.56-1.51-.85a25,25,0,0,0-10-2.33,27.41,27.41,0,0,0-10,1.76,37.83,37.83,0,0,0-9.22,5c-6.22,4.55-11.29,10.19-16.18,17-1.47,2-2.87,4.12-4.24,6.26-.87-.54-1.74-1.08-2.56-1.54.46-1.51.85-2.75,1.3-4.19,2.69-5.7,5.41-11.16,8.29-16.36a182.19,182.19,0,0,1,16.39-25.15c4.49-5.75,7.41-9,6.57-9.66s-5.46,1.24-11.9,6.3a90.79,90.79,0,0,0-11.85,11.43c-.15-.36-.35-.62-.62-.65-.94-.13-2.69,3-5.07,7.63-1.43,1.88-2.87,3.76-4.33,5.89a195.36,195.36,0,0,0-12.47,20.69s-.12,0-.14.08,0,.11,0,.16c-1.31,2.51-2.57,5.18-3.83,7.83-.43-9-.83-16.88-1.31-23.67,1.94-10.43,4-20.1,6.14-28.83,6.06-25.07,11-40.08,9.28-40.53s-10,13.8-18.74,38.79c-.25.71-.49,1.49-.74,2.22-.53-1.46-1.07-2.48-1.57-2.46-1.39,0-2.33,6.08-3.14,16.22,0,.4-.07,1.16-.1,1.59-1.61,5.61-3.16,11.51-4.61,17.72-.77-4.44-1.59-8.78-2.43-12.94-3.78-18.63-8.82-38.05-11.87-48.76-3.41-12-6-19-7.65-18.86s-2.16,7.52-1.22,19.84c1,13.66,3.29,28.22,6.51,49.36.44,2.84.88,5.89,1.33,8.9-3.08-5-5.86-9.13-8.31-12.52-1-1.55-1.91-3.11-2.88-4.61,2.15-2.17,3.36-3.44,2.93-4s-2.25-.29-5,.74c-2.14-3.25-4.24-6.32-6.19-9.12-4.42-6.33-9.26-12.89-12.41-17.06-6-8-9.44-12.48-10.81-12.11-1.58.41-.38,5.87,3.65,14.77,2.41,5.36,5.35,11,9.26,18.35,1.73,3.23,3.86,7.19,6,11.25-1.1.85-2.24,1.77-3.39,2.8a87.89,87.89,0,0,0-12.52,14,117.53,117.53,0,0,0-20.1-11.12c-.27-13.85-.64-22.65-2.6-22.83-1.78-.16-4.64,7.06-7,19.36-5.56-1.61-9.07-1.82-9.43-1.23-.52.87,2.89,2.94,8.51,6.54,0,.18-.06.34-.09.53-1.2,7.67-2,15.82-2.6,24.71a221.27,221.27,0,0,0-17.45-46.67c-.81-1.56-1.61-3-2.41-4.41a184.86,184.86,0,0,0-11.79-35.08c-12.16-26.61-26.81-39.62-28.29-38.85ZM1284.08,428ZM931.45,460.38h0Zm66.44,13.19c1.24.76,2.56,1.6,3.94,2.51,4.5,9.48,9.83,21,13.9,32.44-.6.79-1.2,1.54-1.83,2.41-4.41-11.38-9-21.92-13.23-31q.12.29,0,.06l-.14-.33-.52-1.23q-.94-2.24-1.9-4.35c-.08-.19-.16-.34-.25-.52Zm-73.82,13.1c.22.37.42.67.64,1.05,5.07,8.62,9.73,17.75,14.81,28.64,2.94,6.31,5.8,12.9,8.65,19.65l-.91,1c-.47-.25-1-.48-1.45-.74-.3-1.48-.62-2.53-1-2.53s-.55.64-.82,1.62c-1-.52-2-1.09-3.07-1.57a165.08,165.08,0,0,0-20.17-7.54c-.11-3.94-.14-7.76,0-11.39.91-5.57,1.37-9.15.54-9.61.27-3.17.62-6.25,1.05-9.19.5-3.37,1.1-6.45,1.73-9.37Zm218,3.48.44.84a149.62,149.62,0,0,1,7.64,16.75c2.74,7.52,5.37,15.4,7.79,23.63.18.6.33,1.18.5,1.77-1.66-1.85-3.32-3.69-5-5.41q-3.15-3.22-6.1-5.9-2.3-2.55-4.65-5c.52-2.51.5-4.07-.31-4.35-.57-.2-1.54.31-2.75,1.34q-4-3.83-8.07-7.17A118.47,118.47,0,0,1,1142.12,490.15Zm112.31,1a23.39,23.39,0,0,1,5.63.83c1.24.33,2.26.7,3.27,1.06-.37,1.12-.75,2.24-1.11,3.47a157.6,157.6,0,0,0-4.64,21.27c-2,1.06-4.16,2.38-6.44,3.89-.57-1.71-1.12-3.48-1.72-5.12-.06-.15-.11-.28-.16-.43,4-3.52,6.46-5.57,5.88-6.22-.39-.45-3.22.08-7.51,2-3.22-8-6.15-13.16-7.9-14.65a29.25,29.25,0,0,1,5.92-4,19.61,19.61,0,0,1,6.73-2,17.67,17.67,0,0,1,2-.09Zm69,1.37h0c0,.16-.08.3-.11.46-.29,1.22-.57,2.47-.84,3.76-.08.35-.15.7-.22,1.06,0,.06,0,.23-.06.29s0,.1,0-.06c-2.36,9.37-4.79,20.44-6.7,32.4a12.94,12.94,0,0,0-1.94.73c.15-1.53.3-3,.48-4.55,1.3-10.93,4.19-22.38,6.57-31.62,1-.89,1.93-1.71,2.82-2.47Zm-297.44,4c2.45,2.7,4.86,5.51,7.2,8.45.24,1.23.65,3,.91,4.32-.66.83-1.33,1.65-2,2.53-.24-.69-.45-1.41-.7-2.1C1029.81,505.21,1028,500.8,1026,496.52Zm76.57,1.22c3.78,2.69,7.89,5.81,12.13,9.42.61.52,1.22,1.07,1.82,1.6-.22.37-.44.74-.67,1.11-3.81-4.55-6.71-6.86-7.85-6.4-1.5.59.24,5.86,3.51,14.19a170.05,170.05,0,0,0-8.39,18.85C1103,521.65,1102.72,506.45,1102.56,497.74Zm135.48,1c-.13,2.89.83,8.79,2.31,17a88,88,0,0,0-14.62,11.18c-1.53-1.48-3-2.75-4.54-4,1.6-3.06,3.24-6,5-8.86C1230.06,507.75,1233.63,502.88,1238,498.77Zm66.17,15.47c-.91,3.71-1.7,7.52-2.29,11.37a151.93,151.93,0,0,0-1.49,15.2c-.3.28-.6.55-.9.85.13-7.56.23-14.13.17-19.76C1301.14,519.25,1302.64,516.71,1304.21,514.24Zm-285.69,2.63.39,1.23c-.35-.11-.57-.13-.87-.2Zm107.53,1q2.75,2.83,5.47,5.94c-1,1.44-2,3-3,4.67-1.38-2.38-2.75-4.67-4.11-6.8C1124.91,520.38,1125.47,519.1,1126.05,517.85Zm-89.61,2.6c.6,2.79,1,4.95,1.68,8-.42-.3-.84-.58-1.26-.87-.42-1.67-.91-3.28-1.36-4.92C1035.81,521.89,1036.13,521.18,1036.44,520.45ZM1208,521c.34.31.68.7,1,1-.9,1.53-1.76,3.22-2.64,4.82.46-1.72.93-3.46,1.41-5.11Zm-189.66,2c.76.73,1.63,1.56,2.57,2.44.4,1.51.73,3.11,1.1,4.65-.23.53-.48,1.06-.71,1.6C1020.38,528.69,1019.38,525.79,1018.38,522.93Zm223.31.18c.21,1.12.68,3.62.93,5q-1.86,1.57-3.72,3.3c.07-1.75-.1-2.86-.71-3-1-.25-3,1.93-5.38,6-.24-.28-.48-.57-.73-.84.41-.5.82-1,1.23-1.49C1236.19,528.69,1239,525.71,1241.69,523.11Zm-165.56,1.19c1.16,5.72,2.28,11.7,3.32,18.08l.3,1.87c.4,2.52.71,5,1.07,7.55a22,22,0,0,0-4.56-.16c-.22-.57-.4-1.12-.63-1.69Q1076.3,536.69,1076.13,524.3Zm-29.31.32a205.84,205.84,0,0,1,11.6,22.41c-1-1.2-2.05-2.38-3.12-3.52q-2-2.14-4-4.09C1049.78,534.35,1048.29,529.35,1046.82,524.62Zm209.38,4.82c-.21,2.35-.44,4.66-.58,7.11-.46-1.72-.95-3.29-1.42-4.94C1254.87,530.88,1255.54,530.13,1256.2,529.44ZM1217.27,531c.71.86,1.37,1.56,2.11,2.49q-2.79,3.16-5.43,6.7c-.27-.16-.46-.23-.69-.35.45-1,.88-2.12,1.34-3.18C1215.5,534.6,1216.39,532.84,1217.27,531Zm-79.19.73c.51.66,1,1.29,1.54,2,1.32,1.73,2.61,3.51,3.89,5.3a60.09,60.09,0,0,0-6.41-4.53c.22-.61.48-1.31.69-1.9C1137.9,532.21,1138,532,1138.08,531.68Zm-171.56,1.73c.45,1.4.9,2.9,1.36,4.33-.37,1.59-.74,3.12-1.1,4.78-.52-1.25-1.06-2.44-1.59-3.67C965.63,537,966.07,535.2,966.52,533.41Zm348.28,1.68c-.72,4.92-1.34,9.95-1.82,15.08-.08.83-.12,1.63-.19,2.45,0-1.64-.07-3.27-.06-4.92,0-3.52.15-7,.36-10.35Zm-196.07.8c.74,1.89,1.49,3.89,2.25,5.87-.53,1-1,2-1.56,3.12-.33-.09-.65-.17-.93-.22-.61-1.13-1.2-2.13-1.76-3C1117.39,539.71,1118.06,537.79,1118.73,535.89ZM921.4,537.27c4,1.71,8,3.58,12.47,5.82,2,1,4,2.16,6,3.4a119.77,119.77,0,0,0-13.38,25.19A276.64,276.64,0,0,1,921.4,537.27Zm74.65,2.13.73.65c-.07.16-.14.34-.21.49C996.39,540.17,996.23,539.78,996.05,539.4Zm295.73,0c-.42,4-.82,8.26-1.18,12.57-.9,1.21-1.78,2.45-2.65,3.76-.69,1-1.34,2.12-2,3.21A157.91,157.91,0,0,1,1291.78,539.41Zm-156.71,1.68a86.21,86.21,0,0,1,8.07,8.06l.19.23c-1.15.69-2.34,1.46-3.54,2.32Q1137.49,546.14,1135.07,541.09Zm90.71.92c.51.73,1,1.48,1.52,2.22q-1.79,2.35-3.48,4.87c-.51-.56-1-1.16-1.55-1.67Q1224,544.61,1225.78,542Zm41.94.14q1.9,10.19,4.64,21c-.87,4.6-1.49,9.13-1.91,13.53-.27,2.73-.45,5.39-.57,8-.76-8.36-1.46-17.07-1.83-25.76l-.06-1.57c-.21-5.33-.28-10.34-.27-15.15Zm-55.79.76,0,0,0,.06,0-.08Zm-171.37,2.51c.5.59,1,1.2,1.5,1.81.8,4,1.61,7.91,2.39,12.14-.67.29-1.35.55-2,.86C1042,555.38,1041.38,550.46,1040.56,545.42Zm295.24.87c-.3,1.23-.6,2.47-.88,3.73a194.38,194.38,0,0,0-4.66,43.2c-2.3,4.07-4.24,8-5.89,11.7a314.65,314.65,0,0,1-.24-35.18c.14-3,.33-6.08.55-9.19C1328.54,555.28,1332.26,550.6,1335.8,546.29Zm-89.18,3.17c.39,2.08.61,3.37,1,5.47-.88-1.45-1.79-2.79-2.69-4.18l0,0,1.65-1.27Zm-238,1.39c1.37,1.29,2.7,2.51,4.11,3.87.11.4.2.78.3,1.18q-2.37,8.43-4.32,17.49-.91-3.12-1.94-6.3C1007.45,561.12,1008,555.94,1008.61,550.85Zm-60.31,1.32c.6.43,1.2.85,1.79,1.29-.29,1.5-.58,3-.81,4.53q-1.11,7.39-1.49,15.19l-.89.85c.12-7.56.22-14.13.16-19.75C947.46,553.55,947.9,552.89,948.3,552.17ZM1081,553.33c1,7.38,1.94,14.73,2.72,21.88-.77-3.08-1.62-6.22-2.6-9.44-1.09-3.63-2.37-7.32-3.74-11C1078.88,554.2,1080.27,553.7,1081,553.33Zm-225.62,0a111.52,111.52,0,0,1,11.34,12.48q-2.81,3.15-5.43,6.7c-1.16-.72-2-1-2.48-.81-.61.31-.37,1.58.47,3.59a111.72,111.72,0,0,0-6,9.63q-2.4,4.35-4.49,9c.13-1.72.24-3.43.4-5.18.62-7,1.47-13.71,2.48-20.16a117.47,117.47,0,0,1,3.49-14.5C855.25,553.84,855.34,553.58,855.41,553.34Zm362.79,1.23.38.65.72,1.22-.31.53c-1.13.89-2.27,1.85-3.4,2.8.55-1.15,1.09-2.31,1.67-3.43C1217.57,555.73,1217.89,555.16,1218.2,554.57Zm-329.14.92c1.31,7.15,3.59,19.63,5.94,31.81a151.79,151.79,0,0,0-10-14.57c1.31-7.16,1.86-11.66.54-12-1-.25-3,1.93-5.38,6l-.73-.84c.41-.5.81-1,1.23-1.49C883.56,561.06,886.41,558.08,889.06,555.49ZM1140,552c2.58,3.32,13.69,10.59,16.34,14.48,4,5.79,7.63,11.72,11.31,17.85-.13,2.31-.2,4.37-.3,6.49-1.89-1.34-3.77-2.62-5.65-3.82-.2-.35-.37-.69-.58-1l-.38-.64a129.71,129.71,0,0,0-16.57-22.09l-.52-1.53C1145.36,559.46,1138.42,553.78,1140,552Zm160.34,3.79c.22,6.08.76,12,1.48,17.61-.63,1-1.26,2-1.87,3.05-.28.47-.56.93-.83,1.4a2,2,0,0,1-.11.2c.11-3.56.26-7,.44-10.31-.06-3.59,0-6.94,0-10.31l.93-1.64Zm-188.59,2.34.4.29c.11.87.22,1.73.35,2.66-1.75,4.68-3.38,9.58-4.8,14.71v0c-.8,2.87-1.48,5.68-2.08,8.44,1.53-8.12,3.55-16.79,6.14-26.14Zm124.23.07c.46.79.91,1.56,1.36,2.37-.32.75-.64,1.63-.95,2.61-.23.08-.47.17-.73.28-.6-.82-1.19-1.6-1.79-2.39.08-.44.15-.86.23-1.3C1234.75,559.2,1235.34,558.75,1236,558.2Zm-189.49,9.49c.33,1.37.66,2.64,1,4l-.18-.23L1046,570c-.37-.44-.75-.86-1.12-1.28C1045.39,568.36,1046,568,1046.49,567.69Zm-85.23,1c.18.49.36,1,.55,1.45-.56,4.08-1.07,8.22-1.47,12.43-.07.83-.11,1.63-.18,2.45,0-1.64-.07-3.26-.06-4.92,0-3.52.15-7,.35-10.34Zm-22.12,3.12c-.42,4-.82,8.27-1.18,12.57-.89,1.21-1.78,2.46-2.65,3.77-.68,1-1.34,2.11-2,3.2A158.45,158.45,0,0,1,939.14,571.78Zm304.65,1h0c3.83,7.68,7,14.79,9.68,21.5-1-2.2-2-4.43-3.09-6.7l0,0c-2-4.05-4.16-7.9-6.36-11.56-.07-1.12-.14-2.19-.22-3.21Zm-185.43.55c.06.13.12.25.17.37s0,.3-.07.44c0-.28-.07-.54-.1-.81Zm-185.22,1c.68,1,1.35,2,2,3-.76,1.88-1.51,3.89-2.24,6q-1.71-1.91-3.27-3.51C870.79,577.93,872,576.12,873.14,574.38Zm42,.15q1.89,10.17,4.63,21c-.86,4.61-1.49,9.13-1.9,13.53-.27,2.73-.46,5.39-.58,8-.76-8.37-1.46-17.07-1.83-25.77l-.06-1.57c-.2-5.33-.28-10.33-.26-15.14Zm316.64,3.37,1.14,2.08c-.43-.38-.85-.77-1.29-1.14l-.23-.18C1231.48,578.4,1231.6,578.15,1231.73,577.9Zm-99.38,2.45,1.46.81.5.31c1.42,4.74,2.81,9.43,4,13.81-1.29-.42-2.55-.79-3.76-1.1l-.07,0c-.48-2-1-4.11-1.46-6.12s-1-4-1.54-5.95c.28-.6.56-1.16.84-1.74Zm158,.15c0,.22,0,.44.06.67,0-.12-.09-.23-.13-.35s0-.21.07-.32Zm-424.79,6.44c.14.24.23.42.37.65l3.74,6.32c-.8,3.05-1.54,6.26-2.21,9.6a50.32,50.32,0,0,0-6.6-2.82c-.55-.18-1.06-.34-1.56-.48,1.66-4,3.42-7.82,5.32-11.5C864.94,588.11,865.26,587.53,865.57,586.94Zm342.5.08a92.66,92.66,0,0,0-1.8,20.59s0,0,0,.08c-.34,1.23-.68,2.45-1,3.65-.87-3.94-2.06-8.39-3.31-13.28.39-1.48.9-3.11,1.32-4.64,1.48-2.09,3-4.2,4.7-6.35Zm-187.53,1.07c1.33,6.95,2.36,13.4,3.19,19.43-2.11-3.09-4.51-6.29-7.06-9.54.43-2.42.77-4.64,1.22-7.1C1018.78,589.92,1019.66,589,1020.54,588.09Zm-72.84.07c.23,6.08.77,12,1.48,17.61-.63,1-1.25,2-1.87,3.06-.28.46-.55.93-.82,1.39l-.11.2c.11-3.56.25-7,.44-10.3-.06-3.6-.05-7-.05-10.32l.93-1.64Zm-65.59.24c.86,1.48,1.73,3,2.6,4.55a26.85,26.85,0,0,0-1,2.61,7.31,7.31,0,0,0-.72.27c-.6-.82-1.2-1.6-1.79-2.39C881.53,591.74,881.82,590,882.11,588.4Zm347.63,3.83c.72,1,1.44,1.93,2.16,2.95-.1,1.66-.2,3.28-.28,5s-.13,3.44-.19,5.16l0,0c-1,.38-1.92.82-2.9,1.3C1228.82,602.11,1229.24,597.28,1229.74,592.23Zm-257.92,4.41c2.13,5.78,4.32,11.72,6.17,16.78-.24,4.19-.39,8.29-.37,12.17-2.29,4.08-4.24,8-5.89,11.7a316.89,316.89,0,0,1-.24-35.17C971.58,600.32,971.71,598.47,971.82,596.64Zm95.94,3.53,1.65,5.63q-.95-2.13-2-4.28Zm219.33,3.26c.18.35.35.71.52,1.07-.35,1.24-.66,2.48-.94,3.71C1286.8,606.67,1286.94,605.11,1287.09,603.43Zm-429.67,1.51A104.33,104.33,0,0,1,866,612.1c-.07.43-.12.87-.18,1.31a97.74,97.74,0,0,0-9.93,19.79l-.2.57a83,83,0,0,0-3,9.94c-.87-3.93-2.06-8.38-3.31-13.27A244.55,244.55,0,0,1,857.42,604.94Zm33.73.24h0c3.83,7.67,7,14.78,9.68,21.5-1-2.21-2-4.43-3.09-6.7l0,0c-2-4.05-4.15-7.9-6.36-11.56-.06-1.11-.13-2.18-.21-3.2Zm-12.06,5.1c.38.69.76,1.37,1.14,2.08-.43-.38-.85-.77-1.29-1.14l-.22-.19C878.84,610.77,879,610.52,879.09,610.28Zm58.64,2.59c0,.23,0,.45.06.67,0-.11-.1-.23-.14-.34s.05-.22.08-.33ZM877.1,624.6c.72,1,1.45,1.94,2.17,2.95-.1,1.67-.21,3.29-.29,5s-.13,3.44-.18,5.17l-.06,0c-.94.38-1.91.81-2.9,1.29C876.19,634.48,876.61,629.65,877.1,624.6Zm57.36,11.2.51,1.07c-.34,1.25-.65,2.49-.93,3.71C934.17,639.05,934.31,637.48,934.46,635.8Z"/><path id="path115081" class="cls-2" d="M291.26,385.52c-1.62.36,5.84,17,8.09,44.73.3,3.64.47,7.42.56,11.31-1,.42-.76,4.84-.1,11.75-.24,7.09-.8,14.58-1.84,22.66a322.2,322.2,0,0,1-9.33,45.31,160.2,160.2,0,0,0-9-23.15c3.52-2.23,6-3.12,5.82-3.75s-3-1-7.52.27c-2-3.94-4.09-7.79-6.34-11.42-.53-6.86-1.08-10.88-1.9-11-.57-.08-1.24,1.77-1.92,5.17A103.91,103.91,0,0,0,255.44,463c-.68-2.56-1.37-5.13-2-7.44-7.65-27-12.61-44-15-44-2.21,0-1.54,15.65,2.6,39.74-1-.68-2-1.31-3-1.85-.44-2.1-.89-4.16-1.37-6.11a86.17,86.17,0,0,0-5.23-15.75,30.73,30.73,0,0,0-3.61-6.16c-2.18-2.93-4.34-3.68-4.79-3.26-.22.2.28,1.88,1,4.27a59.11,59.11,0,0,1,1.25,5.89c.79,4.54,1.25,8.54,1.85,15.16.38,4.35.7,8.91,1,14.11.08,1.48.15,3,.21,4.54,0,.42,0,.84.05,1.27,0,.06,0,.28,0,.34s0,0,0,.33c1.06,12.85,2.35,29.11,3.26,45.85-1.19,1.2-2.36,2.34-3.57,3.62-1-1.15-2-2.41-3-3.48-3-3.24-5.79-6.07-8.34-8.49-.85-3.48-1.78-6.85-2.74-10.18,1.72-3.79,3-6.59,4.59-9.39a47.52,47.52,0,0,1,2.52-4.16c1.22-1.61,2.05-2.75,1.93-3-.24-.47-2.11-.58-4.57,1a22.91,22.91,0,0,0-4.43,3.61c-.93.94-1.85,2.08-2.77,3.19-.64-1.95-1.3-3.83-2-5.71,3.12-7.08,4.57-11.76,3.55-12.18-.8-.33-2.85,1.75-5.9,5.55a255.79,255.79,0,0,0-10.48-23.85C186.69,427,177.88,415.76,176,416.31s3.53,12.65,10.64,32.16c1.71,4.69,3.45,9.69,5.18,15,.05,2.86.11,5.82.25,9.24.2,4.9.53,11,.84,16.92-1.1,1.55-2,2.83-3.19,4.49-.4.57-.84,1.22-1.25,1.82-.79-4.33-1.57-8.66-2.49-12.84a233.66,233.66,0,0,0-9.39-32.43c-1.61-4.27-3.27-8.07-5-11.64,4.58-7.24,7.82-11.12,7.14-11.59s-4.36,1.94-9.39,7.17a88.49,88.49,0,0,0-6-9.66,51.73,51.73,0,0,0-8.26-9.17c-5.38-4.64-9.46-5.55-9.89-5s2.21,2.87,5.55,7.5a63.64,63.64,0,0,1,5.36,9.05,111.71,111.71,0,0,1,6.22,15.54,113.17,113.17,0,0,0-8.8,13.77,145.57,145.57,0,0,0-11.08,26.67c-1.76-.89-3.53-1.81-5.29-2.59-19.33-8.42-31.63-9.82-32.24-8.34s11.55,6,27.66,15.33c1.84,1.06,3.66,2.21,5.47,3.38a175.86,175.86,0,0,0-14.93,33.82c0-7.47-.25-14.36-.83-20.89,0-.16,0-.3,0-.46,4.78-2.37,7.68-3.71,7.29-4.49-.26-.53-3.13-.75-7.76,0-1.27-10.52-3.24-16.86-4.7-16.92-1.61-.08-2.37,7.22-3.32,18.73a87.91,87.91,0,0,0-17,7,81.73,81.73,0,0,0-9.51-13.05c-.89-1-1.76-1.89-2.62-2.72,2-3.14,3.93-6.2,5.51-8.7,3.59-5.67,6.28-10.06,8.54-14.26,3.76-7,5-11.38,3.76-11.91-1.1-.45-4.12,2.88-9.48,8.89-2.79,3.12-7.09,8-11,12.83-1.74,2.11-3.62,4.44-5.54,6.9-2.22-1.17-3.75-1.53-4.08-1.18s.55,1.6,2.19,3.65c-1.21,1.6-2.42,3.22-3.61,4.9a110.22,110.22,0,0,0-7.08,11.11c.74-3.51,1.48-7,2.19-10.25,3.76-17.27,6.36-29.16,7.93-40.42,1.41-10.18,1.39-16.37,0-16.68s-3.83,5.27-7.24,14.85c-3.06,8.59-8.21,24.22-12.28,39.33-.91,3.37-1.8,6.9-2.67,10.51a308.23,308.23,0,0,0-6.45-30.57c-5.83-21.82-11.82-34.63-13.28-34.45s1.82,13.25,5.46,34.83a467.45,467.45,0,0,1,6.19,58.73.07.07,0,0,0,0-.06,204.89,204.89,0,0,0-16.9-40.18C21.06,479.66,15.5,472.43,10.2,467.2c-5-4.95-8.66-7.09-9.39-6.59s1.48,3.49,4.86,8.79a167.69,167.69,0,0,1,12.07,22.82A303.12,303.12,0,0,1,31.8,531.39c.72,2.45,1.41,5,2.11,7.48-1.47-4.16-3-8.27-4.65-12.34a158.93,158.93,0,0,0-10.07-20.8,67.63,67.63,0,0,0-12.33-16,34.84,34.84,0,0,0-7.27-5.24,23.43,23.43,0,0,0-8.11-2.59,19.39,19.39,0,0,0-8.28.82c-6,2-7.56,4.55-7.1,5s3.25-1.2,8.61-1.92A17.34,17.34,0,0,1-9,486a17.26,17.26,0,0,1,5.4,2.4A27.52,27.52,0,0,1,1.62,493c3.78,4.12,6.58,8.85,9.65,14.93a174.36,174.36,0,0,1,8.27,20.15c3.8,10.9,6.83,21.6,10.09,33.88a130.51,130.51,0,0,0-14.75-17.4A93.48,93.48,0,0,0-7.87,513c-8.88-8-16-11-17-10.16s3.91,5.85,10.34,14.06c2.4,3.07,4.85,6.45,7.25,10.15-6.71-4.1-11.31-5.72-12-4.93-1,1,4.87,6,13.28,14.36,2.77,2.74,5.72,5.79,8.74,9.09q1.11,2.55,2.16,5.26l.1.25a161.52,161.52,0,0,1,8.89,36.45c1.32,9.52,1.93,15.61,3.63,15.9s4.21-5.35,5.12-15.17a80,80,0,0,0-.38-17.37l0,0a137.91,137.91,0,0,1,17,38c2.76,10,3.51,16.53,5.22,16.76,1.28.18,3-3.37,3.41-9.79l.92-.53V616a15.79,15.79,0,0,0,1.49,7.39c.89,1.69,1.86,2.37,2.29,2.26.87-.23.6-2.85,1.62-7.67a2.08,2.08,0,0,0,1.54.48c1.16-.45.35-3.37,1.06-7.94.06-.35.14-.7.21-1,1.77-1.32,3.63-2.71,5.68-4.17-1.28,10.4-.75,17.15.9,17.5s4.35-5.89,7.92-16.08c.92-2.65,2.08-6.06,3.12-9.12,1.51-.86,3-1.66,4.35-2.39-1.53,5.39-2.85,10.33-3.7,13.88-1.8,7.5-2.45,12.4-.82,13S79.65,619,83.65,612a120.83,120.83,0,0,0,7.68-16.37c1.27,4.79,2.42,9.35,3.52,13.43.58,2.15,1.17,4.13,1.76,6-.08,2.34-.2,4.53-.31,6.54-.28,4.73-.36,7.58.71,8,.79.27,2.24-1,3.81-3.5,1.14,2.18,2.16,3.4,3,3.35,1.78-.12,2.23-5.91,1.63-15.31a70.11,70.11,0,0,0,1.69-10.83,94.27,94.27,0,0,0,.22-10.45c.09,1.4.17,2.79.23,4.16a148.13,148.13,0,0,1-.1,17.21c-.61,8.14-1.86,12.95-.86,13.42.78.37,2.56-1,4.44-4,.44,5.07,1.15,8,2.06,8.16s1.91-2.64,3-7.38a18,18,0,0,0,2.1-3.56c.64,10.35,2.68,16.49,4,16.55s1.69-5.11,2.79-13.45c1.2-2.07,2.52-4.65,3.91-7.7a47.19,47.19,0,0,0-1.62,9.84c-.27,5.58.73,8.84,1.83,9s2.18-2.77,4.15-7.59A108.2,108.2,0,0,1,141,612c1.29,3.77,2.46,7.48,3.31,11.07.37,2.7.82,5.41,1.37,8.16,2.79-10.26,3.27-20.47,3.42-30.9a.8.8,0,0,0,0-.15c2.25-2.91,4.71-5.87,7.42-8.88a283.58,283.58,0,0,0,.16,34.53c.73,10.45,1.88,16.61,3.16,16.74.88.1,1.73-2.81,2.59-7.78.75,5.4,1.86,8.46,2.78,8.52,1.39.1,2.17-6.83,3.85-18,1.8-2.09,4-4.43,7.11-7.73.26-.27.56-.55.83-.82-.15,1-.34,2.11-.47,3.11-2.17,16.47-1.09,27,.61,27.22s3.73-9.69,8-25.26c.56-2,1.2-4.18,1.83-6.33.63,5.33,1.25,10,1.88,12.91-1,13,0,21.36,1.61,21.6a.73.73,0,0,0,.58-.25c0,1.55.17,2.46.62,2.6,2,.59,8-12.71,17.19-33.28-.55,8.6-.79,14.88.49,15.2,2,.52,7.23-10.81,11.08-30.42.23-1.2.43-2.5.65-3.74.2.43.43.89.62,1.32,2.29,5.21,3.85,8.88,5.08,12.08-2.34,13.35-4.11,21.53-2.5,22.08,1.05.37,3.47-2.57,6.39-8.31-.94,6-1.08,9.7-.06,10,1.5.45,5.15-6,10-17.41a328.2,328.2,0,0,0,13.36-38.9q2.87,7,5,13.53l-.09.16c-3.81,11.84-7.16,23.58-7.93,36.48,1.68-2.83,3.21-5.69,4.66-8.55a133.23,133.23,0,0,1,8-10.94,140.86,140.86,0,0,1,2.75,21.12c.38,6.37.49,10.17,1.79,10.52s3.67-2.87,5.49-9.29a56.49,56.49,0,0,0,1.94-11.87c.4,4.1.9,7.63,1.46,10.53-1.94,9.94-3.35,16-2,16.5s6.15-5.41,10.83-16.78a24,24,0,0,0,1,5c-.57,5.87-.48,9.46.59,9.74s3-2.71,5.44-8.23c1,4.3,2.47,6.65,3.48,6.6,1.31-.05,1.74-6.08,4.16-15.56a170.08,170.08,0,0,1,6.46-19.47c.59-1.51,1.21-3.05,1.85-4.58a109.64,109.64,0,0,0-3.75,11.9,82,82,0,0,0-2.22,13c-4.27,10.32-6,17.08-4,18,.89.44,2.51-.45,4.62-2.37.79,3.62,2,5.68,3,5.75,1.36.09,2.35-3.17,3.84-8.64.64-2.33,1.35-4.85,2.15-7.53,1.38-1.85,2.81-3.81,4.28-6,2.81-4.09,5.83-8.69,9.1-13.5a155.73,155.73,0,0,0,2.42,22.1c1.87,9.7,4.45,15.68,6.48,15.74s3.21-5.79,4.05-15.1c.4-4.4.79-10.61,1.12-17.42,1.3,1.5,2.63,3.08,4,4.76,0,3.94,0,8.34,0,11.76.14,13.19.76,21.52,2.8,21.9s5.16-7,7.69-19.33c1.76,2.61,3.33,5.06,4.82,7.39,0,.42-.09.86-.16,1.28-.94,5.49-3,8.41-1.84,9.45a2.42,2.42,0,0,0,1.93.19c-.69,5.92-2,8.76-1.11,9.42.45.33,1.81,0,3.46-1.46a16.14,16.14,0,0,0,3.8-5.84c.33.94.69,1.61,1.13,1.77-1,5.46-.48,9,.79,9.33,2,.54,5.34-6.44,12.27-16.47.91-1.3,2-2.7,3-4a131.76,131.76,0,0,1,5.84,16.75c2.76,10,3.51,16.53,5.21,16.76,1.29.18,3-3.38,3.42-9.79l.92-.53V676a15.82,15.82,0,0,0,1.49,7.39c.89,1.69,1.86,2.37,2.29,2.25.87-.22.6-2.85,1.62-7.66a2,2,0,0,0,1.54.47c1.16-.44.34-3.36,1.06-7.93.06-.35.14-.7.21-1,1.77-1.32,3.63-2.71,5.68-4.17-1.28,10.4-.75,17.15.89,17.5s4.36-5.89,7.92-16.09c.93-2.64,2.09-6.05,3.13-9.11q2.25-1.29,4.35-2.4c-1.54,5.4-2.85,10.34-3.7,13.89-1.8,7.5-2.45,12.4-.82,13s5.16-3.19,9.16-10.11a120.83,120.83,0,0,0,7.68-16.37c1.27,4.79,2.42,9.34,3.52,13.43.58,2.15,1.17,4.13,1.76,6-.08,2.34-.2,4.53-.31,6.54-.28,4.73-.36,7.58.71,8,.79.27,2.24-1,3.81-3.5,1.13,2.18,2.16,3.39,3,3.34,1.79-.11,2.24-5.9,1.64-15.3a70.11,70.11,0,0,0,1.69-10.83,92.13,92.13,0,0,0,.21-10.46q.14,2.11.24,4.17a148.13,148.13,0,0,1-.1,17.21c-.61,8.14-1.86,12.95-.86,13.42.77.37,2.56-1,4.43-4,.45,5.07,1.16,8,2.07,8.16s1.91-2.64,3-7.38a18.29,18.29,0,0,0,2.09-3.56c.65,10.35,2.69,16.49,4,16.55s1.69-5.11,2.79-13.46c1.2-2.06,2.52-4.64,3.91-7.69a47.19,47.19,0,0,0-1.62,9.84c-.27,5.58.73,8.84,1.83,9s2.17-2.76,4.14-7.58A110.37,110.37,0,0,1,490,672c1.29,3.77,2.47,7.47,3.32,11.07.37,2.7.81,5.41,1.37,8.16,2.79-10.26,3.27-20.47,3.42-30.9a.8.8,0,0,0,0-.15c2.25-2.92,4.71-5.87,7.42-8.89a283.72,283.72,0,0,0,.16,34.54c.73,10.45,1.88,16.61,3.16,16.74.88.09,1.73-2.81,2.59-7.78.75,5.4,1.86,8.46,2.78,8.52,1.39.09,2.17-6.83,3.85-18,1.8-2.09,4-4.43,7.11-7.73l.83-.83c-.16,1-.34,2.12-.47,3.12-2.17,16.47-1.09,27,.61,27.21s3.73-9.68,8-25.25c1.5-5.46,3.29-11.41,5.4-17.74.83-.72,1.6-1.41,2.47-2.15a186.12,186.12,0,0,0-4.07,24.85c-1.27,14-.19,23,1.52,23.22a.73.73,0,0,0,.58-.25c0,1.54.16,2.46.62,2.6,2,.59,8.07-12.77,17.26-33.45,5.4-12.13,12.08-27.29,19.61-43.17,3.46-2.18,6.87-4.22,10.31-6.07a79.08,79.08,0,0,1,10-4.63c10.07-3.66,18.16-5.87,26.33-6.93,14.95-2,25.57-1.59,25.49-2.93s-10-4.24-27.21-4a107.72,107.72,0,0,0-29.91,5.27,69.82,69.82,0,0,0-6.77,2.51c2.94-5.83,5.87-11.48,8.86-16.87A257.5,257.5,0,0,1,608.16,580c5-7.17,9-12,13.5-16.3a48.64,48.64,0,0,1,6.53-5.29c3.81-2.5,6.5-3.35,6.28-4s-3.59-1.19-9,.67a38.54,38.54,0,0,0-8.82,4.44c-5.75,3.78-11.16,8.77-17,15.67a177.57,177.57,0,0,0-15.8,22.13c-4.93,8-9.6,16.6-14.13,25.89l-.49,1c-.8,1.65-1.56,3.29-2.33,4.93L565,630.31c6.26-16.74,12.5-31.74,16.86-43.07,1-2.61,1.83-4.89,2.62-7.1,2.72-3.52,5.39-6.84,7.95-9.92,10.64-12.84,18-20.49,16.7-21.52s-11.08,4.82-23.86,16.76a195.93,195.93,0,0,0-30.19,36.21c-2.62,1.05-5.53,2.34-8.7,3.89-2.44,1.19-5,2.56-7.64,4,5.85-15,12.23-29.57,17.13-40.81.11-.21.14-.3.11-.25s.08-.22.09-.27c.13-.32.25-.65.37-1,.46-1.17.91-2.33,1.36-3.45,1.58-3.94,3-7.38,4.46-10.63,2.2-5,3.61-7.91,5.41-11.18a47.52,47.52,0,0,1,2.52-4.16c1.22-1.61,2-2.75,1.93-3-.24-.47-2.11-.59-4.57,1a22.61,22.61,0,0,0-4.43,3.61A65.22,65.22,0,0,0,554.93,550c-.89,1.35-1.77,2.8-2.66,4.3-.86.12-1.79.28-2.78.48,9.54-17.36,14.17-29.3,12.44-30s-10.17,10.84-23.18,29.3c-1.12,1.58-2.33,3.35-3.53,5.12a77.87,77.87,0,0,0-13.36,7.15c.36-2.86.33-4.51-.14-4.64-.66-.18-2.14,2.75-4.35,7.91a118.67,118.67,0,0,0-23.21,24,271.53,271.53,0,0,1,4.65-38.2c1.32-6.61,2.85-12.61,4.52-18.19,2.32-5.15,3.69-8.49,3-9.15,1.09-3,2.22-5.87,3.4-8.6,9-20.83,19.18-31.29,18-32.1s-13.83,8.39-25.18,29.21a145.89,145.89,0,0,0-10.47,24.83c-.44-.41-.71-.77-1.23-1.2a24.91,24.91,0,0,0-9-4.84,27.58,27.58,0,0,0-10.15-.89A38,38,0,0,0,461.5,537c-7.18,2.79-13.54,6.92-20,12.26-2,1.58-3.84,3.25-5.73,5-.7-.75-1.4-1.49-2.08-2.15.84-1.33,1.53-2.41,2.32-3.67,4.08-4.83,8.14-9.41,12.28-13.7a183.09,183.09,0,0,1,22.34-20.06c5.83-4.38,9.48-6.73,8.84-7.63s-5.59-.21-13.12,3a90.78,90.78,0,0,0-14.41,8c-.06-.39-.18-.69-.43-.8-.88-.36-3.38,2.21-6.91,6.1-1.85,1.43-3.71,2.87-5.66,4.53a193.85,193.85,0,0,0-17.4,16.76c-.05,0-.14,0-.17,0s0,.11,0,.17c-1.91,2.08-3.82,4.33-5.73,6.57,1.93-8.86,3.57-16.51,4.86-23.19,4.57-9.58,9.1-18.39,13.4-26.29,12.34-22.65,21-35.85,19.45-36.75s-13.23,10.75-28.13,32.62c-.43.62-.87,1.38-1.3,2-.13-1.59-.38-2.73-.87-2.85-1.36-.31-3.83,5.28-7.25,14.86-.13.38-.36,1.12-.51,1.53-3,5-6,10.28-9,15.9.4-4.48.74-8.89,1-13.12,1.17-19,1.33-39.05,1.15-50.18-.19-12.44-.85-19.91-2.5-20.19s-4,6.69-6.32,18.85c-2.53,13.46-4.13,28.1-6.48,49.36-.32,2.86-.67,5.92-1,9-1.67-5.58-3.29-10.27-4.76-14.17-.53-1.78-1.06-3.55-1.62-5.29,2.64-1.54,4.14-2.44,3.87-3.09s-2.11-.87-5.05-.58c-1.23-3.7-2.46-7.21-3.63-10.42-2.63-7.26-5.6-14.84-7.56-19.69-3.75-9.3-5.89-14.49-7.31-14.5-1.64,0-1.89,5.58-.31,15.22.95,5.8,2.32,12,4.21,20.12.83,3.57,1.86,7.95,2.9,12.42-1.29.54-2.62,1.13-4,1.83A87.88,87.88,0,0,0,353.08,515,116.6,116.6,0,0,0,336.54,499c3.33-13.45,5.25-22.05,3.4-22.72-1.67-.62-6.31,5.61-11.75,16.89-5-3-8.29-4.11-8.79-3.63-.73.71,2,3.58,6.52,8.51-.07.18-.15.32-.22.49-3.15,7.11-6.05,14.77-8.91,23.2A220.84,220.84,0,0,0,312,472.19c-.38-1.72-.79-3.3-1.19-4.89a185.53,185.53,0,0,0-2.3-36.93c-4.87-28.85-15.65-45.21-17.27-44.85ZM164.84,450.89c.11.41.23.75.34,1.17,2.67,9.65,4.81,19.67,6.9,31.51,1.2,6.85,2.26,13.95,3.27,21.21l-1.14.72c-.39-.37-.81-.73-1.21-1.09.09-1.51.05-2.61-.28-2.7s-.69.48-1.22,1.35c-.85-.77-1.64-1.57-2.54-2.31a164.42,164.42,0,0,0-17.54-12.5c.91-3.83,1.87-7.54,2.91-11,2.32-5.15,3.7-8.49,3-9.15,1.09-3,2.22-5.87,3.4-8.6C162.1,456.36,163.47,453.55,164.84,450.89Zm74.69,6.44h0c1,1.06,2.06,2.22,3.16,3.45a352.37,352.37,0,0,1,5,34.94c-.78.6-1.55,1.18-2.39,1.85-1.31-12.14-3-23.5-4.75-33.35q0,.28,0,.06c0-.08,0-.28,0-.36l-.18-1.33c-.22-1.59-.46-3.16-.71-4.69,0-.2-.07-.37-.1-.57Zm21.2,29.45c1.67,3.24,3.27,6.58,4.77,10-.09,1.25-.15,3.07-.24,4.4-.85.63-1.71,1.26-2.55,1.94,0-.73-.07-1.48-.13-2.21-.41-4.77-1.06-9.52-1.85-14.16ZM81.26,497.52a110.37,110.37,0,0,1,7.72,15q-3.53,2.34-7,5.07c-.94-1-1.7-1.53-2.18-1.42-.67.14-.77,1.43-.48,3.59a110.31,110.31,0,0,0-8.3,7.75q-3.44,3.57-6.66,7.51c.57-1.63,1.12-3.25,1.73-4.9,2.41-6.59,5-12.86,7.61-18.82a115.13,115.13,0,0,1,7.13-13.11C81,498,81.12,497.73,81.26,497.52Zm67.9,1.55c3.37,2.67,6.82,5.53,10.54,8.85,1.69,1.51,3.3,3.12,4.91,4.83a119.5,119.5,0,0,0-19.45,20.88A276.32,276.32,0,0,1,149.16,499.07Zm99.09,5.43.06,1.29c-.31-.19-.52-.26-.79-.42ZM193.74,507c.07,1.47.12,3,.19,4.53-.77,1.44-1.52,2.82-2.3,4.33-.17-1.34-.39-2.63-.57-3.95C192,510.22,192.84,508.63,193.74,507Zm140.64.75c2.95,3.58,6.11,7.66,9.28,12.25l1.35,2-.94.9c-2.51-5.38-4.71-8.36-5.93-8.22-1.6.19-1.28,5.73-.28,14.62a168.07,168.07,0,0,0-13,16C328.6,531,332.28,516.23,334.38,507.77Zm-221.18.53c-.58,7.25-1.6,19.89-2.49,32.27a155.59,155.59,0,0,0-5.86-16.66c3.11-6.58,4.8-10.78,3.61-11.44-.91-.51-3.4,1.09-6.76,4.45-.16-.34-.32-.67-.49-1l1.57-1.13C106.45,512.26,110,510.12,113.2,508.3Zm133.34,2c.55.91,1.18,1.93,1.86,3,0,1.57-.1,3.19-.14,4.78-.37.45-.74.89-1.1,1.36C247,516.4,246.78,513.34,246.54,510.32Zm128,.36c.06.3.14.63.2.93a149.89,149.89,0,0,1,3.05,18.16c.7,8,1.2,16.26,1.41,24.84,0,.63,0,1.23,0,1.85-1.13-2.22-2.25-4.44-3.44-6.54-1.46-2.6-2.9-5-4.33-7.23-1.05-2.06-2.12-4.06-3.23-6,1.15-2.3,1.53-3.81.83-4.29-.51-.34-1.58-.09-3,.58q-2.87-4.71-5.94-9a119.08,119.08,0,0,1,14.44-13.27ZM264.64,512.6c-.15,2.85-.3,5-.45,8.18l-1-1.18c0-1.71,0-3.4,0-5.1.5-.67,1-1.27,1.49-1.9Zm8.94,6.72A206.8,206.8,0,0,1,279,544c-.68-1.42-1.37-2.83-2.1-4.21-.94-1.73-1.89-3.38-2.86-5C273.92,529.48,273.78,524.27,273.58,519.32Zm-102.29,1.11c.46.57.93,1.13,1.4,1.7-.67,1.38-1.34,2.76-2,4.17a150.2,150.2,0,0,0-5.37,14.29c-.36.19-.72.38-1.08.59,2.07-7.27,3.87-13.59,5.27-19C170.12,521.54,170.71,521,171.29,520.43Zm49.43,0,.53.82-.33.42C220.85,521.28,220.79,520.86,220.72,520.45Zm-127.78,2c.4,1.1.79,2.23,1.18,3.36-1.23,1.62-2.47,3.38-3.72,5.21q-1.16-2.28-2.25-4.24C89.75,525.24,91.34,523.8,92.94,522.43Zm209,4.16c-.36,5.83-.83,11.89-1.48,18.32-.07.63-.13,1.26-.2,1.89-.26,2.54-.61,5-.92,7.57A21.59,21.59,0,0,0,295,553c-.07-.6-.1-1.19-.17-1.79Q298.94,538.59,302,526.59Zm-219.61,6,.19.73c.61,2.18,1.29,4.59,2,7.07-1.57,2.73-3.11,5.64-4.63,8.7a47.24,47.24,0,0,0-5.64-4.43c-.48-.32-.94-.61-1.39-.88,2.64-3.41,5.33-6.66,8.12-9.73C81.46,533.56,81.92,533.09,82.37,532.6Zm269.49.68c1.28,2.3,2.53,4.69,3.75,7.15-1.32,1.14-2.71,2.37-4.16,3.72-.71-2.65-1.44-5.22-2.21-7.63C350.11,535.43,351,534.34,351.86,533.28Zm-218.44.16c-.53,6.88-.85,14-.94,21.43-2,4.22-3.81,8.43-5.35,12.57-1,2.57-1.83,5.09-2.62,7.58,1.43-8.28,3-16.87,4.9-25.36.12-.51.23-1,.35-1.53C130.94,542.93,132.16,538.08,133.42,533.44Zm96.46,1.32c1,1.6,2,3.12,3,4.8,0,.41,0,.8,0,1.21q-4.48,7.53-8.71,15.78-.07-3.24-.24-6.59c2.21-5.58,4.1-10.44,6-15.2ZM157.36,537c-1.44,3.77-2.93,7.77-4.39,11.83-1.18.94-2.35,1.92-3.53,3-.93.83-1.84,1.69-2.74,2.58A158.87,158.87,0,0,1,157.36,537Zm104.79.78c.33.71.66,1.42,1,2.14-.25,4-.49,8.05-.83,12.35-.73.1-1.44.18-2.18.3C260.92,547.76,261.64,542.87,262.15,537.78ZM98,538.29c.46,1.66.9,3.34,1.34,5.06-.51.64-1,1.41-1.6,2.28a7.47,7.47,0,0,0-.77.08c-.37-1-.74-1.86-1.11-2.77.72-1.57,1.44-3.16,2.14-4.65Zm81.56,1.42c.06.52.11,1,.16,1.53-1.59,3.8-3.16,7.67-4.63,11.64-.29.78-.54,1.54-.82,2.32.41-1.59.78-3.17,1.22-4.77.94-3.39,1.95-6.68,3-9.9Zm297.86.36a17.72,17.72,0,0,1,3.38.23A21.76,21.76,0,0,1,488,543c1.11.64,2,1.25,2.88,1.86-.66,1-1.31,2-2,3.07a158,158,0,0,0-10,19.35c-2.21.51-4.64,1.22-7.24,2.09-.11-1.8-.18-3.65-.33-5.4,0-.16,0-.29-.05-.45,4.79-2.37,7.68-3.71,7.3-4.49-.26-.54-3.14-.75-7.77,0-1-8.57-2.53-14.3-3.83-16.19a29.09,29.09,0,0,1,6.76-2.34,22.26,22.26,0,0,1,3.63-.4ZM465,543.84c-.87,2.76-1.47,8.71-2.15,17a88.17,88.17,0,0,0-17,7c-1.09-1.83-2.21-3.44-3.33-5.06,2.34-2.55,4.68-5,7.11-7.27C454.94,550.45,459.64,546.66,465,543.84Zm-395.12,4a105.7,105.7,0,0,1,6.4,9.12l-.51,1.22A97.19,97.19,0,0,0,61,574.77c-.12.16-.23.33-.35.5a83.49,83.49,0,0,0-5.44,8.83c.18-4,.19-8.63.24-13.68A243.92,243.92,0,0,1,69.84,547.88Zm270.29.93c.22,2,.43,4.15.64,6.26-.77.85-1.53,1.7-2.31,2.6-.29-.17-.58-.33-.84-.45-.3-1.25-.61-2.37-.93-3.32C337.84,552.16,339,550.47,340.13,548.81Zm19.77,1c.33.76.66,1.51,1,2.29.84,2,1.62,4.07,2.4,6.15a60.56,60.56,0,0,0-5-6.06l1.16-1.66ZM161.39,555C160,561,159,566.78,158.27,572.43c-.87.81-1.74,1.63-2.6,2.47L154.51,576l-.16.17c1-3.41,2.07-6.74,3.09-9.85.88-3.48,1.76-6.72,2.63-10Zm137.81.86c-.93,7.39-1.94,14.73-3,21.84,0-3.18,0-6.43-.07-9.79-.11-3.79-.39-7.69-.75-11.64,1.55-.12,3-.25,3.86-.41Zm-196.84.94h0c1.72,8.4,2.94,16.09,3.79,23.27-.35-2.38-.75-4.79-1.25-7.27v0c-.89-4.43-2-8.71-3.15-12.81.22-1.1.43-2.15.62-3.15Zm327.89.67c.25.39.47.85.71,1.25-1.26,1.25-2.53,2.65-3.79,4,.89-1.54,1.79-3.1,2.68-4.57Zm-75.69.56a84.55,84.55,0,0,1,5.7,9.87c.05.09.09.18.13.26-1.3.38-2.64.82-4,1.33-.51-4-1.12-7.79-1.81-11.46Zm-265.16.57c.19.77.37,1.53.56,2.31-.32-.48-.62-1-.95-1.44l-.17-.24Zm459.66,1.29h0c-.07.14-.15.26-.23.4-.59,1.11-1.19,2.25-1.78,3.41-.16.33-.33.65-.49,1l-.13.26c-.06.11,0,.09,0,0-4.71,8.43-9.92,18.5-14.86,29.56a12.4,12.4,0,0,0-2.06.2c.53-1.44,1.08-2.86,1.64-4.27,4.08-10.23,9.84-20.54,14.53-28.84,1.18-.6,2.31-1.16,3.36-1.66Zm-286.95.9c0,1.41,0,2.72-.09,4.16l-.11-.27c-.29-.6-.58-1.21-.88-1.82s-.5-1-.75-1.53c.6-.17,1.24-.38,1.83-.54ZM462.2,568.3c-.09,1.13-.27,3.66-.39,5q-2.21,1-4.45,2.22c.53-1.67.65-2.79.1-3.1-.91-.5-3.4,1.09-6.76,4.46-.16-.34-.32-.67-.49-1l1.57-1.12c3.67-2.54,7.19-4.67,10.42-6.49Zm-134.58.2.31.37c-.11.87-.23,1.73-.34,2.66-2.9,4.07-5.75,8.38-8.45,13l0,0c-1.51,2.57-2.89,5.11-4.19,7.62,3.58-7.45,7.77-15.3,12.69-23.65Zm-55.5.88c0,.13.05.27.07.4l-.19.4.12-.8Zm-89.62.08c.56,6.13,1.14,12.44,1.62,17.8-1.33,4-2.53,7.91-3.51,11.68-3.27,3.34-6.16,6.59-8.72,9.78a313.13,313.13,0,0,1,8.87-34C181.31,573,181.91,571.2,182.5,569.46Zm254.09.09c.46,1,.92,1.86,1.39,3q-3.53,2.32-7,5.07c-.22-.23-.39-.34-.58-.52.71-.91,1.4-1.82,2.12-2.72C433.93,572.61,435.24,571.14,436.59,569.55ZM83.77,572c.45,1.11.89,2.25,1.32,3.41-.52,1.59-1,3.12-1.57,4.79s-1,3.28-1.52,4.94h-.06c-1,.13-2,.3-3.13.5,1.52-4.33,3.17-8.89,5-13.64Zm148,1.85c-.51,7.07-1.19,13.56-2,19.6-1.23-3.53-2.72-7.24-4.35-11,1-2.23,1.95-4.28,3-6.54C229.59,575.13,230.68,574.48,231.77,573.81Zm132,1.91c1.63,3.87,3.18,7.93,4.73,12.37,2.32,6.63,4.33,13.31,6.3,20.19-.72,2.19-1.32,4.16-2,6.18-1.47-1.78-2.95-3.51-4.45-5.15-.11-.39-.19-.76-.3-1.16-.06-.24-.13-.48-.2-.72a130.93,130.93,0,0,0-10.28-25.63l-.12-1.61C359.74,578.47,361.82,577,363.8,575.72Zm161.08.19c-1.83,3.35-3.59,6.82-5.15,10.39-2,4.57-3.78,9.34-5.38,14.29l-1.08.59c2.08-7.27,3.88-13.59,5.27-19Q521.66,578.86,524.88,575.91Zm-379.52.41c0,.23-.08.44-.12.67l0-.37Zm329.21,1.85c-.81,2.21-1.63,4.38-2.4,6.71,0-1.78-.06-3.42-.09-5.14.83-.52,1.67-1.07,2.49-1.57Zm-46.23,1.54v0l-.06,0Zm13.6,2.71c.3.84.6,1.69.89,2.55q-2.32,1.8-4.61,3.8c-.36-.67-.72-1.39-1.07-2C438.75,585.24,440.34,583.8,441.94,582.42ZM431.37,592.6l.19.73c.12.42.26.93.39,1.36l-.43.43c-1.33.57-2.68,1.2-4,1.83.83-1,1.66-2,2.51-2.89C430.46,593.56,430.92,593.09,431.37,592.6Zm51.05.82c-.54,6.89-.85,14-.95,21.44q-3,6.35-5.34,12.58c-1,2.57-1.84,5.09-2.63,7.57,1.43-8.28,3-16.86,4.91-25.36.11-.51.23-1,.34-1.53C479.94,602.92,481.16,598.06,482.42,593.42ZM460.14,595c-.16,2.11-.28,3.42-.43,5.55-.47-1.63-1-3.16-1.52-4.73l0,0,1.92-.8Zm-118.37.27,1.19,1.15c.13.14.28.31.42.44.14,4.94.27,9.83.31,14.38-1.13-.74-2.25-1.43-3.34-2l-.06,0c.06-2.1.13-4.22.17-6.29s0-4.11.05-6.14c.42-.51.84-1,1.26-1.46ZM506.36,597c-1.44,3.78-2.93,7.78-4.39,11.84-1.18.94-2.36,1.91-3.53,3-.93.82-1.84,1.69-2.74,2.58A160,160,0,0,1,506.36,597Zm-370.09.63c.08.39.15.79.22,1.17-.65,1.12-1.28,2.23-1.87,3.34Zm138,.09c.05,2.06.09,4,.14,5.86-.24-1.53-.52-3.08-.83-4.65Zm255.46,1.08c-2,4.56-3.86,9.26-5.65,14.09-.29.78-.54,1.54-.82,2.32.41-1.59.78-3.18,1.22-4.77q1.41-5.08,3-9.9Zm-82.1,1.92c.23.88.47,1.74.7,2.64a26,26,0,0,0-1.6,2.28c-.24,0-.5,0-.77.07-.37-.94-.74-1.85-1.11-2.76.18-.41.36-.8.55-1.21.78-.38,1.46-.65,2.23-1ZM547.1,615c-.61,1.12-1.22,2.24-1.81,3.39a193.53,193.53,0,0,0-15.68,40.52c-3.28,3.34-6.16,6.59-8.72,9.77a314.31,314.31,0,0,1,8.87-34q1.38-4.32,2.91-8.74C537.77,621.84,542.57,618.28,547.1,615Zm-36.71,0C509,621,508,626.78,507.27,632.43c-.87.8-1.74,1.63-2.6,2.46L503.51,636l-.16.17c1-3.41,2.07-6.74,3.09-9.85.88-3.49,1.76-6.72,2.63-10C509.51,615.92,510,615.47,510.39,615Zm-59,1.8h0c1.72,8.4,2.94,16.09,3.79,23.26-.35-2.37-.75-4.78-1.25-7.26v0c-.89-4.44-2-8.71-3.16-12.81q.34-1.65.63-3.15Zm-13,1.8c.18.76.37,1.53.56,2.3-.32-.47-.63-1-.95-1.43l-.17-.24Zm-25.22,2.68a92.84,92.84,0,0,0-7.06,19.43s0,0,0,.07c-.65,1.09-1.31,2.19-1.88,3.28.18-4,.18-8.63.24-13.68.76-1.33,1.67-2.77,2.47-4.14,2-1.63,4-3.27,6.19-4.92ZM432.77,632c.45,1.11.89,2.25,1.32,3.41-.52,1.59-1,3.12-1.57,4.79s-1,3.28-1.52,4.94h-.06c-1,.12-2.06.29-3.13.5,1.52-4.33,3.17-8.89,5-13.64Zm61.59,4.36c0,.23-.08.44-.12.67,0-.13,0-.25,0-.37Zm-9.09,21.3c.07.39.15.78.22,1.17-.66,1.12-1.28,2.23-1.87,3.34Z"/><path id="path120058" class="cls-1" d="M1223.37,15.54c-16.71-3.12-61.85,169.21-67.36,174.72-.23.23-3.28-58.4-3.28-65.6,0-25.69-6.51-49.4,0-75.45.93-3.73,10.63-28.73,9.84-29.52-16.2-16.21-24.06,42.66-26.24,49.2C1110.85,145.34,1161,213,1123.21,288.67c-2.54,5.09.09,26.16-3.28,29.53-3.75,3.74-26.73-35.18-29.52-39.37-27-40.54-13.13-96.65-13.13-144.33,0-13.77,16.09-98.73,3.28-111.53-18.11-18.11-10.17,116.28-19.68,111.53-22.27-11.14-60.5-101.69-65.61-101.69-28.52,0,41.73,90.92,45.93,95.13,32.27,32.27,4.72,129.36,19.68,144.33,17.39,17.39,37.93,71.76,19.68,108.25-4.17,8.36-19.09-38.19-39.36-78.73-33.32-66.65-39.36-27.46-39.36-127.93,0-3.16-.07-5.39-.11-8.1,2.16-12.61,4.47-28.18,2.41-38.51-.56-2.8-2.34-5.3-2.9-8.11-.18-.89-.46-5.1-1.16-5.8-.93-.93-4.46.44-5.8,0-.71-.24-5.66-3-6.38-2.32-.37.37,1.16,23.66,1.16,25.51,0,6-.58,11.83-.58,18,0,6.49-.22,13-.7,19.44-4,20.57-7.6,41.9-8.91,42.56-4,2-19.68-49.66-19.68-52.49,0-22.89-38.47-76.65-55.76-85.29,0,.32,0,.59,0,.91-4.8-4-9.46-7.49-11.81-9.21,0,15,.88,14.7,9.86,26.67.25.34,3.61,3.52,6.85,6.81,8.6,17.5,26.52,26.5,37.72,73.23,19.47,81.25,66.41,111.27,111.53,213.22,5.51,12.46,14.57,34.25,23,42.65,5.34,5.33,4.4,42.72,6.57,49.2,10.3,30.93-9.16,158.15,9.84,177.14,3.41,3.41,27.57-1.33,29.52-3.28,3.86-3.87-1.33-11.1,0-16.4,7.6-30.39-11.07-112.37,0-134.5,7.32-14.64,9.84-48,9.84-62.32,0-110.08,16.83-250.16,65.61-347.72,5.25-10.51,27.32-74.36,23-78.73a3,3,0,0,0-1.53-.86Z"/><path id="path117782" class="cls-1" d="M384.81,661.47C395.35,188,481.42,8.3,489.19-22.8c.91-3.62,18.6-53.37,0-44.07-10,5-44.7,88.78-60.3,104.38s-.21,44.17-23.2,55.67C390,101,387.46,49.43,382.5,44.47,352.88,14.85,306,1.7,306-52.95c0-5.4-8.18-52.14-18.56-41.76-2.13,2.14,0,18,0,20.88,0,18.58.31,58.3,11.6,69.59,29.8,29.79,55.67,59.48,55.67,113.65,0,3.33,2.11,18.77,0,20.88-.56.56-54.5-59.72-60.31-62.63-3.87-1.93-128.75-52.21-97.42-20.87C210.12,60,248.57,64.35,268.84,76.94c30.62,19,74.31,61.26,71.9,83.5-5.91,54.75-13.14,146.14-20.87,146.14-8.12,0-32.19-33.79-36-39.44-10.71-16.07-43.44-40-54.51-51C208,194.72,205.16,140.83,190,125.65c-14.89-14.89-.4,49.4,0,51,17.23,68.92,46,67.54,85.83,120.62,3.74,5,14.76,11.81,16.23,16.23,3.54,10.61,10.47,25.59,16.24,37.12.87,1.74-16.63,201.85-23.2,241.23-1.61,9.68-13.74,62.8-4.64,71.9,18.32,18.32,87.11,20.72,104.38-2.31Z"/><path id="path119420" class="cls-1" d="M944.79-227.73l-1,.21-.89-.45-.6.73-.75.58-.75.49-.37.81-.45.77-.08.88-.78.43-.58.65-.93-.25-.8.53-.24.92.22.92-.72.58-.67.64-.58.76.07,1-.77.5-.9.16-.7.54-.19.86-.59.62-.81.25-.34.8-.13.86-.77.43-.5.73.16.83-.06.84.12.91-.58.71-.52.84.21,1,.52.87-.36,1-.3,1,.2,1,.64.79.88.53.71.85,1.1,0,.35.93.14,1,0,1,.66.71.44.78.51.74-.72.68-.91.39.1,1-.3,1-.63.71-.6.73-.34,1,.46.92-.62.74-.1,1,0,.94-.32.88-.71.67-1,.16-.85.45-.48.84-.21.39-.26.35.11.43.15.41-.35.23-.4.14-.17.38-.26.33.19.39.39.2.08.42-.15.4,0,.38,0,.39.13.36.25.3.24.3.12.36.27.28.09.38.18.39.21.36h.43l.4.16-.07.41-.28.32.33.29,0,.45-.22.34,0,.4.1.37.09.36-.05.44-.31.32-.13.41.08.43-.11.41-.07.42-.37.25-.17.41-.42.05-.4.09h-.45l-.31.35-.37.21H925l-.28.34-.41.15.29.36,0,.45-.07.46.28.37.35.24.33.27.36.25.2.4-.23.45-.49.1-.08.46-.25.38-.2.42,0,.47.07.44.17.42-.41-.15-.16-.4-.28-.35h-.89L923-164l-.34-.22-.38-.11-.37.25-.44,0-.43-.12-.33-.28-.4-.18-.42-.08-.38.17-.38.19-.09-.44.21-.39,0-.43.11-.41-.12-.42-.25-.35-.4-.2-.27-.35-.25-.33-.41-.14-.22-.33-.12-.39-.23-.38,0-.44-.31-.32-.41-.13-.41-.05-.42,0-.18-.43-.44-.13-.34-.27-.27-.34-.41.21-.44-.15-.43.16-.28.36-.45.12-.42-.22-.33.27-.35.23-.36.27,0,.46-.36-.23-.41.07-.43.11-.34-.26-.31-.25-.31-.24-.35-.23-.18-.37-.42.06-.26.31-.44.09-.19.39-.4-.1-.39.1-.41-.14-.38.23.32.2.35.12,0,.36.18.33,0,.37-.2.31.17.32.07.35.35,0,.29.17.36.07.23.3.16.29.21.27.22.31,0,.36.22.29,0,.37-.2.28-.18.3.11.32-.17.3-.07.3-.09.3-.23.23-.16.29,0,.32-.09.3-.2.29.08.33-.08.33-.28.2,0,.35.21.29-.06.35.2.31-.2.31.06.37-.32.19-.15.34,0,.34.12.33.12.33,0,.35-.09.34-.25.27-.32.17-.2.29-.26.2-.3.18-.26.25v.37l-.3.16-.28.14h-.36l-.25.24-.29.16-.23.26-.33-.08-.34.09-.31.13-.22.25-.35-.13-.31.17-.45.07h-.47l-.37-.26-.31-.36-.17-.39-.24-.35v-.44l-.23-.38-.37-.06-.39,0-.39.11-.38,0h-.39l-.39-.05-.4,0-.36.17-.27-.34-.41-.1-.36.21-.4.07-.31.24-.34.19-.38-.19-.4.05-.4-.13-.4-.1-.43.09-.32.31-.33-.24-.16-.38-.3-.31-.42,0-.22-.34,0-.4-.15-.37.07-.38,0-.47-.36-.29-.41-.09-.4-.09-.32-.28-.4-.07-.27-.3-.31-.26.08-.43-.26-.35.16-.38-.07-.41-.23-.36-.42-.07-.38-.16-.4.11-.37-.16-.17-.37-.28-.27-.39-.09-.1-.42-.18-.39.22-.39v-.44l-.29-.36-.15-.42-.44-.07-.43-.15-.4.06-.41.06-.38.21-.17.4-.17.37-.38.19v.42l-.31.29.06.41-.22.35-.25.31-.13.37,0,.41-.18.37.27.33v.42l-.27.3-.35.18-.41-.06-.33.24-.4.08-.37.18-.13.39-.29.29-.34-.26-.41-.1-.39.13-.37.18-.35-.17-.36-.13-.39,0-.37-.09-.2.36-.4.12-.19.36-.37.16-.43,0-.42,0-.13.46-.44.2,0,.39-.2.34-.15.37-.13.36.14.4-.2.38.23.37-.16.4.31.27,0,.4.24.31,0,.39-.4.21-.14.43.1.4,0,.41.3.27.18.35v.4l-.13.37.18.34v.39l.18.38.4.1L873-149l-.57,0-.46-.43-.61,0-.52.27-.58.14-.58,0-.58-.13-.29-.6-.61-.27-.64.12-.62-.23-.55-.36-.44-.48.11-.65-.15-.65-.56-.44-.42-.57.22-.69,0-.72-.6-.3-.5-.43-.68.2-.62-.34-.56-.25-.6-.05-.59-.1-.6,0-.4.5-.6.26-.63-.07-.63.06-.59-.12-.6.06-.34-.53-.59-.23-.61-.15-.52.36-.61.07-.44.41-.45.44-.63,0-.58.1-.47.38-.5-.42-.4-.51-.65,0-.63.19-.38.42-.25.53-.3.55-.62.13-.5.35-.51.34-.59-.21-.61,0-.21.59-.59.19-.42.38-.42.37-.58-.25-.54.29-.48.34-.59,0,.15.47.12.47-.06.51.28.43-.08.54.18.52-.31.44-.42.34-.24.47-.18.5-.43.33-.43.32v.56l.37.42,0,.52.12.51-.25.51.16.55-.42.32-.48.25-.17.48-.11.51-.54.08-.35.43-.4.3-.24.44-.52.05-.35.39-.53,0-.36.39-.46.15-.44.17.25.41.18.44.23.46-.15.48.35.31.37.28.16.48.45.23.42.23.33.35.13.46.11.46.43.21.37.3.14.46.16.45,0,.56-.31.46-.44.32-.44.3-.12.59-.44.4.32.49.1.57.42.3.27.43.45.3.11.53,0,.53.29.44.12.49.2.46-.36-.07-.29-.24-.36.08-.36.08-.29.21-.34.08-.27.22-.32.15-.33.07-.3.19-.37,0-.27.26-.29-.23-.35-.08-.36,0h-.35l-.17-.33-.31-.19-.29-.21h-.36l-.32-.11-.31-.14-.36,0-.25-.24-.4,0-.4,0-.36.21-.24.33-.32-.2-.34-.16-.33-.18-.29-.24v-.39l0-.39-.06-.39-.26-.32-.1-.45-.41-.21-.4-.14-.42,0-.26-.26-.34-.12-.22-.29-.25-.25-.28-.27-.27-.3L826-130l-.4-.12-.4,0-.23.33-.36,0-.36,0-.37.08h-.38l-.3-.21-.35-.13-.36,0-.36,0-.31.24-.39-.08-.33-.11-.33-.15-.28-.23-.36-.08,0,.32-.27.19,0,.3-.12.28-.16.25v.31l.11.29-.12.29-.24.18-.24.19-.12.28-.1.29-.25.19-.15.29h-.3l-.3.12.07.29-.07.29.14.28-.07.3-.16.26v.61l-.14.26,0,.32.15.28.21.26.35,0,0,.3.18.25.14.26,0,.3-.29.2-.06.35v.34l.16.29-.27.21h-.34l-.23.24-.08.33.09.3.27.16.25.19.08.3,0,.31-.14.29.24.24v.33l-.19.28.07.33,0,.31,0,.31-.23.22-.29.12-.15.3-.32.11.19.26.17.27,0,.34-.21.27.27.18,0,.3.27.17.05.32-.12-.4-.24-.36.35-.29,0-.45-.29-.29-.41-.07v-.43l-.29-.33-.29-.23-.35-.13-.18-.34-.35-.17h-.37l-.36-.07-.38-.07-.36.13-.36-.09-.33-.19-.16-.36-.38-.17-.24-.3v-.39l-.2-.34.08-.39-.36-.13-.24-.3-.37,0-.36.1-.36-.13-.35-.19-.31.24-.37.13-.28-.21h-.35l-.33.12-.31-.19-.35.09-.33-.14-.35.11-.23.28-.32-.16-.22-.29h-.36l-.32-.16-.38-.06-.34.11-.39.1-.19.35-.3.21-.1.35-.24.28-.37,0-.32.09-.34.1-.3.17-.2.28-.2.36-.36.17-.39-.2-.39.17-.36-.1-.36,0-.33-.16-.27-.25-.28.21-.08.35-.33.06h-.35l-.29-.11-.31-.07-.27.2-.33,0-.32-.1-.23-.26-.28.17h-.35l-.3-.06-.32,0-.28.14-.26.2-.06.31-.28.16-.19.23,0,.3-.19.29-.35,0-.23.24,0,.34-.31.13h-.33l-.15.3-.27.21-.21.25L793-115l-.14.3.05.32-.19.24v.31l-.11.28.06.3-.22.22,0,.32-.23.2-.11.27.11.31.19.26-.12.29-.14.3.06.29,0,.3-.26.21,0,.32-.33,0-.25.2-.29,0-.3.09-.3.06h-.31l-.31.08-.25.21,0,.32-.17.29-.15.3.08.34-.3.18-.35,0-.19.29-.12.33-.15-.22-.25-.1-.08-.26-.2-.19-.28,0-.28,0-.29-.13-.11-.29-.2-.16-.23-.14-.22-.15h-.27l-.25.09-.27,0-.27.06-.25-.1.08-.29-.16-.25-.3-.06-.16-.26-.24-.14h-.29l0-.29-.19-.22-.2-.19-.28-.05-.26-.07-.27.1-.09-.27-.16-.24L782-111l-.28,0-.25-.06-.26,0-.26.05-.2-.18-.23-.16-.25,0-.26,0-.24-.1-.26-.06-.27.09-.21-.17-.19-.2h-.25l-.23-.14-.12-.25-.24-.11-.29-.06-.26.16-.28,0-.27.08-.25-.16-.29,0-.16-.24-.15-.25-.27-.1-.26,0-.18-.21-.14-.24-.22-.15-.16-.2-.08-.25-.17-.2-.7.46-.57.61-.68.48-.69.48-.2.94-.66.7.58.76.18.93-.08.76-.28.72,0,.76,0,.75-.28.78-.49.66.39.74.09.82-.7.36-.7.3-.83-.12-.68.48-.78-.1-.77-.21-.81-.06-.73.4-.58.63-.79.34-.84-.41-.85.39-.69.54-.09.87-.8.38-.25.85-.64.44-.08.78-.14.69v.71l-.74.25-.44.62-.46.65.13.78.28.71.31.69-.52.6,0,.8-.43.59-.12.7,0,.77-.59.49-.4.76-.84.19-.09.81-.52.63.21.76.17.76-.13.78-.32.72.17.79.46.66.8.26.48.68-.08.83.47.7-.11.79-.32.73-.39-.08-.32.24-.37,0-.36.11L755-77l-.29-.29-.39.2-.43-.07-.23-.35-.29-.3-.43.14-.41-.17,0-.41-.14-.38-.4-.19-.11-.42,0-.36-.15-.32-.17-.34.15-.36,0-.38-.28-.26-.17-.35-.38-.11L750.6-82l-.12-.33-.32-.14-.21-.28-.12-.36,0-.38-.4,0-.25-.31-.4-.24-.47.06-.17-.41-.22-.38-.32.27-.39.15-.41.11-.41-.11-.4-.08-.4,0-.39.14-.38.15-.45.1-.21.42-.24.4.13.45-.36.06-.32.17-.35-.12-.28-.24-.33.1H742l-.27-.23-.33-.1-.34.16-.34-.1-.32-.12-.34-.09-.17-.33-.37-.07-.34-.07-.28-.19-.26.18-.14.28-.08.29-.07.29,0,.35.3.2-.13.3,0,.31-.08.31-.16.27.24.23,0,.33,0,.3.1.29.15.26.23.2-.28.14-.07.3-.24.15-.23.16-.14.24-.11.26-.25.15-.1.29-.3.1-.2.24-.2.28.08.33-.24.17-.3,0-.24.17-.25.13-.25.15-.06.3-.08.26-.12.25-.17.22-.26.14-.3-.11-.26.18.1.28-.11.28-.15.26-.28.1-.29.06-.15.27,0,.27-.1.25-.24.21-.08.31-.31.08-.19.27V-72l.24.24-.15.29.1.32-.11.27-.17.24-.18.23-.24.16-.29-.08-.28.12-.31,0L731-70l-.38-.25-.44-.1-.26-.36-.39-.21.09-.51-.32-.42-.34-.36-.51-.06-.31-.32L728-73l-.3-.39-.46-.05L727-73.8l-.1-.45-.44-.13-.34-.32-.45.11h-.47l-.37-.29-.34-.34-.4-.15-.42-.07-.36-.22-.39-.2-.43.24-.48.13-.44-.3-.52.1h-.56l-.34-.45-.06-.52L719.7-77l-.47.21-.46-.15-.43.22-.45.12-.33.34-.3.36v.51l-.35.37h-.44L716-75l-.49,0-.27.42-.44.18-.46.15-.09.47-.29.39-.32-.38-.51,0-.45.14-.47-.13-.46.06-.44-.11-.45,0-.44-.15-.35.32-.25.4-.4.27-.34.35-.46-.19-.51.07-.51,0-.38.34.56.92-.27,1.05-.32,1,.29,1,.64.79.42.93v1l.37,1-1.16.14-.89.75-.31,1.09-.35,1.06-.18,1-.54.9-.36,1,.27,1,.79.51.65.67.5.81.76.57.18,1,.81.61.64.71.85.44.6,1,1,.49-.49,1.09.45,1.11,1,.25.67.83,1,.14,1,.32.06,1,.79.66-.09,1,.12.94.13,1-.47.88-.29,1-.92.47-.59.83,0,1-1.08,0-.68.84-.3.83-.37.8-.6.73,0,.94,0,.93-.61.7-.25.83-.52.71-.15.91-.57.72-.48.87-1,.17-.67.52-.65.57-.91.25-.37.87-.23.88-.55.71-.78.43-.7.56-.2.57-.13.59-.57.22-.47.39-.31.48-.23.52-.22.52-.4.41-.46.5-.68-.06-.64.14-.55-.35-.6.17-.56.24-.28.56-.41.45-.5.38-.29.55-.65.19-.24.63-.54.4-.29.62-.64.1-.66.05-.3-.6-.62-.29-.68,0-.53-.42-.61.28-.63.28-.67-.14-.59-.38-.5.29-.46.37-.58-.11-.58.12-.63-.18-.61.21-.45-.42-.35-.51-.56.14-.48-.3-.51-.19-.53.1-.52-.08-.5-.2-.49-.31-.55.2-.4-.46h-.61l-.48-.3-.47-.31-.6-.08-.48.37-.52.26-.58,0-.34-.46-.5-.27-.52-.23-.57,0-.56.2-.51.3-.52-.31-.56-.19.19.41.05.44v.45l0,.44-.28.44-.52.09.15.5-.27.45-.08.45.08.45-.2.4-.13.43.17.45.43.22.2.42,0,.46-.26.35-.12.42-.4.18-.25.38-.37.21-.37.19-.39.15-.36.24-.35.36v.49l-.45.08-.4.26.19.45-.23.43-.24.37-.26.35-.26.34-.2.36-.12.44.22.4-.06.43.26.35-.18.37,0,.42-.12.4.08.41.18.36,0,.41-.18.36-.16.37-.08.39-.11.39-.2.36-.09.4v.44l-.34.3V.56L666,1l0,.44-.23.37-.44.05-.28.35-.24.37-.4.18-.34.28-.13.41-.28.36.05.45-.48-.09-.38.3-.34.3-.22.39-.43.09-.44,0-.4.2-.27.36-.49-.12-.43-.26-.49.11-.41.32-.37-.31-.16-.46L657.93,5l-.36-.31-.43-.15-.35-.29L656.32,4l-.44.24-.41.23L655,4.32l-.47.06-.36-.31-.05.49-.07.48-.44.23-.39.31-.48-.07-.4.29-.21.44-.47.17-.24.36-.27.34.19.43-.2.43-.4.13-.34.25-.16.41L649.9,9l-.4.06-.34.21-.28.31-.4.11-.35.19-.27.3-.37.16-.28.28L647,11l-.38.22.08.43-.08.43-.4.23-.16.43-.1.45.22.41v.45l-.21.41-.42.16-.39.22-.45,0-.32.31-.36.26-.13.41,0-.28,0-.28.24-.19.06-.3-.14-.28-.28-.12-.1-.25-.07-.28,0-.27-.08-.27,0-.29-.2-.24-.2-.22-.3,0-.31,0-.2-.23h-.26l-.26-.09L641.6,12l-.27,0-.13-.22-.21-.17-.18-.2-.1-.24-.27,0-.23.13-.25.06-.27-.05-.29-.08-.14-.27L639,11l-.26.1-.24.11H638l-.24,0-.24.12-.25-.08-.23.1-.25,0-.24-.1-.16-.21-.24-.08-.16-.2-.11-.26-.25-.1,0-.26-.18-.2-.25.14-.27-.1-.28.07-.12.26-.26.09-.24-.14-.19-.19-.28,0-.19-.16-.2-.14L633,9.5l-.12-.22h-.25l-.26-.07-.22-.13L632,8.86l-.27.31-.33.24-.11.45-.41.19-.3.33-.44.07-.41,0-.41,0-.37.32-.08.47.11.45-.08.46-.32.34-.47.05-.46,0-.32.34,0,.44,0,.45-.42.22-.2.42,0,.45-.34.3-.22.34L626,16l.2.43,0,.48-.1.5-.44.25.26.34.22.38.16.4.06.43-.3.25-.3.28-.21.37-.41.12-.15.39-.36.23-.12.4-.36.23-.37.29-.25.42-.48-.05-.42.22-.51-.17-.48.23-.31-.38-.33-.36-.44.17-.23.41-.29.35-.43.15-.43-.18-.44.09-.41-.17-.44-.06,0,.44-.32.31-.3.26-.31.28-.27.31-.25.32-.16.38,0,.41-.38-.23-.2-.39.26-.4-.15-.45-.11-.41-.36-.21-.33-.2-.3-.26-.1-.37,0-.39v-.42l-.28-.3-.36-.19-.17-.37-.24-.31-.14-.37-.4.08-.41,0-.42-.08-.4.15-.33-.33-.08-.47-.37-.32-.5.08-.33-.29h-.44l-.2-.35-.15-.39-.13-.41-.32-.28-.4-.08-.4-.09-.48-.11-.2-.45-.39-.26-.19-.41-.4-.2-.41-.15-.4-.22-.46,0-.5-.07-.44.26-.27.41-.27.41-.43-.17-.46.08-.44.1-.46,0-.46-.13-.47.15-.19-.47-.45-.23-.3-.32-.18-.4-.23-.39,0-.46-.28-.38.08-.46-.28-.34-.41-.16-.2-.37,0-.42v-.42l-.26-.34-.16.34-.11.35-.28.25-.28.25.05.37-.17.34-.07.36-.05.35-.39.1-.37-.15-.32.22-.26.3-.38.21-.07.43-.37.21-.41-.15-.34.08L594,15h-.37l-.28-.24-.3.22-.3.2-.35-.17-.37.08-.28.21-.21.3-.37,0-.25.28h-.35l-.33.08-.3.2h-.36l-.34.17-.38-.1-.22.28-.33.18-.32.2-.37-.1-.29.2-.34.1h-.41l-.37-.15-.4.12-.26.33-.31-.21-.37-.08-.23-.32-.37-.1-.12.33-.19.3-.17.3-.29.22.06.38-.1.37-.39.12-.16.39-.24.27-.2.31-.36.14-.18.35-.33.18-.33.19-.39.14-.37-.2-.32,0-.27-.17-.28.21-.33-.09-.27-.18h-.32l-.31-.14-.16-.28v-.35l0-.35-.29-.22-.15-.33-.32-.08-.33,0-.31-.13-.28-.17-.12-.32-.23-.25,0-.34.12-.32-.2-.3-.35,0-.34,0-.2-.28L575,16.1l-.17-.28,0-.35-.24-.26-.3-.07L574,15l-.32.09-.31-.1-.31-.2-.22-.28-.36,0-.35-.08-.23-.25-.17-.3-.26-.23-.12-.33-.33-.06-.33,0-.27-.24h-.35l-.28.24-.36-.05-.36-.09-.31.2L569,13l-.16-.33-.07-.34-.25-.24-.3-.13-.24-.24-.1-.31-.27-.21-.17-.33v-.37l.31-.26,0-.4-.36-.12L567,9.57l0-.4-.24-.31-.38-.18-.41.19-.4.07-.3.26-.34-.2-.29-.25-.4-.1-.27-.3-.37-.15-.4.09-.42-.17-.1-.42-.1-.38L562.39,7l-.34-.19-.32-.22-.4-.09L561,6.32l-.4-.15-.4.15L560,5.89l-.43-.15,0-.43-.18-.38-.29-.25-.39,0-.36.18-.38-.14-.34.19-.35.17-.33-.24-.41,0-.38-.11-.33-.18-.39,0-.34.18-.37,0-.34-.12-.38.14-.36-.15-.36-.09-.3-.21-.32-.18-.34-.17L552,4.1l-.4,0-.34-.15-.36-.13-.24-.33-.22-.34-.26-.3-.26-.31-.24-.36-.12-.42-.09-.46.29-.37-.32-.23-.33-.22-.36-.2-.42,0-.14-.43-.43-.15h-.41l-.4-.12-.23.25-.2.27-.11.35.2.31-.18.24-.24.19-.25.2-.28.13-.32-.07L545,1.3l-.25.23h-.35l-.19.26-.18.27-.3.2-.34-.07-.28-.09L542.84,2l-.11-.3-.3-.12-.29.14-.32,0-.29-.11-.27-.17-.26-.2-.32.1-.26.15-.26.14-.31.06-.23.23-.29-.09L539,1.76l-.07.29.09.28-.2.21-.24.16.06.3-.14.26-.19.24-.28.09-.1.27-.22.19-.1.28,0,.29-.27.09-.28,0L537,5l-.27.13.15.26v.3l-.15.24-.1.27,0,.31-.24.21.12.26-.06.29-.2.24H536l-.18.22L535.7,8l-.29.07-.24.2-.14.27v.3l-.4.18-.42-.1-.4.23L533.38,9l-.46,0-.37-.24-.31-.33L532.08,8,532,7.63l-.23-.32L531.47,7l.1-.41.15-.42-.21-.4-.3-.29-.28-.29-.36-.27-.4-.16-.4.19-.44.06-.29.28-.19.37L528.6,6l-.42.12-.32-.23-.38-.08-.36.17-.4,0-.4-.06-.41,0-.12-.42-.38-.22-.36,0-.34.15-.33.12-.27.24-.38-.11-.37.19-.3.22-.2.32-.35-.11-.31-.21-.2-.32-.33-.16-.36,0L521,5.49l-.36,0-.35-.1-.29.31,0,.41-.27.3-.36.15-.4.09-.33.23-.42,0-.33-.27-.37,0-.31-.21-.26.28h-.38l-.35,0-.35,0-.33-.09-.31-.16-.34.3-.3.36-.47.17-.44-.22-.33.3-.44.06-.4.12h-.43l-.43,0-.41.06-.35.26-.44,0L510,7.89l-.45-.11-.28.39-.45.19-.48.1-.32.38-.41.21-.47.06-.48.09-.33.34h-.5l-.37.32L505,9.6l-.42-.33-.56,0-.47.29-.43-.26L502.77,9l-.2-.46-.43-.29-.23.37-.24.38-.45.06-.33.33-.3.38h-.47l-.4.16-.38.17-.38.24-.24.37-.06.43-.23.38-.07.46-.13.45-.4.22-.43.21-.2.47-.45.22-.19.47-.43.28.38.38,0,.54-.2.47,0,.52-.49-.11-.47.17-.51,0-.44.26.15.56-.28.49-.42.33-.45.28-.2-.15v-.24l-.15-.18-.22,0-.22,0-.21,0-.2-.08-.21,0-.2-.12-.22-.06-.14-.18-.09-.22-.14-.2.06-.24v-.23l.15-.19-.19.08-.21,0L490.9,16l-.13-.15-.19,0-.19,0-.17-.09-.19,0-.18,0-.18-.07-.2,0-.16.13h-.2l-.17.11-.13-.17-.22,0-.13-.14-.13-.13-.19-.08-.11-.17-.17-.12-.15-.16-.21-.05-.2.12-.22,0-.17-.11-.2-.08-.2.06-.12-.17-.05-.2-.16-.13-.11-.18-.19-.12-.08-.2,0-.21-.07-.2-.06-.21.09-.2,0-.21.16-.15-.07-.2.08-.19-.08-.19-.14-.14-.1-.17,0-.18-.07-.18,0-.18-.31.18-.05.34.05.34-.19.28-.21.26-.11.33-.29.14-.34.08-.26.19-.32.08-.35.08-.2.27-.37-.11-.19-.32-.33.17-.38-.08-.14-.3-.27-.2-.35,0-.27-.24-.3.1-.32.11-.3-.18h-.34l-.32.06-.3.11-.16.28-.24.22-.18.26-.28.17h-.32l-.31.08-.23.23-.09.31-.1.3-.18.25-.07.37-.33.18-.34.15-.34-.09.17.33-.08.36-.25.24-.24.24.2.26.1.31,0,.34-.14.31-.32-.18-.36.11-.27-.23h-.36l-.36.05-.2.31-.35.09-.2.3v.35l.1.34-.13.33-.25.24-.18.31-.17.31-.37,0-.3.23h-.29l-.29,0-.29.13-.3,0-.27.15-.29,0-.31,0-.24.17h-.33l-.3.16-.36-.07-.26.24-.35-.09-.34-.1-.22-.28-.12-.33-.3-.14-.3.07-.26-.15L466,20.1l-.31.06-.31-.06-.21-.25h-.33l-.22-.24,0-.33-.15-.27-.19-.25-.16-.29-.31-.14-.29-.11-.31-.06-.29-.2-.32-.16-.32-.13-.32-.14-.32.16-.31.19-.36-.09-.36.11h-.37l-.27-.26-.27-.25-.1-.34-.15-.32-.31-.18,0-.36-.23-.28v-.31l-.05-.3-.22-.25v-.32l-.08-.3.05-.31-.21-.25v-.33l0-.31,0-.32.08-.32-.08-.31-.14-.29-.2-.24-.3-.2,0-.36-.1.26,0,.29-.15.26-.3.08-.22.22-.32,0-.2.24v.3l-.24.16-.28.08-.24-.19-.31.05-.17.24-.2.23-.29.07-.31-.07-.1.28.11.28-.18.21-.11.25-.07.29-.24.17-.28.05-.21.2-.24.15-.11.27v.29l-.23.19-.28-.17-.31.12-.14.28-.28.13-.26-.17-.21-.22L451,16l-.27-.19-.32,0-.32,0-.09.34-.32.15-.28-.13-.3.08-.25-.14-.16-.25-.28.06-.27-.07h-.28l-.25.09-.23.22-.29.08-.31-.05-.28-.1-.21.18-.19.22-.27.14-.09.29h-.29l-.3,0-.22.18-.18.25-.29,0-.21.21-.12.27-.14.25-.15-.12-.16-.11-.17.11-.2-.08-.2,0-.16-.12h-.17l-.18,0-.14-.16-.18-.11-.22-.06-.2.13-.11.17-.2.06-.16.14-.21,0-.08.19-.16.14-.14.16-.13.15-.1.19,0,.21,0,.21-.07.2h-.21l-.2-.1h-.43l-.12.2-.22.06-.11.2-.23.05-.21,0-.11.19-.2.05-.12.17h-.2l-.2,0-.21.05-.12.17-.2.13-.23,0-.12-.2-.22-.05-.19-.06-.19-.06-.19-.08-.13-.14,0-.21.07-.21-.18-.12-.09-.19-.17-.14-.23.05-.07-.2-.21-.09-.17-.1-.06-.18-.17-.1-.11-.15-.2-.08-.2.08-.14-.13-.14-.14h-.18l-.11-.16-.11-.14-.12-.12-.18,0-.15-.12,0-.19-.19-.08.17-.11.06-.21-.08-.18,0-.2-.13-.14-.2-.07-.11-.19.08-.2-.19-.05-.14.1-.18.06-.16-.1-.16-.08-.17,0-.16,0-.16.06-.07-.17-.12-.14-.18,0-.16-.11-.14-.13,0-.17-.13-.13h-.2l0-.18,0-.18-.09-.18-.18-.09-.13-.1-.05-.18,0-.16,0-.17.08-.16,0-.17.1-.15.09-.14-.05-.17-.1-.17.12-.15,0-.2-.16-.06-.19,0-.15-.11-.18,0-.16,0-.15-.11-.11-.14-.18,0-.07-.21.12-.18-.08-.2-.19-.09-.17,0-.12-.15-.13-.12-.14-.12-.55,0-.41.35-.44.3-.53-.08-.47.23-.52.07-.47-.32-.55.16h-.57l-.49-.26L423,11l-.44-.37-.54.21-.5-.24-.51-.14-.43-.31-.57.19-.55-.26-.42.37-.38.42-.49.24-.55,0-.44-.37-.57.07-.56.06-.45.33-.42.38-.56.09-.26.59.27.59-.56.27-.29.54-.62-.14-.49.38-.44-.37-.51-.26-.57-.11-.56.13-.38.43-.42.38-.55.09-.35.44-.16.53-.48.28-.05.56-.46.33-.4.38,0,.55-.12.49,0,.51-.22.45-.22.45-.47.3-.08.55-.11.5-.12.49-.38.36-.4.35-.46.33-.18.52-.55,0-.51.18-.53,0-.52.13-.14-.38V22l-.26-.34-.43-.05.21-.35v-.41l-.09-.4-.34-.26,0-.38-.28-.28-.23-.31-.35-.17.11-.36-.09-.37,0-.38-.18-.34,0-.38.05-.38.11-.37.12-.36,0-.41-.29-.3-.09-.39-.31-.26-.37-.19-.21-.37h-.43l-.36-.23-.35-.31-.14-.43.14-.42.14-.42v-.49l-.35-.36.37-.32,0-.5.34-.25.34-.28.17-.4.17-.4.18-.44-.23-.42-.33-.27L398.73,8l-.24-.42L398,7.44,398,7l-.07-.42-.47-.15-.35-.37-.49,0-.41.29-.36-.27-.26-.38,0-.48-.31-.36L395,4.6l-.21-.35,0-.41-.17-.39-.18-.35V2.69l-.08-.39.05-.4-.69.43-.76.29-.78.34-.84-.18-.8-.2L390,2l-.45-.7L388.79,1l-.86.05-.59.64-.79.42-.83-.34-.4.71-.13.8-.59.57-.28.77-.44-.73L383,3.76l-.75.37-.77-.34-.67.36-.76,0-.75.08-.73-.14-.46-.59-.3-.69-.71-.26L376.57,2,376,1.47,375.39,1,375.1.29V-.49l-.41-.73L374.55-2l-.76-.31-.72-.4-.77.11-.77,0-.74-.23H370l-.76-.35L369-4l-.59-.5-.7-.36-.49-.68,0-.84-.1-.85.48-.71-.67.25-.55.44-.65.26-.62.34-.69.13-.67.26-.72.15-.69-.27-.47-.6-.64-.4-.75-.08-.75.1-.57.58-.81.08-.82-.06-.58-.57.08-.47-.17-.44-.32-.33-.12-.46,0-.44.16-.42,0-.46.23-.4-.21-.38-.16-.4-.08-.44-.31-.32-.29-.37.06-.46-.13-.42-.27-.34,0-.48.24-.4.27-.4v-.47l-.31-.41,0-.5.16-.45.17-.45-.25-.44-.22-.45-.38-.38-.56,0-.08-.46-.26-.4v-.49l-.22-.42-.46,0-.44-.14-.47-.08-.4-.23-.24-.41-.38-.28-.39-.25-.44-.17-.26-.44-.45-.21-.32-.36-.32-.36,0-.55-.39-.4-.06-.55.34-.42-.22-.48.24-.48-.23-.47-.51-.13-.34-.28-.18-.42-.48-.05-.25-.42,0-.49,0-.49-.39-.31-.36-.32-.48-.05-.48-.05-.48-.25-.11-.52-.33.6-.67.15-.61-.19-.63,0-.47.51h-.7l-.44-.52-.67-.11-.65-.08-.57.35-.6-.17-.5-.38-.54-.28-.4-.43-.49-.31-.5-.33-.62.16-.46.47-.65.15-.57-.34-.63,0-.62,0-.6.2-.41.48-.6.36-.69,0-.41.54-.28.62-.38.55.13.67-.53.43,0,.68-.61-.45v-.76l-.63-.26-.61-.29-.69,0-.57.35-.64-.18-.67,0-.1.78-.69.39-.68.33-.72-.24-.62-.05-.6-.24-.61-.16-.62-.12-.52.32-.6.16-.11.63-.43.47-.49.33-.38.44-.33.49-.2.55-.67-.08-.57.33-.53.37-.65.09-.09.67-.51.45-.48.5.07.69-.57-.32-.24-.6-.47-.45-.64-.09-.59.26-.64-.14-.64,0L309-23l-.28-.64-.35-.63-.71-.09-.68-.21,0-.66-.27-.6-.16-.66.28-.62-.51-.4-.53-.34-.57.31-.66,0-.16-.62-.59-.26-.49-.3L302.9-29l0-.62-.26-.57-.32-.6-.65-.12-.35-.51-.61-.11-.48-.28-.5-.28-.64.06-.51-.41-.34-.49-.44-.41-.19-.6-.27-.55h-.69l-.41-.55v-.73l-.48-.57.6-.45.09-.74-.57-.44-.74-.06-.18-.67-.2-.67-.51.53-.73,0-.66.31-.68-.21-.44-.52-.49-.47h-.72l-.56-.46-.51-.55-.75,0-.31-.61-.38-.56-.1-.65-.33-.58-.24-.64.19-.66-.66.36-.41.62.2.73-.22.72.59.42.14.71-.07.73.49.54-.14.71.45.57-.48.47-.21.64,0,.63-.36.52.2.63-.31.58.52.46.55.41.06.69.14.68-.72.36-.18.77-.16.79.52.61.15.6L288-29l.2.6.48.42-.12.63.28.59.26.58-.09.63-.6.36-.49.49-.58.38-.49.49.16.77-.48.61-.68.36-.27.72.55.62-.15.81.33.67.32.68.11.81-.45.69-.62.48-.45.63-.7-.17-.66.27-.34.64-.69.23-.68-.2-.67.23-.72.12-.4.6-.8-.19-.64.51-.72-.14-.72-.2-.11.76-.45.62-.7.32-.51.58-.33-.32-.37-.25-.46.09-.45,0-.43.14-.43-.14h-.42l-.39.2-.19-.42-.26-.38-.43-.21-.28-.38-.44-.13-.46.07-.45.09-.45-.11L269.1-14l-.17-.4-.44,0-.34-.27-.34-.23-.31-.26-.4-.12-.32-.26-.34-.26-.32-.3-.14-.4-.2-.38-.44-.15-.24-.39-.44.07-.41-.23-.45.09-.45-.1-.39-.33-.51.12-.41.17-.46.09-.42.17-.47,0-.25-.4-.4-.25-.4-.25-.47-.09-.46-.22-.46.19-.5.06-.38-.32-.52-.2-.54.14-.28.48-.52.23-.39.4-.53.17-.55-.12-.48-.27-.36.35-.24.44-.08.54-.47.29-.28.44-.26.45.12.51,0,.53.14.28.06.32.28.17.17.28-.31.18-.1.34.13.33-.12.33-.28.2v.34l-.23.22-.24.19,0,.32-.13.29v.35l.25.24-.3.06-.26.18-.29.17,0,.33-.25.21-.11.3-.08.33.17.29-.27.16-.29.08-.29.18,0,.33-.08.31-.24.2.05.3,0,.31-.1.32-.12.32-.37,0-.2.31-.07.32.07.32v.32l-.12.31.24.23,0,.34,0,.33.25.22-.09.32-.07.34L249-2l.08.36.1.28.14.27.25.17.23.2.1.31.3.15-.08.31.16.29.35,0,.34,0,.24.25.28.21.1.36-.15.34.36.13.19.33-.46.1-.37.27-.31.34-.36.26L250,2.75h-.49l-.44.21-.32.38-.47.16-.49,0-.48-.17L247,2.88l-.41.18h-.47l-.43.14-.45,0-.39.38v.53l-.48.13-.44.21-.51.12L243,4.34l-.45.18-.41.25h-.47l-.42.22-.22.42-.32.34-.24.36-.37.23-.39.22-.27.35L239,6.5l-.59,0-.35-.42-.3-.45L237.3,6l-.56.06-.49-.26-.56,0,0-.53-.31-.44-.27-.43-.37-.34-.47-.29-.08-.55-.29-.46-.54-.11-.49.25-.51.23-.3.49,0,.57-.48.25-.53-.06-.53,0-.46.25-.52.33-.32.53-.58-.28-.61.16-.39-.46-.25-.55-.62.14-.57-.26-.23.86.26.85-.6.61-.58.63-.54.77.08.93-.78.45-.88.2H222l-.65.69-.78-.42-.77-.4-.79.39-.83-.33-.5.75-.91.05.28.81.64.58.59.66,0,.88-.12.85.08.87-.55.68-.43.75-.82.39-.32.87-.16.83,0,.86-.79.42-.36.83-.78.33h-.87l.32.78-.11.83-.14.83-.61.6-.6.71.14.92-.92,0-.63.69,0,.92-.69.6.28.79.12.84.52.75-.12.9.57.66.83.3.71.48.84,0,.07.85.54.66.48.67.83,0,.66.37.54.51.28.69.23.71.48.67-.23.79.23.75.51.59-.32.76.3.77-.46.23-.14.5-.48.14-.28.42-.26.41,0,.49.11.49-.17.46-.38.29-.45.12-.46.09-.46-.09-.47.09-.48-.08-.23.47-.49.16-.5-.05-.29-.4-.29-.34-.4-.23-.42-.17-.44-.13L210.4,44l-.33-.32-.52-.07-.45.29-.47-.17-.45-.18-.55,0-.36.39-.5.22-.16.51-.38.2-.38.22-.36.23-.41.12-.44.08-.44-.13-.32.37-.48,0-.44-.05-.45-.09-.45-.14-.23-.41-.42-.14-.26-.38-.42-.11-.3-.34-.5-.15-.5.2-.17-.5-.47-.26-.44-.09-.45.07-.42.19-.45.06-.22.39-.28.35-.1.45-.36.3-.36.33-.5,0-.4.22-.28.36-.2.43-.36.28-.35.31-.2.41v1l-.33.36-.39.31.08.49L193,50l-.36.36-.09.5-.15.43-.16.43-.12.48.24.44.31.4,0,.5.41.22.36.31.16.47.43.25-.1.47.18.45.3.47-.12.54-.45.33-.05.56.4.29.28.41.12.49.4.32.16.48v.51l.09.51-.16.49-.55.08-.41.37-.16.51-.23.49-.17.53.22.5-.06.53-.27.45.48.24.27.45.13.55.52.23-.37.29-.23.42-.08.46v.47l-.38.27-.44.19-.2.44-.07.48-.44.28-.07.53,0,.49-.16.45-.52,0-.52-.08-.4.32-.33.41-.12.37-.34.2.19.36-.13.37-.36.15-.11.38v.36l-.16.33-.2.32-.17.33-.34.21-.4,0-.25.24-.13.33,0,.38-.32.22-.36.16-.4,0-.25.29-.14.37-.37-.1-.32.22-.35,0-.35.07h-.74l-.24.29-.35.16-.29-.23-.37-.07-.36.06-.34-.12-.31-.12-.31-.14-.33,0-.32-.14-.31-.16-.33-.07-.28.26-.39,0-.37-.1-.36.13-.38-.16-.09-.39-.35.11-.33.15-.36-.07-.28-.24-.28.28h-.4l-.28.26,0,.39-.12.33-.28.22-.24.27-.32.12-.35.08-.29.18h-.35l-.32.12-.3-.28-.41,0-.29.22-.35.15-.35.38-.49.11-.47.15H171l-.48.2-.51.1-.13.51-.36.39-.36.43-.55.07-.27.47,0,.53,0,.51-.16.48-.28.44-.48.21.16.52-.28.46.39.34.15.49-.07.47.13.46,0,.47-.14.45V88l.23.46-.17.47-.27.41-.29.41.29.46-.17.52-.39.29,0,.49-.25.37-.29.33,0,.44.08.44.1.44-.12.44.28.39,0,.48-.12.48.22.44-.18.43-.28.37-.3.36-.28.36.32.39-.1.5,0,.46-.06.45-.4.31,0,.5-.2.44-.42.23.05.49-.36.35,0,.47-.29.36.29.39,0,.47.08.44.19.41-.81-.53-1,.14-.88.46-.93-.37-.82.36-.82.39-.91.14-.82.36-.63-.68-.88-.29-.36-.84-.68-.61-.84-.36-.6-.68-.79-.51-.3-.89-.74.56-.68.64-1-.19-.87.49-.8-.55-1,.07-.91.14-.91.1-.51.77-.08.92-.06.91-.39.82-.75.5-.68.59-.29.92-.82.51-.85.39-.87.33-.81.56-.26,1-1,0-.78-.56-.82.62-1-.22-.6.71-.6.71.2.91.11.92-.54.67-.33.78-.43.72-.43.72-.82.25-.59.63-.87.31-.77-.49-.79.15-.68.4-.71.45-.83-.09-.8,0-.79.06-.84.16-.74-.39-.83,0-.76-.34-.68-.44-.63-.52,4.56-4.31,4.68-4.2,3.19-5.65.05-6.49,4.84-4.82,2.81-6.22-4.78-5.54.75-7.28,6.72,1.5L150,69l5.61-3.24,6.31-1.41,1.27-7,6.38-3.22,3.57-5.37,2-6.11,2.36-6,1.35-6.34-2.4-6-3.84-5.25-6.93-1-4.13-5.66-2.23-6.08-.9-6.41-1.7-7,1-7.11,5.42-4.54,5-5,.44-7.14-5.36-4.75-3.42-5.47L155.73-46l-4.14-4.77-.24-6.32-.41-6.31,3.64-5.16-5.18-2.74-3.87-4.4-1.62-5.7-4-4.38-3.43-4.62-2.24-5.3-3.17-4.75-3.05-4.83-.92-6.24-2.3-5.88,1.48-6.55,5.51-3.85-3.13-4.82-5.5-1.71-3.5-4.13-3.86-3.8,1.45-6.19-3.23-5.48-4.21-4.37-5.69-2.07-5.71-1.51-5.15-2.86.08-6.3-4.22-4.66L84.93-179l-4-3.65-4.31-3.26L71.8-188.3l.85-.92.21-1.24.22-1.2-.26-1.2-1.28-.46-.8-1.11-.31-1.3.28-1.3.11-1.2v-1.21l.35-1.25,1.15-.63-.08-1.15-.18-1.13-.42-1.08-.23-1.13.67-1,.78-.95.55-1.18-.27-1.27.43-1.13.59-1.06.75-1,1-.7.69-1.12-.07-1.32-1-1,.18-1.39-.76-1-.44-1.14-1-.85-.15-1.3-.16-1.32.13-1.32,1.14-.71.91-1,.16-1.32.68-1.13h1.44l.89-1.12.1-1.23.7-1,.32-1.14.5-1.08-.12-1.3.67-1.12,1.12-.62.66-1.09.08-1.42,1-1,.15-1.35-.26-1.33.08-1.32.35-1.27.35-1.26.28-1.28-.78-1.21,0-1.44-1.4-.54-.54-1.4-1.1-.74-1.09-.79-.9-1-1-.84,3.28.43,3.11,1.11,3.2-1.74,3.38,1.37,2.11,2.62,3.12,1.26,2.85,1.68,2.14,2.5,3.5.46,2.95-1.9,3,1.4,3.16,1,3.11,2.18,3.67-1,2.35-2.6,3.15-1.53,3.18-1.13,3.33-.41,3.07-1.31,3.15-1.11,2.09-2.62,1.64-2.92,2.08-2.62,1.47-3,3-1.6,3.41-.48,2.93,1.82,3.37.7,3.33-1.39,3.39,1.26,3.63-.8,1.69-3.31,3-1.6,2.48-2.32,3.38-.07,3.36.29,2.82-1.95,3.43-.11,2.44-2.22,2.07-2.58,3.46-.22,3.46.26,2.88-2.36,3.72.36,3.5-1.49,3.26-2-.58-4,2.06-3.45,2.91,1.91,2.12,2.77,1.67,3,2.36,2.53,3.61,1.05,2.33,2.95,3.59.52,3.58-.65,3.68,1.19,3.78-.83,3.81-1.3,1.89-3.53L254-282.1l3,1.89,3.71-.59,3.16,2,3.26-3.47,3.52-3.19,4.63-1.09,4.66-1,3.83,3.09,4.92-.43,4,2.52,4.75,0,4.24,1.5,4.29,1.4,2.41,3.83,3.06,3.33,4.5-.6,4.52-.24,2.95,3.91,4.85.72,3.39,2.94,4.4.82,4.32-.48,4.24-.83,4.18,2.14,2.08,4.2,4.38,2.21,4.52-1.93,5-.78,3.73,3.44,3.78,2.58,3.28,3.18,5.07-1.88,2-5,4.92.58,4.92.49,4.7-.09,4.45-1.52,1.12-4.77,3.77-3.12,4.1-1.46,4.27-.77,4.23,1,4.34.25,3.7-1.88,3.28-2.53,3.55-2.12,3.69-1.89,4.28-.23,3.55-2.43,4.14-.39,4-1.14,3.91-2.74,2.22-4.24,2.74-3.75,3-3.53,4.74-.3,4.62-1.05,4.38,2,4.8.24,4.57.48,4.51.78,4.38,1.57,3.51,3.08,2.85-4,3.65-3.27,4.9.66L517.2-295l5.17,1.22,4.67-2.53,5.17.8,4.63-2.42,5.71-.9,5,3,.62,6,4.92,3.42,5.43-.56,4.61-2.94,4.59,2.84L573-286l2.22,4.64,4.1,3.11,3.75,3.3,3.78,3.28L592-269l5.74-1.07,4.07,3.75,3.54,4.26,5.38-2.29,5.66,1.49,5-2.76,3.16-4.73,5.32-1,4.85,2.42,5.53.22,4.13-3.65L647-277.1l1.83-5.07,5.74-.13,4.28-3.8,5.49-1.12,4.38-3.49,5.94.09,4,4.39,4.7,2.13,5.11-.64,4.67,1.68L698-282l3.75-3.38,3.11-4,3.12-4.14,4.66-2.24,5.26.45,5-1.66,3-4.89,5.65-.82,2.71,5.67,6,1.71-.53,5.81,1.8,5.56,5.34,1.44,4.64,3L757-277l5.34-2.89,5.76.59,3.71,4.46,5-2,4.8-2.39,3,4.68,5.06,2.36,5.64,1,4.9-2.95,0,2.93,2.08,2.07.61,2.64.54,2.67,2.5,1.6,2.17,2,.84,2.91-.43,3,1.56,2.67,2.87,1.11,3-.49,2.82,1,2.09,2,.81,2.78,2.5,1.4L826-241.5l2.19,1.93,1.38,2.57,2.8,1.06,2.92-.73.84,2.92,2.65,1.51,3-1,2.62,1.73,1.94,2.14,2.88.07,2.17,1.63,2.69.47,2.63.34,2.59.64,2.67-.33,2.64.42,2.77-.29,2.77.23,2.72-1.05,1.62-2.41,1.38-2.57,2.5-1.53,2.86.76,2.77-1,2.42,1.25,2.23,1.56,2.8-.27,2.54,1.26,2.4,1.8,3-.42,2.89-.07,2.39-1.63,2.7-.53,2.57.92,2.62.92,2.67-.71L918-228.4l3-1.22,2.6,1.8.72,3.08,2.47-1,2.34-1.27,2.66.06,2.64,0,2.53,1.12,2.69-.63,2.71,0,2.36-1.33h0"/><path id="path124746" class="cls-1" d="M572.71-28.34l.6-.21.64.05.48-.43.65-.06.56.3.62.08.65.06.47.45.31.51.32.5.2.56.33.5.38.56.12.67.56.41.7-.06.54.43.42.53.12.68-.12.68.46.52.57.4.66-.34.7.2.42.52.58.29.7-.19.57.43.47-.52.69.05.58-.22.56-.28,0,.56.09.55.08.61.49.36.07.6.21.57.63.1.47.43.57.13.51.29.28.52.17.56.58.16.25.54.24.5.43.35.37.41.2.52.19.54.5.29.49.35.32.51-.3.57.26.6.34.47.52.25,0,.59.33.49.29.47.5.28.48.26.4.37-.35.24-.14.39-.06.41.1.39-.15.36-.15.35,0,.38,0,.38-.28.31-.15.39L596.6-4l-.36.26-.25.32-.18.37-.33.28-.43,0-.22.35-.25.33.18.39v.42l0,.38.07.38v.39l.18.35-.46,0-.31.32-.08.41-.09.41-.25.28-.28.25-.12.37-.31.25.29.29,0,.42.39.13.21.35.12.35.07.37,0,.37,0,.37.24.34.34.24-.06.44.25.36-.28.35-.37.24.12.43-.08.44.38.28.27.39.46.22.46-.21.19.49-.28.45.45.22.22.45.08.41-.06.41.1.41.08.4-.22.43.15.45-.25.37-.4.22.4-.27.48-.09v-.51l.36-.36.34-.31.45-.06.48,0,.3-.36.5.09.33.37.43-.24.49.07.36-.31.38-.29.48.16.46-.15.4-.24.47,0,.44-.11.46.1.41-.19.44-.16.46,0,.45.07.4.27.37.3.18.45.25.41.33.38.5.09.47.2.49-.15.23-.45.22-.45.47-.18.49-.11.46.21h.51l.41-.26.45-.19.46-.31.52.13.48.11.47.18.46-.22.18-.5.28-.44.5-.13.43.14.43.11.43.18.44.09.4.34.08.52.48.07.46.16.31.35.25.38.46.12.35.33h.49l.49,0,.27.42.4.31.55.14h.59l.53.23.59,0,.53.26.59,0,.56.11.56.11.72-.15.64.38.25.65.46.54,0,.64-.07.64-.08.69.47.52.47.33.33.46.18.54,0,.56.38.38.34.44.49.24.48.25.24.5.32.45.56.16.32.5.15.52.07.54,0,.56L633,25l-.52.39-.64,0-.48.41-.26.59-.38.46-.47.36-.33.57-.64.12-.44.54.12.68.32.56.12.63-.3.62.24.63-.36.52-.33.53,0,.57.05.56-.09.56,0,.57.34.49.14.6-.18.57-.13.58.59.26.57.3.63.32.18.67.07.62,0,.63.25.63-.25.62L631,41l.33,0,0-.33.24-.23.24-.14.2-.21.23-.2.29-.06-.09-.29,0-.3L632.4,39l.22-.24.18-.25.26-.17.09-.29.05-.3.26-.14h.29l.24-.14.25-.12h.32l.28-.13.23.2.28.13.28,0,.25.09.29-.07.26.06.27.15.29-.05.24-.17.28-.09.16-.23.15-.25v-.29l.15-.25,0-.3.12-.28.22-.21.1-.27.31.19.34-.14.25-.2.19-.27.17-.23.19-.22.2-.23.25-.13.31.05.29-.1.28-.14.23-.21.26-.1.3-.07.24-.18.28-.08.21.26.16.29.2.26.27.19.27-.25.37,0,.32.15.33,0,.44.41.08.58.46.34.45.3.28.49.2.51,0,.56V38l.42.43,0,.59-.08.59.36.49-.39.46-.41.45-.13.62.25.59.41.48.55.29.56-.38.65.14.48.37.61-.13.6-.06.48.34.49.35.56.25.34.53,0,.63,0,.63-.11.62.44.44.47.42-.31.53-.49.35-.47.39-.38.46,0,.64.36.54.11.64-.32.57-.57.26-.6-.17-.5.34-.53.26-.24.57-.12.61-.4.53-.64.12,0,.63.28.56.52.33.53.29v.63l0,.63.33.58.6.27-.48.44,0,.64.19.57L650,60l-.3.5-.24.52-.19.55,0,.59.36.26.44-.1.41-.09.3-.32.36-.21.41.14.37.07.38.12,0-.46.29-.34.19-.39.33-.28.42,0,.38-.19.44.06.36-.24.32-.24.41,0,.32-.21.36-.14.08-.38.16-.36.34-.23.1-.4.29-.22.27-.24.08-.4.36-.18h.41l.32-.25.26-.3.13-.37.27.36.45,0,.36.2.27.32.24.35.38.18.23.38.43.11.43-.14.28-.35.26-.37.43-.14.44-.2.43.2.43.15.44,0,.38-.06.36-.18.27-.28.32-.24.39-.1.39-.08.37.17.39.09.33-.24.21-.35.42,0,.4,0,.29-.3.16-.39.42.13.4-.2.78.26.76.31.28.78.24.79L673,57l.69-.45.79.25.73.36.76.19.62.48.4.68v.79l.64.48v.8l.3.73-.35.71.44.54.38.59.68.27.4.62.2.69.13.72.44.6.64.37.14.7,0,.71.12.71-.07.72-.44.57-.18.71v.78l-.57.52.37.59.62.32.42.59-.13.72.61.32.7,0,.41.52.52.43.21.68.65.32.52.48.7,0,.7-.18.54.44.66-.27.61.36.58-.55.78.07.7.2.67.3.37.6.63.33.37.57.41.54.58.36.59.34.38.6-.08.72.66.19.54.39.31.61.13.66V82.7l-.1-.27-.19-.24v-.31l.32-.1.15-.29v-.31l.13-.28.18-.26v-.3l.28-.11.24-.18.28.16.32-.07.18-.26.29-.14.21-.12.27,0,.25,0,.23-.14.15-.2.2-.17h.26l.23-.11.21-.15.24-.08h.26l.24-.06.19-.2.06-.26h.3l.17-.23.24-.14.27,0,.25,0,.25-.09.2-.21h.28l.1-.26.25-.14.21-.16.27,0,.24-.07.25,0,.26,0,.25,0,.2-.16.27,0,.31,0,.29.08.31-.1.17-.27.17-.24.16-.24.23-.19.28-.08.2-.28-.09-.33L707,75l-.27-.2.11-.29,0-.3.2-.23.2-.21.27.39,0,.48.35.35.5,0,.13.48-.19.46.24.45.47.18.25.34.23.36.37.23.23.37.11.41.24.36.4.22.16.43.24.53.56.16.55.07.52-.16.48-.15.52,0,.48-.21.33-.4.48.1.42.27.22.44.39.3.25.4.15.46.4.28.21.44.13.42-.1.42.06.42-.07.42V84l.38.31v.44l-.08.43.08.45-.28.36v.45l-.29.35-.35.29,0,.47.15.44-.22.41.08.47-.28.38-.13.47.28.4-.12.46-.13.45.34.34.16.46.15.41.19.4.29.34.1.44.26.36.39.23.32.3.32.29.44-.46.52-.35.16-.61.07-.63.44-.41.28-.53.61-.2.3-.57.66-.17.66-.16.55-.48.08-.73.54-.4.68.07.63.1.61.15.69.16.57-.4.51.43.62.16.64,0,.62.18.47-.49.66,0,.51-.45.67,0,.53-.45,0-.7.6-.15.54-.32.6-.28.22-.63.75.16.37.65-.1.71.18.68h.66l.59.27.58.27.47.45.65,0,.64,0,.62.25.41.51.62-.27.49-.44.68-.12.62.29.61.22.59.25.6.27.45.47.24-.73.7-.35.72-.11.7.19.54.36.64,0,.59.27.64-.14,0,.7.37.59.67.17.5.47-.1.65.38.53.14.65-.42.52-.26.6-.58.31-.14.62.06.62.4.52.44.5.7,0,.53.46-.1.68-.32.61.3.61.23.65.59.21.57-.19.51.3.58.09.51.32.54.27.46.45,0,.64.31.59.64.21-.08.64.25.58.59.07.53.26.46.38.6.11.29.49.46.38H761l.54.24.61-.14.54.34.26.54.44.39.1.57.37.44.25.49.34.45.34.49,0,.59v1.12l.58.17.35.51.54-.29.6.11.26.47.4.36.43.32.43.31.35.43.4.37.5.25h.56l.5-.35.6.11.37.46.59.1.43.24.41.25.47-.19H774l.2.47.36.37.52-.06.5.15.44-.2.33-.34.43-.22.49,0,.48-.09.47-.15.41.27.48.11.38-.3H780l.34-.29.35-.29.21-.42.42-.2.38-.27.15-.43.52,0,.43-.28.48.17.49-.08.47-.27.44-.31.28-.5-.16-.56.47-.12.41-.2.48-.06.44-.16.3.43.44.29.5-.22.53.17.48-.12h.5l.38.33.38.3.24.45.19.47.49.11.49.14.36-.38.1-.52,0-.53.29-.44.52-.13.36-.42.51,0,.52,0,.44-.2.47-.09.3-.41.51-.07.47.22.48-.17.43.26.5-.09.06.31.28.16.29.15.29-.12.08.28.26.13.1.25.14.23v.3l-.14.26.22.2.14.25,0,.3.13.26-.05.31-.28.16.08.24-.08.24.19.18,0,.26.18.18.08.23,0,.24.15.19.12.23,0,.25v.25l.14.21.11.21.19.17.16.2v1.08l-.09.26-.24.23-.32,0-.12.27-.16.25-.15.23-.27.08H799l-.2.2-.28,0-.13.25-.08.27-.23.15-.26.11-.19.23-.24.2v.32l-.12.25-.12.24,0,.28-.08.27-.11.27v.6l.2.24.28.11.21.22.18.28-.06.31.22.47.5.12.4.25.43.2.48.07.45.17.54,0,.4-.34.52,0,.36.38.44.28.12.52.28.44-.17.49-.07.52.37.38h.54l.33.43.51.17.48-.23.44.22.23.46.49.12.27.44.17.48-.21.47-.16.47.18.47.31.39.38.32-.11.51.24.47.48.18.43.31.52-.17.5.22.44.3.16.5.11.53.43.32.16.45.08.48,0,.48.18.45-.23.44v.5l.1.48-.12.48.42.21.46-.11.44.09.44,0,.31.4.22.43.48.27.51-.19.48.1.24.43.35.31.47.05.13.48.45.19.26.35.24.38.72,0,.68.28.77,0,.58-.53.42-.58.47-.54.78.05.6-.5.72-.32.7.34.68-.25.59-.42.58-.4.49-.5.17-.73.64-.4.83-.15.68.49.76-.25.51-.62.45.62.75.14.76,0,.58.48.69.07.69,0,.75,0,.52.53.67.24.64.32.19.74.64.41.79,0,.57.53.64.48.09.8.77,0,.69-.29.79.14.5.62.62.6.85-.11.68.46.2.81.6-.5.78-.13.75-.28.74.29.36-.76.7-.47.86.11.71-.49.67.44h.8l.78.14.68.38.48-.54.6-.39.57-.49.16-.74.39-.64.45-.6.76-.05.7-.34.86.13.63.61.83.19.65.55.44.89-.32.93,1,.21.44.91.91.24.77-.53.9-.28.79.51.86.27.86.28.3.87.59.7.66-.67.9-.18.9.27.87-.39.54.75.9.19.45.81.87.31h.84l.84-.11.65.52.59.61.8-.36.86-.11.88.23.52.76.77-.64.3-.95.86-.42,1-.16.59-.76.91-.31,1,.14.77-.64,0-1.08.62-.87.81-.65.89-.49.45-.93-.2-1-.68-.82.14-1.06.93.14.95-.05.83-.45.77-.53.16-1.09,1-.55.93-.44,1,.15.86-.53,1,0,1,.19.71.75.85.4.59.76.88.24.91.23.19.48.12.5-.2.47-.22.46-.22.47-.08.51-.51.14-.37.38,0,.46.11.45.09.45.12.44.43.33,0,.54-.29.42,0,.52.15.49.32.39,0,.51-.19.46.07.56-.39.41.29.42.19.48,0,.53,0,.54.43.36.13.55.43.37.56,0,.48.23.51.13.25.43.2.45.4.36v.55l.51.11.36.38.49.11.49.06.54.1.41-.37.38.39h.53l.39.28.44.16.29.43.52,0,.19.46.45.21.08.49.4.29,0,.53.32.42.43.27.5.1-.16.51-.32.42,0,.52v.53l0,.55.41.38.42.32.41.33.5-.17.53,0,.52-.09.49-.17.5-.26.53.12.5-.22.52,0,.58,0,.56.13.62.06.52-.29.21-.55.35-.47.32-.55.6-.18,0-.6.07-.6.18-.62.59-.29.61-.11.63-.08.17-.62.45-.49.45-.43.6-.17.21-.59.46-.44.61.22.52.41.7.08.53-.47.52.23.52.25.43-.45.61,0,.54,0,.53,0,.59,0,.4.43.56-.15.53-.22.6,0,.5.36.49.39.11.63.5.41.64-.1.44.42.61.15h.6l.54-.27.56-.11.55.11.56.07.55-.09.31.5.37.43.55.18.49.3.2.54.37.42.56.24.23.57.31.12.16.31,0,.32,0,.32v.3l-.13.27-.15.27v.3l0,.32.12.3-.09.34-.31.16.12.29.25.19-.1.3.08.31-.33,0-.18.25-.32.08-.14.29-.12.28-.14.26-.18.29-.33,0v.64l-.17.3-.32.11-.07.28,0,.29v.3l-.15.26-.08.3.07.3-.12.29-.26.19,0,.29.11.27.16.24.15.25.25.17.17.26.06.32-.14.28v.28l0,.27-.12.26,0,.28.2.2.24.15.21.2.08.27,0,.31.12.27.28.11.24.19.09.31-.12.29,0,.33-.24.23.09.3.07.31.28.14.2.26.66.43.76.14.44.71.82.17.67-.51.83.17.77-.2.59-.52.8-.08.44-.67.74-.25.72.29.64.51.79-.17.65-.35.71-.21-.11.85.56.66.74.27.72.33.33.73.68.45.78.1.77-.08.57.53.76,0,.51.5.6.39h.72l.68.2.72.09.6.41.63.41.72-.17.67.39.71-.28.69-.3.68.31.71,0,.64-.31.72-.35.38-.72.68-.46.18-.79h.87l.68-.53.63.6.85.07.68-.21.56-.44.75-.1.5-.56h.8l.53-.61.75-.15.69.34.48.6.71.31.67.35.57.5.92-.14.67.64.77-.35.6-.6h.23l.21.09.23.09.18.14.16.19.22.08.22.06.21.1.21.13.24.08.2-.15.26,0,.24-.07.21.12.23.07.22,0,.26-.1.2-.19.28-.09.26.12.19.19.2.18.28,0,.21.18h.27l.22.16.16.2.17.2.16.19.15.2.13.23V181l.06.22-.06.23.09.22.16.17.13.2,0,.24,0,.23,0,.25,0,.24,0,.25-.1.23h.28l.2.22.12.25,0,.28.3.11.28-.17.09.29.3.13.28.08.24.16.18.25-.05.31-.07.27.15.23v.28l.19.2.09.27-.17.23-.14.24.07.26.72-.44.08-.85.12-.76.13-.75.54-.54.67-.34.5-.58.67-.35.43-.71.8-.2.47-.66,0-.79-.24-.77.32-.73,0-.82.66-.5.18-.85.5-.72.84-.16.81-.26.74-.43.13-.84.32-.7.35-.69-.51-.66-.19-.8.26-.85-.47-.75-.25-.86.25-.86.77-.44.4-.81.13-.87.41-.78.4-.85.92-.26.81-.19.78-.36.83-.28.84.22.66-.52.83.18.71-.41.8.1.83-.08.65-.53.76.25.82.06,1.05,0,.86.63.85-.51.8-.6-.21-1.07.63-.88.77-.68,1-.24.29-.84.5-.74-.05-.88-.3-.85-.4-.82-.07-.91.81-.59.06-1,1.22-.1.88.83,1.11.41.61,1,1-.58,1.12-.13,1.19-.1.77-.9.6-.92L1029,151l.89-.59.88-.62,1-.59,1.1.29,1-.34.84-.65.57.88.85.62.08,1.05.41,1,.56.86.84.56.68.74.79.62.59,1,1.16.22,1-.56,1.13.13.85.54,1,.19,1,.08,1,.17.8-.61.57-.82,1-.29,1,.44.76-.66h1l.84.51h1l1-.32.92-.42,1,.25.83.62.68.73,1,.16.32,1,1,.4,1-.29.77-.66,1-.12.84-.58.66.8.82.65,1.08-.13,1,.48.58.71.53.74,1,.16.64.73.82.39.86.29.87.36.56.75.11.16.11.17v.22l.17.12v.41l0,.22-.17.13-.08.17v.2l.07.18-.07.19-.19.08-.08.18-.09.17,0,.2-.06.19.08.19.17.12,0,.2.09.18,0,.2-.09.17,0,.2.11.15.12.14.08.17.09.16.13.15.1.17.17.1.2,0,.09.19.15.15.15.15.08.19.15.18.18.13h.23l.23-.06.21,0,.15.16h.22l.18.11.2-.11.21.08.21,0,.18-.12,0,.2.14.14.1.18v.2l.13.16,0,.21-.07.19,0,.19v.2l0,.19.12.16.08.17.15.14.09.17.06.19v.2l.1.32.23.25.32.11.24.25.31-.21.34.11.34-.09.3.17.32.09.27.18.29-.18.34.06.23.21.18.27.3.1.29.11.4,0,.23.32,0,.37.18.31v.33l0,.34-.11.32.08.34.15.31.33.11.25.2.15.29.31.2.13.34.35.06.36-.06.29.13.23.22.24.22.15.29.32.12.26.2.31-.13h.35l.32-.11.31.17.29.13.33,0,.23.28,0,.35.3.15.32.13.36.2.08.4.38,0,.35.13.37.1.32-.23.31.2h.74l.35-.14.16-.34.19-.32h.36l.35-.13.18-.31.23-.27.53-.4.32-.58.39-.52.48-.44.57-.38.66-.26.43-.56.1-.71-.65-.47V173l.49-.58,0-.75.35-.58,0-.68-.23-.66.24-.66.62-.43.74,0,.71-.2.56-.48.72.15.64.34.43.64.72.24.59-.51V168l.56-.45.7-.15.56-.36.66-.13.67-.08.57-.35.65-.18.26-.62.6-.22.31-.57.6-.22.6.24h.62l.56.23.54.4h.68l.61-.22.44-.48.67.06.53-.38.51-.44.09-.65.61-.18.6.18.56-.26h.6l.64-.25.67.17.6.31.32.6.66-.14.6.3.5-.41.59-.26.49-.37.28-.56.51-.33.45-.4,0,.2v.21l.15.16.21,0v.21l.13.17-.17.15v.21l0,.2.07.18.14.14.08.17.16.14,0,.21.2.05.18.07-.07.18-.15.12-.13.14,0,.2.09.18.1.17,0,.22-.15.16-.17.13-.14.18,0,.22.11.2.06.19,0,.19.09.18.16.11.23,0,.16.15.09.19,0,.21.2,0,.19-.06.16.12h.2l.19,0,.16.08.18,0,.16.07.16.09.15.12.12.15.19,0,.13.13.12.15.19.08.13.14,0,.19,0,.2.12.14.14.16.16.15.17.13,0,.22,0,.22-.09.2-.16.14,0,.22,0,.21.68,0,.56.38.69.23.61-.38.2-.73.68-.35.71.16.69-.22.75-.08.55.52.7.17.66-.3.27.68,0,.74.66.3.58.46.64-.08.61.18.56-.31.55-.31.53-.31.56-.27.59-.32.19-.63.56-.4.1-.67.31-.58-.09-.65.2-.64.55-.39.56-.33.64-.12.42.41.18.56.4.43.57.13-.24.62.35.57.49.33.43.43.23.55.12.58.28.52.34.49.64-.14h.66l.35.58.57.35.52.24.55.22.38.42.35.47.39.44.52.24.49.35.6,0,.46-.44.62-.05.62.13.56-.31.61.09.62-.07.54.3.44.44-.25-.66.36-.61,0-.7-.56-.42.39-.5.2-.6-.19-.64.27-.61.2-.61v-.65l.22-.59.28-.58,0-.68-.5-.46-.46-.49-.08-.66.63-.21.41-.51.2-.6.3-.56.66.1.5-.47.65-.12.36-.57.52-.31.58-.19.49-.36.56-.23.68-.12.35-.59.15-.63.37-.52.63-.07.61-.13.41.49.58.3.59-.14.56.27.56.14.54.21.59-.31.63.22.4-.47.49-.35.58-.18.4-.45.57-.12.51-.32.61,0,.48-.39.56-.22.59.13.57-.08.54-.21h.6l.49-.35.34-.53.61-.17.28-.53.2-.56.44-.43.11-.6.61-.16.32-.55.16.07.12.13.15.11,0,.17-.1.17,0,.19.06.17.12.14.12.13.12.14.18,0h.17l.12.13.08.14.16,0,.14.12.14.11h.19l0,.18.16.08.19.06.07.18.06.15.07.16.15.1.17,0,.13.12.15.07.16-.11.19,0,.14.09h.18l.06.18.11.15.16.09.19,0,.15.1.18,0,.14.11.17,0,0,.19.13.13.19,0,.12.14.14.09.16.06.16.06.18,0,.1.14.1.16.09.15.11.14,0,.2.08.17-.11.16,0,.18.07.19.16.11v.2l-.1.17.14.1.12.13,0,.18.12.14.44-.17.47-.07.48-.17.47.15.4-.35h.52l.51,0,.45.22.13-.54.48-.28.54-.2.2-.53.51.1.52,0,.49-.19.53,0,.46.2.43.25.33.38.41.29.54-.11.45.3.48-.16.51.06.37.45.5.31.54-.29.6.12.24-.51.48-.32.52-.15.53-.16.54,0,.4.38.52,0,.46.22.52-.23.49.27.51.06.51-.1.28.42.36.37.12.49.25.45.47.28.48.24.25.49.08.53.16.51.36.41.52.09.52.08.33.39.49.1h.49l.43.25.35.4.48.2.52-.09.49.16.46-.21.46-.17.51.19.49-.21.51-.33.59-.08.37-.47.51-.31.56-.23.6,0,.43-.45.61-.06.56-.41.63-.28.69.08.66.21.67.15.56.41,0,.74.6.45.38-.44.22-.53.46-.35.54-.18.42-.36.4-.37.57-.13.35-.47.68-.07.51-.45.6.23.55.37.58-.18.32-.54.51-.31.4-.43-.23-.6.32-.55.2-.56.46-.39.57-.12.42-.43.14-.6.55-.29.12-.61.32-.53.55-.28.48-.39.17-.6-.29-.56,0-.58-.12-.57,0-.6.25-.55.56-.2.49-.35.25-.53.5-.34h.57l.55-.22.23-.59.58-.22.52-.26.55-.16v-.59l.32-.5.35-.47,0-.58.26-.85.74-.47.63-.58.36-.76.59-.67.89-.1.64-.6.9,0,.84,0,.72-.44.85.25.75-.45.84.34.8.42,1-.14.64-.71.86.53,1-.12.44.83.47.81.87-.15.88.06,1-.09.61-.71.76.25.78.18.56.61.8.21.75.32h.81l.84.15.73-.41.77-.67.41-.92,1-.22,1,.2.91.36.5.85.93-.05.92.19.91,0,.84-.31.59.7.79.45.77.24.79.24.61.54.7.43.69.5.84.2.69.47.68.47.51.78.75.54.12.91-.19.9.72.49.86.19.93.09.62.69.28.82.12.86.58.7,0,.93-.54-.43-.06-.68,0-.67-.39-.53,0-.68-.48-.48.06-.68-.43-.53-.27-.71-.71-.29-.61-.47v-.78l.53-.52.15-.74v-.72l-.12-.71.72-.13.51-.54.69-.21.53-.48.26-.66.09-.7,0-.7.07-.7.2-.69-.18-.7.62-.34.44-.56.14-.62.4-.51.57-.39.14-.66.67.26.72,0,.72,0,.68-.19.12-.75.58-.5.58-.39.54-.48.68.11.6.3.69-.2.67.24.72,0,.48-.53.6-.31.52-.42.43-.53.61-.27.34-.58.13-.65.49-.47.51-.45.14-.66v-.68l0-.68-.18-.66.32-.63-.09-.71.2-.71.68-.29.48-.47.36-.57.08.13.11.14.14.08h.49l.14.06.15,0,.08.15.15.09.16,0h.16l.09.13.11.1.06.15.11.11.09-.14.08-.16.11-.15.2,0,.12-.13.19,0,.16,0,.17,0,.13.1h.18l.14,0,.16,0,.18-.08.17.08.11.14.16.07-.07.2.11.18.17.07.12.16.18-.07.18,0,.15.11.17,0,0,.19.12.15.16.08.17,0,.17,0h.16l.15.1.17,0-.17.09-.15.13,0,.2-.1.17.07.18v.37l0,.18.17.11h.2l.12.16,0,.19.06.17,0,.17.13.12,0,.19.55-.82,0-1,.51-.82.81-.52-.44-.86-.27-.93.18-1,.37-.9.21-.91.35-.88.29-.9.5-.8.25-1-.43-.93-.89-.55-.23-1,1-.13,1-.39,1,.33.86.6.84-.57.93-.41.88-.62.28-1,.69-.71.31-.94.87-.43.94-.22.6-.76.86-.46-.07-1,.62-.8.49-.73.15-.87.14-.85.06-.87-.5-.79-.72-.59.18-.91-.12-.92.24-.83.4-.76.49-.73.8-.38.16-.82.35-.76.33-.76.11-.83L1326,97l-.86-.52-.52-.85-.92-.35.44-.87-.08-1-.35-1,.48-.9.4-.94-.4-.93.67-.66.79-.52-.34-.87.39-.86.23-.86.61-.66.26-.14.29,0,.29,0,.28.07.3-.09.24-.19.28.11.31,0,.28-.13.14-.28.26-.17.24-.17.21-.24.08-.31-.17-.3.12-.32-.18-.22,0-.3-.08-.28.18-.25,0-.27-.13-.24,0-.27.09-.26,0-.28,0-.28.08-.27.2-.2.1-.28.25-.13.27-.14.08-.28-.06-.28.19-.22-.07-.26.08-.26.3-.06.19-.23.09-.26,0-.27,0-.28,0-.27-.16-.26.1-.29.13-.25.21-.18.3-.09.1-.29.08-.3.28-.13.28-.08.28.08.27.11.26-.1.2-.2h.28l.21-.19.2-.21.12-.27,0-.28.28-.12.28.08.31.08.24-.18L1330.69,75l-5-1.79-4.25-3.11-2.07-4.84-2.75-4.07.4-4.89.35-4.79-2.16-4.29.44-4.28,1.88-3.87.76-4.23-.64-4.24,1.64-4.25L1317.77,22l3.07-3.39V14.08l.19-4.4-2.4-3.7-1.06-4.09-2-3.72L1314-5.89l-.23-4.36-.23-4.5,2.36-3.84-4.07-1.62-4.24-1.13-1.19-4.44-3.58-2.9L1301-32.74l-2.91-3.33L1294-37.53,1290-39.08l2-4.74,4.81-1.84.44-4.73.71-4.69-.35-4.75-3.3-3.44-1.9-4.12-.41-4.53-.3-4.29,1.15-4.14-.2-4.43-2.66-3.55-1.42-4,.18-4.26-.34-4.56L1284.8-104l3.62-3.42,4.91.82,4.71-.65,3.16-3.55,3-3.53.48-4.62,1.77-4.08,1.77-4.07.66-4.33,2.95-3.25,2.81-3.11,3.06-2.88,1.09-4.35-.61-4.44,2.66-3.54,3.37-2.88-.29.34-.44.09-.42.22-.42-.18-.38.29-.46,0-.42-.14-.37-.24-.41.2-.47-.05-.46-.13-.3-.35-.38-.32v-.49l-.41-.17-.42-.17-.42,0-.4-.16-.43.2-.41-.21-.42-.28L1316-158l-.47-.13-.47.1-.39.22-.45,0-.36.24-.27.34-.42.06-.43.06-.36.25-.3.32-.28.35-.2.39-.38.24-.3.34-.3.35-.45.1-.33.3-.41.17.17.45-.12.48-.11.48-.37.32-.29.34-.27.36-.4.24-.15.46-.46-.29-.51.2-.5-.1-.48.18-.24-.44-.38-.32-.5-.14-.32-.41-.45.13-.46.09-.46-.18-.46.24-.29.41-.31.38-.53-.13-.46.3-4-.3-3.37,2.26-3.72-1.35-2.63-3-3.58.23-3.54-.68-2.46-3-3.93-.11,2.14-3.73-1-4.2-2.13-3.44-3-2.72-1.33-3.86-2.07-3.52-4.07-.47-3.85-1.43-3.35-.67-2.49-2.31-2.88-2.14-3.53.65-3.23-1.17-3.07-1.56-3.15,1.63-3.54-.15-3.57,1-3.35,1.65-3.37-1.59-3.47-1.32-1.31-3.62-3.68-1.11-2.8-2-2.66-2.19-2.53-3.73-3.82-2.41-4.41.28-4.38.56-2.1,3.67-3.53,2.35-3.72,1.78-4,1.12-1.08,3.68-1.72,3.42-2.94,2.51-3.59,1.44.88,4-1.92,3.59-3.39,2-2,3.38-4-.88-4.08.58-3.47,2.64-4.32-.41-2.91,3.17-3.7,2.22-.46,4.25-1.16,4.11-1.69-3.76-3.79-1.6-2.87-2.87-4-.5-3.62-1.7-4-.28-3.28,2.7-4.23-.37-9-2.32-7.08-5.94-9.2-.12-8.57,3.35-3.95-7.7-4.29-7.51-4.75-7.53-7.69-4.49-8.53-4.38-9,3.21-7.74,4.46-5.74,6.85-8.43.42-8.39.73-7.08-4.78-8.23-2.29-7.28,4.36-8.38-1.3-8.28-2.65L963.94-184l-7.58,2.76-7.58,2.76-4.78,7-8,2.85-9.48,2.25-6,7.65L912-162.61l-9.29-.85-4.83-7.35L890-174.75l-6.89-5.3-8.42-2.1L868-176.73l-8.63-.54-6.7,4.51L845.51-169l-7.75,3.58-7.19,4.6-8.17-2.56-8.54-.68-7.66-2.77-7.48-3.2-6.27-5.17-6.23-5.22-8,5-9.31-1.43-7.06-5.33-6.88-5.57-9.21-.69-6.26,6.77-8.3-3.29-8.33,3.23-7.19,4.07-5.64,6-7,4.24-6.36,5.17-8.35-3.29L684-173.4l-8.37-2-6.9-5.16-7.19,6-9.19,2.07-9-2.13-8-4.5L634-178l-1.76-.21-1.49-.63-1.43-.77-1.34.87-1.59-.13-1.53.08-1.44.54-1.51.23-1.54.17-1.06,1.17-1.47.57-1.62-.53-1.59.65-1.61.62-.69,1.6-1.63,1.08-1.51,1.25-.2,1.95-.25,1.94-.11,1.91.21,1.9.56,2.05,2,.83-1.23,1.33-.37,1.77-1.34,1.4-1.92-.19-1.11,1.23-1.37.92-1.58.48L601-153l-1.32.75-1.07,1.07-1.47.46-1.54-.1-1.5-.36-1.49.47-1-1.31L590-152l-1.32-.84-1.5-.46-.69-1.56-1.66-.47-1.63-.53-1.45.92-1.71.07-1.08,1.33-1,1.56-1.88.12-1,1.56.41,1.78-.82,1.33-1.23.95-.77,1.53-1.67.34-1.09,1.53-1.21,1.45-1.89,0-1.88,0-1.76-.1-1.71-.5-1.22-1.28-1.39-1.09.63,1.06.5,1.13-.41,1.17-.22,1.21,1.31.11,1,.83.27,1.25.6,1.12-.34,1.1-.74.86-.83.77-.68.9-.23,1.36.92,1-.45,1.2-1,.82-1.3-.22-1.25.48-.84,1-.85,1,0,1.2-.26,1.18-.2,1.21-.68,1,0,1.2.34,1.15.62,1,1,.73-.23,1.3.79,1-.68,1L555-113l1.12-.24,1.11.27,1.07.48,1.15-.26.57,1,.79.92,1.09.61,1.26-.14-.23,1.28.87,1,1.23.2.81.95,1.12.39.5,1.08,1.07.32.88.68.81.91.51,1.11,1.07.61,1.21.17.79,1-.3,1.23-.12,1.24.81.94.14,1.14.71.9.47,1.1-.4,1.12-.1,1.15-.57,1,.2,1.12.35,1.08.25.47-.19.51,0,.53-.39.35-.15.5.18.49-.08.51-.38.36-.52,0-.51-.11-.4.34-.5.16-.1.55-.33.45-.53.13-.53.18-.08.47-.16.45,0,.47-.1.47-.5.1-.46.15-.44.27-.23.46-.5.22-.45.28-.32.49.11.57.21.44L568-78l.21.47-.08.5-.13.46.09.48.13.45,0,.47.12.5-.31.42,0,.49-.32.38-.55,0-.52-.18-.52.22-.32.46-.39.35-.1.51-.14.49-.37.36.32.41-.08.52v.52l-.4.35-.36.32-.47.16-.25.42-.07.48-.13.45-.15.43-.44.17-.28.39-.44.22h-.48l-.38.32-.12.48-.32.65.1.71-.48.55-.07.72.6.44.45.57.15.72v.74l-.44.58v.72l-.59.39-.37.6.28.64.17.67-.41.63.16.74.73.31.3.74-.26.75.34.71-.35.6-.24.66-.25.65,0,.7.16.68.45.54-.06.68,0,.68.37.63.71.22.45.56v.72l.76.32.31.76.72.33.77-.05-.28.78.27.78.55.56.49.6.24.79.79.3.75.15.75-.18.44.54.56.41.77,0,.49.59.07.74-.41.62.25.66.08.7-.11.69-.21.66-.15.73.4.64v.8l-.45.66-.15.78.27.76.33.75.79.26.39.67.62.45h0"/><path id="path125032" class="cls-1" d="M354,275.14c7-9.28,81.19-41.75,132.22-55.67s83.5-37.11,90.46-76.54,8.83-150.7,8.83-150.7l25.52,4.64s-13.48,88.07-15.8,153c46.4-48.71,81.19-58,92.79-74.23S724.75-99.08,724.75-99.08H741S713.55,75.66,702,94.22s-97.42,62.63-111.33,88.14-44.08,51-83.51,60.31S354,321.53,354,321.53Z"/></svg>