<?xml version="1.0" encoding="utf-8"?>
<!-- Generator: Adobe Illustrator 25.3.0, SVG Export Plug-In . SVG Version: 6.00 Build 0)  -->
<svg version="1.1" id="Layer_1" xmlns="http://www.w3.org/2000/svg" xmlns:xlink="http://www.w3.org/1999/xlink" x="0px" y="0px"
	 viewBox="0 0 1366 768" style="enable-background:new 0 0 1366 768;" xml:space="preserve">
<style type="text/css">
	.st0{fill:#98C05E;}
	.st1{fill:#4E6728;}
	.st2{fill:#A7C975;}
</style>
<path id="path36889" class="st0" d="M939.8,548.3c2.7,2.4,5.9,4,8.5,6.7c7.6,7.9-7.6,5.3-10.4,8.9c-0.8,1.1,2.1,1.6,3.2,2.5
	c3.6,3,10.3,11.7,8.5,16.6c-1.2,3.5-13.5-4.2-13.4-3c1,8.2,6,10.9,2.8,20c-0.4,1.1-0.1,2.7-1.1,3.2c-1.3,0.6-1.6-2.7-2.9-3.3
	c-2.9-1.4-6.5-3.7-9.6-4.8c-1.7-0.6,1.3,3.4,1.8,5.2c1.3,4.7,0,9-2.5,13.1c-1,1.6-1.3,4-3.1,4.8c-0.8,0.4-7.7-15-8.9-11.8
	c-0.3,0.9,1.1,4.2,0.7,5.7c-5.3,18.6-15.6-1.9-18.8-0.4c-0.5,0.2,0,5.3-0.4,6.2c-1.5,3.2-3.7,4.5-6.3,6.3c-0.5,0.3-0.7,2-1.1,1.9
	c-1.3-0.5-3.4-10-4-11.4c-0.3-0.7-8.6,10.9-12,9.7c-1-0.3-0.9-12.5-2.9-13.2c-3.8-1.3-8.7,9.2-14.7,5.6c-2.4-1.5-0.2-13.2-1.8-13.8
	c-3.6-1.3-12,11.1-17.4,6.9c-3.7-2.9,5.6-15,4.7-16.8c-0.5-1-7,1-8.1,1.2c-20.1,2.4-4.1-9.2-0.5-13.7c0.8-1-8.3-4.5-7.7-6.4
	c2.5-7,14.9-4.4,19.5-6.5c0.2-0.1-3.7-6.4-3.9-6.8c-1.3-4.2-0.8-8.8,1.4-12.6c1.1-2.1,16.8,7.4,17.6,7.7c2.3,0.8-1.4-4.8-1.5-7.3
	c0-3.8,3-12.1,6.8-13.8c2.2-1,8.8,11.5,9.9,13.9c-1.3-3.2-1.3-6.8,0-10c1.8-5,10.1-11.4,9.9-11.3c-1.3,0.6,4.7,5.7,4.7,5.8
	c1.8,1.7,7.2,9.8,8.9,10.4c0.9,0.3-0.1-4.2-0.2-4.6c-0.6-5.4,0.9-10.9,4.1-15.2c3.1-4,6.7,14.2,9.1,15c0.1,0,2.9-8.4,6.7-12.5
	c13.9-14.9,9.9,5.5,11.4,8.6c0.2,0.3,2.5-3.3,7.4-4.1c15.2-2.5,11.3-1.9,9.8,5.3c-1.1,5.3-2.5,8.1-4,12.5L939.8,548.3z"/>
<rect x="633.8" y="332.7" class="st1" width="89.5" height="125.7"/>
<path id="path36891" class="st0" d="M986.9,573c-3.1,2-5.5,4.6-8.7,6.3c-9.7,5.1-3-8.7-5.7-12.5c-0.8-1.1-2.2,1.6-3.3,2.4
	c-3.9,2.6-14,6.7-18.3,3.6c-3-2.1,7.7-11.9,6.5-12c-8.1-1.3-12.1,2.8-20-2.8c-0.9-0.7-2.6-0.9-2.8-2c-0.2-1.4,3-0.8,4-1.9
	c2.2-2.4,5.3-5.2,7.2-7.9c1-1.5-3.6,0.3-5.4,0.3c-4.9,0-8.7-2.5-12-6c-1.3-1.4-3.4-2.4-3.8-4.3c-0.1-0.8,16.5-3.3,13.8-5.3
	c-0.8-0.6-4.3-0.1-5.6-0.9c-16.4-10.2,6.2-14.5,5.6-18c-0.1-0.6-5.1-1.5-5.8-2.1c-2.7-2.3-3.3-4.8-4.3-7.8c-0.2-0.5-1.7-1.2-1.5-1.6
	c0.8-1.2,10.5-0.5,12.1-0.8c0.8-0.1-8.2-11.2-6-14.3c0.6-0.8,12.3,2.6,13.5,0.8c2.3-3.2-6.5-10.9-1.3-15.6c2.1-1.9,12.7,3.5,13.7,2
	c2.2-3.1-7.3-14.6-1.8-18.6c3.8-2.8,12.9,9.5,14.9,9.1c1.1-0.2,0.9-7.1,1.1-8.1c3.2-20,10-1.4,13.3,3.3c0.7,1,6.6-6.8,8.2-5.6
	c6.1,4.4,0.1,15.5,0.9,20.6c0,0.2,7.2-1.8,7.6-1.9c4.4-0.1,8.7,1.6,11.8,4.8c1.7,1.7-11.7,14.1-12.2,14.8c-1.4,2,5,0,7.4,0.6
	c3.7,1,10.8,6.2,11.4,10.3c0.4,2.4-13.5,5.3-16.1,5.7c3.4-0.3,6.8,0.6,9.6,2.7c4.3,3.1,8.2,12.8,8.2,12.7c-0.2-1.4-6.8,2.9-6.8,3
	c-2.2,1.2-11.4,4.2-12.5,5.7c-0.5,0.8,4.1,1,4.4,1.1c5.4,0.9,10.2,3.8,13.5,8.1c3,4.1-15.5,2.6-16.9,4.6c-0.1,0.1,7.3,5.1,10.2,9.9
	c10.5,17.5-8,8-11.4,8.6c-0.4,0,2.5,3.3,2,8.2c-1.8,15.3-1.3,11.4-7.8,8C993,577.8,990.7,575.7,986.9,573L986.9,573z"/>
<path id="path36893" class="st0" d="M1176.6,497.5c-3.1,2-5.5,4.6-8.7,6.3c-9.7,5.1-3-8.7-5.7-12.5c-0.8-1.1-2.2,1.6-3.3,2.4
	c-3.9,2.6-14.1,6.7-18.3,3.6c-3-2.1,7.7-11.9,6.6-12c-8.1-1.3-12.1,2.8-20-2.8c-0.9-0.7-2.6-0.9-2.8-2c-0.2-1.4,3-0.8,4-1.9
	c2.2-2.4,5.3-5.2,7.2-7.9c1.1-1.5-3.6,0.3-5.4,0.3c-4.9,0-8.7-2.5-12-6c-1.3-1.4-3.4-2.4-3.8-4.3c-0.1-0.8,16.5-3.3,13.8-5.3
	c-0.8-0.6-4.3-0.1-5.6-0.9c-16.4-10.2,6.2-14.5,5.6-18c-0.1-0.6-5.1-1.5-5.8-2.1c-2.7-2.3-3.3-4.8-4.3-7.8c-0.2-0.6-1.7-1.2-1.5-1.6
	c0.8-1.1,10.6-0.5,12.1-0.8c0.8-0.1-8.2-11.2-6-14.2c0.6-0.8,12.2,2.6,13.5,0.8c2.3-3.3-6.4-10.9-1.3-15.6c2.1-1.9,12.7,3.5,13.7,2
	c2.2-3.1-7.3-14.6-1.8-18.6c3.8-2.8,12.9,9.5,14.9,9.1c1.1-0.2,0.9-7.1,1.1-8.1c3.2-20,10-1.4,13.3,3.3c0.7,1,6.6-6.8,8.2-5.6
	c6.1,4.4,0.1,15.5,1,20.6c0,0.2,7.2-1.9,7.6-1.9c4.4-0.1,8.7,1.6,11.8,4.8c1.7,1.6-11.7,14.1-12.2,14.8c-1.4,2,5,0,7.4,0.6
	c3.7,1,10.8,6.2,11.4,10.3c0.4,2.4-13.5,5.3-16.1,5.7c3.4-0.3,6.8,0.6,9.6,2.7c4.3,3.1,8.2,12.8,8.2,12.7c-0.2-1.4-6.8,2.9-6.8,3
	c-2.1,1.2-11.4,4.2-12.5,5.7c-0.6,0.8,4.1,1,4.4,1.1c5.4,0.9,10.2,3.8,13.5,8.1c3,4.1-15.5,2.6-16.9,4.6c-0.1,0.1,7.3,5.1,10.2,9.9
	c10.5,17.5-8,8-11.4,8.6c-0.3,0.1,2.5,3.3,2,8.2c-1.8,15.3-1.3,11.4-7.8,8C1182.8,502.3,1180.4,500.2,1176.6,497.5L1176.6,497.5z"/>
<path id="path36748" class="st0" d="M1347.8,431.2c-3.1,2-5.5,4.6-8.7,6.3c-9.7,5.1-3-8.7-5.7-12.5c-0.8-1.1-2.2,1.6-3.3,2.4
	c-3.9,2.6-14.1,6.7-18.3,3.6c-3-2.1,7.7-11.9,6.6-12c-8.1-1.3-12.1,2.8-20-2.8c-0.9-0.7-2.6-0.9-2.8-2c-0.2-1.4,3-0.8,4-1.9
	c2.2-2.4,5.3-5.2,7.2-7.9c1.1-1.5-3.6,0.3-5.4,0.3c-4.9,0-8.7-2.5-12-6c-1.3-1.4-3.4-2.4-3.8-4.3c-0.1-0.8,16.5-3.3,13.8-5.3
	c-0.8-0.6-4.3-0.1-5.6-0.9c-16.4-10.2,6.2-14.5,5.6-18c-0.1-0.6-5.1-1.5-5.8-2.1c-2.7-2.3-3.3-4.8-4.3-7.8c-0.2-0.6-1.7-1.2-1.5-1.6
	c0.8-1.2,10.5-0.5,12.1-0.8c0.8-0.1-8.2-11.2-6-14.2c0.6-0.8,12.2,2.6,13.5,0.8c2.3-3.2-6.4-10.9-1.3-15.6c2.1-1.9,12.7,3.5,13.7,2
	c2.2-3.1-7.3-14.6-1.8-18.6c3.8-2.8,12.9,9.5,14.9,9.1c1.1-0.2,0.9-7.1,1.1-8.1c3.2-20,10-1.4,13.3,3.3c0.7,1,6.6-6.8,8.2-5.6
	c6.1,4.4,0.1,15.5,1,20.6c0,0.2,7.2-1.9,7.6-1.9c4.4-0.1,8.7,1.6,11.8,4.8c1.7,1.6-11.7,14.1-12.2,14.8c-1.4,2,5,0,7.4,0.6
	c3.7,1,10.8,6.2,11.4,10.3c0.4,2.4-13.5,5.3-16.1,5.7c3.4-0.3,6.8,0.6,9.6,2.7c4.3,3.1,8.2,12.8,8.2,12.7c-0.2-1.4-6.8,2.9-6.8,3
	c-2.1,1.2-11.4,4.2-12.5,5.7c-0.6,0.8,4.1,1,4.4,1.1c5.4,0.9,10.2,3.8,13.5,8.1c3,4.1-15.5,2.6-16.9,4.6c-0.1,0.1,7.3,5.1,10.2,9.9
	c10.5,17.5-8,8-11.4,8.6c-0.3,0.1,2.5,3.3,2,8.2c-1.8,15.4-1.3,11.4-7.8,8C1354,435.9,1351.7,433.8,1347.8,431.2L1347.8,431.2z"/>
<path id="path30702" class="st0" d="M1395.4,369.7l-2,0l-1.9-0.5l-2,0.3l-1.9-0.8l-2.3,0.3l-2-1.2l-1-1.9l-1-1.9l-2.1,0.7l-1.9-1.1
	l-2.1,0.4l-1.5,1.5l-1.8-1l-2-0.4l-1.9,0.5l-2,0.3l-1.9,0.6l-2,0.7l-1,1.8l-0.8,1.9l-1.3,1.6l-1.4,1.5l-2.1-0.6l-2.1,0.6l-2.2,0.4
	l-2-0.9l-1.6,1.4l-1.3,1.6l-1.9,0.7l-1.5,1.4l-2-0.6l-2-0.2l-1.9-1.2l-2.1-0.7l-2,1l-2.1,0.7l-2,1.1l-2.1-0.8l-1.5,1.6l-2.2,0.1
	l-2.1-1.1l-1.4-1.9l-2.1,1.1l-2.4-0.1l-1.3-1.7l-1.1-1.9l-2.1-0.3l-1.3-2l-1.5,1.4l-0.7,2l-1.8,1l-1.8,0.9l-1.4,1.4l-0.8,1.8
	l-1.6,1.2l-1.3,1.5l-2.1,0.1l-1.6,1.4l-1.7,1.3l-2.1-0.4l-2,0.4l-1.8,0.9l-1.7,1h-2l-1.1-0.2l-0.9-0.6l-1.2-0.2l-0.9,0.8l-1,0.2
	l-0.7,0.8l-1,0.3l-0.6,0.9l-1.1,0.2l-0.9-0.6l-1,0.4l-0.9,0.4l-1,0.1l-0.9-0.4l-1.1-0.1l-0.6-0.9l-1.1,0.2l-0.9,0.6l-0.9,0.7
	l-1.1,0.1l-1.2,0.3l-1.2-0.3l-1-0.6l-0.6-1l-1.1-0.2l-1-0.4l-1-0.8l-1.2,0.3l0.1-1.2l-0.5-1.1l-0.7-0.9l-0.8-0.8l-1.1,0.8h-1.5
	l-1.1-0.7l-1.1-0.8l-0.1-1.3l-0.5-1.2l-1.1-0.7l-1.1-0.7l-1.1-0.2l-1.1-0.3l-1,0.6l-1.2-0.1l-1.1,0.4l-0.8,0.9l-1.1,0.2l-1,0.6
	l-1.2,0.4l-0.4,1.1l0.1,1.1l-0.5,1.1l-1.2,0.1l-0.7,1l-0.6,1l-0.4,1.1l-0.9,0.8l-0.5,1.1l-1,0.5l-0.9,0.6l-1.1-0.6l-1.2-0.4l-0.9,1
	h-1.3l-1,0.5l-0.7,0.9l-0.9,0.7l-0.5,1l-1.2,0.2l-1.1,0.4l-0.1,1.3l-0.9,0.9l-1.2-0.1l-1,0.6l-1.2,0.2l-0.7,1l-1.1,0.5l-1.1,0.5
	h-1.3l-0.9-1l-0.9,0.9l-0.1,1.3l-0.7,1.1l0.4,1.2l0.4,1.2l-0.7,1.1l0.4,1.2l-0.2,1.2l-0.5,1.2l-0.8,1l-1.3,0l-1.1,0.8l-0.8,1
	l-1.1,0.7l-1.2-0.7l-1.3,0.5l-1.2-0.5l-1.3,0.4l-1.1-0.7l-0.6-1.1l-1.2,0.2l-1.1,0.5l-1.1-0.7l-1.3,0.2l-1.1,0.5l-1,0.7l-1.2-0.4
	l-1.2,0.3l-1.3-0.2l-1.2,0.6l-0.2,1.3l-1,0.9l-1.2-0.1l-0.9,0.8l-0.4,1.1l-0.9,0.8l-0.1,1.2l-0.9,0.8l-1.1,0.3l-0.8,0.8l-0.8,0.7
	l-0.9,0.7l-0.4,1l-0.7,0.9l-0.8,0.8l-1,0.5l-1.1,0.3l-1.1,0.1l-1.2,0.7l-0.8,1.2l-1.2,0.9l-1.5-0.3l-1.4,0.2l-0.9,1.1l-1.2,0.7
	l-0.8,1.1l-1.2,0.7l-1.3,0.4l-1,1l-0.6,1.3l-0.8,1.2l-1.3,0.6l-0.6,1.3l-1.3,0.6l0.4,1.6l-0.4,1.6l-1.2,1.3v1.8l-1.2,1.1l-1.6,0.3
	l-1.6,0.3l-1.3,1.1l-1.4-0.9l-1.7,0.2l-1.3-1l-1.7-0.1l-1.8-0.2l-1.4,1.1l-1,1.3l-1.1,1.3l-1.7-0.3l-1.6-0.4l-1.6,0.6l-1.7,0.3
	l-0.8-1.6l-0.7-1.7l-1.8-0.1l-1.7-0.7l-1.6,0.2l-1.6-0.3l-1.4,0.9l-1.5,0.6l0.1,1.9l-1.3,1.4l-1.4,1.2l-1.8,0.2l-1.5-0.8l-1.5-0.8
	l-1.8,0.1l-1.4-1.2l-0.4-1.9l-1.7-1l-0.5-1.8l0.5-1.8l-1.6,0.1l-1.6-0.5l-1.5-0.6l-1.5-0.4l-1.6,0.1l-1.4,0.8l-1.5,0.5l-1.6,0.2
	l-0.9,1l-0.3,1.3l-1.4,0.2l-0.8,1.1l-0.5,1.1l-0.4,1.2l-0.3,1.2l-0.7,1l-1.4,0.4l-1.3-0.6l-1.1,0.8l-1.3,0.4l-1,1.1l-1.4,0.4
	l-0.6,1.4l0.2,1.5l-1.2,0.4l-1.2,0.1h-1.2l-1.1,0.5l-1.2,0.5l-1.3-0.1l-1-0.7l-1.2-0.5l-1.3,0l-1.2,0.5l-1-0.9l-1.2-0.4l-1,0.7
	l-1.2,0.3l-1.2,0.1l-1.1,0.5l1,0.9l0.2,1.3l0.4,1.2l0.8,0.9l0.7,1.2l0.3,1.3l-0.5,1.3l-0.8,1.1l-1.2,0.6l-0.2,1.3l-0.2,1.2l0,1.1
	l-0.7,1.2l-1.4,0.2l-0.7,1.2l0.5,1.3h-1.3l-1.3,0.4l-1,0.9l-1.1,0.7l-0.1,1.3l-0.8,1.1l-0.7,1.1l-0.6,1.1l-0.2,1.3l0.5,1.2l0.6,1.1
	l0.3,1.2l-0.7,1l-0.6,1.1l-0.3,1.3l0.1,1.3l0.6-0.7l-0.2-0.9l-0.6-0.6l-0.4-0.8l-0.8-0.2l-0.8-0.3l-0.7-0.4l-0.4-0.8l-0.8-0.2
	l-0.5-0.7l-0.9-0.1l-0.7,0.5l-0.6-0.5l-0.8,0.1l-0.4-0.7l-0.8-0.2l-0.8,0.2l-0.5,0.6l-0.6,0.5l-0.8-0.1l-0.6-0.6l-0.8-0.1l-0.7,0.3
	l-0.8,0.2h-0.8l-0.5-0.6l-0.6-0.4l-0.6-0.5l-0.5-0.7l-0.8-0.2l-0.7,0.3l-0.8,0.2l-0.5,0.5l-0.5,0.5l-0.6,0.3l-0.4,0.5l-0.7,0.2
	l-0.7,0.2l-0.7,0.1l-0.6,0.3l-0.4,0.6l-0.1,0.7l-0.6,0.4l-0.5,0.5l-0.7,0.2l-0.7,0.2l-0.5,0.5l-0.6,0.3l-0.7,0.2h-0.8l-0.6,0.5
	l-0.6,0.5l-0.6-0.5l-0.7-0.3l-0.8,0.2h-0.8l-0.5,0.6l-0.2,0.8l-0.8-0.1l-0.6,0.6l-0.8,0.3l-0.2,0.8l-0.3,0.7l-0.2,0.7l-1.5,0.9
	l-1.8,0.1l-1.2,1.3l-1.8,0.2l-1.7,0.7l-0.8,1.7l-1.7,0.4l-1.7,0.5l-2,0.1l-1.6,1.2h-2l-1.7-1l-1.5,1.1l-0.7,1.7l-1.3,1.4l-1.8,0.6
	l-0.6,1.7l-1.5,1.1l-0.6,1.8l-1.5,1l-0.6,1.8l-0.9,1.7l1,1.7l0.1,1.9l-1.5,1l-0.9,1.5l-1.6,1l-0.6,1.8l0.2,1.8l-0.9,1.6l0.1,1.8
	l-0.4,1.7l-1.4,1.3l-1.8,0.6l-1.8,0.2l-1.9,0.2l-1.7-0.7l-1.5-1l-1.2-1.7l-2-0.2l-1.2,1.5l-0.2,1.9l-1.7,0.8l-1.2,1.5l-1.9-0.3
	l-1.8-0.6l-2,0.4l-1.4,1.4l-0.4,1.7l-1.2,1.3l-1.2,1.4l-1.8,0.1l-1.7,0.2l-1.2,1.2l-1.2,1.3l-1.8-0.1l-1.1,1.4l-0.8,1.6l-0.6,1.8
	l-1.7,0.8l-1.6-1.2l-1.9,0.6l-1.9-0.2l-1.6,1.1l-1.4,2.2l-2.5,1l-2.6-0.4l-2.5,0.8l-2.8,0.1l-2.4-1.4l-1.9,2l-2.4,1.2l-2.4,0.4h-2.4
	l-2.4,0.6h-2.4H902l-1.6,2.1l-2.3,0.7l-2.3,0.7l-2.2,1.8l-0.5,2.8l-2.5,0.9l-2.4,1.2l-2.7,0.9l-2.7,0.8l-2.1,2.1l-0.3,3l-2.5-1.3
	l-2.7,0.7l-2.5,1l-2.6,0.6l-2.5-1.2l-2.7,0.7l-2.6,0.3l-2.5-0.7l-2.2-2.2l-2.9-1l-2.8,1l-3,0.4l-2.7,0.6l-2.6,1l-2.8,1l-2.8-1
	l-2.8,0.7l-1.6,2.5l-1.6,2.4l-2.9,0.7l0.2,3.1l-2.2,2.2l-1.8,2.2l-2.5,1.4l-2.3,1.8l-1.6,2.4l-0.7,2.8l-0.5,2.8l1.2,2.8l-1.2,2.7
	l-0.4,2.8l0.5,2.8l-3-0.3l-2.5,1.7h-2.9l-2.6,1.3l-1.9,2.3l-0.5,3l-1.6,2.7l-3,1l-1.5-0.1l-1.5,0.3l-1.4,0.7l-1.2,1l-1.5-0.1l-1.2-1
	l-1.5,0.1l-1.5-0.2l-1.5-0.8l-1.7-0.1l-1.5,0.6l-1.2,1.2l-1.4,0.7l-0.6,1.5l-1,1.2l-1.5,0.5l-1.1,1l-1.4,0.9l-0.6,1.5l-0.3,1.6
	l-1.6,0.6l-1.2,1.2l-1.6,0.7l-1.6-0.4l-1,1.6l0.5,1.8l0.7,1.6l1.2,1.2l-1.3,1.3l-1.8,0.6l0.3,1.8l-0.8,1.7l-1.1-1.1l-1.2-1l-1.1-1.1
	l-1.4-0.7h-1.6l-1.3-0.9l-1.5-0.2l-1.5-0.3l-1.1,1.3l-1.5,0.5l-1.7,0.5l-1.5-0.8l-1.7,0.3l-0.8,1.5l-1.5,0.8l-1.6-0.4l-1.5,0.6
	l-1.4,0.8l-1.2,1.3l0.1,1.7l-0.4,1.8l-1.6,0.8l0.7,1.6l-0.5,1.7l-1.5,0.5l-1.4,0.8l-0.8,1.3l-1.1,1.2l-1.6-0.2l-1.5-0.6l-1.7,0.2
	l-1.2,1.3l6-2l5.6-3.1l6.1,1.7l5.9,2.3l5.4,3.3l6.3,0.1l6-1.3l5.9-1.6l5.5-4.5l6.4-3l-1.8-7.3l3.3-6.7l6.2-2.2l5.4-3.7l6.3-2.1
	l6.6,1.2l5.4,3.2l2.6,5.7h6l5.9,1.7l5,3.2l5.9-0.3l5.8,1.1l4.4,3.9l0.8,6.6l5.1,4.4l4.6,4.8l6.6,0.8l5.9-2.3l6.1,1.7l5.2,4.1
	l6.5-1.3l6-1.2l5.9-1.7l3.6-5.1l5.5-3l3.3-5.1l4.2-4.4l5.2-3.1l4.8-3.7l6.5-2.5l7-0.6l1.2-7.5l6.2-4.3l7.4,2l4,6.5l6.5-3.5l7.4,0.2
	l3.7,5l4.5,4.3l2.8,5.6l4.3,4.6l4.6,4.4l3,5.6l5.3,3.4l4.9,3.9l5,5.7l7.6-0.2l4.9,4.9l5.9,3.6l5.5-4.4l6.7-2.1l6.3-4.4l7.3,2.4
	l4.3-3.3l5.4-0.8l4.4,3.9l5.8-0.8l3.5,4.3l5.5,0.3l4.9,1.5l5.1,0.3l4.2-3.4l2.4-4.8l4.9-1.8l5.2-0.9l5-2.2l3.8-3.9l1.5-5.1l1.2-5.2
	l4.8-0.2l4.2,2.2l3.6-3.7l5.1,0.6h4.8l3.6,3.2l4.5,1.2l4.5-1.1l4.3,1.8l4.3,1.8l4.9-1.5l4.4,2.7l4.7-1.5l3.4-3.5l4.9,0.6l4.5-1.8
	l4.8-3l3.5-4.4l5.3,1.8l5.6,0l5.2-1.5l4.5-2.9l1.4-5.2l3.3-4.3l5.3,3l6-0.1l6.1-1.4l3.4-5.3l5,3.4l1.4,5.8l5.6,1l5.2,2.3l3.7,2.7
	l3.7,2.6l3.9,2.5l4.7,0.5l4.2,1.9l3.6,2.9l4.1,2.2l4.6,0.5l4.2,2.5l4.9,0.2l4.9,2l4.6-2.6l3.5,3.8l5.1,0.1l2.9,3.8l3.9,2.8l1.1-2
	l0.5-2.2l1.3-1.9l1.9-1.3l2.2-1.5l2.6,0.8l1.4-1.9l1.5-1.8l2.1-0.8l2-1l1.8-1.3l1.8-1.2l1.3-2.2l-0.4-2.5l2.5-0.6l1.6-2l-0.3-2.4
	l-0.2-2.4l2.4-1.2l0.7-2.5l0.7-2.2l1.2-2l1.1-2.3l2.5-0.6l1.9-1.3l1.6-1.6l0.6-2.3l1.4-1.9l0.5-2.7l2.4-1.3l2.4-0.5l2.5,0.1l2.5,0.1
	l2.3-1l2.4-0.5l2.4-0.5l2.7-0.3l2.1,1.8l2.6,0.9l2.4-1.2l2.6,1.4l2.1,2.1l2.9,0.1l2.9-0.4l1.9,2.3l-0.3,3l1,2.5l1.4,2.4l2.2,1.1
	l2.4,0.8l2.4,0.5l2.5,0.1l1.2-2.4l2.1-1.7l2.8,0.8l2.4-1.7l2-1.1l2.3-0.5l1.7-1.6l2.2-0.8l2.5,0.6l1.9-1.7l1.8-1.8l2.5,0.2l1.5-2.3
	l2.3-1.6l0.1-2.8l1.1-2.5l-1.3-2.4l0.2-2.7l-1.6-2.2l-0.4-2.7l-1.2-2.2l-1.9-1.6l-1.3-2.1l-2.1-1.3l-0.5-2.7v-2.7l-2.7-0.7l-1.8-2.2
	l-1.3-2.1l-0.9-2.3l1-2.3l0.2-2.5l-0.9-2.5l1.4-2.3l-1.4-2l-0.6-2.4l-0.2-2.6l-1.3-2.3h-2.8l-1.9-2.1l0.1-2.5l-1.3-2.1l-2.1-1.3
	l-1.3-2.1l2.4-1.5l0.3-2.8l0.8-2.6l-1.2-2.4l-0.7-2.5l1-2.4l1.6-2v-2.6l-1.2-2.2l-2-1.4l-2-1.6l-0.7-2.5l-0.6-2.6l0.7-2.6l-2.2-1.6
	l-1-2.5l1.2-2.5l0.4-2.8l-0.5-2.8l-2.1-1.9l1.1-2.5l2.6-1l0.2-2.8l2.3-1.6l-0.6-2.5l0.9-2.5l-0.3-2.6l1.3-2.3l-0.3-2.8l-0.6-2.7
	l-2.5-1.2l-2.4-1.4l0.9-2.3l-1-2.2l-1.7-1.5l-1.5-1.7l-0.8-2l0.2-2.2l1.2-2l-0.8-2.2l-2-0.6l-1.5-1.5l-2.1-0.5l-1.7-1.2l-2.3-0.2
	l-2.3,0.3l-2.2-1l-0.9-2.3l-0.2-2l-1.3-1.5l-0.7-1.8l0.2-2l0.1-2.2l-1.3-1.8l1.1-1.7l0.9-1.8l-0.9-1.8l-1.3-1.4l-1-1.7l-0.4-1.9
	l0.6-1.9l0.2-2l-0.5-1.9l0.5-2l-0.6-2.1l-0.3-2.1l-0.2-2.4l1.6-1.7l1.8-1.2l1.8-1.1l1.5-1.6l0.7-2.1l1.8-1.6v-2.4l1.6-1.5l1.1-1.9
	v-2.4l-1.7-1.6l-1-2l-0.3-2.2l0.7-2.1l-0.8-2l-1-1.9l0.5-2.1l-1.4-1.5l-0.8-1.9l-0.5-2l-1.2-1.7l-1.7-1l-1.6-1.2l-2.1-0.7l-0.8-2
	l-1.5-1.4l-1.3-1.5l-0.9-1.9l-1.6-1.4l0,0"/>
<path id="path36895" class="st0" d="M311.7,512.8c-1.4-3.4-3.6-6.1-4.8-9.6c-3.5-10.4,9.1-1.5,13.2-3.6c1.2-0.6-1.2-2.4-1.8-3.6
	c-1.9-4.2-4.3-15-0.6-18.6c2.6-2.6,10.5,9.5,10.8,8.4c2.6-7.8-0.8-12.4,6-19.2c0.8-0.8,1.3-2.4,2.4-2.4c1.5,0,0.3,3.1,1.2,4.2
	c2,2.5,4.3,6.1,6.6,8.4c1.3,1.3,0.3-3.6,0.6-5.4c0.8-4.8,3.8-8.2,7.8-10.8c1.6-1,2.9-3,4.8-3c0.9,0,0.6,16.8,3,14.4
	c0.7-0.7,0.8-4.2,1.8-5.4c12.7-14.5,13.3,8.4,16.8,8.4c0.6,0,2.3-4.8,3-5.4c2.7-2.3,5.2-2.5,8.4-3c0.6-0.1,1.5-1.5,1.8-1.2
	c1,1-1.2,10.5-1.2,12c0,0.8,12.4-6.2,15-3.6c0.7,0.7-4.6,11.7-3,13.2c2.8,2.8,11.8-4.6,15.6,1.2c1.6,2.4-5.5,12-4.2,13.2
	c2.7,2.7,15.6-4.9,18.6,1.2c2.1,4.2-11.4,11.2-11.4,13.2c0,1.1,6.8,2.1,7.8,2.4c19.2,6.4-0.2,10-5.4,12.6c-1.1,0.5,5.6,7.6,4.2,9
	c-5.3,5.3-15.3-2.4-20.5-2.4c-0.2,0,0.7,7.4,0.6,7.8c-0.6,4.4-3,8.3-6.6,10.8c-1.9,1.4-12-13.8-12.6-14.4c-1.8-1.8-0.8,5-1.8,7.2
	c-1.6,3.5-7.9,9.6-12,9.6c-2.4,0-3-14.2-3-16.8c-0.2,3.4-1.7,6.6-4.2,9c-3.8,3.8-14,6-13.8,6c1.4,0-1.8-7.2-1.8-7.2
	c-0.9-2.3-2.3-12-3.6-13.2c-0.7-0.7-1.7,3.9-1.8,4.2c-1.8,5.1-5.4,9.4-10.2,12c-4.5,2.3,0-15.7-1.8-17.4c-0.1-0.1-6.2,6.3-11.4,8.4
	c-18.9,7.6-6.6-9.2-6.6-12.6c0-0.4-3.6,2-8.4,0.6c-14.8-4.2-11-3.1-6.6-9C305.9,518,308.4,516.1,311.7,512.8L311.7,512.8z"/>
<path id="path36897" class="st0" d="M111.2,393c-1.4-3.4-3.7-6.1-4.8-9.6c-3.5-10.4,9.1-1.5,13.2-3.6c1.2-0.6-1.2-2.4-1.8-3.6
	c-1.9-4.2-4.3-15-0.6-18.6c2.6-2.6,10.4,9.5,10.8,8.4c2.6-7.8-0.8-12.4,6-19.2c0.8-0.8,1.3-2.4,2.4-2.4c1.5,0,0.3,3.1,1.2,4.2
	c2,2.5,4.3,6.1,6.6,8.4c1.3,1.3,0.3-3.6,0.6-5.4c0.8-4.8,3.8-8.2,7.8-10.8c1.6-1,2.9-3,4.8-3c0.9,0,0.6,16.8,3,14.4
	c0.7-0.7,0.8-4.2,1.8-5.4c12.7-14.5,13.3,8.4,16.8,8.4c0.6,0,2.3-4.8,3-5.4c2.7-2.3,5.2-2.5,8.4-3c0.6-0.1,1.5-1.5,1.8-1.2
	c1,1-1.2,10.5-1.2,12c0,0.8,12.4-6.2,15-3.6c0.7,0.7-4.6,11.7-3,13.2c2.8,2.8,11.8-4.6,15.6,1.2c1.6,2.4-5.5,12-4.2,13.2
	c2.7,2.7,15.6-4.9,18.6,1.2c2.2,4.2-11.4,11.2-11.4,13.2c0,1.1,6.8,2.1,7.8,2.4c19.2,6.4-0.2,10-5.4,12.6c-1.1,0.5,5.6,7.6,4.2,9
	c-5.3,5.3-15.3-2.4-20.4-2.4c-0.2,0,0.7,7.4,0.6,7.8c-0.6,4.4-3,8.3-6.6,10.9c-1.9,1.4-12-13.8-12.6-14.4c-1.8-1.8-0.8,5-1.8,7.2
	c-1.6,3.5-7.9,9.6-12,9.6c-2.4,0-3-14.2-3-16.8c-0.2,3.4-1.7,6.6-4.2,9c-3.8,3.8-14,6-13.8,6c1.4,0-1.8-7.2-1.8-7.2
	c-0.9-2.3-2.3-12-3.6-13.2c-0.7-0.7-1.7,3.9-1.8,4.2c-1.8,5.1-5.4,9.4-10.2,12c-4.5,2.3,0-15.7-1.8-17.5c-0.1-0.1-6.2,6.3-11.4,8.4
	c-18.9,7.6-6.6-9.2-6.6-12.6c0-0.4-3.7,2-8.4,0.6c-14.8-4.2-11-3.1-6.6-9C105.5,398.3,107.9,396.3,111.2,393L111.2,393z"/>
<path id="path36885" class="st0" d="M-55.5,395.6c-1.4-3.4-3.7-6.1-4.8-9.6c-3.5-10.4,9.1-1.5,13.2-3.6c1.2-0.6-1.2-2.4-1.8-3.6
	c-1.9-4.2-4.3-15-0.6-18.6c2.6-2.6,10.5,9.5,10.8,8.4c2.6-7.8-0.8-12.4,6-19.2c0.8-0.8,1.3-2.4,2.4-2.4c1.5,0,0.3,3.1,1.2,4.2
	c2,2.5,4.3,6.1,6.6,8.4c1.3,1.3,0.3-3.6,0.6-5.4c0.8-4.8,3.8-8.1,7.8-10.8c1.6-1,2.9-3,4.8-3c0.9,0,0.6,16.8,3,14.4
	c0.7-0.7,0.8-4.2,1.8-5.4c12.7-14.5,13.3,8.4,16.9,8.4c0.6,0,2.3-4.8,3-5.4c2.7-2.3,5.2-2.5,8.4-3c0.6-0.1,1.5-1.5,1.8-1.2
	c1,1-1.2,10.5-1.2,12c0,0.8,12.4-6.2,15-3.6c0.7,0.7-4.6,11.7-3,13.2c2.8,2.8,11.8-4.6,15.6,1.2c1.6,2.4-5.5,12-4.2,13.2
	c2.7,2.7,15.6-4.9,18.6,1.2c2.1,4.2-11.4,11.2-11.4,13.2c0,1.1,6.8,2.1,7.8,2.4c19.2,6.4-0.2,10-5.4,12.6c-1.1,0.5,5.6,7.6,4.2,9
	c-5.3,5.3-15.3-2.4-20.5-2.4c-0.2,0,0.7,7.4,0.6,7.8c-0.6,4.4-3,8.3-6.6,10.8c-1.9,1.4-12-13.8-12.6-14.4c-1.8-1.8-0.8,5-1.8,7.2
	c-1.6,3.5-7.9,9.6-12,9.6c-2.4,0-3-14.2-3-16.8c-0.2,3.4-1.7,6.6-4.2,9c-3.8,3.8-14,6-13.8,6c1.4,0-1.8-7.2-1.8-7.2
	c-0.9-2.3-2.3-11.9-3.6-13.2c-0.7-0.7-1.7,3.9-1.8,4.2c-1.8,5.1-5.4,9.4-10.2,12c-4.5,2.3,0-15.7-1.8-17.4
	c-0.1-0.1-6.2,6.3-11.4,8.4c-18.9,7.6-6.6-9.2-6.6-12.6c0-0.4-3.6,2-8.4,0.6c-14.8-4.2-11-3.1-6.6-9
	C-61.3,400.8-58.8,398.9-55.5,395.6L-55.5,395.6z"/>
<path id="path36887" class="st0" d="M532,584.8c0.5,3.6,1.9,6.9,2.2,10.5c0.7,11-9.2-0.9-13.7,0.1c-1.3,0.3,0.6,2.6,0.8,4
	c0.8,4.6,0.2,15.6-4.2,18.2c-3.2,1.8-7.6-11.9-8.3-10.9c-4.5,6.8-2.5,12.2-10.8,17c-1,0.6-1.9,2-3,1.7c-1.4-0.4,0.5-3-0.1-4.4
	c-1.3-3-2.6-7-4.2-9.8c-0.9-1.6-1.2,3.4-2,5.1c-2,4.5-5.8,6.9-10.4,8.4c-1.8,0.6-3.6,2.2-5.4,1.7c-0.8-0.2,3.8-16.4,0.8-14.7
	c-0.8,0.5-1.8,3.9-3.1,4.8c-16,10.7-10.6-11.6-14.1-12.5c-0.6-0.2-3.5,4.1-4.3,4.5c-3.2,1.5-5.7,1-8.9,0.7c-0.6,0-1.8,1.1-2,0.7
	c-0.7-1.2,3.9-9.8,4.3-11.3c0.2-0.8-13.6,2.8-15.5-0.4c-0.5-0.9,7.4-10.1,6.3-12c-2-3.5-12.6,1.4-14.8-5.2
	c-0.9-2.7,8.4-10.1,7.5-11.7c-1.9-3.3-16.3,0.7-17.7-6c-0.9-4.6,13.9-7.8,14.5-9.8c0.3-1.1-6.1-3.8-6.9-4.3
	c-16.9-11.2,2.8-9.6,8.5-10.8c1.2-0.2-3.5-8.8-1.7-9.8c6.5-3.7,14.2,6.3,19.1,7.6c0.2,0.1,1.3-7.3,1.5-7.7c1.7-4.1,5-7.2,9.2-8.7
	c2.2-0.9,8,16.5,8.5,17.2c1.2,2.2,2-4.6,3.6-6.5c2.4-3,10.1-7.3,14.1-6.2c2.3,0.6-0.8,14.5-1.5,17c1.1-3.3,3.4-6,6.4-7.6
	c4.6-2.7,15-2.2,14.9-2.2c-1.4-0.4-0.1,7.4-0.1,7.4c0.2,2.5-0.9,12.1,0.1,13.7c0.5,0.8,2.6-3.3,2.8-3.6c3.1-4.5,7.7-7.7,13-9
	c5-1-4,15.1-2.8,17.3c0.1,0.1,7.7-4.5,13.2-5.2c20.2-2.4,4,10.6,3.1,13.9c-0.1,0.3,4-1,8.3,1.6c13.2,7.9,9.9,5.9,4.1,10.4
	C538.9,581.2,536,582.4,532,584.8L532,584.8z"/>
<path id="path26360" class="st0" d="M-52.9,387.4l1.7,0.2l1.4,0.9l1.4,0.9l1.5,0.6l1,1.5l1.8,0.1l1.4,0.9l1.5,0.6l0.6,1.8l0.5,1.9
	l1.8,0.8l1.2,1.5l1.8-0.7l1.9-0.6l1.7,1l1.8,0.8l-0.7,1.9l0.5,1.9v2.1l1.6,1.3l1.5,1.2l0.6,1.8l1.3,1.3l0.9,1.7l1.9,0.5l1.9,0.3
	l1.5,1.2l1.2,1.5l1.9,0.7l1.6,1.2l1.9-0.5l1.9-0.8l2-0.8l1.8-1L-7,413l1.4-1.9l1.4-1.5l1.6-1.3l2.1-0.7l2,0.9l0.9,1.9l2,0.7l1.8,0.6
	h2l1.6-1.4l2.1,0.5l1.9,0.6l1.7,1l2.1-0.1l1.4,1.6l1.8-1.1l2,0.7l1.8,1.2l2.1,0.1l1.5-1.5l1.9-0.8l1-1.5l0.7-1.7l1.9-0.8l0.6-1.9
	l0.2-2l1.1-1.7l1.6-1.2L39,401l0.5,0.9l0.6,0.8l0.8,0.6l0.8,0.5v1l-0.2,1l0.3,1l-0.5,0.9l0.6,0.8l0.6,0.9l1,0.6l1.1-0.2v1l0.5,0.9
	l0.3,1l-0.2,1l0.8,0.3l0.8,0.3l0.8,0.3l0.8,0.3l0.8,0.6l0.9-0.2l0.8,0.4l0.7,0.5l1,0.2l0.9-0.5l0.7,0.6l1,0.1l0.6,0.8l0.9,0.2
	l0.8,0.5l0.6,0.7l1-0.1l0.9-0.3l0.7-0.7l0.4-0.9l0.8,0.6l1-0.1l0.7-0.7l0.9-0.3l0.7-0.7l0.7-0.6l1-0.3l1,0.3l1-0.2l0.6-0.8l0.2-0.9
	l0.5-0.8H71l0.9,0.1l0.9,0.1l0.9-0.1l0.9,0.3h1l0.7,0.7l0.4,0.9l0.8-0.6l0.9,0l0.8,0.4h0.9l0.8,0.5l0.9-0.1h0.9l0.8,0.3l1.2,0.3
	l1.1,0.5l1-0.8l1-0.7l0.7-1l0.4-1.1h1.3l0.9-0.9l0.5-1l0.6-0.9l1.1-0.3l0.8-0.8l1-0.5l0.7-0.9l0.9-0.6l0.9-0.6l0.7-1l0.9-0.8
	l1.2-0.1l1.2,0.2l0.4-1.1l0.8-0.8l0.6-1.1l1.2-0.3l1.2,0.4l1.1-0.6l1.3-0.2l0.7-1.1l1.2,0.1l1,0.6l1.2-0.4l1.1,0.5l1.1,0.6l1.2,0.3
	v1.3l0.8,1l1.2-0.2l1,0.7l1,0.5l1,0.5l0.7,1l1.2,0.1l0.8,0.8l0.5,1.1l0.4,1.1l0.9,0.7l0.9,0.7l0.8,0.7l1.1-0.9l1.3-0.3l1.4,0.1
	l1.2,0.6l0.7,1.1l0.7,1.1l1.1,0.7l1.2,0.4l1.1-0.6l1-0.8l1.1,0.7h1.3l1.3-0.5l1.2,0.6l0.8-1l1-0.8l2.2-3.9l1.6-4.2l2.5-3.9l4.1-2.2
	l5-0.1l2.9-4l4.1-2.5l4.7,1.1l4.2-1.6l4.3-1l2.7-4.1l4.9-0.4l4.5,0.3l4,2.1l4.5,0.1l4.2,1.4l3.8,1.9l2.7,3.3l3.5,2.4l4.2,0.6
	l4.2,1.2l4.3-0.9l2.9,3.2l4,1.7l3.3,3.3l4.3,1.9l4.6-0.7l4.6-0.3l0.6,4.8l1.1,4.7l3.3,4.1l5.2,0.5l2.3,4.6l-1.2,5l2.4,4.7l5.1,1.3
	l4.9,0.4l2.9,3.9l3.4,3.6l4.9-0.4l4.1,1.4l4.3,0.4l4.3-0.2l4.2,0.5l4.4,2.2l4.7-1.5l4.1,2.4l2.4,4.1l-1.2,4.4l2.2,4l3,3.2l1.7,4
	l3.2,3l1.4,4.2l0.1,4.3l0,4.3l1.8,3.9l0.7,4.3l-0.8,4.5l2,4l-0.9,4.8l2.2,4.4l-4.2,2.6l-1.6,4.7l0.5,0.8l0.5,0.8l0.9,0.3h1l0.9,0.5
	l0.9-0.4h0.9l0.9-0.2l0.4-0.8l0.5-0.7l0.7-0.5l0.7-0.5l0.9,0.1l0.9-0.2l0.8-0.6l1,0.1l0.8,0.5l0.4,0.8l0.8,0.6l0.9-0.1l1,0.1
	l0.8,0.6l1-0.1l0.6-0.8l0.8-0.4l0.8-0.4l0.3-0.9l0.8-0.5l0.8-0.5l0.9,0.3h0.9l0.8,0.2l0.9-0.2l0.9,0.2l0.7,0.6l0.9,0.1h0.9l0.9,0.1
	l0.9-0.5l0.4-0.9l0.9,0.3l0.9-0.1l0.5,0.8l0.5,0.7l0.9,0.3l0.4,0.8l0.9-0.1l0.8,0.4l0.9-0.2h0.9l0.5,0.8l0.8,0.5l0.8,0.3l0.4,0.8
	l0.3,0.8l0.7,0.5h0.9l0.8,0.2l0.9-0.3l0.8,0.4l0.6,0.8h1v1l0.7,0.7l0.7,1.4l1.5,0.4l1,1l0.6,1.2l1.3,0.7l1.4,0.6l1.6-0.1l1.2-1.1
	l1.2,0.7l1.4,0.2l0.6,1.3l1.1,0.8l1.2-1l1.5,0.1l1.1,1.1l1.5-0.1l1.3-0.9l0.9-1.3l1.6-0.5l1.5,0.8h1.4l1.3-0.7l1.2-0.9l1.5,0.1
	l1.5,0.8l0.6,1.6l-0.2,1.7l1.2,1.3l1.6,0.2l1.6-0.3l1.7-0.1l1.3,1l1.4,0.2h1.4l1.1,1h1.5l1.3,0.4l1.3,0.4l1.3,0.4l1.2,0.7h1.5
	l1.1,0.9l1.4,0.5l1.4-0.4l1.3,0.5l1,1l1.2,0.7l1.3,0.6l1.4,0.7l0.9,1.3l1.1,1.1l1.5,0.5l0.7,1.5l1.6,0.5l0.5,1.5v1.6l1,1.2l0.5,1.5
	l-0.2,1.6l0.9,1.3l-0.3,1.5l-0.4,1.5l-0.8,1.4l0.3,1.6l3.5,2.1l2.4,3.3h4l3.9-1l3.6,1.2l3.7,0.8l2.9,2.6l1.5,3.6l3.3,1.9l4-0.6
	l3.9,0.2l3.9,0.3l3-3l4.3-0.4l1.3-4l3-2.9l-0.6,4l2.5,3.1l3.1,2.4l0.8,3.8l3.8-1.2l3.6,1.8l2.7,2.8l3.8,0.7l3.7-1.5l4-0.3l4,1.1
	l2.5,3.3l1.4,3.7l3.6,1.7l1.8,3.3l0.5,3.7l2.8,2.1h3.5l1.9,2.8l1.9,2.8l3.1,2.2l3.7-1l1,3.4l2.7,2.4l0.3,3.8l1.5,3.5l2.8,2.9l4,0.1
	l3.4-0.4l3.4,0.3l2.9,2l3.5,0.3l2.9,2.6h3.9l3-2.1l3.7-0.6l2.9,1.8l3,1.5l3.3,1.6l1.4,3.4l3,1l3,1.1l2.1,2.6l3,1.3l3.2,0.8l3.3-0.2
	l3.1,1.3l2.4,2.3l-7.7-1.4l-7.3-2.8l-7.4-3l-8-0.2l-8.7-0.7l-7.6,4.2l-6.3,5.7l-3.5,7.7l-7.7-2.2l-7.7,2.2l-7.3-3l-5.3-5.8l-7.4-3.6
	l-8.1-1.3l-2.9-7.6l-3.4-7.4l-5.9,5.6l-8.1-1.1l-7.3,2.1l-5.3,5.5l-5.2,6l-6.8,4l-0.7,7.8l-1.9,7.6l-6-6l-8.2-2.1l-8.1,1.1l-7.7,2.7
	l-4.3,6.6l-5,6.1l-7.9,1.6l-6.3,5l-6.9-2.3l-5.9-4.3l-6.8,2.7l-7.3,0.2l-6.8-3.3l-3.2-6.9l-7.1-0.9l-7.1-1l-6.4,4.6l-7.9-0.1l-6.9-3
	l-6.4-4l-7.1,3.6l-7.6-2.4l-4.5,5.9l-5.9,4.6l-3.6-6.5l-1.5-7.3l-3.8-6.6l-6.8-3.5l-4.6-6.2l-2.3-7.3l-6.8-3.4l-7-2.9l-5.2-6.1
	l-8-0.9l-7.4-2.6l-7.5,2.5l-8.4,1.4l-6.7-5.3l-6.6,4.2l-6.9,3.6l-5.1-0.5l-3.3-4l-4.7-1.1l-4.7-0.7l-4-3.8l-5.5,0.6l-2.1-4.5
	l-2.7-4.2l-5.5,1.2l-3.7,4.3l-5.3-1.1l-4.5-3l-4.6-1.7l-4.9-0.2l-3.1-4l-4.8-1.7H155l-5.6,0.8l-4.3-3.7l-3.1-4.7l-3.9-4.1l-5.4-1.5
	l-5.2,1.4L122,586l0.2,6.1l-4.1,4.5l-3.1,4.8l-4.8,3.2l-5.7,2.7l-4.2,4.7l-5.3-3.9l-6.6,0.4l-4.3-3.7l-5.6,0.6l-5-2.2l-2.6-4.8
	l-5-2.6l-1.2-5.4l-2.9-4.1l-3.7-3.5l-3.9,4.2l-5.8-0.4l-5.4,0.8l-4.7-2.8l-5.1,1.5l-4,3.5l-5.1-1.2l-5.3,0.2l-3.7-3.7l-5-1.4
	l-3.7-3.7l-5-1.5l-5.1-0.2l-5.1,0.3l-5.6-0.8l-4.1,3.9l-5.1,1.3l-5-1.5l-4.9,1.5l-4.5,2.5l-1.9,4.9l-4.3,3l-4.2,2.8l-4.5,2.3l0.9-2
	l0.9-2l-1.7-1.7l0.1-2.4l-1-2.2l0.7-2.3l-1.9-1.2l-1.9-1.2l2.5,0.5l1.9-1.6l2.1-1.2l0.8-2.3l1.8-1.6l0.3-2.4l-0.6-2.2l-0.2-2.3
	l-1.9-1.2l-2.2,0.4l-0.4-2.2l-1.8-1.3v-2l-0.3-2l-1.8-1.2l-0.6-2.1l-0.5-2l1-1.8l0.8-1.8l-0.4-2l-0.3-1.9l-0.4-1.9l-1.7-1.3
	l-0.2-2.1l0.2-2l-0.8-1.9l1.3-1.5l0.6-1.9l-0.5-2.1l0.6-2.1l1.5-1.5l1.9-1l-0.4-1.9l-0.9-1.7l-0.6-2l-1.8-1v-2.1l-1.5-1.4l-1.5-1.3
	l-0.6-1.9l0.3-1.9l1.2-1.5v-2l-1.1-1.6l0.1-1.9l0.2-1.9l1.5-1.2l0.8-1.7l-0.7-1.8L-61,500l-1.4-1.4l-0.5-1.9l-1.1-1.7l0.4-2l0.3-1.9
	l0.1-1.9v-2l-0.6-2l1.9-1.1l0.5-2.1l-0.5-1.8l-1-1.6l-0.7-1.8l-0.3-1.9l-0.8-1.9l-1.9-0.6l-1.1-1.5l-1.2-1.3l-0.3-1.9l-1.5-1.2
	l-1.7-0.8l-0.9-1.7l0.2-2l0.7-1.9l-1.5-1.4l-0.9-1.8l-0.7-1.8l0.3-1.9l-0.8-1.7l0.1-1.9l1.2-1.8l2.2-0.3l1.2-1.6l1.6-1.2l-0.8-2
	l-0.1-2.1l1.7-1.4l0.7-2.1l0.5-1.7l-0.5-1.7l1.2-1.4l0.2-1.8l-0.5-1.6l-0.2-1.7l0.2-1.7l0.3-1.7l-0.5-1.8l-1-1.6l0.5-1.9l-0.6-1.8
	l-0.1-2l0.5-2l1.4-1.5l2-0.6l0.6-1.9l1.5-1.3l1.2-1.6v-2l-1.5-1.4l-0.8-1.9l0.2-2l0.5-2l2-0.3l1-1.8l0.9-1.6l0.7-1.7l1.8-0.6l2-0.1
	l0.6-2l1.5-1.3l0,0"/>
<path id="path26323" class="st1" d="M756.9-99.2l-1.2,4.8l-4.2,2.7l-1.4,4.6l1.2,4.6l1,4.6l0.1,4.7l-1.2,4.9l-4.2,2.9l4.1,3.1
	l5.2,0.5l4.8,2.7l0.9,5.5l-2.2,4.7l1.6,5l2,4.5l0.8,4.8l5.1-0.7l5.1-0.9l4.1,3.2l4.1,3.2l-1.9,5.2l1.9,5.1l3,4.3l4.5,2.7l2.7,4.1
	l0.9,4.8l-1.9,4.3L790,5l1.8,4.1l1.2,4.4l3,3.5l3.2,3.2l1.7,4.3l3.5,3.1l-1.2,4.9l2.9,4.1l2,4l2.1,4l1.6,4.2l2.8,3.6l4.1,2.9
	l2.6,4.3l4.6,1.3l4.2,2.6l4.9,1.1l5,0.2l3.5-4.4l5.6,0.1l3.2,3l2,4l3.3,3.5l4.8-0.4l0.3,4.3l2.5,3.6l0.9,4.3l3.1,3.1l3,3.8l-0.3,4.8
	l4.8,0.7l3.1,3.7l3.7,3l0.8,4.7l-1.5,4.3l-0.2,4.5l1.5-0.4l1.6-0.1l1.5,0.9l1.6-0.7l0.3-1.7l1.4-0.9l0.5-1.5l1.3-1l1.6-0.4l0.8-1.4
	l1.4,0.6l1.5,0.3l1.3-0.4l1.2-0.8h1.4l1.3-0.6l1.5,0.2l1.5-0.3l1.5,0.2l1.3,0.8l1.5,0.4l1.5-0.6l1.6-0.6l1.4,0.9l1.7-0.5l1.1-1.4
	l0.9-1.5l-0.2-1.8l1.6-0.4l1-1.4l1.7,0.2l1.2-1.3l1.6,0.5l1.6-0.3l1.7-0.3l1-1.4l1.6-0.3l1.4-0.8l1.5,0.6h1.6l1.2,1.2l1.6,0.6l1,1.4
	l1.6,0.7l1.6-0.8l1.7,0.4l1.7-0.2l1.5-0.8l1.7,0.4l1.7,0.4l1.5,1.2v1.9l1.3,0.8l1.1,1.2l1.2,1.1l1.6,0.1l0.9,1.3l0.2,1.6l-0.2,1.7
	l0.8,1.5l1,1.2l0.9,1.3l1.1,1.1l1.2,1l1.5,2.8l2.5,2l3.4,0.2l2.3,2.5l2.2,2.1l2.3,2.1l1.2,3.1l2.9,1.6l2.9,1.2l2.5,1.9l2.7,1.9
	l3.3,0.1h3.4l3.1-1.3l3.2,1.2l2.7,2l3.6,0.1l2.1,3l3.4-0.3l3,1.7l3.5,0.4l2.9-2.1l3.2,0.7l3.3,0.4l3.8,0.1l2.3,3l3.5,0.3l3,1.9
	l0.9,3.7l-0.7,3.7l3.8,1.4l1.6,3.7l1.8,4.3l4.3,1.8l4.3-0.1l4.3,0.1l3.5-2.1l2.8-3l3.8-1.4l3.7-1.5l3.2-2.3l2.2-3.3l-1.7-4l2.1-3.8
	l2.1-3.3l3.7-1.2l3.5-2l0.7-4l1.9,3.4l0.8,3.9l4.3-0.3l3,3.1l3.5-1.7l3.6,1.5l3.6-0.6l3.5,1.1l3.3,2.2l2.7,2.9l3.9-0.7l4,0.1
	l3.6-2.3l1-4.2l3.9-1.1l4,0.3l-0.5-1.7l0.5-1.8l1-1.4l1.5-0.9l1.5-0.6l1.5-0.5l1.5-0.6l1.6-0.3l1.6-0.5l0.6-1.6v-1.6l0.5-1.5
	l0.6-1.4l1.2-0.9l0.6-1.3l0.6-1.3l1.6-0.4l1-1.3l1.6-0.1l1.6-0.2l1.4-1l1.7,0.5l1.3,1l1.6,0.3l1.6-0.1l1-1.2l1.4-0.4l1.3-0.7h1.7
	l1.2-1.1l1.1-1.1l0.7-1.4l1.3-1.1h1.7l0.7-1.5l1.4-0.9l0.7-1.3l0.9-1.2l1.1-1.1l0.5-1.5l1-1.4l1.3-1.2l1.8-0.3l1.7,0.4l1.8,0.1
	l1.1,1.5l1.6-0.2h1.6l0.2-1.6l1.1-1.2v-1.7l1.3-1.1l1.5-0.5l1.2-1l1.6,0.1l1.5-0.4l0.7-1.3l0.7-1.3l0.5-1.4l-0.1-1.5l1.6-0.3l1-1.3
	l1.5-0.4l0.9-1.2v-1.4l-0.8-1.2l0.3-1.4l-0.7-1.3l0.2-1.4v-1.5l1.2-0.8l0.7-1.3l-1.6-0.3l-0.9-1.3l-1.5-0.5l-0.7-1.4l-1.2-1.2
	l-0.1-1.7l0.2-1.6l0.9-1.3l-1-1.1l-0.3-1.4l0.7-1.4l-0.6-1.4l-0.3-1.5l0.6-1.4l-0.3-1.4l-1-1l-0.8-1.5l-0.3-1.6l1.2-1.2l0.4-1.7
	l1.4-0.5l1.4-0.6l0.7-1.5l1.4-0.7l-1-1.2l-1-1.2l0.5-1.5l-0.3-1.6l-1-1.2l0.3-1.6l0.3-1.4V44l-0.7-1.3l-0.9-1.2l-1.3-0.8l-1.2-0.8
	l-0.8-1.4l-1.6-0.3l-1.3-0.8l-1.5,0.1l-0.7-1.5l0.5-1.6l-1-1.2l-0.9-1.2l0.6-1.6l-0.3-1.7l1.8-0.3l0.9-1.5l-0.2-1.6l-1.4-0.8
	l0.7-1.4l-0.4-1.5l0.6-1.2l0.7-1.2l-0.2-1.5l1.1-1.1l-0.8-2.2l-1.9-1.5l-2-1.2l-1.2-2l-2.2-1.2l-2.4,0.5l-2.4-0.7l-1.5-2l-2.5-0.2
	l-2.4,0.4l-1.6-2.2l-2.7-0.4l0.3-2.7l-1.3-2.3l-2.8-0.5l-1.4-2.4l-0.8-2.7l-2-2l-2.5-1.2l-2.7-0.3l-2.4,1l-2.6-0.2l-2.7,0.3
	l-2.3-1.3l-2.2-1.6l-2.8-0.6l-0.5-2.8l-1.7-2.2l-0.4-2.7l1-2.5l-1-2.4l-0.1-2.6l-0.5-2.5l-1.8-1.8l-1.8-1.6l-1.4-1.9l-1.7-2.4
	l0.9-2.8l-1.5-2.3l-2.6-0.8l-2-1.8l-0.9-2.5l-1.9-2.2l-2.9,0.1l-2.4,1.3l-2.7,0.5h-3l-1.9-2.4l-1.7,2.1l-2.6,0.8l-2.6,0.5l-2.6,0.1
	l-2.5-0.7l-2.6-0.7L1106-50l-1-2.7l-2.2-1.5l-2.7,0.2l-1.5-2.1l-2.2-1.3l-1.4,2.5l-2.7,1.1l-2.9,0.5L1087-55l-2,0.7l-2.1-0.2h-2.2
	l-1.6-1.6l-2.1,0.2l-1.6,1.3l-2.1-0.4l-1.9,1l-2.2,0.3l-1.9-1.1l-1.8,1.1l-1.6,1.4l-1.4,1.7l-2.2,0.4l-2-0.2l-2-0.3l0.6-2.2
	l-0.5-2.3l-0.4-2.2l-0.9-2.1l-1.1-2l-1.3-1.8l-2.1-1.2l-0.9-2.2l-2.4-1l-2.4,0.8l-2,1.7h-2.6l-1.5-2l-2.4-0.7l-1.2-2.1l-2.3-0.9h-2
	l-1.9-0.7l-1.7,1.1l-2,0.3l-2.2,0.2l-1.6-1.5l-0.7-2l-1.7-1.2l-1-1.9l-1.3-1.7l-2-1.2L1013-79l-1.9,0.4l-1.8,0.7l-2,0.3l-1.6,1.3
	l-1.6-0.9l-1.7-0.9l-1.8,0.7h-1.9l-1.3-1.5l-1.9-0.2l-1.8,0.7l-1.7-1l-1.9-0.3l-1.7,0.8l-1.5-1l-1.9-0.3l-0.8-2l-2.1-0.6l-1.9,0.6
	l-2-0.1l-4.2-0.4l-4.2,0.6l-1.5,4.3l-4,2.1l-4,0.3l-3.7-1.8l-3.6,2.2l-4.2-0.8l-4-1.4l-2-3.7l-3.9-1l-3.6-1.7l-3.6,2.3l-4.2,0.7
	l-3.5-2.5l-4.2-0.8h-4.7l-3.7-2.8l-4.1-2.2l-2.5-3.8l-1.2-4.3l-2.3-3.8l0.6-4.4l-0.9-4.4l-2.5-4l-4.5-1.2l-4.7-0.6L886-119l-4.7,0.7
	l-4.6-1.2l-4.2,2.2l-3.3,3.4l-1-4.3l-2.5-3.7l-4.1-1.6l-3.6-2.7l-3.8-2.8l-2.5-4L847-134l-4.5,1.5l-3.3-3.4l-4.7-0.6l-3.7,2.9
	l-4.7,0.3l-4.3-1.2l-4.5-0.4l-2.8,3.7l-4.3,1.6l-4.1-1.4l-4.2,1l-4.1-1.3l-4.2,1.1l-2.1,4.3l-4.7,1.1l-4.2,1.9l-4.5-1.1l-0.8,4.3
	l-2.8,3.3L771-114l-3.2,2.8l-0.8,4.4l-3.6,2.6l-4.3,1.1L756.9-99.2L756.9-99.2"/>
<path id="path23788" class="st1" d="M978.5,42.2l1.4,4.8l-2.3,4.4l1,4.7l3.4,3.4l3.2,3.5l2.5,4l1.4,4.8l-2.2,4.6L992,77l4.7-2.2
	l5.5-0.1l3.5,4.3l0.5,5.2l3.8,3.5l4,2.8l3.1,3.8l4.1-3.1l3.9-3.3l5.1,0.7l5.1,0.7l0.9,5.4l4.2,3.5l4.8,2.3l5.3,0.1l4.4,2.2l3.2,3.7
	l0.5,4.8l0.6,4.8l3.6,2.7l3.2,3.2l4.2,1.5l4.4,1.1l3.7,2.9l4.6,1l1.4,4.8l4.6,2.1l3.7,2.5l3.8,2.4l3.5,2.8l4.2,1.7l5,0.4l4.4,2.4
	l4.8-1.1l5,0.1l4.8-1.6l4.4-2.4l0.8-5.5l4.9-2.8l4.3,1l3.7,2.4l4.6,1.4l4-2.8l2.5,3.6l3.9,1.9l2.9,3.3l4.2,1.1l4.5,1.8l2.1,4.3
	l4.5-1.8l4.5,1.7l4.7,0.7l3.1,3.7l0.8,4.4l2.1,4l1.1-1.1l1.3-0.9h1.7l1-1.4l-0.6-1.6l0.8-1.5l-0.3-1.6l0.6-1.5l1.2-1.2v-1.7l1.5-0.2
	l1.5-0.5l1-1l0.7-1.2l1.2-0.7l0.9-1.1l1.4-0.6l1.2-1.1l1.5-0.6l1.6,0.1l1.5-0.4l1-1.2l1.1-1.3l1.7,0.1l1.2-1.2l0.3-1.7l0.1-1.8
	l-1.1-1.4l1.2-1.1l0.2-1.7l1.6-0.7l0.4-1.7l1.6-0.3l1.3-1.1l1.3-1.1l0.1-1.8l1.2-1l0.8-1.4l1.6-0.2l1.4-0.8l1.7,0.4l1.7-0.3l1.6,0.7
	l1.7-0.2l1-1.5l1.7-0.6l1.4-1l0.9-1.4l1.7-0.5l1.6-0.5l1.9,0.3l1,1.7h1.6l1.5,0.5l1.6,0.3l1.5-0.7l1.5,0.7l1,1.3l0.7,1.5l1.4,0.9
	l1.5,0.5l1.4,0.7l1.5,0.4l1.6,0.2l2.8,1.7l3.2,0.5l3.1-1.5l3.3,1l3,0.7l3,0.7l2.6,2.1l3.3-0.1l3.1-0.4l3.1,0.4l3.3,0.3l2.9-1.5
	l2.9-1.7l2.1-2.7l3.3-0.5l3.3,0.4l3.2-1.7l3.3,1.5l2.8-1.9h3.4l3.3-1.4l1.4-3.3l3.2-1l3.1-1.2l3.3-1.8l3.5,1.4l3.2-1.5l3.5,0.1
	l2.6,2.7l1.2,3.6l4-0.7l3.2,2.4l3.7,2.8l4.6-0.6l3.7-2.3l3.8-2.1l2-3.5l0.9-4l2.5-3.1l2.5-3.2l1.7-3.6l0.2-3.9l-3.4-2.6v-4.3
	l0.2-3.9l2.6-2.9l2-3.5l-1.3-3.8l3.4,2l2.6,3l3.6-2.4l4.2,1.2l2.2-3.2l3.9-0.6l2.9-2.3l3.6-0.8l4,0.3l3.8,1.2l3-2.5l3.5-1.9l1.9-3.8
	l-1.2-4.1l2.8-2.9l3.7-1.8l-1.3-1.2l-0.5-1.8l0.2-1.8l0.9-1.6l1-1.2l1.1-1.2l1-1.3l1.2-1l1.2-1.2l-0.2-1.7l-0.8-1.3l-0.3-1.5
	l-0.2-1.5l0.6-1.4l-0.1-1.5l-0.2-1.5l1.1-1.2l0.2-1.6l1.3-0.9l1.2-0.9l0.8-1.6l1.7-0.4l1.6,0.3l1.5-0.5l1.3-0.9l0.3-1.6l1-1.1
	l0.8-1.2l1.4-0.8l0.4-1.6l0.4-1.5l-0.1-1.5l0.5-1.6l1.5-0.8l-0.1-1.6l0.7-1.5v-1.5l0.1-1.5l0.4-1.5l-0.3-1.5l0.2-1.7l0.6-1.7
	l1.4-1.1l1.7-0.5l1.6-0.8l1.6,0.7l1.3-1l1.4-0.8l-0.6-1.5l0.4-1.6l-0.8-1.5l0.5-1.6l0.8-1.2l0.6-1.5l1.4-0.7l1.1-1.1l-0.1-1.5v-1.5
	l-0.3-1.5l-0.9-1.3l1.2-1l0.2-1.6l1.1-1.1l0.2-1.5l-0.7-1.2l-1.3-0.6l-0.5-1.4l-1.3-0.7l-0.6-1.4l-0.8-1.2l0.7-1.4v-1.5l-1.5,0.5
	l-1.4-0.7l-1.6,0.3l-1.3-0.9l-1.6-0.4l-0.9-1.4l-0.6-1.5l0.1-1.6l-1.4-0.5l-1-1.1l-0.1-1.5l-1.2-0.9l-1-1.1l-0.1-1.5l-1-1.1
	l-1.4-0.4l-1.4-0.9l-1.1-1.3l0.4-1.7l-0.5-1.6l1-1.2l0.9-1.2l-0.1-1.6l0.9-1.4l-1.4-0.5l-1.4-0.5l-0.3-1.6l-1-1.2l-1.5-0.6l-0.6-1.5
	l-0.4-1.4l-0.7-1.3l-1.2-0.8l-1.3-0.6h-1.5l-1.5,0l-1.4-0.9l-1.5,0.5l-1.5-0.1l-1.3,0.8L1433-64l-0.3-1.6l-1.5-0.5l-1.4-0.6
	l-0.3-1.7l-1.1-1.3l1.4-1.1l0.1-1.8l-1-1.3h-1.6l-0.1-1.6l-1.2-1.2l-0.1-1.4v-1.4l-1-1.2l0.3-1.5l-1.8-1.5l-2.3-0.3h-2.3l-2-1.1
	l-2.5,0.1l-1.8,1.6l-2.4,0.6l-2.2-1l-2.2,1.1l-1.9,1.6l-2.4-1.1l-2.5,0.9l-1.1-2.4l-2.3-1.3l-2.6,1l-2.4-1.4l-2.1-1.9l-2.7-0.7
	l-2.7,0.2l-2.5,1.1l-1.6,2.1l-2.4,1.2l-2.2,1.6l-2.7,0.1l-2.8-0.3l-2.7,0.9l-1.8-2.1l-2.6-1.1l-1.6-2.2l-0.4-2.7l-2.1-1.6l-1.5-2.2
	l-1.7-1.9l-2.4-0.7l-2.4-0.5l-2.2-0.9l-2.6-1.2l-0.6-2.8l-2.5-1.2l-2.7,0.6l-2.7-0.6l-2.1-1.7l-2.8-0.9l-2.4,1.6l-1.4,2.4l-2.1,1.8
	l-2.6,1.5l-2.8-1.2l-0.4,2.7l-1.9,2l-2,1.7l-2.2,1.4l-2.6,0.7l-2.6,0.7l-2.8,0.1l-2.2-1.8l-2.7-0.1l-2.2,1.4l-2.3-1.1l-2.6-0.1
	l-0.1,2.9l-1.7,2.3l-2.3,1.9l-3-0.2l-1.4,1.6l-1.9,0.8l-1.9,1.2l-2.1-0.6l-1.7,1.2l-0.7,1.9l-2,0.7l-1.1,1.8l-1.8,1.4h-2.2l-1,1.9
	l-0.7,2l-0.3,2.2l-1.6,1.4l-1.8,0.9l-1.9,0.8l-0.6-2.2l-1.6-1.7l-1.4-1.8l-1.8-1.3l-1.9-1.2l-2-0.9h-2.4l-1.9-1.5l-2.5,0.3l-1.7,1.9
	l-0.9,2.4l-2.3,1.3l-2.3-1l-2.4,0.6l-2.1-1.4l-2.5,0.4l-1.7,1l-1.9,0.4l-0.9,1.8l-1.6,1.2l-1.8,1.3l-2.1-0.5l-1.6-1.3l-2-0.3
	l-1.9-1.1l-2-0.9h-2.3l-1.7,1.6l-1.5,1.3l-1.3,1.5l-1.6,1.2l-0.7,1.9l-1.9,0.1l-1.9,0.1l-1.2,1.5l-1.6,1l-1.8-0.6l-1.8,0.8l-1.3,1.5
	h-2l-1.8,0.7l-1.1,1.6l-1.8-0.1l-1.7,0.7l-1.7-1.3l-2.1,0.5l-1.3,1.5l-1.8,0.9l-3.9,1.8l-3.3,2.6l0.8,4.5l-2.4,3.8l-3.4,2.3
	l-4.1,0.3l-2,3.7l-4,1.4l-4.2,0.8l-3.6-2.2l-3.9,0.9l-4,0.4l-2,3.8l-3.3,2.7l-4.3-0.4l-4,1.4l-4.1,2.3l-4.6-0.5l-4.6,0.2l-4.1-2
	l-3.2-3.1l-3.9-2.1l-1.7-4.2l-3-3.4l-4.2-2.2l-4.6,1.2l-4.3,1.8l-4.4-1.5l-3.7,3l-4.6,1.3l-2.5,4l-1.1,4.6l-3.1-3.3l-4-1.9l-4.4,0.7
	l-4.4-0.6l-4.7-0.5l-4.2-2.2l-4.5,1.6l-3.2,3.6l-4.6-1.2l-4.4,1.8l-1.8,4.3l-3.9,2.6l-4.3,1.1l-4.1,2l-0.6,4.6l-3,3.6l-4.2,0.8
	l-3.2,3l-4.2,0.9l-3,3l0.4,4.8l-3.5,3.3L989,9l-4.4,1.3l1.5,4.1l-0.8,4.3l-1.9,3.7l-1.3,4l1.5,4.2l-1.8,4.1l-3.2,3.1L978.5,42.2
	L978.5,42.2"/>
<path id="path23790" class="st1" d="M-42.7,58.5l1.4-1.5l1.8-0.4l1.5-1.2l1.5-1.1l1.8-0.3l1.5-1.2l1.2-1.8l1.9-0.1l1.8,0.5l1.7,1
	l1.9,0.1l1.8,0.7l1.6-1.6l1.1-2.2l2,0.2l2-0.4l-0.2,2.7l1,2.4l1.7,1.6l0.7,2.6l1.8,1.6l1.4,2.2l2.4,0.9l2-1.8l1.5,1.7l2,0.2l1.8-1.5
	l2,0.8l2,0.8l1.5,1.8l2-0.4l1.8-1.3l1.6,1.5l0.3,2.5v2.4l-0.9,2.2l0.1,2.3l1.1,1.8l0.6,2.1l-0.1,2.2L12,82.9l1.2,2l1.4,1.8l2,0.4
	l0.2,2.3l0.9,2l1.1,1.8l1.6,1.2l0.7,2.5l0.7,2.5l2.2,0.2l1.7,1.8L28,101l1.7,1.9l2-0.7l1.8-1.4L35,102l1.3,1.7l0.6,2.2l0.4,2.2
	l0.8,2.2l1.7,1l1,1.9l1.6,1.1l1.9-1.7h2.3l2.3-0.2l2-1.4l2,1l1.8,1.7l1.6,2.3l2.5-0.2l2.4,0.8l2.5-0.6l1.4,2.6l2,1.9l2-2l2.5,0.5
	l2-1.5l1.8-1.8l1.7-2h2.3l1.2-2.4l2.2-0.6l2.1,0.6l2.1-0.8l2.2-1l2.1,1.2l2.3-0.5l1.3-2.3l2.2-0.9l0.9-2.7l2.2,0.3l2.2-0.1l2.2-0.6
	l1.8-1.6l2.7-0.4l1.9-2.5l1.9-2.4l2.7-0.6l-0.1-3.5l1.9-2.6l1.5-3.1l-0.9-3.4l1.7-2.8l1-3.4l3,0.8l2.6-2.2l2.9,0.4l2.7-1.5l3,1.1
	l1.3,3.6l-0.6-3.4l1.1-3.2l1.7-2.5l1.5-2.7l2.4-1.7l2.7-0.2l0.8-3.4l2.3-1.9l-1.4-2.6l-1.1-2.9l-0.3-3.4l-2.1-2.2l-1.5-3.1l-0.2-3.6
	l0.7-3.6l2.4-2.3l2.6,1.7h2.9l2.5,2.2l0.7,3.7l2.9,0.2l2-2.7l2.7,0.1l2.4-1.7l2.7,1l2.8-1l1,3.5l2.7,1.6l1.6,3l-0.7,3.5l1.5,2.7
	l1.4,2.7l2.5-0.8l2.1,1.8l2.2,1.1l2.2,1l2,1.5l1.7,2.1l1.9,2.1h2.5l2.3-0.9l2.4,0.6l2.3,0.2l2.3,0.7l2.2-1.1l2.2-0.8l2.4,0.1l2.2-1
	l1.4,2.9l2.3,1.8l2.1,2.2l2.7,0.5l2.1,2.6l2.5,1.7l-0.2,3.6l1.1,3.3l3.1,0.2l2.1-2.8l2.8,1l2.8-1.1l3.1-0.5l2.6,2.3l0.8,3.7l2.4,2.5
	l0.7,4l-1.7,3.4l-2.7,1.8l-1.9,3.1l1.9,3l0.3,3.9l0.2,4l-2,3.1l0.4,3.6l0.5,3.6l1.4,3.2l1.3,3.3l1.3,3.7l2.1,3.1l3.1,0.8h3.2
	l4.5-5.4l2.2-7.3l4.1-5.7l2.6-7l-0.7-9.1l4.7-6.9l7.3,0.3l4.9-6.9l1.9-8.7l5.9-5.1l6-5.7l0.2-9.4l6.6,4.3l7.4,0.2l7-2.8l5.7-5.9
	l3.8-7.3l1.5-8.5l6.1-4.4l7-0.3l6-2.8l3.8-6.5l3.3-7l6-3.1l4.1-7.2l3.2-7.9l6.9-2.4l5.6-5.5l-0.6-8.5l1.3-8.4l1.4-8.7l-2.5-8.2
	l7.1,2.5l6-5.5l7.4-0.5l4.2-7.6l3.6,8.2l7.4,1.3l6.6,1.3l6.3,2.8l6.6,0.2l6.5,1.2l3.2-8.2l7.1-1.9l3.9-6.7l6.6-1.2l5.9-2l5.8-2.7
	l6.4-2.6l6.6,1.6l6.6-1l6.5,1.8l6.6-1.6l5.5-5.1l4.6-6l5.3-4.9l7.3,3.2l7.2,3.5L536-61.6l6.1,7.6l6.6-4.6l6.7-4.4l7.6,1.5l6.8,4.4
	l0.1-1.2l0.3-1.2l-0.3-1.2L570-62l0.2-1.3l0.2-1.3l-0.7-1l-0.5-1.2l0.4-1.2v-1.2l0.1-1.2l0.1-1.2l0.3-1.3v-1.3l-0.8-0.9l-0.3-1.3
	l-0.3-1.6l-1.2-0.6l0.1-1.4l0.2-1.4l-0.7-1.2l-1-0.6l-0.9-0.8l-0.4-1.3l-0.4-1.6l0.7-1.4l0.6-1.5l1.3-0.4l-0.3-1.3l-0.4-1.3l0.2-1.4
	l-0.6-1.3l1-0.6l0.4-1.2l0.5-1.1l0.8-0.7l0.8-0.8l0.5-1.1l0.8-1v-1.4l0.3-1.3l-0.1-1.4l1.2-0.4l0.5-1.4l-0.1-1.3l-0.3-1.2l0.6-1.2
	l-0.1-1.4l0.4-1.5l1-1l1.2,0.7l1.2-0.8l0.9-1l0.3-1.5l1-0.8l1.1-0.2l-0.3-1.3v-1.4l0.4-1.4l-0.5-1.3l-0.3-1.4l0.5-1.3l0.8-1.1v-1.5
	l-2.1-1.2l-2.2,0.4l-2.2-0.2l-2.1,0.9H569l-1.5-2.3l-2.2-1l-1.3-2.3l-2.2-0.2l-1.9-1.5l-2.1-0.7l-1.8-1.6l-1.3-2.8l0.5-3.2l-2.4-0.9
	l-1.8-2.1h-2.3l-2.2,0.4l-2.5-0.1l-1.5-2.6l-2-1.5l-2.3-0.4l-2-1.9l-0.3-3.2l-2.4,0.5l-2.4,0.7l-1.3,2.7l-2,2l-2-2l-1.8-2.2
	l-2.5,0.9l-2.5-1.1l-2.3-0.5l-2.2,1l-1.7-1.8l-2-1.5l-1.8-1.7l-1.8-1.3l-2.1-1.1l-2.2,0.9l-2.3,0.6l-1.7,2.1l-2.4,0.5l-2-1.9
	l-2.2,0.9l-1.2,2.6l-2.3-0.1l-2,1.4l-2.3,0.2l-2.2-0.6l-2.3,0.2l-2.1,1l-2.3,1.7l-2.5-0.8l-0.8,3.1l-2.2,1.7l-2.3-0.2l-2.3-0.6
	l-2.3-0.6l-2.3-0.3l0.1-3.4l-1.9-2.5l-1.9-2.4l-2.7,0.1l-2.9-11.2l-8.8-4.3l-8.2-4.1l-5.2-9l-9.5,0.9l-7.8-6.8l-8.2,4.7l-8.3,4.3
	l-8.2,2.5l-8.4-0.7l-8.7-1.1l-6.5-7.4l-7.9,3.9l-6,7.5l-8.2,1.3l-8.2,1l-7.4-6.1l-8.8,1.4l-3.8-10.4l-8.6-3.5l-8.2,5.1l-6.3,8.2
	l-7.5-7.8l-9.6,1.2l-8.1,2.1l-8.3-0.7l-4.9-8.7l-7.7-4.6l-7.9-4l-7.8,4l-5.8-7.5l-8.3-1.1l-9.2-0.1l-8.3-4.9l-9.6-0.2l-6.9-8.5
	l-9.8-4.2l-9.6,5l-9.2,6.1l-3.6,12.3l-1.2,11l-5.1,9l-7.3,5.9l-5.9,8l-0.1,12l-7.3,7.8l-8.4,3.5l-6.4,7.8l-4.5,8.7l-6.4,6.5l-2.8,10
	l-6.4,7l-3.7,10.4l-8.9,2.7l-7.3,4.7L58.6-86l-9-2.1l-9-1.6l-9,4.8l-4.3,11l-7.9-4.7l-7.7-5.1l-8.1,4.4l-8.8,0.7l-2.4,0.4l-2.2,1.4
	l-2.4,0.6l-2,1.8l-0.9,2.9l-0.9,2.9l-1.5,2.5l-2.2,1.6l1.8,2.7l-0.3,3.5l-1.4,2.7l-1.5,2.7l0.7,2.8l-0.1,3l0.5,2.9l0.5,2.9l-2.1,1
	l-1.3,2.2l-2.1,0.9l-2.2-0.3l-2.3-0.4l-1.7,2l-2.1,0.6l-1.4,2.1l-0.4,3.1l-1.9,2l-0.4,3l-1.4,2.5l-2.5-0.4l-2,2l-2.3,0.2l-2.3,0.4
	l0.3,3.3l2.2,2l2,1.7l2.3,1.1l0.6,3.3l2.1,2.2l2.5,1.2l2.7-0.3l1.6,3l-0.5,3.6l-0.6,3.5L-35,6.7l2.6,1.3l0.9,3.3l1,3l0.8,3.1
	l1.6,2.8l-0.6,3.4l-0.3,3.2l-1.6,2.5l-0.3,3l0.4,3l1.7,2.7l-0.6,3.3l0,3.4l-2,2.3l-1.6,2.4l-1.4,2.7l-2.4,1.8l-2.8-0.6L-42,55
	L-42.7,58.5L-42.7,58.5"/>
<path id="path23487" class="st1" d="M265.9-7.9c-0.8-0.1-1.7,0.1-2.4,0.6c-11,11-16.6,134.8-23.8,159.9c-7.1,24.7-10.9,50.4-17,74.9
	c-14.6,58.3-1.9,118.3-13.6,176.9c-10.2,51-12.1,111.6-54.4,146.3c5.2,2.6,66.1,29.2,68.1,27.2c9.6-9.6,1-77.7,3.4-91.9
	c11.9-71.7,25.1-143.2,38-214.6c50.3-60.8,70.5-113.4,84.5-197.1c2-11.9,21.9-56.4,10.2-68c-19.6-19.7-40.8,103.1-40.8,119
	c0,45.5-25.5,66.4-44.2,92.4c4.6-26.3,9.2-52.5,13.6-78.8c3.3-19.9-3.3-41.4,0-61.2c4.2-25,23.8-85.1-10.2-85.1
	C275.6-7.3,269.5-8.1,265.9-7.9z"/>
<path id="path26325" class="st1" d="M961.1,2.9c-22.1,131,16.9,237.6,37.4,360.7c4.3,26.1-7.1,214.4,20.4,207.6
	c6.7-1.7,15.5,1.5,20.4-3.4c5.9-5.9-2.6-46.2-3.4-54.4c-9.3-93.2-29-202-10.2-296c7.2-36,67.5-208.1,54.4-221.2
	c-33.3-33.3-37.1,142.6-64.7,170.1c-14.9,14.9-5.5,89.7-17,78.2C946.8,192.8,1014.4,29.6,961.1,2.9L961.1,2.9z"/>
<path id="path23607" class="st1" d="M1167.3,94.7c22.1,131-16.9,237.6-37.4,360.7c-4.3,26.1,7.1,214.4-20.4,207.6
	c-6.7-1.7-15.5,1.5-20.4-3.4c-5.9-5.9,2.6-46.2,3.4-54.4c9.3-93.2,29-202,10.2-296c-7.2-36-67.5-208.1-54.4-221.2
	c33.3-33.3,37.1,142.6,64.7,170.1c14.9,14.9,5.6,89.7,17,78.3C1181.5,284.7,1113.9,121.4,1167.3,94.7L1167.3,94.7z"/>
<path id="path23605" class="st1" d="M11.8-34.5c-9.8,60.4,6.8,122.7,0,183.7C5.2,208.1-40.2,474.9-1.9,513.2
	c5.1,5.1,14-3.6,20.4-6.8c10.4-5.2-6.8-22.5-6.8-34V370.4c0-120.5,23.8-234.6,23.8-357.3C35.6-11.3,41.1-49.2,11.8-34.5L11.8-34.5z"
	/>
<path id="path23372" class="st1" d="M-49.5,499.6c90.5-55.5,385.9,61.9,466.1,102.1c31,15.5,72.4,5.3,105.5,13.6
	c15,3.8,26.3,14.1,40.8,17c27.5,5.5,57.2-10.4,85.1-3.4c32,8,149.9,16.9,176.9,3.4c11.1-5.5,17-22.7,30.6-27.2
	c40.1-13.4,96.3-16.5,132.7-40.8c12.5-8.3,26.2-21.2,44.2-27.2c12.3-4.1,28.2,3.2,40.8,0c17.1-4.3,30-18.5,47.6-20.4
	c34.8-3.9,77.6,11.7,102.1,6.8c32.5-6.5,74.6-6.9,105.5,3.4c128.6,42.9,101.1,42.1,85.1,170.1c-2.6,20.7,0.8,87.7-13.6,102.1
	c-5,5-55.1,0-61.2,0c-139.4,0-278.7-13.6-418.5-13.6c-260.8,0-519,54.3-779.2,30.6c-41.2-3.8-150.3-0.6-176.9-27.2
	C-47,777.8-61.2,609.2-56.3,584.7C-50.8,557.3-42.4,528.1-49.5,499.6z"/>
<path class="st0" d="M754.1,382.8c13.3-17.7,25.3-16.2,55.7-36.8c19-12.9,16.9-15.2,41.2-32.3c17.1-12,24.5-15.3,41.2-25.6
	c40.5-25,71-43.8,67.9-54.6c-3.9-13.8-64.6-22.1-89.1,4.4c-9.7,10.4-12.6,25.1-35,50.6c-9.7,11.1-13,12.6-15.1,11.8
	c-11.5-4,3.9-73,1.1-73.5c-1.3-0.2-5,14.1-8.9,28.9c-14.1,53.6-15.7,57.2-18.9,61.3c-19.6,25.1-65.3,26.2-69,17.8
	c-1.8-4.1,6.7-9.2,31.2-33.4c23.5-23.2,35.2-34.8,43.4-47.9c22.2-35.3,19.4-77.9,14.5-79.1c-5.4-1.3-10.6,47.6-49,93.5
	c-16.8,19.9-37.2,36.5-60.1,49c-3.5-10.8-5-22.1-4.5-33.4c1.7-28.6,17.1-45,31.2-69.1c27-46.1,31.8-91.2,29-92.4
	c-3.8-1.5-44.8,105.2-63.6,100.2c-3-0.8-4.6-4.3-6.7-8.9c-7.5-16.8,1.5-31.4,2.2-44.6c1.7-31.9-46.1-63.6-53.5-57.9
	c-9.8,7.5,33.3,105.8,35.6,128.1c0.4,4.1,0.4,8.2,0,12.2c-0.6,5.8-2.1,11.4-4.5,16.7c-7.7-9.5-14.1-19.9-18.9-31.2
	c-11.3-26.4-10.3-49.1-12.2-49c-1.7,0.1-5.2,17.4-1.1,37.9c5.6,28.2,19.8,35.5,15.8,48.8c-3.7,12.2-22.1,20.1-36.9,18
	c-9.2-1.3-15.6-7.7-25.6-17.8s-27.2-27.4-26.5-46.2c1.1-30.3,48.2-48.8,44.3-56.2c-3.5-6.7-39.7,9.8-70.2-5.6
	c-1.2-0.6-1.3-0.7-2.2-1.1c-26.6-11.4-78,27.6-75.7,59c0.5,6.3,3.2,15.1,39,43.4c22.2,17.6,45.7,33.7,70.1,48
	c-11.2,2.8-28.4,5.4-47.9,1.1c-15.7-3.5-24-9.5-60.1-31.2c-32.1-19.3-48.2-29-49-27.8c-1.5,2.2,36.9,32.1,71.3,55.7
	c25.3,17.3,30.7,19.1,34.5,20c28.5,7.3,46.2-7.9,65.7,4.5c7.5,4.8,15.8,14,14.5,22.3c-1.1,6.4-10,11.8-27.8,22.3
	c-8.3,4.9-12.5,7.3-16.7,8.9c-6.7,2.5-20.1,6.1-39,2.2c4.7,1.9,9.5,3.4,14.5,4.5c3.6,0.8,12.4,2.8,20,2.2
	c10.8-0.7,12.2-5.9,31.2-15.6c23.7-12.1,31.2-9,33.4-7.8c2.8,1.6,5.1,3.9,6.7,6.7c13.9,22.9,8.5,81.6,6.7,108
	c-3.4,49.2,1.6,45.9-3.3,57.9c-10.1,24.8-27.9,33.6-71.3,66.8c-15.6,12-37.7,29.5-63.5,52.3c6.9-1.1,16.5-2.6,27.8-4.5
	c18.3-3,27.5-4.5,33.4-5.6c33.7-6.2,46.7-11.5,47.9-8.9c0.8,1.8-3.7,7.1-30.1,23.4c21.7,1.6,43.5-0.2,64.6-5.6
	c11.9-3,23.4-7.1,34.5-12.2c9.7,3.6,19,8.1,27.9,13.4c3.6,2.2,7.2,4.6,10.6,7.1c8,6.2,11.9,9.5,14.5,11.4c5.6,4.1,15.4,7.4,34,3.4
	l55.7-8.5c-30.1-31.5-35.7-39.9-34.5-41.2c1.6-1.8,14.1,11,37.9,17.8c9.8,2.7,19.9,4.2,30.1,4.5c11.5,0.3,16.3-1.3,27.8-2.2
	c13.4-1.1,26.8-0.7,40.1,1.1c-16.4-10-33.1-20.8-50.1-32.3c-24.2-16.4-46.9-32.8-67.9-49c-18.9-9.6-30.3-21.1-36.8-29
	c-41.8-50.6-21.6-121.7-16.7-139.2C745.8,394.8,750.9,387,754.1,382.8z M684.5,421.8c-14.8-0.5-22.8-12.6-24-14.5
	c-5.9-9.3-4.9-18.9-4.5-22.3c0.2-1.4,2.3-16.6,15.6-25.6c3.2-2.2,8.9-6.1,16.7-5.6c9.7,0.6,15.8,7.7,17.8,10
	c7,8.1,7.5,17.5,7.8,22.3c0.3,6.3,0.9,16.8-6.7,25.6C698.4,422.1,685.3,421.8,684.5,421.8L684.5,421.8z"/>
<path id="path23788-3" class="st0" d="M882.8,444.2l4.9-0.9l4.1,2.8l4.8-0.5l3.8-2.9l3.8-2.8l4.3-2l5-0.9l4.3,2.7l1.2-5l-1.6-4.9
	l0.5-5.5l4.7-3l5.2,0.1l3.9-3.4l3.3-3.6l4.1-2.7l-2.7-4.4l-2.9-4.3l1.2-5l1.3-5l5.5-0.3l3.9-3.8l2.8-4.5l0.7-5.2l2.6-4.1l4-2.8h4.8
	l4.8-0.1l3.1-3.3l3.5-2.9l2-4.1l1.6-4.2l3.3-3.3l1.5-4.5l4.9-0.9l2.6-4.3l2.9-3.4l2.8-3.5l3.2-3.2l2.2-4l1-4.9l2.9-4.1l-0.6-4.9
	l0.7-4.9l-1-4.9l-1.9-4.7l-5.4-1.3l-2.2-5.2l1.4-4.2l2.8-3.4l1.9-4.5l-2.3-4.2l3.8-2l2.3-3.7l3.6-2.5l1.6-4.1l2.3-4.2l4.5-1.6
	l-1.3-4.6l2.2-4.3l1.2-4.6l4-2.6l4.5-0.3l4.2-1.6l-1-1.2l-0.7-1.4l0.2-1.7l-1.3-1.2l-1.6,0.4l-1.4-0.9l-1.6,0.1l-1.4-0.8l-1-1.3
	l-1.7-0.2v-1.6l-0.4-1.5l-0.9-1.1l-1.2-0.8l-0.6-1.3l-1-1l-0.4-1.5l-0.9-1.3l-0.4-1.5l0.2-1.6l-0.2-1.6l-1.1-1.1l-1.1-1.2l0.3-1.6
	l-1.1-1.4l-1.7-0.4l-1.8-0.3l-1.5,0.9l-1-1.3l-1.6-0.4l-0.5-1.7l-1.6-0.6l-0.2-1.7l-0.9-1.4l-1-1.5l-1.7-0.3l-0.9-1.3l-1.3-1
	l-0.1-1.6l-0.7-1.5l0.6-1.6l-0.2-1.7l0.9-1.5v-1.7l-1.4-1.1l-0.4-1.8l-0.8-1.5l-1.3-1.1l-0.3-1.7l-0.3-1.7l0.5-1.9l1.8-0.8l0.2-1.6
	l0.6-1.4l0.5-1.6l-0.5-1.5l0.9-1.4l1.4-0.8l1.6-0.5l1-1.3l0.7-1.4l0.8-1.4l0.6-1.5l0.4-1.5l2-2.6l0.9-3.1l-1.2-3.2l1.4-3.1l1.1-2.9
	l1-2.9l2.4-2.3l0.3-3.3l-0.1-3.2l0.8-3.1l0.7-3.2l-1.2-3.1l-1.4-3.1l-2.5-2.3l-0.2-3.4l0.7-3.3l-1.3-3.4l1.9-3.1l-1.6-3l0.4-3.4
	l-1.1-3.4l-3.1-1.8l-0.7-3.2l-0.9-3.2l-1.4-3.5l1.8-3.3l-1.1-3.3l0.5-3.5l3-2.3l3.7-0.8l-0.3-4l2.8-2.9l3.2-3.4l-0.1-4.7l-1.8-3.9
	l-1.7-4l-3.3-2.4l-3.9-1.3l-2.8-2.8l-2.9-2.8l-3.4-2l-3.9-0.7l-3,3.1l-4.2-0.5l-3.8-0.6l-2.6-2.9l-3.3-2.4l-3.9,0.9l2.4-3.2l3.3-2.2
	l-2-3.8l1.7-4l-3-2.6l-0.1-3.9l-2-3.1l-0.4-3.6l0.7-3.9l1.6-3.6l-2.2-3.3l-1.5-3.7l-3.6-2.3l-4.2,0.7l-2.6-3.1l-1.3-3.8L950-8.3
	L948.3-8l-1.7-0.4l-1.5-1l-1.1-1.1l-1-1.2l-1.2-1.1l-0.9-1.3l-1.1-1.3h-1.7l-1.4,0.6l-1.5,0.1h-1.5l-1.3-0.8h-1.5h-1.5l-1-1.3
	l-1.6-0.4l-0.9-1.3l-0.8-1.4l-1.5-0.9l-0.2-1.8l0.5-1.6l-0.4-1.6l-0.8-1.4l-1.5-0.5l-1-1.1l-1.1-1l-0.7-1.5l-1.5-0.6l-1.4-0.6
	l-1.5-0.1l-1.5-0.7l-0.7-1.6h-1.6l-1.4-0.9l-1.5-0.1l-1.5-0.3l-1.5-0.5l-1.6,0.2l-1.7-0.4l-1.6-0.7l-1-1.5l-0.3-1.7l-0.7-1.7
	l0.9-1.5l-0.8-1.4l-0.7-1.5l-1.5,0.5L894-47l-1.5,0.6l-1.5-0.7l-1-1.2l-1.4-0.8l-0.6-1.5l-1-1.2l-1.5-0.1l-1.5-0.1l-1.5,0.1
	l-1.4,0.7l-0.9-1.3l-1.5-0.4l-1-1.2l-1.6-0.4l-1.3,0.6l-0.8,1.2l-1.4,0.3l-0.9,1.2l-1.4,0.4l-1.3,0.6l-1.3-0.8l-1.5-0.1l0.4,1.5
	l-0.8,1.3l0.1,1.6l-1,1.2l-0.6,1.6l-1.5,0.8l-1.5,0.4l-1.6-0.3l-0.6,1.3l-1.2,0.9l-1.5-0.1l-1.1,1.1l-1.2,0.9h-1.5l-1.2,0.9
	l-0.5,1.4l-1,1.3l-1.4,0.9l-1.6-0.6l-1.7,0.3l-1.1-1.1l-1.1-1.1l-1.6-0.1l-1.2-1l-0.7,1.4l-0.7,1.4l-1.6,0l-1.3,0.9l-0.7,1.4
	l-1.5,0.4L832-32l-1.3,0.6l-1,1.1l-0.8,1.3l-0.2,1.5l-0.2,1.5l-1,1.3l0.3,1.6l-0.3,1.5l0.7,1.4l-1.1,1.3l-1.7,0.1l-0.6,1.4l-0.7,1.4
	l-1.7,0.1l-1.4,0.9l-1-1.5l-1.7-0.3l-1.4,0.9l-0.2,1.6l-1.6-0.1l-1.2,1l-1.4-0.1l-1.4-0.3l-1.3,0.8l-1.5-0.5l-1.7,1.7l-0.6,2.3
	l-0.3,2.3l-1.3,1.9L804.3-3l1.4,2l0.3,2.4l-1.2,2.1l0.8,2.3l1.4,2.1l-1.4,2.3l0.7,2.6l-2.5,0.8l-1.6,2.2l0.7,2.7l-1.6,2.3l-2.1,1.8
	l-1,2.6l-0.1,2.8l0.9,2.6l1.9,1.8l0.9,2.5l1.4,2.3l-0.2,2.7l-0.6,2.7l0.6,2.8l-2.3,1.6l-1.4,2.5l-2.3,1.4l-2.7,0.1l-1.8,1.9L790,54
	l-2.1,1.5l-0.9,2.3l-0.8,2.3l-1.2,2.1l-1.5,2.5l-2.9,0.3l-1.5,2.3l0.3,2.7l-0.8,2.6l-2,1.9l-1.2,2.7l1.3,2.6l2.2,1.7l1.5,2.3
	l1.2,2.8l-1.4,2.7l2.6,0.7l1.8,2.1l1.4,2.2l1.1,2.4l0.4,2.6l0.4,2.6l-0.2,2.8l-2.1,2l-0.4,2.6l1.2,2.4l-1.3,2.2l-0.3,2.6l2.9,0.4
	l2.1,2l1.7,2.5l-0.6,2.9l1.5,1.5l0.6,2l0.9,2l-0.8,2.1l1.1,1.8l1.8,0.9l0.5,2.1l1.7,1.3l1.2,1.9l-0.3,2.2l1.8,1.2l2,0.9l2.1,0.6
	l1.2,1.8l0.7,1.9l0.5,2l-2.3,0.4l-1.9,1.4l-2,1.2l-1.5,1.6l-1.4,1.8l-1.1,2l-0.2,2.4l-1.7,1.7l0.1,2.6l1.7,1.9l2.3,1.1l1,2.4
	l-1.3,2.1l0.3,2.5l-1.6,2l0.1,2.5l0.8,1.8l0.2,2l1.7,1.1l1,1.7l1.1,1.9l-0.8,2l-1.5,1.4l-0.5,2l-1.3,1.7l-1.1,1.9l-0.3,2.3l1.4,1.9
	l1.1,1.6l1.4,1.4l1,1.8l1.8,0.9l-0.1,1.9l-0.2,1.9l1.3,1.3l0.8,1.7l-0.8,1.7l0.6,1.8l1.4,1.4l-0.2,2l0.5,1.8l1.4,1.3l-0.3,1.8
	l0.5,1.8l-1.5,1.6l0.3,2.1l1.3,1.5l0.7,1.9l1.4,4l2.2,3.6l4.5-0.3l3.5,2.8l1.9,3.6l-0.2,4.1l3.5,2.4l0.9,4.1l0.3,4.2l-2.6,3.3l0.4,4
	l-0.1,4l3.7,2.3l2.3,3.6l-0.9,4.2l0.9,4.2l1.8,4.3l-1.1,4.5l-0.3,4.6l-2.5,3.9l-3.5,2.8l-2.5,3.7L819,314l-3.7,2.6l-2.6,3.9l0.7,4.6
	l1.3,4.5l-2,4.2l2.6,4l0.7,4.7l3.7,3l4.4,1.6l-3.6,2.7l-2.4,3.8l0.2,4.4l-1,4.3l-1,4.6l-2.7,3.9l1.1,4.7l3.2,3.5l-1.7,4.4l1.3,4.5
	l4.1,2.2l2.2,4.2l0.7,4.4l1.5,4.2l4.5,1.1l3.2,3.3l0.3,4.3l2.6,3.5l0.4,4.3l2.7,3.4l4.8,0.1l2.9,3.9l3.4,3.1l0.8,4.5l4.2-1l4.1,1.3
	l3.5,2.3l3.8,1.8l4.3-1l3.8,2.2l2.8,3.5L882.8,444.2L882.8,444.2"/>
<path id="path23788-5" class="st0" d="M401.9-6.9l-4.7,1.6l-4.5-2.1L388-6.1l-3.3,3.5l-3.3,3.4l-3.9,2.7L372.7,5l-4.6-2l-0.4,5.2
	l2.4,4.6l0.3,5.5l-4.1,3.7l-5.1,0.7l-3.3,4l-2.7,4.1l-3.6,3.3l3.3,3.9l3.5,3.8L358,47l-0.5,5.1l-5.4,1.2l-3.3,4.4l-2,4.9l0.2,5.3
	l-2.1,4.5l-3.5,3.4l-4.7,0.7l-4.7,0.9l-2.5,3.7l-3,3.4l-1.3,4.3l-0.9,4.4l-2.7,3.9l-0.7,4.6l-4.7,1.7l-1.9,4.7l-2.3,3.8l-2.2,3.9
	l-2.7,3.6l-1.5,4.3l-0.2,5l-2.2,4.5l1.4,4.8l0.1,5l1.8,4.7l2.6,4.3l5.6,0.5l3,4.8l-0.8,4.4l-2.3,3.8l-1.2,4.7l2.9,3.8l-3.5,2.6
	l-1.7,4l-3.1,3.1l-0.9,4.3l-1.6,4.6l-4.2,2.3l2,4.4l-1.5,4.6l-0.5,4.8l-3.5,3.2l-4.4,1l-3.9,2.3l1.1,1.1l0.9,1.3l0.1,1.7l1.5,1
	l1.5-0.6l1.5,0.7l1.6-0.4l1.5,0.6l1.2,1.1l1.7-0.1l0.3,1.5l0.6,1.4l1.1,0.9l1.3,0.6l0.8,1.2l1.2,0.8l0.7,1.4l1.1,1.1l0.6,1.4v1.6
	l0.5,1.5l1.3,0.9l1.3,1v1.7l1.3,1.2l1.8,0.2h1.8l1.4-1.1l1.2,1.2l1.7,0.1l0.8,1.6l1.7,0.3l0.4,1.6l1.1,1.2l1.2,1.3h1.8l1.1,1.2
	l1.4,0.8l0.3,1.6l0.9,1.4l-0.3,1.7l0.4,1.7l-0.7,1.6l0.2,1.7l1.5,0.9l0.6,1.7l1.1,1.3l1.5,0.8l0.5,1.6l0.6,1.6l-0.2,1.9l-1.6,1
	l0,1.6l-0.4,1.5l-0.2,1.6l0.8,1.5l-0.6,1.5l-1.3,1l-1.5,0.8l-0.8,1.4l-0.5,1.5l-0.6,1.5l-0.3,1.6l-0.2,1.6l-1.6,2.9l-0.4,3.2l1.7,3
	l-0.9,3.3l-0.6,3.1l-0.5,3.1l-2,2.6l0.2,3.3l0.6,3.1l-0.3,3.2l-0.1,3.3l1.7,2.8l1.9,2.8l2.8,2l0.7,3.3l-0.2,3.4l1.9,3.1l-1.4,3.4
	l2.1,2.7l0.2,3.4l1.6,3.2l3.4,1.2l1.2,3.1l1.4,3l2,3.2l-1.3,3.6l1.6,3.1v3.5l-2.6,2.7l-3.5,1.4l0.9,3.9l-2.2,3.4l-2.6,3.8l0.8,4.6
	l2.4,3.6l2.2,3.7l3.6,1.8l4,0.7l3.2,2.4l3.3,2.4l3.6,1.5h3.9l2.4-3.6l4.3-0.2h3.9l3,2.4l3.6,1.8l3.7-1.5l-1.9,3.5l-2.9,2.7l2.6,3.5
	l-1,4.2l3.3,2.1l0.7,3.8l2.4,2.8l1,3.5l-0.1,4l-1,3.8l2.6,2.9l2.1,3.4l3.9,1.8l4.1-1.4l3.1,2.6l1.9,3.6l1.2-1.4l1.7-0.5l1.8,0.1
	l1.6,0.8l1.3,0.9l1.2,1l1.3,0.9l1.1,1.2l1.3,1.1l1.7-0.3l1.3-0.8l1.5-0.4l1.5-0.2l1.4,0.5l1.4-0.2l1.4-0.2l1.2,1.1l1.6,0.1l1,1.2
	l1,1.2l1.6,0.7l0.5,1.7l-0.2,1.6l0.6,1.5l1,1.3l1.5,0.2l1.1,1l1.3,0.8l0.9,1.4l1.6,0.4l1.5,0.4l1.5-0.1l1.6,0.5l0.9,1.4l1.6-0.2
	l1.5,0.6l1.5-0.1l1.5,0.1l1.5,0.3l1.5-0.4l1.7,0.1l1.7,0.5l1.2,1.3l0.6,1.7l0.9,1.6l-0.7,1.7l1,1.3l0.9,1.4l1.5-0.7l1.6,0.3l1.4-0.9
	l1.6,0.5l1.2,1l1.5,0.5l0.8,1.4l1.2,1l1.5-0.1l1.5-0.1l1.5-0.3l1.2-0.9l1.1,1.1l1.6,0.1l1.2,1l1.6,0.1l1.2-0.8l0.6-1.3l1.4-0.6
	l0.7-1.3l1.3-0.6l1.2-0.8l1.4,0.6l1.5-0.1l-0.6-1.5l0.6-1.4l-0.4-1.5l0.9-1.3l0.3-1.6l1.4-1l1.5-0.7h1.6l0.4-1.4l1-1l1.5-0.2
	l0.9-1.3l1.1-1.1l1.5-0.2l1-1l0.3-1.4l0.8-1.5l1.2-1.1l1.7,0.3l1.6-0.6l1.2,0.9l1.3,0.9l1.6-0.2l1.4,0.8l0.4-1.5l0.5-1.5l1.5-0.4
	l1.2-1.1l0.5-1.5l1.5-0.6l1.4-0.5l1.2-0.8l0.8-1.3l0.5-1.4l0-1.5V449l0.8-1.4l-0.5-1.5v-1.5l-0.9-1.3l0.9-1.4l1.6-0.4l0.4-1.5
	l0.5-1.5l1.6-0.4l1.2-1.1l1.2,1.3h1.8l1.2-1.1v-1.6l1.6-0.1l1.1-1.2l1.4-0.1h1.4l1.1-1l1.5,0.3l1.4-1.9l0.2-2.3l-0.1-2.3l1-2.1
	l-0.2-2.5l-1.7-1.8l-0.7-2.3l0.8-2.3l-1.2-2.2l-1.7-1.8l1-2.5l-1.1-2.5l2.4-1.2l1.2-2.4l-1.1-2.6l1.3-2.5l1.8-2.1l0.6-2.7l-0.4-2.7
	l-1.3-2.5l-2.2-1.5l-1.3-2.3l-1.7-2.1l-0.2-2.7l0.2-2.8l-1-2.6l2-1.9l1-2.6l2-1.8l2.7-0.5l1.5-2.2l2.2-1.5l1.8-1.8l0.5-2.5l0.4-2.4
	l0.8-2.3l1.1-2.7l2.8-0.7l1.1-2.5l-0.7-2.6l0.4-2.7l1.6-2.2l0.8-2.8l-1.7-2.4l-2.4-1.3l-1.9-2l-1.6-2.6l1-2.9l-2.7-0.3l-2-1.8
	l-1.8-1.9l-1.5-2.2l-0.8-2.5l-0.8-2.5l-0.3-2.8l1.7-2.2v-2.7l-1.6-2.2l1-2.4l-0.1-2.6l-2.9,0.1l-2.4-1.6l-2-2.2l0.1-3l-1.7-1.3
	l-0.9-1.9l-1.2-1.9l0.5-2.2l-1.3-1.6l-2-0.6l-0.8-2l-1.9-1l-1.5-1.7l-0.1-2.2l-1.9-0.9l-2.1-0.5l-2.2-0.2l-1.5-1.5l-1-1.8l-0.8-1.9
	l2.2-0.7l1.6-1.7l1.7-1.5l1.2-1.9l1.1-2l0.8-2.1l-0.2-2.4l1.4-1.9l-0.5-2.5l-2-1.6l-2.5-0.8l-1.3-2.2l0.9-2.3l-0.7-2.4l1.3-2.2
	l-0.5-2.5l-1.1-1.6l-0.5-1.9l-1.8-0.8l-1.3-1.5l-1.3-1.7l0.4-2.1l1.3-1.6l0.2-2.1l1-1.9l0.8-2l-0.1-2.3l-1.7-1.6l-1.3-1.5l-1.6-1.2
	l-1.3-1.6l-2-0.6l-0.2-1.9l-0.1-1.9l-1.5-1.1l-1.1-1.6l0.5-1.9l-0.8-1.7l-1.6-1.2l-0.1-2l-0.8-1.7l-1.6-1v-1.9l-0.8-1.7l1.2-1.8
	l-0.6-2.1l-1.5-1.2l-1-1.7l-2-3.8l-2.8-3.2l-4.4,1l-3.8-2.2l-2.4-3.2l-0.5-4l-3.8-1.8l-1.6-3.9l-1-4.1l2-3.7l-1.1-3.8l-0.5-3.9
	l-3.9-1.8l-2.9-3.2l0.2-4.3l-1.6-4l-2.5-4l0.3-4.6l-0.4-4.6l1.8-4.2l3-3.3l1.9-4l4.1-1.9l3.2-3.1l2-4.3l-1.5-4.5l-2-4.2l1.3-4.5
	l-3.2-3.6l-1.5-4.5l-4.1-2.3l-4.6-0.9l3.1-3.2l1.8-4.1L479,68l0.4-4.4l0.2-4.7l2.1-4.2l-1.8-4.4l-3.7-3l1-4.6l-2-4.3l-4.4-1.5
	l-2.8-3.8l-1.4-4.3l-2.1-4l-4.6-0.4l-3.7-2.8l-1-4.2l-3.1-3l-1.1-4.2l-3.2-2.9l-4.8,0.6l-3.4-3.4L435.6,2L434-2.4l-4,1.7l-4.3-0.6
	l-3.8-1.7l-4-1.2l-4.1,1.7l-4.1-1.6l-3.3-3L401.9-6.9L401.9-6.9"/>
<path id="path23788-2" class="st2" d="M840.1,272.3l2.4-4.3l4.8-1.4l2.6-4l0.1-4.8l0.3-4.7l1.1-4.6l2.5-4.4l4.8-1.6l-3.2-4.1
	l-4.8-1.9l-3.9-3.9l0.6-5.5l3.3-4l-0.2-5.2l-0.7-4.8l0.5-4.9l-5.1-0.7l-5.1-0.5l-3.1-4.1l-3-4.1l3.2-4.4l-0.5-5.5l-1.7-5l-3.7-3.8
	l-1.5-4.6l0.4-4.9l3-3.7l3-3.8l-0.6-4.5V154l-1.9-4.1l-2.3-3.9l-0.5-4.6l-2.5-3.9l2.4-4.4l-1.7-4.7l-0.8-4.4l-0.9-4.4l-0.4-4.5
	l-1.7-4.2L822,107l-1.3-4.8l-4.2-2.6l-3.4-3.6l-4.5-2.3l-4.8-1.5l-4.5,3.3l-5.4-1.6l-2.3-3.8l-0.8-4.3l-2.2-4.3l-4.7-0.9l0.8-4.3
	l-1.4-4.1l0.3-4.4l-2.2-3.8l-1.8-4.5l1.6-4.5l-4.4-1.9l-2-4.4l-2.8-3.9l0.5-4.8l2.6-3.7l1.4-4.3h-1.6l-1.5-0.4l-1.2-1.2l-1.7,0.2
	l-0.7,1.5l-1.6,0.5l-0.9,1.3l-1.5,0.6h-1.7l-1.2,1.2l-1.2-1l-1.4-0.7l-1.4,0l-1.3,0.4l-1.4-0.3l-1.4,0.2l-1.4-0.6l-1.6-0.1L750,33
	l-1-1.2l-1.4-0.9l-1.6,0.1l-1.7,0.1l-1.1-1.2h-1.8l-1.4,1l-1.3,1.2l-0.3,1.8h-1.7l-1.3,1l-1.6-0.7l-1.5,0.9l-1.4-0.9l-1.7-0.2
	l-1.8-0.2l-1.3,1.1l-1.6-0.2l-1.6,0.4l-1.3-1l-1.5-0.4l-0.9-1.5l-1.4-1l-0.6-1.6l-1.3-1.1l-1.7,0.3l-1.6-0.8l-1.7-0.3l-1.7,0.4
	l-1.5-0.8l-1.5-0.8l-1.1-1.5l0.5-1.8l-1.1-1.1l-0.7-1.3l-0.9-1.4l-1.5-0.6l-0.5-1.5l0.3-1.6l0.6-1.6l-0.3-1.6l-0.7-1.4l-0.5-1.5
	l-0.8-1.4l-0.9-1.3l-0.7-3.2L696,1l-3.2-1.1l-1.5-3.1l-1.6-2.7L688-8.5l-0.3-3.3l-2.4-2.3l-2.5-1.9l-1.8-2.5l-2.1-2.5l-3.1-1
	l-3.3-0.9l-3.4,0.4l-2.7-2l-2.1-2.6l-3.5-1.1l-1.2-3.4l-3.3-0.7l-2.4-2.4l-3.3-1.3l-3.3,1.3l-3-1.5l-3-1.3l-3.6-1.1l-1.4-3.5
	l-3.3-1.2l-2.4-2.6l0.1-3.8l1.7-3.4l-3.3-2.3l-0.5-4l-0.6-4.6l-3.7-2.9l-4.2-1.1l-4.1-1.2l-3.9,1l-3.5,2.2l-4,0.4l-4,0.4l-3.7,1.3
	l-3,2.6l0.6,4.3l-3.1,3l-2.9,2.6l-3.9,0.2l-3.9,1l-1.8,3.6l-0.8-3.7l0.3-4l-4.3-0.8l-2-3.8l-3.8,0.7L565-61l-3.6-0.4l-3.1-2l-2.5-3
	l-1.8-3.5l-3.9-0.4l-3.8-1.1l-4.1,1.3l-2.1,3.7l-4,0.1l-3.8-1.4v1.8l-0.9,1.6l-1.4,1.1l-1.7,0.5l-1.6,0.2h-1.6l-1.6,0.2l-1.6-0.2
	h-1.7l-1,1.3l-0.4,1.5l-0.9,1.3l-1,1.2l-1.4,0.5l-1,1.1l-0.9,1.1h-1.6l-1.3,1l-1.5-0.3l-1.5-0.2l-1.7,0.6l-1.5-1l-0.9-1.3l-1.4-0.6
	l-1.6-0.3l-1.3,0.9h-1.5l-1.5,0.3l-1.6-0.4l-1.4,0.8l-1.4,0.7l-1.1,1.1l-1.5,0.8l-1.6-0.5l-1.1,1.2l-1.5,0.5l-1.1,1.1l-1.2,1
	l-1.3,0.8l-0.9,1.3l-1.4,1.1l-1.6,0.8l-1.8-0.2l-1.5-0.8l-1.7-0.5l-0.6-1.7l-1.6-0.3l-1.6-0.4l-0.6,1.5l-1.4,0.8l-0.5,1.6l-1.5,0.7
	h-1.6l-1.5,0.6l-1.5-0.5h-1.6l-1,1.1l-1,1.1l-0.9,1.2l-0.3,1.5l-1.6-0.1l-1.3,1H451l-1.2,1l-0.4,1.4l0.4,1.4l-0.6,1.3l0.4,1.4
	l-0.6,1.3l-0.4,1.4l-1.4,0.5l-1,1.1l1.4,0.7l0.5,1.5l1.3,0.9l0.2,1.6l0.9,1.5l-0.3,1.7l-0.7,1.5l-1.2,1l0.6,1.3l-0.1,1.4l-1,1.1
	l0.2,1.5l-0.1,1.5l-1,1.1l-0.1,1.5l0.7,1.3l0.4,1.6l-0.2,1.7l-1.5,0.9l-0.8,1.5l-1.5,0.1L442.4-1l-1.1,1.3l-1.6,0.3l0.6,1.4l0.6,1.4
	L440,4.7l-0.1,1.6l0.6,1.5l-0.7,1.4l-0.7,1.3l-0.4,1.4l0.3,1.5l0.5,1.4l1,1.1l1,1.1l0.3,1.6l1.4,0.8l1,1.2l1.5,0.4l0.3,1.6l-0.9,1.4
	l0.7,1.4l0.6,1.4l-1,1.4l-0.1,1.7l-1.8-0.2l-1.3,1.2l-0.1,1.6l1.1,1.2l-1.1,1.1V36l-1,1l-1,1l-0.2,1.5l-1.3,0.8l0.2,2.3l1.4,1.9
	l1.6,1.7l0.6,2.2l1.8,1.7l2.5,0.2l2.1,1.3l0.9,2.3l2.4,0.8l2.5,0.2l0.9,2.5l2.4,1.1l-1,2.5l0.7,2.6l2.5,1.2l0.7,2.7l0.1,2.8l1.4,2.4
	l2.1,1.8l2.6,1l2.6-0.3l2.5,0.9l2.7,0.4l1.9,1.9l1.7,2.2l2.5,1.3l-0.2,2.8l1,2.6l-0.3,2.7l-1.6,2.1l0.4,2.6l-0.6,2.6l-0.2,2.5
	l1.2,2.2l1.3,2.1l0.9,2.2l1,2.7l-1.6,2.4l0.9,2.6l2.3,1.5l1.5,2.3l0.2,2.7l1.3,2.6l2.8,0.6l2.7-0.6l2.8,0.3l2.9,0.8l1.2,2.8l2.2-1.6
	h2.7l2.6,0.3l2.5,0.6l2.3,1.4l2.3,1.4l2.1,1.9l0.2,2.8l1.8,2l2.6,0.6l0.9,2.4l1.8,1.9l2.1-2l2.9-0.4l3,0.3l1.9,2.3l2.1-0.1l2,0.8
	l2.2,0.6l1.1,2l2.1,0.3l1.9-0.8l1.9,0.9l2.1-0.5l2.2,0.3l1.6,1.6l2-0.6l1.9-1l1.8-1.3l2.2,0.2l1.9,0.7l1.9,0.8l-1.2,2l-0.1,2.3
	l-0.2,2.3l0.3,2.2l0.5,2.2l0.8,2.1l1.7,1.7l0.2,2.4l2,1.6l2.5-0.1l2.3-1.1l2.5,0.7l0.9,2.4l2.1,1.3l0.5,2.5l2,1.5l1.9,0.5l1.6,1.1
	l1.9-0.6l2,0.3l2.2,0.4l1.1,1.9l0.1,2.1l1.2,1.6l0.5,2.1l0.8,2l1.6,1.7l2.3,0.1l2,0.2l2-0.1l2,0.3l1.9-0.8l1.3,1.3l1.3,1.3l1.9-0.2
	l1.9,0.5l0.8,1.8l1.8,0.7l2-0.2l1.4,1.4l1.8,0.8l1.9-0.3l1.2,1.4l1.7,0.8l0.3,2.1l1.8,1.1l2-0.1l1.8,0.7l4,1.5l4.2,0.6l2.6-3.7
	l4.4-1l4,0.8l3.1,2.7l4-1.1l3.8,1.9l3.5,2.4l1,4.1l3.3,2.2l3,2.6l4.1-1.3l4.3,0.5l2.7,3.4l3.8,1.9l4.5,1.3l2.8,3.7l3.3,3.1l1.4,4.3
	v4.5l1.2,4.3l-1.8,4.1l-0.3,4.5l1.4,4.5l4,2.4l4.3,1.8l2,4.2l4.7,0.5l4.1,2.4l4.6-1l4.1-2.4l-0.2,4.5l1.4,4.2l3.6,2.7l2.7,3.5l3,3.7
	l1.3,4.5l4.3,2.1l4.8-0.3l2.3,4.1l4.4,1.8l4.3-1.8l4.6,1l3.9,2.3l4.2,1.5l3.7-2.8l4.6-0.4l3.5,2.5l4.3,0.2l3.6,2.4h4.3l3.2-3.6
	l4.8,0.2l4.5-0.7l4,2.2l1.9-3.9l3.6-2.4l4-1.2l3.8-1.8l1.9-4l4.2-1.6l4.5,0.1L840.1,272.3L840.1,272.3"/>
<path id="path23788-4" class="st2" d="M786.3,130.9l-2.2-4.4l1.5-4.8l-1.8-4.4l-3.9-2.8l-3.8-2.9l-3.2-3.6l-2.2-4.5l1.3-4.8
	l-5.2,0.3l-4.3,2.9l-5.4,1l-4.1-3.6l-1.4-5l-4.4-2.8l-4.4-2.1l-3.7-3.2l-3.5,3.8l-3.3,4l-5.2,0.2l-5.2,0.2l-1.9-5.2l-4.8-2.7
	l-5.1-1.4l-5.2,0.9l-4.7-1.4l-3.8-3.1l-1.4-4.6l-1.5-4.6l-4-2l-3.8-2.5l-4.5-0.8l-4.5-0.3l-4-2.2l-4.7-0.1L666,60l-4.9-1.2l-4.1-1.8
	l-4.1-1.7l-4-2.2l-4.4-1l-5,0.5l-4.8-1.5l-4.5,2l-4.9,0.7l-4.5,2.4l-4,3.1l0.2,5.6l-4.3,3.6l-4.4-0.2l-4-1.8l-4.8-0.6l-3.4,3.4
	l-3-3.1l-4.3-1.2l-3.5-2.7l-4.4-0.3l-4.7-1l-2.8-3.9l-4.1,2.6l-4.8-0.8l-4.8,0.1l-3.7-3.1l-1.6-4.2l-2.7-3.7l-0.9,1.3l-1.2,1.1
	l-1.7,0.3l-0.8,1.6l0.8,1.5l-0.5,1.6l0.6,1.5l-0.4,1.6l-1,1.4l0.3,1.7l-1.5,0.5l-1.4,0.8l-0.8,1.2l-0.4,1.4l-1.1,0.9l-0.6,1.3
	l-1.3,0.8l-1,1.2l-1.3,0.8l-1.6,0.2l-1.4,0.7l-0.8,1.4l-0.9,1.4l-1.7,0.2l-1,1.4v1.8l0.2,1.8l1.3,1.2l-1,1.3l0.1,1.7l-1.5,1
	l-0.1,1.7l-1.6,0.6l-1,1.2l-1.1,1.4l0.2,1.8l-1,1.2l-0.6,1.5l-1.5,0.5l-1.2,1l-1.7-0.1l-1.6,0.6l-1.7-0.4l-1.7,0.4l-0.7,1.6
	l-1.6,0.8l-1.2,1.2l-0.6,1.6l-1.5,0.8l-1.5,0.8l-1.9,0.1l-1.2-1.5l-1.5,0.2l-1.6-0.2h-1.6l-1.3,1l-1.6-0.4l-1.3-1.2l-1-1.4l-1.5-0.6
	l-1.5-0.2l-1.5-0.4l-1.6-0.1h-1.6l-3-1.2l-3.2,0.1l-2.8,2l-3.4-0.4l-3.1-0.2l-3.1-0.1l-2.9-1.6l-3.3,0.6l-3,1l-3.2,0.2l-3.3,0.3
	l-2.6,2l-2.6,2.2l-1.6,3l-3.2,1.1l-3.4,0.2l-2.9,2.2l-3.5-0.9l-2.4,2.4l-3.4,0.6l-3,2l-0.8,3.5l-2.9,1.6l-2.8,1.8l-3,2.4l-3.7-0.8
	l-2.9,2l-3.5,0.5l-3.1-2.1l-1.8-3.3l-3.8,1.4l-3.6-1.8l-4.1-2.1l-4.4,1.4l-3.2,2.9l-3.4,2.7l-1.4,3.8l-0.2,4.1l-1.9,3.5l-1.9,3.5
	l-1,3.8l0.5,3.9l3.9,1.9l0.8,4.2l0.5,3.9l-2,3.3l-1.4,3.8l2,3.5l-3.7-1.4l-3.1-2.5l-3.1,3l-4.3-0.5l-1.6,3.6l-3.7,1.2l-2.4,2.8
	l-3.4,1.4l-3.9,0.4l-3.9-0.5l-2.5,3l-3.1,2.5l-1.2,4.1l1.9,3.8l-2.2,3.4l-3.3,2.4l1.5,1l0.8,1.6l0.1,1.8l-0.6,1.7l-0.8,1.4l-0.9,1.3
	l-0.8,1.4l-1,1.2l-0.9,1.4l0.5,1.6l1,1.2l0.6,1.4l0.4,1.4l-0.4,1.5l0.4,1.4l0.4,1.4l-0.9,1.4l0.1,1.6l-1.1,1.1l-1.1,1.1l-0.5,1.7
	l-1.6,0.7h-1.6l-1.4,0.8l-1.1,1.1v1.6l-0.8,1.2l-0.6,1.4l-1.2,1l-0.2,1.6l-0.2,1.5l0.3,1.5l-0.3,1.7l-1.3,1.1l0.4,1.6l-0.5,1.6
	l0.3,1.5l0.1,1.5l-0.1,1.6l0.6,1.4l0.1,1.7l-0.3,1.7l-1.2,1.3l-1.6,0.8l-1.4,1.1l-1.8-0.4l-1.1,1.2l-1.2,1.1l0.9,1.4l-0.1,1.6l1,1.3
	l-0.3,1.6l-0.8,1.3l-0.3,1.5l-1.3,1l-0.9,1.3l0.3,1.5l0.3,1.5l0.5,1.5l1.1,1.1l-1,1.2l0.1,1.6l-0.9,1.3l0.1,1.6l0.9,1.1l1.4,0.4
	l0.7,1.3l1.4,0.5l0.8,1.2l1,1.1l-0.4,1.5l0.3,1.5l1.4-0.8l1.5,0.4l1.5-0.6l1.4,0.7l1.7,0.1l1.2,1.2l0.9,1.4l0.2,1.6l1.4,0.2l1.2,0.9
	l0.4,1.5l1.4,0.7l1.2,0.9l0.4,1.5l1.2,0.9l1.5,0.1l1.6,0.6l1.3,1.1l-0.1,1.7l0.8,1.5l-0.8,1.3l-0.7,1.4l0.4,1.6l-0.6,1.5l1.5,0.3
	l1.5,0.3l0.6,1.5l1.2,1l1.6,0.3l0.8,1.4l0.6,1.3l1,1.1l1.4,0.6l1.4,0.4l1.5-0.2l1.5-0.2l1.5,0.6l1.4-0.7l1.5-0.2l1.1-1l1.5,0.7
	l0.6,1.6l1.5,0.2l1.5,0.3l0.6,1.6l1.3,1.1l-1.1,1.3l0.2,1.8l1.2,1.1l1.5-0.2l0.3,1.5l1.3,0.9l0.3,1.4l0.2,1.4l1.2,1l-0.1,1.5
	l2.1,1.1l2.4-0.1l2.3-0.4l2.2,0.7l2.4-0.5l1.5-1.9l2.2-1l2.4,0.5l2-1.5l1.6-1.9l2.6,0.7l2.3-1.4l1.5,2.2l2.5,0.9l2.4-1.4l2.6,0.9
	l2.4,1.5l2.8,0.2l2.7-0.7l2.3-1.6l1.2-2.3l2.1-1.6l1.8-2l2.6-0.5l2.8-0.2l2.5-1.3l2.2,1.8l2.8,0.6l2,1.8l0.8,2.6l2.4,1.2l1.8,1.9
	l2,1.6l2.5,0.2l2.4,0.1l2.4,0.5l2.8,0.8l1.1,2.7l2.6,0.8l2.5-1.1l2.7,0.1l2.4,1.4l2.9,0.4l2.1-2l1-2.6l1.8-2.1l2.3-1.9l3,0.6v-2.7
	l1.5-2.3l1.7-2l2-1.7l2.4-1.1l2.4-1.1l2.8-0.6l2.5,1.4l2.6-0.3l1.9-1.8l2.5,0.6l2.5-0.4l-0.4-2.9l1.3-2.6l1.9-2.3l3-0.3l1.1-1.8
	l1.8-1.2l1.7-1.5l2.2,0.2l1.4-1.5l0.4-2l1.8-1l0.8-2l1.3-1.7l2.2-0.4l0.7-2l0.3-2.1l-0.1-2.2l1.4-1.7l1.7-1.2l1.7-1.1l1,2.1l1.9,1.4
	l1.7,1.5l2,1l2.1,0.8l2.2,0.5l2.3-0.5l2.1,1.1l2.4-0.8l1.4-2.2l0.4-2.5l2-1.6l2.4,0.6l2.3-1l2.3,1l2.4-0.8l1.5-1.3l1.8-0.7l0.6-1.9
	l1.3-1.5l1.5-1.6l2.2,0.1l1.8,1l2.1-0.1l2,0.8l2.1,0.5l2.3-0.4l1.4-1.9l1.3-1.5l1-1.7l1.4-1.5l0.4-2l1.8-0.4l1.8-0.4l0.9-1.7
	l1.4-1.3l1.9,0.3l1.6-1.1l1-1.7l1.9-0.4l1.6-1l0.8-1.7l1.8-0.2l1.6-1l1.9,1l2-0.9l1-1.7l1.6-1.2l3.5-2.5l2.8-3.2l-1.6-4.2l1.7-4.2
	l2.9-2.8l4-1l1.3-4l3.7-2.1l4-1.5l4,1.6l3.7-1.5l3.8-1l1.3-4.1l2.8-3.3l4.3-0.3l3.8-2.1l3.6-3l4.6-0.3l4.5-1l4.4,1.3l3.7,2.5
	l4.2,1.4l2.4,3.8l3.5,2.8l4.5,1.4l4.3-2l3.9-2.6l4.6,0.7l3.1-3.6l4.3-2l1.8-4.4l0.3-4.7l3.6,2.6l4.3,1.2l4.2-1.4l4.4-0.2l4.7-0.4
	l4.5,1.5l4.2-2.4l2.5-4.1l4.7,0.4l4-2.6l1-4.6l3.4-3.2l4.1-1.9l3.7-2.6l-0.2-4.6l2.3-4l4-1.6l2.6-3.5l4-1.6l2.5-3.6l-1.2-4.7
	l2.9-3.9l2-4.1l4.1-2.1l-2.2-3.8l0.1-4.3l1.2-4l0.6-4.1l-2.2-3.9l1-4.3l2.6-3.7l-0.8-4.4l0,0"/>
<path id="path23788-6" class="st2" d="M931.8,178.7l2.4-4.3l4.8-1.4l2.6-4l0.1-4.8l0.3-4.7l1.1-4.6l2.5-4.4l4.8-1.6l-3.2-4.1
	l-4.8-1.9l-3.9-3.9l0.6-5.5l3.3-4l-0.2-5.2l-0.7-4.8l0.5-4.9l-5.1-0.7l-5.1-0.5l-3.1-4.1l-3-4.2l3.2-4.5l-0.5-5.5l-1.7-5l-3.7-3.8
	l-1.5-4.6l0.4-4.9l3-3.7l3-3.8l-0.6-4.5v-4.5l-1.9-4.1l-2.2-3.9l-0.5-4.7l-2.5-3.9l2.4-4.4l-1.7-4.7l-0.7-4.4l-0.9-4.4l-0.4-4.5
	l-1.7-4.2l-3.2-3.9l-1.4-4.8l-4.2-2.6l-3.4-3.6l-4.5-2.3l-4.8-1.5L891,1.8l-5.4-1.6l-2.3-3.8l-0.8-4.3l-2.2-4.3l-4.7-0.9l0.8-4.3
	l-1.4-4.1l0.3-4.4l-2.2-3.8l-1.8-4.5l1.6-4.5l-4.4-1.9l-2-4.4l-2.8-3.9l0.5-4.8l2.6-3.7l1.4-4.3l-1.6,0L865-62l-1.2-1.2L862-63
	l-0.7,1.5l-1.6,0.5l-0.9,1.3l-1.5,0.6h-1.7l-1.2,1.2l-1.2-1l-1.4-0.7l-1.4,0.1l-1.3,0.4l-1.4-0.3l-1.4,0.2l-1.4-0.6l-1.6-0.1
	l-1.4-0.7l-1-1.2l-1.3-0.8l-1.6,0.1l-1.7,0.1l-1.1-1.2h-1.8l-1.4,1l-1.3,1.2l-0.3,1.8l-1.7-0.1l-1.3,1l-1.6-0.7l-1.5,0.9l-1.4-0.9
	l-1.7-0.2l-1.8-0.2l-1.3,1.3l-1.6-0.2l-1.6,0.3l-1.3-1l-1.5-0.4l-0.9-1.5l-1.4-1l-0.6-1.6l-1.4-1.1l-1.7,0.3l-1.6-0.8l-1.7-0.3
	l-1.7,0.4l-1.5-0.8l-1.5-0.8l-1.1-1.5l0.5-1.8l-1.1-1.1l-0.7-1.4l-0.9-1.4l-1.5-0.6l-0.5-1.6L793-78l0.6-1.6l-0.4-1.6l-0.7-1.4
	l-0.5-1.5l-0.8-1.4l-0.9-1.3l-0.7-3.2l-1.9-2.7l-3.2-1.1l-1.5-3l-1.6-2.7l-1.6-2.7l-0.3-3.3l-2.4-2.3l-2.5-1.9l-1.9-2.5l-2.1-2.5
	l-3.1-1l-3.3-0.9l-3.4,0.4l-2.7-2l-2.2-2.7l-3.4-1.1l-1.2-3.4l-3.3-0.7l-2.4-2.4l-3.3-1.3l-3.3,1.3l-3-1.4l-3-1.3l-3.6-1.1l-1.5-3.6
	l-3.3-1.2l-2.4-2.6l0.1-3.8l1.7-3.4l-3.3-2.3l-0.5-4l-0.6-4.6l-3.6-2.8l-4.2-1l-4.1-1.2l-3.9,1l-3.5,2.1l-4,0.4l-4,0.4l-3.7,1.3
	l-3,2.6l0.6,4.3l-3.1,3l-2.9,2.6l-3.9,0.2l-3.9,1l-1.8,3.6l-1-3.9l0.3-4l-4.3-0.9l-2-3.8l-3.9,0.7l-3.1-2.4l-3.6-0.4L650-157l-2.5-3
	l-1.8-3.5l-3.9-0.4l-3.7-1.2l-4.1,1.3l-2.1,3.7l-4,0.1l-3.8-1.4v1.8l-0.9,1.6l-1.4,1.1l-1.7,0.5l-1.6,0.2h-1.6l-1.6,0.2l-1.6-0.2
	h-1.7l-1,1.4l-0.4,1.5l-0.9,1.3l-1,1.2l-1.4,0.5l-1,1.1l-0.9,1.1h-1.6l-1.3,1l-1.5-0.3l-1.5-0.2l-1.7,0.6l-1.5-1l-0.9-1.3l-1.5-0.7
	l-1.6-0.3l-1.3,0.9h-1.5l-1.5,0.3l-1.6-0.4l-1.4,0.8l-1.4,0.7l-1.1,1.1l-1.5,0.7l-1.6-0.5l-1.1,1.2l-1.5,0.5l-1.1,1.1l-1.2,1
	l-1.3,0.8l-0.9,1.3l-1.4,1.1l-1.6,0.8l-1.8-0.2l-1.5-0.9l-1.7-0.6l-0.6-1.7l-1.6-0.2l-1.6-0.4l-0.6,1.5l-1.4,0.8l-0.5,1.6l-1.5,0.7
	l-1.6,0.1l-1.5,0.6l-1.5-0.5h-1.6l-1,1.1l-1,1.1l-0.9,1.2l-0.3,1.5l-1.6-0.1l-1.3,1h-1.6l-1.2,0.9l-0.4,1.4l0.4,1.4l-0.6,1.3
	l0.4,1.4l-0.6,1.3l-0.4,1.4l-1.4,0.5l-1,1.1l1.4,0.7l0.5,1.5l1.3,0.9l0.3,1.6l0.8,1.4l-0.3,1.7l-0.7,1.5l-1.2,1l0.7,1.3l-0.1,1.4
	l-1,1.2l0.2,1.5l-0.1,1.5l-1,1.1l-0.1,1.5l0.7,1.3l0.4,1.6l-0.2,1.7l-1.5,0.9l-0.8,1.5l-1.5,0.1l-1.5,0.2l-1.1,1.3l-1.6,0.3l0.7,1.4
	l0.6,1.4l-0.9,1.3l-0.1,1.6l0.6,1.4l-0.7,1.4l-0.7,1.3l-0.4,1.4l0.3,1.4l0.5,1.4l1,1.1l1,1.1l0.3,1.6l1.4,0.8l1,1.2l1.5,0.3l0.3,1.6
	l-1,1.4l0.7,1.4l0.6,1.4l-1,1.4l-0.1,1.7l-1.8-0.2l-1.3,1.2l-0.2,1.6l1.1,1.2l-1.1,1.2v1.6l-0.9,1l-1,1l-0.2,1.5l-1.3,0.8l0.2,2.3
	l1.4,1.9l1.6,1.7l0.6,2.2l1.8,1.7l2.5,0.2l2,1.2l0.9,2.3l2.3,0.8l2.5,0.2l0.9,2.5l2.4,1.2l-1,2.5l0.7,2.6l2.5,1.2l0.7,2.7l0.1,2.8
	l1.4,2.4l2.1,1.8l2.6,1l2.6-0.3l2.5,0.9l2.7,0.4l1.9,1.9l1.7,2.2l2.5,1.3l-0.2,2.8l1,2.6l-0.3,2.7l-1.7,2.1l0.3,2.6l-0.6,2.6
	l-0.2,2.5l1.3,2.2l1.3,2.1l0.9,2.2l1,2.7l-1.6,2.4l0.8,2.6l2.3,1.5l1.5,2.3l0.2,2.7l1.3,2.6l2.8,0.6l2.7-0.6l2.8,0.3l2.9,0.8
	l1.1,2.8l2.2-1.6h2.8l2.6,0.3l2.5,0.7l2.3,1.3l2.3,1.4l2.1,1.9l0.2,2.8l1.8,2l2.6,0.6l0.9,2.4l1.8,1.9l2.1-2l2.8-0.4l3,0.3l1.9,2.3
	l2.1-0.2l2,0.8l2.2,0.5l1.1,2l2,0.3l1.9-0.8l1.9,0.9l2.1-0.5l2.2,0.3l1.6,1.6l2-0.6l1.9-1l1.8-1.3l2.2,0.2l1.9,0.7l1.9,0.8l-1.2,2
	l-0.1,2.3l-0.3,2.2l0.3,2.2l0.5,2.2l0.8,2.1l1.7,1.7l0.2,2.4l2,1.6L663,70l2.3-1l2.5,0.7l0.9,2.3l2.1,1.3l0.5,2.5l2,1.5l1.9,0.5
	l1.6,1.1l1.9-0.6l2,0.3l2.2,0.4l1.1,1.9l0.1,2.1l1.2,1.6l0.5,2.1l0.8,2l1.6,1.7l2.3,0.1l2,0.2l2-0.2l2,0.3l1.9-0.8l1.4,1.3l1.3,1.3
	l1.9-0.2l1.8,0.5l0.8,1.7l1.8,0.7l2-0.2l1.4,1.4l1.7,0.8l1.9-0.3l1.2,1.4l1.7,0.8l0.3,2.1l1.8,1.1l2-0.1l1.9,0.7l4,1.5l4.2,0.6
	l2.6-3.7l4.4-1l4,0.8l3.1,2.7l4.1-1.2l3.8,1.9l3.5,2.4l1,4.1l3.3,2.2l3,2.6l4.1-1.2l4.3,0.5l2.7,3.4l3.8,2l4.5,1.3l2.8,3.7l3.3,3.1
	l1.4,4.3v4.5l1.2,4.3l-1.8,4.1l-0.3,4.5l1.4,4.5l4,2.4l4.3,1.8l2,4.2l4.7,0.6l4.1,2.4l4.6-1l4-2.4l-0.2,4.5l1.4,4.2l3.6,2.7l2.7,3.5
	l3,3.7l1.3,4.5l4.3,2.1l4.8-0.3l2.3,4.1l4.4,1.8l4.3-1.8l4.6,1l3.9,2.3l4.2,1.5l3.7-2.8l4.6-0.4l3.4,2.4l4.3,0.2l3.6,2.4h4.3
	l3.2-3.6l4.8,0.2l4.5-0.7l4,2.2l1.9-3.9l3.6-2.4l4-1.2l3.8-1.8l1.9-4l4.1-1.6l4.5,0.1L931.8,178.7L931.8,178.7"/>
<path class="st1" d="M684.8,419.4c-1.4,0.5-2.7,1.1-4,1.8c0.7-0.2,1.4-0.2,2.1,0c0.2,0.1,0.4,0.2,0.6,0.4c-1.2,0.1-2.2,0.2-2.9,0.3
	c-0.5,0-0.9,0.2-1.2,0.4c-0.5,0.4-0.7,1-0.7,1.7c-0.4-0.3-0.7-0.8-0.7-1.3c0.1-0.7,1.4-1.1,1.4-1.1c-0.8,0.3-1.5,0.7-2.1,1.2
	c-0.7,0.5-1.3,1.3-1.7,2.1c0,0.1-0.1,0.3-0.1,0.3s-0.3-0.8-0.1-1.4c0.3-1.2,1.9-1.8,2.1-1.8c-0.9-0.1-1.7,0.3-2.2,1
	c0-0.5,0.3-1.1,0.7-1.4c0.4-0.2,0.9,0,1.4,0c1.1,0.1,1.8-0.6,3.1-1.4c1.2-0.8,2.4-1.4,3.8-1.8L684.8,419.4z"/>
<path class="st1" d="M692,416.9c-0.4,0-0.5,0.9-1.4,2.9c-0.1,0.3-0.2,0.5-0.4,0.7c-0.5,0.5-1.2,0.4-1.7,0.7
	c-0.3,0.2-0.7,0.7-0.7,1.8c0.2-0.3,0.4-0.6,0.7-0.8c0.4-0.3,0.8-0.6,1.2-0.7c-0.7,0.7-1.1,1.7-1.2,2.6c-0.1,0.7-0.1,1.4,0.1,2.1
	c0.2-0.3,0.3-0.7,0.4-1c0.3-0.8,0.2-1.1,0.4-1.8s0.7-1.7,1.1-1.7c0.1,0,0.1,0,0.4,0.4c0.6,0.7,0.8,1.1,0.8,1.1s0-0.4-0.1-1
	s-0.2-0.9-0.3-1.4s0-1.6,1.1-3.5C692.3,417,692.1,416.9,692,416.9z"/>
<path class="st2" d="M667.2,402.1c0.5-0.6,1.1-1.1,1.8-1.4c0.9-0.3,1.8-0.2,2.5-1c0.1-0.1,0.2-0.3,0.3-0.4c0.7-1.3,3.2-2.1,5.4-2.1
	c1.5,0.1,2.9,0.5,4.2,1.2c1.3,0.8,1.5,1.4,2.9,2.4s1.8,0.5,3.5,1.4c1,0.5,0.7,0.6,3.3,2.5c1.2,0.9,2.2,1.6,2.9,2.1
	c1.1,0.8,1.3,0.9,2.2,1.5c0.7,0.5,1.8,1.3,3.1,2.2c-0.2,0.2-0.3,0.4-0.3,0.7c0,0.9,1.4,1.5,2,1.8c1.9,0.9,5.8,2.9,11,5.6
	c-0.4-0.1-0.9-0.1-1.3,0.1c-0.4,0.3-0.7,0.7-0.8,1.2c-2.3-1.5-4.8-2.7-7.5-3.4c-1.7-0.4-3.4-0.6-5.2-0.7c-0.2,0.2-0.6,0.6-1,1
	c-3.3,2.9-7.5,4.3-11.8,3.9c-9.6-1-14.5-11.9-13.7-13.6c0.3-0.6,0.5-1.2,0.5-1.8c0.1-0.5,0.1-1-0.1-1.5c-0.4-0.9-1.3-0.7-2.6-1.5
	c-0.2-0.2-0.5-0.3-0.8-0.3C667.6,402,667.4,402.1,667.2,402.1z"/>
<path class="st0" d="M679.6,404.2c0-0.2,0.2-0.5,4.3-2.1c1.7-0.6,2.1-0.7,2.7-0.7c1.3,0.3,2.4,1,3.2,2.1c3.6,3.8,5.9,2.6,9.6,6.8
	c1,1.2,2.4,3.1,2.1,3.5s-1.3-0.3-2.1-0.7c-0.6-0.3-3-1-7.8-2.5c-5.7-1.7-6.5-1.7-8.5-2.9C682,407.1,679.3,405.5,679.6,404.2z"/>
</svg>
