<svg id="Layer_1" data-name="Layer 1" xmlns="http://www.w3.org/2000/svg" viewBox="0 0 1366 768"><defs><style>.cls-1{fill:#367e18;}.cls-2{fill:#4db51c;}</style></defs><polygon class="cls-1" points="0 443.5 610.46 443.5 946.76 443.5 1366 443.5 1366 889 0 889 0 443.5"/><polygon class="cls-2" points="742.69 350.56 754.02 339.52 766.5 352 742.69 350.56"/><path class="cls-2" d="M653.5,463l-98-12V385.57A228.27,228.27,0,0,1,653.5,247h6.65Z"/><path class="cls-1" d="M668.5,436V384.52l5,.48q.5-35.5,1-71-7.17-33.5-14.35-67L653.5,463l22-27Z"/><path class="cls-2" d="M668.5,384.52h26.87q0,10.92,0,21.91,0,14.85.13,29.57l4,.43,0,23.57-46,3,19-24,1-3h-5Z"/><path class="cls-2" d="M694.5,373q-.5,31.5-1,63l6,.43,0,23.57,129-13V433.17l-14-3.17,0-49.78a17.25,17.25,0,0,0-1-6.22c-7.59-21.11-56.63-19.11-58.9-19-8.64-1.35-29.77-3.36-49.1,9A61.32,61.32,0,0,0,694.5,373Z"/><path class="cls-1" d="M694.5,376a36.75,36.75,0,0,1,7.1-10c20.06-19.91,59.46-10.88,72-8,7.24,1.66,5.47,2,20.28,6,13.31,3.6,18.76,4.42,21.31,9s.82,10-.57,13.35v23.22c-4.63-4.73-24-23.39-55.23-25.57-35.93-2.51-60.66,18.09-64.69,21.77C694.43,395.63,694.79,386.14,694.5,376Z"/><path class="cls-2" d="M689.5,383c-.73-.4-7.17-4-7-9,0-1.2.51-3.87,8-9a61.5,61.5,0,0,1,16-8c44.6-12.72,79-4,79-4,3.13.84,7.52,2.11,12.69,3.89,8.06,2.79,12.18,4.25,16.31,7.11,4.88,3.38,11.12,7.73,11,14-.1,5.3-4.73,10.23-11,13v-9a14.42,14.42,0,0,0-2-8c-3.61-6.44-21.93-12.45-47-15a146.14,146.14,0,0,0-45,2c-10.49,2.16-21.14,4.8-25,13a15.59,15.59,0,0,0-.82,2.15L694.5,386Z"/></svg>