<svg id="Layer_1" data-name="Layer 1" xmlns="http://www.w3.org/2000/svg" viewBox="0 0 1366 768"><defs><style>.cls-1{fill:#fff;}.cls-2{fill:#fce3ab;}.cls-3{fill:#fdecc7;}.cls-4{fill:#fbda8e;}.cls-5{fill:#fbd680;}</style></defs><path class="cls-1" d="M-1.87-.56V770H1368.68V-.56ZM685,426c-18.26-.81-33.58-20.43-32-40,1.24-15.35,13-31.89,30.9-33.39,18.17-1.51,32.9,13.24,36.1,28.39C724.57,402.63,706,426.93,685,426Z"/><path id="path36889" class="cls-2" d="M939.82,548.29c2.72,2.43,5.93,4,8.46,6.65,7.59,7.94-7.57,5.27-10.42,8.91-.83,1.06,2.14,1.63,3.17,2.5,3.56,3,10.27,11.68,8.51,16.6-1.24,3.45-13.53-4.15-13.39-3,1,8.15,6,10.9,2.78,20-.38,1.07-.12,2.72-1.14,3.2-1.32.63-1.58-2.65-2.89-3.29-2.92-1.43-6.49-3.68-9.58-4.79-1.71-.61,1.27,3.41,1.77,5.15,1.34,4.72,0,9-2.45,13.13-1,1.62-1.35,4-3.06,4.78-.78.36-7.74-15-8.89-11.77-.33.92,1.11,4.16.68,5.67-5.29,18.56-15.61-1.94-18.82-.42-.54.25,0,5.35-.41,6.17-1.45,3.24-3.68,4.48-6.33,6.32-.49.34-.71,2-1.12,1.86-1.34-.48-3.39-10-4.05-11.39-.34-.73-8.57,10.93-12,9.68-1-.35-.86-12.5-2.94-13.25-3.77-1.35-8.68,9.19-14.65,5.6-2.43-1.47-.15-13.16-1.85-13.77-3.58-1.28-12,11.08-17.37,6.88-3.71-2.92,5.57-15,4.68-16.85-.47-1-7.05,1-8.1,1.17-20.13,2.42-4.06-9.19-.5-13.74.75-.95-8.32-4.49-7.66-6.36,2.52-7,14.87-4.36,19.52-6.55.21-.1-3.74-6.38-3.88-6.82a15.86,15.86,0,0,1,1.36-12.61c1.11-2.12,16.78,7.36,17.58,7.65,2.34.84-1.41-4.81-1.45-7.29-.05-3.84,3-12.06,6.77-13.84,2.16-1,8.77,11.53,9.91,13.94a13.68,13.68,0,0,1,0-10c1.79-5,10.06-11.4,9.94-11.34-1.28.6,4.67,5.72,4.71,5.75,1.78,1.73,7.21,9.81,8.92,10.43.88.31-.13-4.21-.17-4.58a21.83,21.83,0,0,1,4.11-15.25c3.13-4,6.72,14.16,9.08,15,.1,0,2.92-8.39,6.73-12.49,13.89-14.93,9.93,5.51,11.38,8.59.15.33,2.46-3.33,7.36-4.14,15.24-2.5,11.32-1.89,9.84,5.34-1.1,5.32-2.47,8.13-4,12.55Z"/><path id="path36891" class="cls-2" d="M986.88,573c-3.07,1.95-5.47,4.6-8.71,6.31-9.72,5.11-3-8.73-5.71-12.48-.79-1.08-2.15,1.62-3.27,2.37-3.88,2.6-14.05,6.67-18.3,3.62-3-2.14,7.71-11.87,6.55-12-8.1-1.3-12.14,2.8-20-2.81-.93-.66-2.58-.87-2.77-2-.23-1.44,3-.78,4-1.87,2.17-2.41,5.32-5.22,7.24-7.89,1.05-1.48-3.63.29-5.44.28-4.91,0-8.68-2.45-12-6-1.29-1.38-3.44-2.39-3.75-4.26-.14-.84,16.51-3.33,13.76-5.31-.8-.57-4.31-.08-5.64-.9-16.39-10.18,6.16-14.47,5.58-18-.1-.59-5.14-1.51-5.83-2.09-2.72-2.29-3.3-4.77-4.33-7.83-.19-.55-1.73-1.23-1.48-1.58.83-1.16,10.54-.51,12.06-.76.8-.14-8.16-11.25-6-14.26.61-.84,12.26,2.62,13.55.82,2.33-3.25-6.45-10.87-1.35-15.62,2.07-1.94,12.69,3.47,13.74,2,2.22-3.1-7.35-14.61-1.84-18.6,3.83-2.77,12.87,9.47,14.91,9.13,1.09-.18.94-7.07,1.11-8.1,3.21-20,10-1.39,13.34,3.29.71,1,6.61-6.78,8.22-5.62,6.07,4.35.11,15.5.94,20.57,0,.23,7.16-1.84,7.62-1.86a15.89,15.89,0,0,1,11.76,4.77c1.72,1.66-11.7,14.11-12.2,14.81-1.44,2,5,0,7.42.61,3.7,1,10.77,6.19,11.44,10.31.39,2.35-13.49,5.26-16.13,5.7a13.59,13.59,0,0,1,9.59,2.69c4.31,3.09,8.2,12.8,8.18,12.67-.23-1.39-6.79,2.93-6.83,2.95-2.15,1.24-11.42,4.24-12.47,5.71-.55.76,4.08,1,4.44,1.1a21.83,21.83,0,0,1,13.53,8.14c3,4.11-15.45,2.57-16.92,4.61-.06.08,7.27,5.11,10.17,9.91,10.54,17.45-8,8-11.39,8.58-.36,0,2.53,3.28,2,8.21-1.78,15.34-1.29,11.4-7.83,8-4.82-2.51-7.15-4.6-11-7.34Z"/><path id="path36893" class="cls-2" d="M1176.57,497.46c-3.08,2-5.48,4.61-8.72,6.31-9.71,5.12-3-8.72-5.7-12.47-.79-1.09-2.15,1.62-3.27,2.37-3.88,2.59-14.06,6.66-18.3,3.61-3-2.13,7.7-11.86,6.55-12-8.1-1.29-12.14,2.81-20-2.81-.92-.66-2.58-.86-2.76-2-.24-1.44,3-.79,4-1.87,2.17-2.42,5.32-5.23,7.23-7.9,1.06-1.48-3.62.29-5.44.29-4.9,0-8.68-2.46-12-6-1.29-1.39-3.44-2.4-3.75-4.26-.14-.84,16.52-3.33,13.76-5.31-.8-.57-4.31-.08-5.63-.9-16.4-10.19,6.15-14.48,5.57-18-.09-.58-5.13-1.5-5.83-2.09-2.71-2.28-3.29-4.77-4.33-7.82-.19-.56-1.73-1.24-1.48-1.59.84-1.15,10.55-.51,12.07-.76.8-.13-8.16-11.25-6-14.25.6-.84,12.25,2.61,13.54.82,2.34-3.26-6.44-10.87-1.35-15.63,2.08-1.94,12.69,3.47,13.74,2,2.23-3.1-7.35-14.6-1.83-18.59,3.82-2.77,12.87,9.46,14.91,9.13,1.09-.18.94-7.07,1.1-8.11,3.21-20,10-1.39,13.34,3.29.72,1,6.61-6.77,8.22-5.61,6.07,4.35.11,15.49,1,20.57,0,.22,7.15-1.85,7.62-1.87a15.86,15.86,0,0,1,11.75,4.78c1.73,1.65-11.69,14.1-12.19,14.8-1.45,2,5,0,7.41.61,3.71,1,10.77,6.19,11.45,10.31.39,2.36-13.5,5.27-16.13,5.7a13.63,13.63,0,0,1,9.58,2.69c4.32,3.1,8.2,12.81,8.18,12.68-.23-1.39-6.78,2.92-6.83,2.95-2.14,1.23-11.41,4.23-12.47,5.71-.55.75,4.08,1,4.45,1.09a21.94,21.94,0,0,1,13.53,8.14c3,4.11-15.46,2.57-16.92,4.61-.06.09,7.26,5.12,10.16,9.91,10.54,17.45-8,8-11.39,8.58-.35.06,2.53,3.28,2,8.21-1.78,15.34-1.29,11.41-7.83,8-4.82-2.51-7.14-4.6-11-7.34Z"/><path id="path36748" class="cls-2" d="M1347.84,431.16c-3.08,2-5.48,4.61-8.72,6.31-9.72,5.12-3-8.72-5.71-12.47-.78-1.09-2.15,1.62-3.26,2.37-3.89,2.59-14.06,6.66-18.31,3.62-3-2.14,7.71-11.87,6.56-12.05-8.1-1.3-12.14,2.8-20-2.82-.92-.66-2.58-.86-2.76-2-.24-1.44,3-.79,4-1.87,2.17-2.41,5.32-5.23,7.23-7.9,1.06-1.47-3.62.29-5.44.29-4.9,0-8.68-2.45-12-6-1.29-1.38-3.44-2.39-3.75-4.26-.14-.84,16.52-3.33,13.76-5.31-.8-.57-4.31-.08-5.64-.9-16.39-10.19,6.16-14.48,5.58-18-.09-.58-5.13-1.5-5.83-2.09-2.71-2.28-3.29-4.77-4.33-7.82-.19-.56-1.73-1.23-1.48-1.58.84-1.16,10.54-.52,12.07-.77.79-.13-8.16-11.24-6-14.25.6-.84,12.25,2.62,13.54.82,2.34-3.25-6.45-10.87-1.35-15.63,2.08-1.93,12.69,3.47,13.74,2,2.22-3.09-7.35-14.6-1.84-18.59,3.83-2.77,12.88,9.46,14.92,9.13,1.09-.18.94-7.07,1.1-8.11,3.21-20,10-1.38,13.34,3.3.72,1,6.61-6.78,8.22-5.62,6.07,4.35.11,15.49,1,20.57,0,.23,7.15-1.85,7.62-1.86a15.87,15.87,0,0,1,11.75,4.77c1.73,1.65-11.69,14.11-12.19,14.8-1.45,2,5,0,7.41.61,3.71,1,10.77,6.2,11.45,10.31.39,2.36-13.5,5.27-16.13,5.7a13.63,13.63,0,0,1,9.58,2.69c4.32,3.1,8.2,12.81,8.18,12.68-.23-1.39-6.78,2.93-6.83,2.95-2.14,1.23-11.41,4.23-12.47,5.71-.55.76,4.08,1,4.45,1.1a21.88,21.88,0,0,1,13.53,8.13c3,4.11-15.46,2.58-16.92,4.61-.06.09,7.26,5.12,10.16,9.92,10.54,17.45-8,8-11.39,8.57-.35.06,2.53,3.28,2,8.21-1.78,15.35-1.29,11.41-7.83,8-4.82-2.51-7.15-4.61-11-7.35Z"/><path id="path30702" class="cls-3" d="M1388,390.93l-2-.05-1.91-.49-2,.32-1.87-.82-2.29.26-2-1.22-1-1.92-1-1.92-2.08.66-1.9-1.07-2.06.37-1.5,1.48-1.76-1-2-.36-1.92.52-2,.29-1.95.64-2,.66-1,1.81-.82,1.89-1.34,1.56-1.44,1.49-2.08-.61-2.06.65-2.17.44-2-.94-1.58,1.4-1.35,1.62-1.94.72-1.51,1.41-2-.62-2-.25-1.87-1.22-2.12-.7-2,1-2.09.74-2,1.13-2.12-.79-1.54,1.58-2.2.12-2.12-1.07-1.45-1.88-2.1,1.13-2.41-.08-1.3-1.68-1.06-1.85L1303,394l-1.26-2-1.54,1.43-.69,2-1.79,1-1.83.89-1.44,1.39-.85,1.82-1.57,1.24-1.26,1.53-2.07.11-1.6,1.35-1.73,1.27-2.1-.39-2,.4-1.78.87-1.74,1.05-2,0-1.07-.21-.91-.6-1.16-.2-.92.76-1,.23-.66.84-1,.32-.61.89-1.09.17-.92-.62-1,.35-.94.4-1,.09-.92-.44-1.1-.1-.64-.89-1.09.2-.91.61-.89.69-1.11.14-1.17.33-1.18-.3-1-.62-.63-1-1.09-.24-1-.38-1-.76-1.19.31.14-1.19-.51-1.08-.72-.91-.83-.8-1.13.8H1244l-1.14-.67-1.06-.78-.07-1.29-.54-1.18-1.07-.69-1.06-.71-1.12-.23-1.13-.29-1,.62-1.21-.06-1.08.41-.78.85-1.13.25-1,.59-1.17.4-.45,1.15.14,1.15-.47,1.06-1.22.09-.73,1-.61,1-.36,1.06-.9.75-.48,1.06-1,.54-.95.64-1.08-.59-1.17-.39-.9,1h-1.33l-1,.52-.65.92-.87.7-.53,1-1.2.21-1.14.41-.11,1.27-.87.93-1.19-.15-1,.58-1.22.23-.65,1.05-1.11.48-1.13.45-1.32,0-.89-1-.92.89-.06,1.28-.68,1.13.45,1.24.38,1.25-.72,1.1.39,1.16-.23,1.2-.5,1.18-.81,1-1.31.05-1.09.75-.84,1-1.12.67-1.23-.71-1.33.51-1.22-.52-1.26.38-1.08-.7-.59-1.13-1.16.25-1.1.49-1.06-.71-1.26.18-1.07.51-1,.68-1.18-.42-1.19.33-1.31-.16-1.17.62-.19,1.33-1,.89-1.21-.13-.92.8-.41,1.09-.88.75-.05,1.22-.91.79-1.1.32-.83.79-.84.71-.86.69-.43,1-.72.86-.76.81-1,.55-1.06.34-1.12.11-1.25.7-.84,1.16-1.25.89-1.5-.33-1.45.19-.93,1.14-1.2.72-.79,1.15-1.25.68-1.35.41-1,1-.55,1.33-.78,1.17-1.27.59-.57,1.33-1.31.6.41,1.64-.44,1.64-1.22,1.29v1.77l-1.25,1.13-1.64.32-1.64.33-1.26,1.1-1.44-.93-1.69.22-1.35-.95-1.65-.12-1.8-.16-1.43,1.08-1,1.33-1.09,1.28-1.65-.33-1.62-.41-1.56.57-1.66.29-.82-1.62-.68-1.67-1.83-.13-1.69-.71-1.64.22-1.64-.33-1.38.9-1.54.63.13,1.89-1.32,1.35-1.37,1.17-1.8.22-1.47-.8-1.46-.83-1.82.11-1.36-1.22-.36-1.91-1.7-.95-.47-1.76.5-1.76-1.61.13-1.55-.45-1.46-.6-1.54-.39-1.62.13-1.39.84-1.48.54-1.58.19-.9.95-.26,1.27-1.36.19-.78,1.11-.52,1.09-.36,1.16-.3,1.19-.69,1-1.39.36-1.29-.6-1.06.83-1.32.37-1,1.06-1.44.36-.59,1.35.18,1.47-1.15.37-1.18.15-1.2,0-1.11.5-1.2.48-1.28-.15-1-.74-1.17-.47-1.3-.05-1.22.5-1-.86-1.25-.38-1,.69-1.2.28-1.23.06-1.09.55,1,.87.17,1.28.42,1.16.81.93.68,1.16.26,1.33-.48,1.26-.8,1.07-1.19.65-.23,1.34-.23,1.2L1054,490l-.72,1.21-1.4.25-.74,1.2.47,1.34-1.35,0-1.26.41-1,.9-1.13.66-.14,1.31-.75,1.09-.68,1.09-.59,1.13-.17,1.27.46,1.2.55,1.12.35,1.2-.73,1-.64,1.1-.28,1.26.08,1.28.61-.74-.2-.93-.6-.63-.36-.79-.8-.19-.75-.32-.71-.44-.38-.75-.83-.2-.5-.69-.87-.11-.68.55-.64-.46-.79.07-.43-.67-.76-.2-.75.2-.48.58-.64.45-.77-.09-.59-.6-.83-.07-.7.34-.76.22h-.81l-.51-.62-.58-.43-.56-.46-.54-.66-.81-.21-.74.31-.77.24-.47.48-.45.52-.62.29-.44.55-.65.17-.65.16-.67.12-.62.29-.42.58-.11.7-.55.42-.48.51-.66.2-.65.21-.49.49-.64.28-.72.25-.78,0-.59.46-.63.45-.58-.54-.73-.3-.78.19-.79,0-.54.57-.19.76-.83-.09-.61.59-.75.28-.25.76-.33.65-.22.68-1.49.91-1.76.08-1.25,1.31-1.78.21-1.74.7-.81,1.67-1.69.44-1.66.52-1.95.14-1.57,1.19-1.95,0-1.69-1-1.54,1.08-.74,1.73-1.26,1.39-1.78.6-.62,1.74-1.51,1.07L979.5,529,978,530l-.64,1.77-.86,1.68,1,1.67.07,1.93-1.48,1-.93,1.55-1.59,1-.58,1.77.2,1.84-.87,1.62.07,1.77-.43,1.73-1.38,1.32-1.83.57-1.85.17-1.86.21-1.69-.68-1.52-1-1.15-1.65-2-.18-1.17,1.55-.24,1.93-1.74.8-1.25,1.45-1.91-.32-1.85-.58-2,.41-1.44,1.4-.4,1.71-1.19,1.29-1.18,1.42-1.85.11-1.72.15-1.19,1.25L938.4,562l-1.8-.08-1.13,1.37-.83,1.57-.59,1.82-1.72.84-1.61-1.21-1.93.56-1.91-.15-1.57,1.1-1.41,2.25-2.48,1-2.57-.36-2.45.84-2.76.11-2.39-1.37-1.87,2-2.44,1.16-2.4.36-2.42,0-2.37.58-2.43,0-2.68,0L893,576.53l-2.34.66-2.33.68-2.19,1.84-.55,2.8-2.55.9-2.41,1.21-2.66.9-2.7.75-2.09,2.11-.26,3-2.51-1.26-2.71.71-2.45,1-2.56.56-2.45-1.23-2.66.66-2.59.35-2.53-.66-2.16-2.15-2.88-1-2.83,1-2.95.38-2.71.64-2.59,1-2.78,1-2.76-1-2.85.74-1.59,2.48L824.77,597l-2.88.7.18,3.1L819.84,603l-1.8,2.25-2.53,1.39-2.26,1.83-1.59,2.42-.74,2.78-.47,2.84,1.25,2.76L810.52,622l-.39,2.78.52,2.77-3-.3L805.11,629l-2.92,0-2.63,1.27-1.94,2.34-.46,3-1.56,2.73-3,1-1.51-.09-1.5.28-1.36.66-1.17,1-1.55-.1-1.19-1-1.49.13-1.46-.24-1.46-.77-1.65-.06-1.5.63-1.17,1.15-1.38.71-.61,1.45-1,1.19-1.46.48L770,645.79l-1.4.88L768,648.2l-.28,1.63-1.56.58L765,651.66l-1.58.66-1.64-.44-1,1.59.5,1.83.73,1.59,1.25,1.25L762,659.47l-1.75.56.31,1.83-.75,1.7-1.1-1.08-1.17-1-1.11-1.1-1.36-.74-1.62,0-1.34-.89-1.52-.19-1.51-.29L748,659.57l-1.54.55-1.65.5-1.52-.79-1.7.35-.76,1.55-1.47.75-1.61-.38-1.51.6-1.41.78-1.2,1.27.07,1.74-.39,1.76-1.62.75.73,1.56-.5,1.65-1.46.54-1.36.79-.85,1.31L727.17,676l-1.62-.2-1.52-.6-1.73.21-1.15,1.31,6-2,5.56-3.08,6.09,1.71,5.9,2.26,5.41,3.31,6.33.11,6-1.34,5.91-1.59,5.51-4.46,6.41-3.05-1.83-7.27,3.27-6.74,6.15-2.21,5.36-3.71,6.34-2.12,6.56,1.25,5.41,3.2,2.59,5.72h6L826,658.4l5,3.19,5.93-.26,5.76,1.06,4.39,3.89.84,6.63,5.07,4.36,4.58,4.79,6.59.75,5.91-2.27,6.1,1.74,5.19,4.07,6.48-1.28,6-1.25,5.88-1.71,3.64-5.13,5.51-3.05,3.27-5.08,4.17-4.39,5.2-3.06,4.78-3.69,6.53-2.55,7-.62,1.2-7.46,6.23-4.28,7.41,2,4,6.54,6.46-3.52,7.37.18,3.65,5,4.49,4.33,2.75,5.64,4.31,4.57,4.61,4.37,3,5.6,5.26,3.41,4.9,3.93,5,5.72,7.59-.19,4.86,4.91,5.91,3.58,5.48-4.4,6.7-2.1,6.32-4.42,7.34,2.36L1059,687l5.44-.76,4.37,3.86,5.79-.76,3.49,4.27,5.51.31,4.87,1.47,5.07.34,4.15-3.4,2.44-4.78,4.94-1.85,5.21-.93,5-2.22,3.78-3.89,1.46-5.13,1.18-5.21,4.79-.21,4.24,2.24,3.61-3.68,5.12.63,4.85,0,3.61,3.21,4.5,1.23,4.53-1.1,4.29,1.84,4.31,1.82,4.9-1.53,4.36,2.71,4.67-1.46,3.36-3.55,4.86.57,4.54-1.77,4.76-3,3.54-4.37,5.31,1.84,5.64-.05,5.16-1.47,4.53-2.91,1.45-5.21,3.26-4.32,5.26,3,6-.06,6.14-1.42,3.4-5.29,5,3.39,1.4,5.83,5.55,1,5.15,2.34,3.67,2.71,3.74,2.64,3.94,2.55,4.67.55,4.19,1.87,3.6,2.87,4.07,2.25,4.63.49,4.22,2.47,4.88.15,4.87,2,4.58-2.58,3.52,3.75,5.14.1,2.93,3.77,3.86,2.83,1.12-2,.54-2.23,1.32-1.9,1.9-1.3,2.17-1.53,2.55.79,1.4-1.93,1.53-1.83,2.11-.77,2-1,1.8-1.32,1.84-1.25,1.34-2.19-.37-2.54,2.48-.6,1.62-2-.34-2.42-.22-2.42,2.36-1.22.74-2.54.71-2.21,1.22-2,1.12-2.28,2.48-.6,1.9-1.31,1.63-1.64.59-2.26,1.4-1.87.46-2.73,2.44-1.31,2.45-.49,2.49.12,2.53.08,2.33-1,2.42-.53,2.42-.49,2.73-.28,2.08,1.77,2.57.9,2.45-1.19,2.59,1.37,2.08,2.06,2.91.06,2.88-.43,1.88,2.28-.32,3,1,2.53,1.38,2.37,2.22,1.13,2.37.8,2.44.51,2.5.06,1.19-2.42,2.14-1.67,2.81.79,2.38-1.69,2-1.13,2.26-.53,1.73-1.56,2.18-.83,2.5.56,1.93-1.67,1.75-1.83,2.52.16,1.49-2.32,2.26-1.6.14-2.76,1.13-2.51-1.3-2.4.2-2.74-1.57-2.2-.44-2.66-1.18-2.17-1.89-1.57-1.31-2.12-2.11-1.31-.53-2.65,0-2.7-2.74-.7-1.82-2.16-1.35-2.08-.94-2.3,1-2.29.16-2.5-.86-2.5,1.36-2.26-1.4-2-.55-2.37-.18-2.61-1.27-2.29h-2.8l-1.87-2.07.1-2.51-1.33-2.14-2.08-1.32-1.29-2.1,2.37-1.49.33-2.78.85-2.59-1.21-2.44-.68-2.47,1-2.37,1.62-2,0-2.58-1.2-2.19-2-1.43-2-1.6-.74-2.45-.59-2.6.73-2.57-2.16-1.59-1-2.49,1.25-2.46.37-2.75-.48-2.85-2.14-1.94,1.14-2.48,2.56-1,.19-2.81,2.33-1.6-.64-2.55.92-2.47-.27-2.62,1.28-2.3-.33-2.78-.61-2.74-2.54-1.19-2.42-1.41.9-2.28-1-2.21-1.67-1.52-1.47-1.7-.83-2,.15-2.16,1.22-2-.78-2.21-2-.65-1.46-1.55-2.06-.45-1.74-1.16-2.26-.24-2.26.3-2.19-1.05-.87-2.27-.16-2-1.35-1.49-.74-1.82.22-2,.14-2.18-1.31-1.76,1.14-1.71.93-1.84-.86-1.78-1.34-1.43-1-1.73-.41-1.92.64-1.85.15-1.95-.49-1.94.46-2-.58-2.09-.35-2.15-.18-2.37,1.64-1.72,1.77-1.21,1.84-1.1,1.5-1.61.66-2.09,1.8-1.59V429l1.57-1.55,1.08-1.93v-2.36l-1.68-1.65-1-2-.34-2.17.74-2.07-.84-2-1-1.93.46-2.13-1.42-1.52-.79-1.93-.47-2-1.2-1.71-1.72-1-1.58-1.25-2.13-.66-.84-2-1.47-1.39-1.34-1.49-.88-1.88-1.55-1.35h0"/><path id="path36895" class="cls-2" d="M311.71,512.82c-1.43-3.35-3.65-6.15-4.81-9.62-3.47-10.42,9.09-1.54,13.23-3.61,1.2-.6-1.25-2.38-1.8-3.61-1.94-4.25-4.3-15-.6-18.64,2.59-2.59,10.45,9.53,10.82,8.42,2.6-7.79-.8-12.44,6-19.25.8-.8,1.27-2.41,2.4-2.41,1.46,0,.29,3.07,1.21,4.21,2,2.54,4.29,6.1,6.61,8.42,1.29,1.29.31-3.62.6-5.41.81-4.84,3.83-8.17,7.82-10.83,1.58-1.05,2.92-3,4.81-3,.86,0,.61,16.83,3,14.43.69-.69.78-4.24,1.81-5.41,12.71-14.53,13.28,8.42,16.84,8.42.59,0,2.32-4.82,3-5.41,2.69-2.31,5.24-2.48,8.42-3,.58-.1,1.5-1.51,1.8-1.2,1,1-1.2,10.48-1.2,12,0,.8,12.42-6.23,15-3.61.74.73-4.56,11.67-3,13.23,2.83,2.83,11.77-4.6,15.64,1.2,1.57,2.36-5.49,12-4.21,13.23,2.69,2.7,15.6-4.88,18.64,1.21,2.11,4.22-11.43,11.16-11.43,13.23,0,1.11,6.83,2.07,7.82,2.41,19.25,6.41-.24,10-5.41,12.63-1.09.54,5.61,7.62,4.21,9-5.28,5.28-15.31-2.41-20.45-2.41-.23,0,.66,7.36.6,7.82a15.88,15.88,0,0,1-6.62,10.83c-1.91,1.43-12-13.83-12.63-14.44-1.75-1.75-.78,5-1.8,7.22-1.59,3.5-7.86,9.63-12,9.63-2.39,0-3-14.18-3-16.85a13.61,13.61,0,0,1-4.21,9c-3.75,3.75-14,6-13.83,6,1.41,0-1.79-7.17-1.81-7.22-.87-2.31-2.32-12-3.61-13.23-.66-.66-1.68,3.86-1.8,4.21a21.85,21.85,0,0,1-10.23,12c-4.53,2.27,0-15.67-1.8-17.44-.08-.08-6.23,6.34-11.43,8.42-18.93,7.57-6.62-9.22-6.62-12.63,0-.36-3.64,2-8.42.6-14.84-4.24-11-3.12-6.61-9,3.26-4.35,5.7-6.31,9-9.63Z"/><path id="path36897" class="cls-2" d="M111.17,393c-1.43-3.36-3.65-6.15-4.81-9.62-3.47-10.42,9.09-1.54,13.23-3.61,1.2-.6-1.25-2.39-1.8-3.61-1.94-4.25-4.3-14.95-.6-18.65,2.59-2.59,10.45,9.53,10.82,8.42,2.6-7.78-.8-12.43,6-19.24.8-.81,1.27-2.41,2.4-2.41,1.46,0,.29,3.07,1.21,4.21,2,2.54,4.29,6.1,6.61,8.42,1.29,1.28.31-3.62.6-5.41.81-4.84,3.83-8.17,7.82-10.83,1.58-1.05,2.92-3,4.81-3,.86,0,.61,16.84,3,14.44.69-.69.78-4.24,1.81-5.41,12.71-14.53,13.28,8.42,16.84,8.42.59,0,2.32-4.83,3-5.42,2.69-2.31,5.24-2.47,8.42-3,.58-.1,1.5-1.51,1.8-1.21,1,1-1.2,10.49-1.2,12,0,.81,12.42-6.22,15-3.61.73.74-4.57,11.67-3,13.24,2.83,2.83,11.77-4.6,15.64,1.2,1.57,2.36-5.49,12-4.21,13.23,2.69,2.7,15.6-4.88,18.64,1.2C235.38,387,221.84,394,221.84,396c0,1.1,6.83,2.07,7.82,2.4,19.25,6.42-.24,10.05-5.41,12.63-1.09.55,5.61,7.62,4.21,9-5.28,5.28-15.31-2.41-20.45-2.41-.23,0,.66,7.36.6,7.82A15.88,15.88,0,0,1,202,436.33c-1.91,1.43-12-13.83-12.63-14.44-1.75-1.75-.78,5-1.8,7.22-1.59,3.49-7.86,9.62-12,9.62-2.39,0-3-14.17-3-16.84a13.58,13.58,0,0,1-4.21,9c-3.75,3.76-14,6-13.83,6,1.41,0-1.79-7.17-1.81-7.22-.87-2.32-2.32-11.95-3.61-13.23-.66-.66-1.68,3.86-1.8,4.21a21.85,21.85,0,0,1-10.23,12c-4.53,2.27,0-15.67-1.8-17.45-.08-.07-6.23,6.34-11.43,8.43-18.93,7.57-6.61-9.23-6.61-12.64,0-.35-3.65,2-8.43.61-14.84-4.25-11-3.12-6.61-9,3.26-4.34,5.7-6.3,9-9.62Z"/><path id="path36885" class="cls-2" d="M-55.51,395.62c-1.43-3.35-3.66-6.15-4.81-9.62-3.48-10.42,9.09-1.54,13.23-3.61,1.2-.6-1.25-2.38-1.81-3.61-1.93-4.25-4.29-14.95-.6-18.64,2.59-2.59,10.46,9.53,10.83,8.42,2.59-7.79-.8-12.44,6-19.25.81-.8,1.28-2.41,2.41-2.41,1.46,0,.29,3.07,1.2,4.21,2,2.54,4.3,6.1,6.62,8.42,1.28,1.29.3-3.62.6-5.41C-21,349.28-18,346-14,343.3c1.57-1.05,2.92-3,4.81-3,.85,0,.61,16.83,3,14.43.69-.69.78-4.24,1.8-5.41,12.71-14.53,13.29,8.42,16.85,8.42.59,0,2.31-4.82,3-5.41,2.7-2.31,5.24-2.48,8.42-3,.59-.1,1.5-1.51,1.81-1.2,1,1-1.2,10.49-1.2,12,0,.81,12.42-6.23,15-3.61.74.73-4.57,11.67-3,13.23,2.83,2.83,11.77-4.6,15.63,1.2,1.58,2.37-5.48,12-4.21,13.24,2.7,2.69,15.61-4.89,18.65,1.2,2.11,4.22-11.43,11.16-11.43,13.23,0,1.11,6.82,2.07,7.82,2.41,19.24,6.41-.25,10-5.41,12.63-1.09.54,5.61,7.62,4.21,9-5.28,5.28-15.31-2.4-20.45-2.4-.24,0,.66,7.35.6,7.81a15.88,15.88,0,0,1-6.62,10.83c-1.91,1.43-12-13.83-12.63-14.43-1.75-1.76-.78,5-1.8,7.21-1.59,3.5-7.86,9.63-12,9.63-2.39,0-3-14.18-3-16.84a13.67,13.67,0,0,1-4.21,9c-3.76,3.75-14,6-13.84,6,1.41,0-1.78-7.17-1.8-7.22-.87-2.31-2.33-11.94-3.61-13.23-.66-.66-1.69,3.86-1.8,4.21a21.89,21.89,0,0,1-10.23,12c-4.54,2.27,0-15.67-1.8-17.44-.08-.08-6.23,6.34-11.43,8.42-18.93,7.57-6.62-9.22-6.62-12.63,0-.36-3.64,2-8.42.6-14.85-4.24-11-3.12-6.61-9,3.25-4.35,5.7-6.31,9-9.63Z"/><path id="path36887" class="cls-2" d="M532,584.84c.51,3.61,1.94,6.88,2.16,10.54.66,11-9.19-.87-13.72.06-1.32.27.59,2.63.81,3.95C522,604,521.5,615,517,617.56c-3.18,1.83-7.64-11.91-8.28-10.94-4.52,6.85-2.45,12.22-10.79,17-1,.57-1.86,2-3,1.7-1.41-.38.51-3-.07-4.38-1.31-3-2.57-7-4.21-9.85-.91-1.57-1.23,3.43-2,5.08-2,4.46-5.81,6.9-10.35,8.43-1.79.61-3.6,2.15-5.43,1.66-.82-.22,3.77-16.42.83-14.72-.84.49-1.84,3.89-3.14,4.76-16,10.74-10.65-11.57-14.09-12.49-.57-.15-3.49,4.06-4.31,4.45-3.2,1.53-5.7,1-8.91.72-.59,0-1.84,1.07-2.05.7-.72-1.24,3.87-9.82,4.27-11.31.21-.78-13.6,2.8-15.46-.4-.51-.9,7.44-10.1,6.33-12-2-3.47-12.56,1.4-14.79-5.21-.91-2.69,8.39-10.13,7.49-11.69-1.9-3.3-16.33.68-17.7-6-.94-4.63,13.93-7.83,14.47-9.82.28-1.07-6.06-3.77-6.93-4.35-16.93-11.18,2.83-9.64,8.49-10.8,1.19-.24-3.45-8.81-1.73-9.8,6.47-3.74,14.16,6.28,19.13,7.61.23.06,1.27-7.27,1.45-7.71a15.89,15.89,0,0,1,9.19-8.74c2.22-.89,8,16.47,8.46,17.21,1.24,2.15,2-4.59,3.61-6.5,2.44-3,10.08-7.27,14.12-6.19,2.3.62-.77,14.47-1.46,17.05a13.6,13.6,0,0,1,6.4-7.62c4.6-2.66,15.05-2.2,14.92-2.23-1.36-.37-.13,7.38-.12,7.44.24,2.46-.85,12.14.06,13.71.47.81,2.63-3.29,2.83-3.6a21.89,21.89,0,0,1,13-9c5-1-4,15.14-2.77,17.31.06.1,7.66-4.51,13.22-5.17,20.24-2.42,4,10.62,3.12,13.91-.09.35,4-1,8.29,1.6,13.25,7.94,9.86,5.87,4.06,10.43-4.28,3.35-7.14,4.61-11.21,7Z"/><path id="path26360" class="cls-3" d="M-52.89,387.36l1.66.24,1.41.91,1.39.87,1.52.64,1,1.51,1.81.13,1.4.86,1.5.65.62,1.81.46,1.86,1.81.77,1.23,1.53,1.83-.74,1.9-.56,1.7,1,1.81.78-.66,1.86.54,1.91,0,2.08,1.6,1.33,1.47,1.22.57,1.83,1.34,1.3.85,1.66,1.85.5,1.88.33,1.49,1.25,1.2,1.5,1.88.71,1.65,1.18,1.94-.51,1.85-.75,2-.79,1.84-1L-7,413l1.4-1.85,1.4-1.51,1.6-1.29,2.09-.66,2,.91.89,1.87,2,.71,1.84.62,2,0,1.65-1.41,2.13.45,1.87.6,1.7,1,2.12-.1,1.39,1.6,1.78-1.15,2,.7,1.76,1.23,2.14.07,1.47-1.5,1.91-.83,1.05-1.52.71-1.71,1.85-.79.6-1.94.21-2,1.08-1.7,1.56-1.25L39,401l.47.86.62.76.75.62.82.54v1l-.21,1,.28,1-.51.91.62.84.58.87,1,.57,1.09-.24,0,1,.47.88.3.95-.22,1,.8.34.81.31.82.26.83.26.76.59.94-.2.8.35.72.49,1,.25.87-.5.72.64,1,.15.57.76.94.2.75.5.57.7,1-.09.92-.28.67-.69.42-.88.83.57,1-.06.72-.67.94-.28.68-.68.71-.64,1-.27,1,.27,1-.25.55-.81.23-.91.5-.79h.89l.89.14.88.07.89-.06.92.28,1,0,.69.68.45.87.76-.58.94.05.83.41.91,0,.78.51.91-.14.87,0,.83.26,1.22.27,1.14.49,1-.77,1-.66.69-1,.4-1.12,1.29,0,.91-.89.48-1,.62-.92,1.08-.33.8-.78,1-.48.68-.86.87-.6.9-.57.7-1,.92-.84,1.25-.07,1.23.18.4-1.09.85-.79.58-1.09,1.19-.31,1.21.43,1.12-.59,1.27-.16.68-1.09,1.18.08,1,.63,1.16-.41,1.11.53,1.08.64,1.23.28,0,1.33.84,1,1.22-.2,1,.68,1,.51,1,.52.67,1,1.25.15.8.83.46,1.06.42,1.08.91.71.89.7.83.73,1.06-.85,1.32-.33,1.35.12,1.22.56.74,1.07.74,1.06,1.11.66,1.23.42,1.14-.61,1-.84,1.15.66,1.31,0,1.29-.53,1.23.65.81-1,1-.82,2.21-3.93,1.6-4.22,2.48-3.94,4.11-2.17,5-.15,2.95-4,4.14-2.48,4.69,1.12,4.17-1.62,4.34-1,2.73-4.15,4.93-.42,4.53.27,4,2.1,4.49.1,4.25,1.44,3.79,1.86,2.67,3.29,3.49,2.43,4.23.56,4.22,1.16,4.3-.85,2.93,3.25,4,1.72,3.32,3.32,4.3,1.93,4.55-.72,4.63-.27.55,4.8,1.07,4.71,3.28,4.08,5.23.45,2.28,4.57-1.24,5,2.41,4.67,5.09,1.28,4.86.39,2.9,3.91,3.35,3.6,4.91-.38,4.06,1.42,4.29.37,4.29-.25,4.25.51,4.39,2.22,4.67-1.54,4.07,2.37,2.35,4.06-1.19,4.42,2.16,4,2.95,3.16,1.67,4,3.24,3,1.42,4.21.12,4.32-.05,4.32,1.84,3.91.7,4.27-.8,4.45,2.05,4-.89,4.84,2.25,4.39-4.2,2.61-1.65,4.65.52.82.48.84.93.33,1,0,.86.47.9-.38h.89l.85-.24.43-.79.54-.72.7-.55.72-.53.9.09.87-.24.75-.61.95.14.78.45.44.78.76.57.93-.14.95.11.77.57,1-.12.63-.77.8-.37.76-.41.29-.89.8-.48.83-.45.89.32h.86l.84.19.88-.19.88.16.67.64.91.11.94,0,.94.11.9-.46.39-.92.86.34.91-.09.45.78.55.7.87.31.36.85.89-.07.77.44.87-.23h.92l.46.81.78.49.81.3.4.76.3.8.68.49.85,0,.83.18.86-.35.83.4.59.81h1l0,1,.7.68.68,1.36,1.47.37.95,1,.65,1.23,1.33.71,1.37.61,1.61-.06,1.16-1.13,1.22.69,1.38.19.59,1.3,1.12.85,1.16-1,1.5.11,1.09,1.07,1.52-.11,1.32-.87.87-1.32,1.59-.51,1.48.82,1.43,0,1.29-.65,1.19-.89,1.49.12,1.54.76.58,1.62-.21,1.73,1.2,1.29,1.57.22,1.57-.34,1.69-.13,1.33,1,1.38.17,1.4,0,1.09,1,1.5,0,1.3.44,1.3.43,1.33.41,1.2.68,1.49,0,1.15.94,1.38.53,1.43-.39,1.3.55,1,1,1.22.69,1.26.57,1.37.71.85,1.28,1.08,1.08,1.45.45.71,1.55,1.62.53.53,1.49,0,1.59.95,1.21.48,1.46-.16,1.6.86,1.35-.29,1.47-.41,1.45-.82,1.39.33,1.58,3.48,2.06,2.36,3.26,4,0,3.86-1,3.62,1.22,3.73.77,2.91,2.6,1.53,3.6L473,575l4-.62,3.86.25,3.86.27,3-3,4.28-.36,1.28-4,3-2.86-.56,4,2.5,3.14,3.1,2.39.77,3.85,3.82-1.15,3.58,1.77,2.72,2.81,3.85.65,3.73-1.47,4-.34,4,1.1,2.51,3.35,1.41,3.73,3.6,1.72,1.81,3.31.5,3.73,2.83,2.1,3.51,0,1.89,2.75,1.89,2.75,3.13,2.15,3.69-1,1,3.44,2.72,2.36.33,3.79,1.51,3.5,2.85,2.87,4,.11,3.42-.4,3.44.32,2.91,2,3.54.26,2.88,2.56,3.86,0,3-2.13,3.65-.61,2.88,1.81,3,1.51,3.28,1.58,1.36,3.38,3.05,1,3,1.06,2.07,2.57,3,1.32,3.22.8,3.31-.25,3.09,1.26,2.38,2.33-7.73-1.39-7.33-2.8-7.38-3-7.95-.17-8.65-.65-7.6,4.2-6.32,5.65L570.84,652l-7.71-2.25-7.72,2.19-7.3-3-5.34-5.82-7.36-3.64-8.08-1.33-2.88-7.59-3.39-7.37-5.9,5.63-8.09-1.06-7.32,2.08-5.29,5.47-5.18,6-6.77,4-.69,7.78-1.91,7.58-6-6-8.21-2.09-8.14,1.09-7.74,2.71L445.55,663l-4.95,6.12-7.92,1.58-6.34,5-6.92-2.29-5.87-4.31-6.78,2.72-7.31.21-6.84-3.31-3.23-6.88-7.12-.91-7.1-1-6.42,4.6-7.91-.09-6.92-3-6.36-4L340.43,661l-7.6-2.37-4.54,5.91-5.86,4.6-3.57-6.5-1.46-7.27-3.78-6.64-6.77-3.55L302.3,639,300,631.65l-6.77-3.4-7-2.87L281,619.26l-8-.92-7.42-2.57-7.48,2.47-8.42,1.38-6.7-5.26-6.6,4.18-6.94,3.59-5.12-.53-3.28-4-4.66-1.06-4.72-.67-4-3.82-5.54.63L200,608.14l-2.74-4.25-5.51,1.16-3.67,4.27-5.33-1.06-4.54-3-4.64-1.71-4.93-.22-3.14-4-4.79-1.69H155l-5.61.8-4.33-3.71L141.91,590l-3.85-4.06-5.39-1.48-5.23,1.44L122,586l.21,6.09-4.14,4.47-3.14,4.82-4.79,3.19-5.69,2.67-4.18,4.7L95,608.07l-6.55.44-4.28-3.66-5.6.62-5-2.17-2.61-4.81L66,595.87l-1.21-5.43-2.93-4.14-3.73-3.46-3.9,4.22-5.75-.38-5.44.81-4.72-2.84-5.12,1.52-4,3.51-5.11-1.22-5.26.22L15.14,585l-5-1.44-3.68-3.73-5-1.52-5.14-.19-5.12.29-5.64-.76-4.15,3.88-5.1,1.27-5-1.54-4.86,1.5L-38,585.3l-1.91,4.9-4.34,3L-48.43,596l-4.46,2.34.9-2,.88-2-1.73-1.68.11-2.4-1-2.19.67-2.33L-55,584.51l-1.9-1.23,2.45.53,1.91-1.62,2.11-1.16.83-2.26,1.77-1.63.29-2.41-.64-2.18-.17-2.27-1.92-1.22-2.22.4-.41-2.24-1.85-1.31,0-2-.35-2-1.82-1.16-.56-2.09-.51-2,1-1.77.85-1.81-.36-2-.29-1.91-.43-1.87-1.68-1.27-.23-2.08.21-2-.75-1.91,1.33-1.55.58-1.94-.47-2.12.58-2.09,1.48-1.54,1.9-1-.43-1.86-.87-1.7-.56-2-1.82-1v-2.06l-1.54-1.36-1.47-1.29-.57-1.87.29-1.94L-60,513.2l0-2-1.14-1.64.07-1.87.23-1.86,1.49-1.23.81-1.74-.72-1.81L-61,500l-1.36-1.36-.48-1.85-1.13-1.7.43-2,.35-1.85.08-1.87,0-2.05-.58-2,1.89-1.14.52-2.14-.5-1.84-1-1.64-.73-1.76-.27-1.88-.77-1.86-1.92-.56-1.1-1.45-1.22-1.34-.33-1.93-1.52-1.21-1.73-.83-.94-1.67.15-2,.69-1.89-1.48-1.38-.86-1.84-.73-1.75.3-1.87-.83-1.69.11-1.88,1.16-1.81,2.15-.27,1.18-1.57,1.55-1.22-.82-2-.08-2.14,1.65-1.43.66-2.09.47-1.71-.48-1.71,1.19-1.35.19-1.78-.46-1.64-.2-1.69.2-1.68.27-1.68-.53-1.78-1-1.57.48-1.85-.55-1.82-.07-2,.53-1.95,1.41-1.53,2-.59.59-1.88,1.51-1.27,1.15-1.63v-2l-1.52-1.41-.79-1.92.19-2,.5-2,2-.34,1-1.82.86-1.65.71-1.72,1.85-.65,2-.1.57-1.95,1.55-1.31h0"/><path id="path26323" class="cls-4" d="M756.9-99.2l-1.17,4.82-4.2,2.67-1.44,4.57,1.18,4.64,1,4.63.14,4.73-1.22,4.9-4.16,2.86,4.14,3.1,5.15.5,4.83,2.7.88,5.47-2.16,4.72,1.58,5,2,4.45.82,4.82,5.1-.67,5.07-.94,4.07,3.15,4.06,3.18-1.9,5.16,1.94,5.13,3,4.34,4.52,2.7,2.72,4.06.91,4.79L791.85.61,790,5l1.79,4.15L793,13.52,796,17l3.21,3.17,1.74,4.34,3.49,3.12-1.15,4.87,2.91,4.08,2,4,2.06,4,1.62,4.21,2.77,3.56,4.11,2.88,2.61,4.3L826,60.87l4.24,2.59,4.93,1.05,5,.16,3.45-4.41,5.6.06,3.24,3,2,4,3.31,3.52,4.8-.39.35,4.32,2.46,3.57.9,4.29,3.12,3.08,3,3.8-.33,4.82,4.79.67L880,98.67l3.73,3,.82,4.71L883,110.64l-.22,4.52,1.52-.37,1.56-.08,1.51.86,1.61-.69.29-1.65,1.41-.94.54-1.52,1.3-1,1.64-.43.85-1.45,1.44.6,1.55.26,1.35-.42,1.19-.76,1.42,0,1.32-.56,1.55.19,1.52-.33,1.55.23,1.33.85,1.53.44,1.48-.56,1.59-.55,1.41.91,1.69-.48,1.1-1.37.94-1.51-.21-1.76,1.62-.37,1-1.36,1.73.21,1.21-1.26,1.59.53,1.63-.28,1.73-.32,1-1.45,1.57-.27,1.42-.77,1.51.59h1.6l1.25,1.18,1.62.55,1,1.43,1.58.73,1.58-.79,1.74.37,1.69-.17,1.51-.8,1.66.41,1.66.37,1.51,1.17v1.91l1.34.81,1.07,1.15,1.23,1.08,1.63.14.93,1.35.17,1.63-.16,1.65.78,1.47,1,1.2.93,1.29,1.13,1.12,1.23,1,1.55,2.85,2.52,2,3.42.21,2.32,2.53,2.25,2.15,2.29,2.11,1.15,3.11,2.9,1.61,2.94,1.19,2.52,1.92,2.67,1.89,3.28.14,3.39,0,3.13-1.31,3.15,1.2,2.71,2,3.64.13,2.11,3,3.4-.26,3,1.7,3.55.38,2.85-2.14,3.25.67,3.29.45,3.79.09,2.31,3,3.52.29,3,1.87.93,3.67-.72,3.71,3.78,1.37,1.59,3.7,1.8,4.29,4.3,1.8,4.32-.12,4.3.08,3.52-2.05,2.75-3,3.76-1.45,3.73-1.48,3.23-2.26,2.16-3.29-1.69-4,2.13-3.75,2.11-3.27,3.68-1.23,3.47-2,.74-4,1.95,3.45.75,3.9,4.33-.32,3,3.15,3.53-1.68,3.63,1.46,3.62-.55,3.51,1.08,3.26,2.23,2.68,2.92,3.89-.66,4,.07,3.58-2.33,1-4.16,3.88-1.15,4,.32-.53-1.74.48-1.75,1-1.43,1.52-.92,1.48-.58,1.53-.46,1.49-.6,1.58-.26,1.63-.48.64-1.58v-1.55l.51-1.47.61-1.38,1.22-.89.62-1.32.58-1.34,1.58-.45,1-1.3,1.56-.14,1.55-.17,1.44-1,1.68.54,1.26,1,1.59.31,1.59-.14,1-1.23,1.41-.42,1.33-.67,1.65,0,1.18-1.14,1.12-1.08.72-1.37,1.26-1.12,1.69,0,.69-1.48,1.36-.91.73-1.34.89-1.25,1.08-1.14.47-1.49,1-1.4,1.3-1.15,1.75-.27,1.7.42,1.81.08,1.06,1.46,1.62-.19,1.63,0,.18-1.61,1.14-1.16,0-1.67,1.26-1.11,1.51-.47,1.24-1,1.58.08,1.51-.45.71-1.33.7-1.33.54-1.45-.11-1.54,1.56-.3,1-1.26,1.5-.45.94-1.25,0-1.43-.79-1.21.27-1.44-.74-1.28.18-1.45,0-1.47,1.25-.84.7-1.34-1.55-.29-.88-1.3-1.5-.51-.66-1.44-1.21-1.17-.12-1.68.23-1.6.92-1.34-1-1.08-.32-1.41.68-1.38-.58-1.42-.32-1.46.63-1.36-.31-1.45-1-1-.79-1.47-.28-1.64,1.19-1.23.38-1.66,1.45-.53,1.43-.58.72-1.46,1.45-.74-1-1.17-1-1.17.53-1.5-.3-1.56-1-1.22.28-1.57.35-1.41,0-1.45-.65-1.33-.86-1.2-1.26-.76-1.24-.78-.75-1.41-1.56-.35-1.26-.85-1.54.07-.73-1.5.54-1.57-1-1.15-.94-1.21.59-1.57-.3-1.66,1.76-.29.94-1.5-.24-1.61-1.38-.83.73-1.4-.4-1.52.64-1.24.73-1.18-.25-1.52,1.06-1.14-.83-2.19-1.86-1.46-2-1.21-1.22-2L1198,8.47l-2.4.46-2.36-.67-1.47-2-2.47-.16-2.45.43-1.56-2.17L1182.62,4l.29-2.65L1181.57-1l-2.75-.46-1.42-2.41-.84-2.67-2-2-2.49-1.18-2.74-.26-2.42,1-2.63-.18-2.68.32-2.35-1.29L1157-11.76l-2.75-.57-.53-2.77-1.7-2.25-.39-2.67,1-2.5-1-2.43-.12-2.64-.5-2.47-1.77-1.8-1.79-1.64L1146-35.41l-1.66-2.38.91-2.75-1.52-2.3-2.62-.83-2-1.8-.93-2.55-1.95-2.17-2.91.14-2.42,1.33-2.73.47-3,0-1.88-2.36-1.73,2.12-2.63.75-2.59.45-2.62.06-2.54-.69-2.55-.72L1106-50l-1-2.68-2.23-1.45-2.66.15-1.49-2.11-2.2-1.34L1095-54.94l-2.65,1.13-2.92.54L1087-55l-2,.71-2.09-.25-2.23,0-1.55-1.6-2.06.25-1.61,1.3-2.07-.39-1.87,1-2.23.29-1.94-1.14-1.81,1.12-1.58,1.44-1.36,1.73-2.16.36-2-.19-2-.29.59-2.24-.53-2.27-.37-2.24-.93-2.07-1.09-2-1.3-1.82-2.08-1.15-.86-2.22-2.36-1-2.43.81-2,1.66-2.56,0-1.47-2-2.41-.67L1035.45-70l-2.35-.92-2,0-1.87-.65-1.68,1.1-2,.27-2.17.21-1.57-1.51-.67-2-1.65-1.25-1-1.91-1.27-1.74-2-1.2L1013-79l-1.94.36-1.85.67-2,.26-1.6,1.29-1.64-.87-1.65-.89-1.76.7-1.91,0-1.26-1.46-1.91-.22-1.85.7-1.74-1-1.88-.27-1.73.77-1.55-1-1.86-.26-.83-2-2.06-.59-1.87.63-2-.13-4.25-.38-4.21.59-1.54,4.27-4,2.12-4,.29-3.67-1.78-3.6,2.21-4.15-.82-4-1.41-2-3.73L938.78-82l-3.6-1.67-3.62,2.31-4.25.7L923.8-83.2,919.58-84l-4.67,0-3.72-2.79L907.12-89l-2.55-3.8-1.18-4.3-2.34-3.81.64-4.44-.88-4.4-2.54-4-4.54-1.22-4.65-.59L886-119l-4.69.74-4.6-1.2-4.16,2.18-3.27,3.39-1-4.35-2.52-3.7-4.14-1.62L858-126.3l-3.84-2.77-2.46-4L847-134l-4.53,1.54-3.35-3.36-4.69-.6-3.7,2.87-4.68.32-4.33-1.17-4.47-.35-2.84,3.67-4.35,1.62L806-130.85l-4.21,1-4.13-1.34-4.18,1.14-2.06,4.35-4.71,1.08-4.17,1.87-4.45-1.06-.75,4.27-2.85,3.27L771-114l-3.16,2.76-.79,4.37-3.57,2.64-4.35,1.12L756.9-99.2h0"/><path id="path23788" class="cls-4" d="M978.51,42.23,979.9,47l-2.3,4.41,1,4.68L982,59.51l3.2,3.49,2.49,4,1.39,4.84-2.18,4.56,5.14.63,4.71-2.15,5.54-.07,3.5,4.29.49,5.17,3.84,3.49,4,2.85,3.12,3.77,4.09-3.14,3.92-3.34,5.1.69,5.1.73.94,5.41,4.24,3.48,4.75,2.27,5.27.07,4.38,2.16,3.19,3.69.52,4.75.63,4.75,3.62,2.69,3.23,3.16,4.25,1.52,4.37,1.14,3.68,2.89,4.58,1,1.44,4.79,4.56,2.08,3.71,2.47,3.76,2.39,3.51,2.84,4.18,1.7,5,.44,4.41,2.42,4.81-1.15,5,.13,4.8-1.56,4.44-2.38.78-5.54,4.88-2.75,4.31,1,3.68,2.45,4.63,1.4,4-2.75,2.46,3.57,3.92,1.86,2.93,3.27,4.23,1.1,4.47,1.82,2.13,4.34,4.48-1.82,4.53,1.68,4.73.72,3.06,3.67.84,4.44,2.07,4,1.13-1.08,1.32-.85h1.73l1-1.4-.57-1.58.75-1.51-.29-1.59.64-1.49,1.2-1.19,0-1.68,1.54-.21,1.48-.54,1-1,.65-1.25,1.22-.74.86-1.15,1.43-.61,1.16-1.05,1.46-.57,1.57.07,1.54-.38,1-1.23,1.11-1.27,1.67.08,1.23-1.25.26-1.74.06-1.77-1.06-1.42,1.22-1.14.17-1.67,1.6-.68.42-1.69,1.64-.34,1.28-1.06,1.34-1.14.12-1.75,1.23-1,.84-1.36,1.6-.25,1.4-.8,1.67.4,1.67-.33,1.57.74,1.73-.16,1-1.47,1.7-.55,1.38-1,.9-1.45,1.65-.48,1.62-.51,1.89.26,1,1.66,1.56,0,1.5.47,1.61.32,1.48-.7,1.48.71,1,1.32.7,1.51,1.4.88,1.5.52,1.45.66,1.54.4,1.57.25,2.77,1.69,3.2.51,3.07-1.52,3.27,1,3,.73,3,.69,2.55,2.11,3.32-.06,3.14-.43,3.14.4,3.26.3,2.91-1.52,2.91-1.74,2.06-2.7,3.32-.53,3.35.36,3.22-1.7,3.31,1.53,2.82-1.93h3.41l3.26-1.44,1.4-3.29,3.16-1,3.06-1.25,3.33-1.82,3.5,1.43,3.19-1.5,3.51.12,2.64,2.72,1.23,3.57,4-.7,3.23,2.41,3.71,2.82,4.61-.6,3.68-2.26,3.77-2.08,2-3.54.89-4,2.52-3.13,2.5-3.15,1.66-3.57.23-3.93-3.45-2.6,0-4.31.19-3.88,2.57-2.91,2-3.5-1.34-3.8,3.41,2,2.6,3,3.59-2.45,4.16,1.24,2.21-3.22,3.88-.55,2.86-2.29,3.57-.82,4,.31,3.77,1.18,3-2.51,3.46-1.92,1.94-3.81-1.18-4.12,2.78-2.93,3.66-1.75-1.32-1.24-.47-1.75.19-1.77.86-1.56,1-1.24,1.08-1.16,1-1.27,1.23-1,1.18-1.23-.24-1.68-.77-1.35-.29-1.52-.17-1.5.61-1.38-.12-1.46-.16-1.45,1.14-1.18.21-1.62,1.29-.91,1.25-.92.75-1.58,1.72-.37,1.62.27,1.53-.52,1.31-.92.29-1.58,1-1.07.82-1.25,1.41-.84.45-1.57.43-1.5-.06-1.55.53-1.6,1.47-.82-.14-1.63.72-1.47,0-1.53.14-1.53.37-1.52-.34-1.53.18-1.72.56-1.65,1.38-1.1,1.68-.49,1.61-.84,1.64.74,1.31-1,1.4-.83-.64-1.48.4-1.58-.8-1.47.54-1.58L1468.76-5l.58-1.47,1.41-.72,1.09-1.14-.06-1.51,0-1.5-.26-1.53-.86-1.27,1.2-1,.21-1.58,1.07-1.14.19-1.55-.74-1.23-1.29-.65-.49-1.38-1.27-.74-.58-1.35-.76-1.25.65-1.35,0-1.51-1.49.52-1.42-.68-1.55.31-1.29-.92-1.63-.41-.95-1.4-.6-1.5.12-1.62-1.38-.45-1-1.06-.1-1.53-1.21-.94-1-1.11-.13-1.49-1-1.1-1.42-.39-1.42-.88-1.06-1.28.42-1.66-.51-1.63,1-1.18.94-1.22-.11-1.62.89-1.37-1.44-.51-1.44-.53-.29-1.56-1-1.2-1.48-.56-.55-1.49-.4-1.39-.74-1.26-1.23-.82-1.34-.61-1.47,0-1.47-.05-1.36-.85-1.52.48-1.52-.11-1.3.83-1.38-.93-.32-1.63-1.46-.48-1.42-.58-.27-1.66-1.1-1.28,1.38-1.14.07-1.76-1-1.28-1.62,0-.06-1.57L1426-76.67l-.07-1.39,0-1.39-1-1.2.35-1.5-1.82-1.49-2.33-.33-2.34,0-2-1.12-2.46.08-1.85,1.61-2.38.59-2.25-1-2.23,1.1-1.91,1.59-2.42-1.1-2.5.94-1.07-2.44L1395.39-85l-2.62,1-2.42-1.38-2.07-1.88-2.69-.73-2.74.23-2.51,1.14-1.59,2.09-2.37,1.16-2.15,1.61-2.69.06-2.79-.33-2.67.88-1.84-2.13-2.6-1.09L1360-86.57l-.38-2.67-2.11-1.59L1356.05-93l-1.67-1.9-2.43-.67-2.37-.52-2.25-.91-2.63-1.23-.58-2.84-2.47-1.23-2.68.59-2.65-.55-2.08-1.74-2.77-.9-2.45,1.57-1.44,2.36-2.13,1.77-2.62,1.49L1320-98.87l-.44,2.71-1.91,2-2,1.68-2.24,1.36-2.55.67-2.56.66-2.85.14-2.17-1.85-2.65-.13-2.23,1.45-2.35-1.07-2.57-.06-.08,2.88-1.73,2.3-2.26,1.93-3-.25-1.36,1.6-1.93.83-1.91,1.16-2.14-.62-1.67,1.25-.74,1.93-2,.7-1.12,1.8-1.78,1.37-2.25,0-1,1.88-.65,2-.31,2.17L1265.91-67l-1.85.86-1.9.76-.6-2.25L1260-69.33l-1.45-1.76-1.83-1.33-1.93-1.15-2-.93-2.37,0-1.86-1.5-2.53.35-1.69,1.91-.86,2.42L1241.17-70l-2.29-1-2.42.62-2.13-1.36-2.5.38-1.69,1-1.94.38-.9,1.78L1225.72-67l-1.78,1.27-2.11-.53-1.56-1.34-2-.26L1216.38-69l-2-.88-2.33,0-1.69,1.62-1.5,1.28-1.27,1.51L1206-64.26l-.74,1.92-1.86.07-1.87.06-1.17,1.48-1.64,1-1.82-.64-1.76.77-1.26,1.53-2,0-1.77.71L1189-55.8l-1.85-.1-1.74.7-1.71-1.3-2.08.52-1.3,1.48-1.77.87-3.88,1.8-3.34,2.61.8,4.47-2.42,3.84-3.37,2.28-4.06.3-2,3.71-4,1.37-4.16.76-3.62-2.21-3.87.87-4,.36-2,3.81-3.33,2.73-4.3-.44L1127-26l-4.07,2.29-4.61-.55-4.58.22-4.11-2-3.17-3.14-3.93-2.12-1.66-4.17-3-3.36L1093.71-41l-4.55,1.21L1084.84-38l-4.44-1.54-3.7,3-4.58,1.26-2.51,4-1.14,4.57L1065.38-30l-4-1.94-4.39.66-4.41-.57-4.7-.47-4.15-2.25L1039.18-33l-3.15,3.6-4.58-1.23-4.36,1.82-1.77,4.34-3.9,2.61-4.33,1.15L1013-18.73l-.62,4.59-3,3.58-4.24.82-3.15,3-4.24.91L994.78-2.8,995.17,2l-3.54,3.28L989,9l-4.39,1.31,1.49,4.08-.83,4.26-1.91,3.73-1.35,4,1.5,4.18-1.77,4.07-3.21,3.14,0,4.49h0"/><path id="path23790" class="cls-4" d="M-42.68,58.48-41.29,57l1.8-.39L-38,55.37l1.54-1.09,1.79-.3,1.55-1.16L-31.91,51l1.93-.09,1.84.48,1.72,1,1.88.08,1.8.74,1.61-1.58L-20,49.48l2,.15,2-.44-.24,2.68,1,2.43,1.72,1.62.7,2.57L-11,60.13l1.43,2.21,2.38.9,2-1.78,1.49,1.68,2,.15L.08,61.75l2,.75,2,.77,1.51,1.79,2-.44,1.76-1.33L11,64.79l.33,2.5,0,2.42-.85,2.17.11,2.29L11.71,76l.55,2.12-.1,2.23L12,82.88l1.25,2,1.4,1.76,2,.4.18,2.31.93,2,1.15,1.78,1.58,1.17.67,2.5.72,2.47,2.22.18,1.66,1.84L28,101l1.67,1.86,2-.69,1.76-1.36L35,102l1.28,1.69.63,2.18.42,2.25.76,2.16,1.72,1,1,1.88,1.56,1.1,1.9-1.67,2.31,0,2.26-.16,2-1.4L52.87,112l1.76,1.73L56.26,116l2.46-.24,2.43.83L63.6,116,65,118.57l2,1.89,2-2,2.46.5,2-1.5,1.81-1.76,1.65-2,2.3,0,1.25-2.42,2.25-.62,2.14.56,2.09-.84,2.16-1,2.08,1.23,2.27-.48,1.34-2.34,2.23-.9.88-2.74,2.16.34,2.17-.14,2.15-.61,1.82-1.56,2.73-.37,1.9-2.47,1.89-2.43,2.68-.56-.07-3.53,1.91-2.57,1.49-3.08-.91-3.41L119.57,81l1-3.42,3,.78,2.57-2.17,2.93.4,2.69-1.51,3,1.11,1.34,3.56-.56-3.37,1.08-3.16,1.7-2.49L139.8,68l2.35-1.69,2.69-.25.84-3.36L148,60.8l-1.45-2.62-1.1-2.88-.27-3.42-2.09-2.2-1.46-3.11-.25-3.6.69-3.64,2.37-2.26L147,38.74l2.89,0,2.48,2.17.68,3.7,2.92.21L158,42.12l2.74.1,2.4-1.66,2.74,1,2.78-1,1,3.51,2.7,1.58,1.61,3-.73,3.47,1.53,2.65,1.43,2.73,2.48-.75,2.1,1.77,2.16,1.12,2.18,1,2,1.53,1.66,2.12,1.87,2.12,2.52,0,2.3-.91,2.35.56,2.34.2,2.28.65,2.18-1.08,2.24-.77,2.37.07,2.24-1,1.44,2.86,2.31,1.76,2.08,2.2,2.7.49L222.1,74l2.47,1.7-.19,3.6,1.07,3.35,3.06.2L230.65,80l2.81,1,2.79-1.06,3.14-.46L242,81.82l.84,3.74,2.35,2.52.73,4-1.71,3.44-2.7,1.77-1.86,3.05,1.95,3,.28,3.89.18,4-2,3.13.44,3.59.53,3.58,1.38,3.18,1.26,3.28,1.29,3.7,2.08,3.07,3.13.78,3.18,0,4.54-5.37,2.18-7.34,4.12-5.71,2.59-7-.69-9.08,4.72-6.92,7.34.26L283,87.52l1.89-8.71,5.89-5.12L296.74,68l.25-9.37,6.57,4.28,7.4.19,7-2.75,5.67-5.9,3.79-7.28,1.47-8.51L335,34.28l7-.33,6-2.76,3.79-6.49,3.27-7,6-3.06,4.08-7.17L368.3-.43l6.86-2.44,5.59-5.52-.57-8.52,1.26-8.4L382.81-34l-2.55-8.22,7.12,2.46,6-5.45,7.38-.55L405-53.35l3.63,8.18,7.36,1.31,6.61,1.31,6.33,2.76,6.56.21,6.48,1.17,3.22-8.2,7.11-1.93,3.94-6.72,6.58-1.21,5.92-2.05,5.75-2.72,6.44-2.58,6.62,1.6,6.59-1,6.48,1.77,6.65-1.6,5.46-5.08,4.6-6L522.65-79l7.27,3.19,7.17,3.49L536-61.62,542.09-54l6.59-4.62L555.39-63,563-61.53l6.83,4.37.08-1.23.26-1.2-.29-1.21L570-62l.15-1.31.18-1.3-.72-1-.49-1.19.41-1.16,0-1.25.07-1.24.14-1.23.33-1.27,0-1.33-.83-.91-.3-1.31-.32-1.56-1.18-.62.06-1.44.2-1.41L567-82.7l-1-.58-.89-.81-.37-1.31L564.35-87l.71-1.39.58-1.47,1.26-.4-.31-1.33-.39-1.29.25-1.45-.61-1.28.95-.61.38-1.23.49-1.12.83-.73.76-.84.49-1.13.76-1,0-1.37.26-1.35-.13-1.39,1.17-.41.48-1.4-.12-1.3-.35-1.24.62-1.15-.14-1.38.41-1.5,1-1,1.22.68,1.17-.76.94-1,.27-1.48,1-.78,1.13-.24-.29-1.33,0-1.38.44-1.39-.53-1.35-.26-1.42.49-1.32.81-1.08,0-1.5-2.08-1.22-2.25.44-2.25-.17-2.1.95-2.4,0-1.53-2.33-2.18-1L564-135.79l-2.25-.2-1.91-1.48-2.13-.73-1.81-1.57-1.29-2.8.47-3.18-2.38-.86-1.8-2.14-2.27,0-2.25.45-2.52-.13-1.48-2.56-2.05-1.5-2.35-.39-2.05-1.86-.29-3.18-2.44.48-2.4.68-1.35,2.66-2,2-2-2-1.77-2.21-2.52.88-2.46-1.08-2.3-.46-2.19,1-1.73-1.84-1.95-1.47-1.75-1.66L507-162.28l-2.15-1.14-2.23.88-2.34.56-1.71,2.08-2.44.54-2-1.85-2.24.85-1.19,2.56-2.29-.14-2,1.41-2.28.25-2.24-.59-2.29.16-2.13,1L475.2-154l-2.53-.76-.81,3.06L469.68-150l-2.3-.22-2.26-.61-2.26-.6-2.29-.27.07-3.42-1.89-2.46L456.8-160l-2.71.05-2.92-11.25-8.77-4.27-8.22-4.09-5.19-9-9.47.89-7.84-6.76-8.17,4.67-8.29,4.32-8.16,2.53-8.39-.69L370-184.72l-6.5-7.36-7.85,3.88-6,7.49-8.2,1.3-8.22,1-7.41-6.11L317-183.11l-3.75-10.39L304.66-197l-8.16,5.12-6.34,8.23-7.53-7.76L273-190.21l-8.13,2.15-8.29-.68-4.94-8.71-7.66-4.63-7.85-4-7.82,4-5.8-7.52-8.27-1.15-9.16-.1-8.3-4.93-9.63-.19-6.91-8.46-9.83-4.21-9.61,5-9.25,6.08-3.58,12.32-1.17,11-5.15,9-7.27,5.89-5.88,8-.15,12L121-151.51,112.57-148l-6.41,7.78-4.51,8.7L95.21-125l-2.84,10L86-108,82.28-97.56,73.4-94.88,66.1-90.2,58.61-86l-9-2.12-9-1.56-9,4.79-4.34,11-7.89-4.67-7.72-5.11L3.58-79.26l-8.83.69-2.43.39-2.16,1.45-2.43.57-2,1.84-.94,2.87-.94,2.87-1.51,2.52-2.16,1.62,1.8,2.69-.28,3.51-1.43,2.7-1.46,2.68.69,2.85-.06,3,.45,2.88.51,2.86-2.11,1L-23-38.07l-2.07.93-2.19-.29-2.28-.44-1.69,2-2.15.6-1.44,2.08-.39,3.1-1.92,2-.36,3-1.39,2.45-2.52-.4L-43.35-21l-2.32.2-2.31.4.29,3.34,2.15,2,2,1.71,2.3,1.12.63,3.34,2.09,2.19L-36-5.45l2.65-.3,1.63,3-.5,3.61-.57,3.53L-35,6.66-32.44,8l.91,3.33,1,3,.78,3.06,1.63,2.78-.61,3.37L-29,26.79l-1.63,2.55-.31,3,.36,3L-28.89,38l-.59,3.27.05,3.41-2,2.3L-33,49.34-34.37,52l-2.44,1.77-2.76-.61L-42,55l-.7,3.47h0"/><path id="path23487" class="cls-4" d="M265.94-7.89a4.21,4.21,0,0,0-2.4.56c-11,11-16.63,134.78-23.82,159.92-7.05,24.69-10.9,50.41-17,74.85-14.56,58.26-1.87,118.27-13.61,176.93C198.9,455.4,197,516,154.66,550.68c5.19,2.59,66.06,29.21,68.05,27.22,9.6-9.6,1-77.66,3.4-91.87,11.95-71.69,25.13-143.18,38-214.61,50.3-60.81,70.51-113.36,84.47-197.09,2-11.86,21.86-56.4,10.2-68C339.17-13.37,318,109.45,318,125.37c0,45.5-25.55,66.42-44.23,92.37,4.65-26.26,9.24-52.51,13.61-78.76,3.31-19.87-3.31-41.39,0-61.25,4.18-25.05,23.82-85.06-10.21-85.06C275.6-7.33,269.46-8.08,265.94-7.89Z"/><path id="path26325" class="cls-4" d="M961.06,2.87C939,133.88,978,240.48,998.49,363.54c4.34,26.07-7.12,214.44,20.41,207.56,6.7-1.68,15.54,1.47,20.42-3.41,5.88-5.88-2.58-46.21-3.4-54.44-9.33-93.22-29-201.95-10.21-296,7.19-36,67.54-208.06,54.44-221.16-33.33-33.33-37.07,142.55-64.65,170.13-14.92,14.92-5.55,89.71-17,78.25-51.69-51.68,15.92-214.9-37.43-241.58Z"/><path id="path23607" class="cls-4" d="M1167.3,94.74c22.09,131-16.92,237.61-37.43,360.67-4.34,26.07,7.12,214.44-20.41,207.55-6.7-1.67-15.54,1.48-20.42-3.4-5.88-5.88,2.58-46.21,3.4-54.44,9.33-93.22,29-201.95,10.21-296-7.19-36-67.54-208.07-54.44-221.16,33.33-33.33,37.07,142.55,64.65,170.12,14.92,14.93,5.55,89.72,17,78.26,51.69-51.68-15.92-214.9,37.43-241.58Z"/><path id="path23605" class="cls-4" d="M11.76-34.55C2,25.89,18.54,88.11,11.76,149.18,5.21,208.1-40.18,474.93-1.85,513.25c5.07,5.07,14-3.59,20.41-6.8,10.35-5.18-6.8-22.46-6.8-34V370.35c0-120.48,23.81-234.64,23.81-357.27,0-24.42,5.52-62.3-23.81-47.63Z"/><path id="path23372" class="cls-4" d="M-49.49,499.64C41,444.12,336.37,561.57,416.66,601.72c31,15.52,72.36,5.33,105.47,13.61,15,3.76,26.3,14.1,40.83,17,27.52,5.5,57.23-10.36,85.07-3.4,32,8,149.91,16.91,176.93,3.4,11.07-5.54,17-22.67,30.62-27.22,40.13-13.38,96.28-16.55,132.7-40.83,12.53-8.35,26.21-21.21,44.23-27.22,12.27-4.09,28.24,3.15,40.83,0,17.12-4.28,30-18.45,47.64-20.42,34.77-3.86,77.61,11.7,102.07,6.81,32.48-6.5,74.55-6.91,105.48,3.4,128.61,42.87,101.07,42.08,85.06,170.13-2.58,20.7.8,87.67-13.61,102.07-5,5-55.13,0-61.24,0-139.44,0-278.65-13.61-418.51-13.61-260.79,0-519,54.27-779.18,30.63-41.24-3.75-150.34-.63-176.93-27.22C-47,777.77-61.2,609.23-56.29,584.7c5.48-27.4,13.91-56.64,6.8-85.06Z"/><path class="cls-3" d="M754.07,382.78c13.29-17.7,25.3-16.19,55.68-36.75,19-12.89,16.87-15.21,41.21-32.3,17.14-12,24.5-15.3,41.21-25.62,40.5-25,71-43.8,67.94-54.57-3.86-13.77-64.57-22.09-89.1,4.45-9.66,10.45-12.63,25.14-35,50.55-9.74,11.08-13,12.59-15.13,11.82-11.52-4.05,3.86-73,1.12-73.5-1.26-.24-5,14.11-8.91,28.95C799,309.37,797.36,313,794.16,317.07c-19.58,25.15-65.33,26.22-69,17.82-1.8-4.06,6.7-9.21,31.18-33.41,23.47-23.2,35.2-34.8,43.44-47.89,22.19-35.26,19.39-77.91,14.48-79.08-5.37-1.28-10.59,47.58-49,93.55a209.85,209.85,0,0,1-60.14,49,91.45,91.45,0,0,1-4.45-33.41c1.67-28.65,17.1-45,31.18-69.06,27-46.12,31.85-91.25,29-92.44C757,120.65,716,227.37,697.27,222.4c-3-.81-4.63-4.33-6.69-8.91-7.54-16.83,1.55-31.45,2.23-44.55,1.67-31.93-46.07-63.57-53.46-57.91-9.79,7.49,33.3,105.76,35.64,128.08a64.89,64.89,0,0,1,0,12.25,57.78,57.78,0,0,1-4.45,16.7,130.27,130.27,0,0,1-18.94-31.18c-11.26-26.37-10.34-49.1-12.25-49-1.66.09-5.15,17.44-1.11,37.87,5.57,28.23,19.81,35.54,15.77,48.8-3.73,12.24-22.11,20.06-36.93,18-9.21-1.27-15.58-7.7-25.62-17.82s-27.22-27.45-26.53-46.22c1.1-30.28,48.23-48.75,44.35-56.25-3.45-6.66-39.68,9.78-70.17-5.57-1.24-.62-1.35-.74-2.22-1.11-26.64-11.42-78,27.58-75.74,59,.45,6.29,3.24,15.12,39,43.43A595.77,595.77,0,0,0,570.3,316c-11.25,2.79-28.42,5.42-47.89,1.11-15.66-3.47-24-9.47-60.15-31.19-32.14-19.3-48.2-28.95-49-27.84-1.55,2.16,36.89,32.13,71.28,55.69,25.28,17.32,30.7,19.06,34.53,20,28.51,7.32,46.25-7.9,65.71,4.45,7.47,4.75,15.84,14,14.48,22.28-1.06,6.4-10,11.78-27.85,22.27-8.31,4.89-12.47,7.33-16.7,8.91-6.69,2.49-20.07,6.13-39,2.23a95.48,95.48,0,0,0,14.48,4.45c3.6.8,12.4,2.76,20,2.23,10.76-.74,12.18-5.91,31.19-15.59,23.72-12.09,31.17-9,33.41-7.8a17.16,17.16,0,0,1,6.68,6.68c13.88,22.88,8.49,81.62,6.68,108-3.36,49.19,1.59,45.86-3.34,57.91-10.12,24.79-27.88,33.63-71.28,66.83-15.64,12-37.72,29.51-63.48,52.34,6.94-1.09,16.49-2.6,27.84-4.45,18.32-3,27.48-4.48,33.41-5.57,33.74-6.2,46.65-11.55,47.9-8.91.84,1.78-3.67,7.06-30.08,23.39a201.58,201.58,0,0,0,64.6-5.57,199,199,0,0,0,34.53-12.25A162,162,0,0,1,696.15,669a115.17,115.17,0,0,1,10.56,7.13c8,6.16,11.89,9.46,14.5,11.37,5.56,4.07,15.37,7.37,34,3.36l55.67-8.49c-30.1-31.48-35.72-39.91-34.53-41.21,1.6-1.75,14.06,11,37.87,17.82a120.92,120.92,0,0,0,30.07,4.46c11.53.26,16.34-1.28,27.84-2.23a185.55,185.55,0,0,1,40.1,1.11Q887.7,647.27,862.1,630c-24.24-16.38-46.87-32.81-67.94-49-18.9-9.6-30.31-21.14-36.75-29-41.78-50.65-21.62-121.68-16.71-139.22C745.76,394.81,750.93,387,754.07,382.78Zm-69.61,39c-14.8-.54-22.77-12.62-24-14.48-5.92-9.32-4.88-18.85-4.45-22.27.17-1.4,2.3-16.59,15.59-25.62,3.23-2.19,8.94-6.07,16.71-5.57,9.74.64,15.84,7.73,17.82,10,7,8.14,7.53,17.52,7.79,22.27.35,6.29.94,16.81-6.68,25.62C698.36,422.06,685.27,421.79,684.46,421.76Z"/><path id="path23788-2" data-name="path23788" class="cls-2" d="M840.11,272.31l2.43-4.33,4.75-1.44,2.62-4,.11-4.79.26-4.73,1.13-4.6L853.9,244l4.78-1.64-3.15-4.1-4.83-1.87-3.93-3.89.62-5.51,3.35-4-.2-5.19L849.8,213l.51-4.86-5.1-.73-5.13-.46L837,202.85l-3-4.15,3.21-4.45-.49-5.47-1.7-5L831.33,180l-1.52-4.64.4-4.86,3-3.7,3-3.77-.61-4.48V154l-1.89-4.1L831.44,146l-.51-4.65-2.53-3.94,2.42-4.39-1.71-4.71-.83-4.37-.93-4.37-.43-4.49-1.71-4.17L822,107l-1.35-4.84-4.19-2.64-3.39-3.64-4.46-2.33-4.82-1.51-4.5,3.32-5.39-1.56-2.31-3.76-.83-4.34-2.24-4.28-4.74-.91.83-4.26-1.42-4.1.29-4.37L781.32,64l-1.83-4.47L781.1,55l-4.43-1.92-2-4.41-2.8-3.89.48-4.76,2.59-3.7L776.38,32,774.82,32l-1.53-.35-1.22-1.23-1.74.23-.72,1.51-1.61.52L767.07,34l-1.51.58-1.69,0-1.22,1.17-1.23-1L760,34.08l-1.41.05-1.35.41-1.38-.34-1.42.18-1.44-.6-1.56-.09L750,33.05l-1-1.18L747.61,31l-1.58.15-1.68.1L743.23,30h-1.75l-1.42,1-1.31,1.2L738.47,34,736.81,34l-1.31,1-1.61-.66-1.5.88L731,34.28l-1.65-.18-1.75-.16-1.34,1.14-1.59-.16-1.57.36-1.29-1-1.55-.44-.88-1.47-1.42-1-.56-1.64-1.32-1.13-1.74.34-1.58-.83-1.67-.29-1.67.37-1.49-.84-1.5-.8-1.14-1.54.53-1.83-1.08-1.15L704,20.71l-.89-1.37-1.54-.57-.53-1.55.27-1.62.59-1.55-.35-1.62L700.89,11l-.54-1.49-.8-1.38-.92-1.3-.72-3.17L696,1,692.79-.1l-1.55-3.07-1.59-2.67L688-8.49l-.27-3.3-2.37-2.33-2.51-1.94L681-18.59l-2.06-2.53-3.13-1L672.48-23l-3.36.42-2.71-2-2.08-2.64-3.47-1.1-1.23-3.44-3.35-.66-2.4-2.44-3.31-1.32-3.32,1.31-3-1.53-3-1.31-3.63-1.11-1.42-3.5-3.31-1.22-2.37-2.6.09-3.78,1.69-3.39L629-55.64l-.54-4-.58-4.62-3.65-2.88-4.2-1.05-4.12-1.23-3.94,1-3.46,2.15-4,.39-4,.42-3.71,1.31-3,2.59.56,4.28-3.06,3-2.9,2.58-3.88.2-3.9,1-1.77,3.62L578-50.61l.33-4L574-55.43l-2-3.83-3.85.67L565.05-61l-3.64-.44-3.09-2-2.54-3L554-69.95l-3.93-.41-3.8-1.13-4.08,1.28-2.11,3.73-4,.06-3.81-1.39,0,1.82-.92,1.56-1.4,1.09-1.72.48-1.58.16-1.59,0-1.6.17-1.59-.16-1.7,0-1,1.34-.42,1.5-.88,1.28-1,1.16-1.42.54-1,1.1-.92,1.13-1.64,0-1.31,1-1.55-.29-1.53-.25-1.66.57-1.47-1-.93-1.34L502-56.59l-1.57-.29-1.33.9-1.48,0-1.45.29-1.6-.42-1.44.78-1.37.74-1.06,1.12-1.52.75-1.61-.48-1.07,1.24-1.55.52-1.07,1.09-1.19,1-1.34.8-.86,1.31-1.36,1.08-1.56.75-1.76-.21-1.52-.85L472.59-47,472-48.73,470.36-49l-1.58-.42-.61,1.5-1.4.82-.49,1.6-1.51.72-1.58,0-1.47.61-1.5-.5-1.57,0-1,1.1-1,1.09-.91,1.25-.31,1.52-1.59-.14-1.27,1-1.56,0-1.24,1-.36,1.39.44,1.37-.65,1.32.37,1.43L448.94-31l-.36,1.42-1.42.48-1,1.1,1.41.7.51,1.49,1.3.89.25,1.56.85,1.45-.33,1.66-.66,1.48-1.24,1,.64,1.3-.07,1.45-1,1.14.18,1.53-.09,1.49-1,1.14-.08,1.48.72,1.29.37,1.63-.18,1.65-1.47.86-.81,1.51-1.54.12-1.53.18L441.26.29l-1.6.31.65,1.4.63,1.4L440,4.69l-.14,1.58.65,1.46-.69,1.43-.71,1.27-.38,1.4.27,1.46.51,1.38,1,1.07,1,1.08.34,1.57,1.41.75,1,1.16,1.5.35.3,1.63-.94,1.37.68,1.39.58,1.42-1,1.35-.15,1.68-1.77-.19-1.31,1.19L442,32.1l1.11,1.18L442,34.42,442,36,441,37,440,38l-.17,1.54-1.31.8.21,2.34,1.39,1.9,1.6,1.7.64,2.25,1.78,1.7,2.45.2,2.08,1.28.89,2.28,2.35.82,2.47.25.91,2.5,2.42,1.13-1,2.48.67,2.57,2.53,1.19.72,2.7.09,2.79,1.37,2.43,2.08,1.8,2.57,1,2.61-.32,2.48.88,2.66.4,1.92,1.88,1.73,2.23,2.5,1.29-.24,2.8,1,2.63-.34,2.67-1.65,2.14.35,2.62-.59,2.58L479,99.92l1.22,2.21,1.28,2.05.93,2.24,1,2.74-1.62,2.41.85,2.62,2.3,1.5,1.46,2.28.21,2.7,1.3,2.62,2.84.64,2.69-.62,2.75.28,2.9.83,1.18,2.78,2.24-1.58h2.73l2.62.26,2.54.64,2.26,1.36,2.27,1.37,2.09,1.93.2,2.84,1.76,2,2.6.56.87,2.43,1.76,1.89,2.11-2,2.86-.38,2.95.26,1.9,2.29,2.09-.15,2,.8,2.16.55,1.06,2,2.06.32,1.9-.83,1.89.94,2.07-.47,2.23.32,1.56,1.62,2-.59,1.91-1,1.77-1.29,2.18.23,1.91.72,1.87.83-1.18,2-.1,2.32-.25,2.26.34,2.25.53,2.18.76,2.1,1.7,1.66.23,2.37,2,1.57,2.55-.13,2.33-1.08,2.45.73.87,2.35,2.14,1.29.52,2.47,2,1.53,1.92.48,1.63,1.13,1.91-.61,2,.26,2.15.39,1.1,1.87.13,2.06,1.25,1.65.47,2.11.76,2,1.62,1.69,2.33.07,2,.18,2-.15,2,.3,1.88-.82,1.35,1.28,1.35,1.29,1.88-.19,1.86.47.82,1.75,1.78.72,2-.17,1.41,1.38,1.75.76,1.87-.28L624,192l1.72.75.27,2.13,1.83,1.12,2-.11,1.85.66,4,1.51,4.21.56,2.63-3.71,4.43-1,4,.81,3.06,2.7L658,196.3l3.78,1.9,3.46,2.44.95,4.13,3.33,2.16,3,2.57,4.12-1.26,4.28.48,2.69,3.37,3.85,1.95,4.48,1.3,2.84,3.68,3.35,3.12,1.44,4.34,0,4.46,1.23,4.3L699,239.35l-.32,4.47,1.37,4.49,4.05,2.4,4.32,1.82,2,4.24,4.72.55,4.1,2.39,4.6-1,4.06-2.39-.15,4.47,1.43,4.24,3.56,2.67,2.67,3.55,3,3.69,1.29,4.54,4.3,2.12,4.77-.27,2.33,4.13,4.36,1.84,4.33-1.77,4.59.95,3.86,2.3,4.21,1.53,3.72-2.77,4.63-.4,3.55,2.46,4.32.17,3.62,2.4,4.33,0,3.16-3.65,4.82.24,4.52-.69,4,2.22,1.87-3.92,3.63-2.38,4-1.25,3.78-1.81,1.93-4,4.15-1.59,4.49.09,3.18-3.17h0"/><path id="path23788-3" data-name="path23788" class="cls-2" d="M882.76,444.16l4.89-.85,4.13,2.77,4.76-.52,3.78-2.94,3.83-2.8,4.28-2,5-.85,4.29,2.67,1.19-5-1.61-4.92.53-5.51,4.65-3,5.2.09,3.9-3.44,3.27-3.62,4.08-2.68-2.67-4.41-2.88-4.27,1.25-5,1.28-5,5.48-.33,3.93-3.84,2.78-4.47.65-5.23,2.63-4.11,4-2.76h4.78l4.78-.1,3.09-3.3,3.49-2.86,2-4.06,1.61-4.21,3.28-3.34,1.46-4.45,4.92-.91,2.57-4.3,2.86-3.41,2.8-3.48,3.2-3.17,2.15-4,1-4.92,2.9-4.11-.62-4.92.68-4.92-1-4.94L999.4,302,994,300.66l-2.2-5.16,1.44-4.17,2.84-3.39,1.9-4.45-2.29-4.24,3.82-2.05,2.28-3.69,3.57-2.55,1.56-4.09,2.3-4.24,4.55-1.63-1.32-4.65,2.17-4.32,1.24-4.63,4-2.64,4.5-.34,4.23-1.61-1-1.25-.7-1.4.18-1.72-1.27-1.2-1.64.4-1.42-.92-1.61.12-1.41-.81-1-1.32-1.67-.21,0-1.55-.38-1.53-.92-1.06-1.18-.78-.61-1.29-1-1-.44-1.5-.92-1.26-.41-1.52.25-1.56-.21-1.57-1.11-1.13-1.14-1.24.26-1.65-1.11-1.36-1.7-.45-1.76-.26-1.52.9-1-1.33-1.63-.36-.51-1.67-1.64-.6-.15-1.67-.91-1.38-1-1.46-1.72-.32-.89-1.33-1.26-1-.07-1.62-.65-1.47.59-1.62-.15-1.7.91-1.47,0-1.74-1.36-1.13-.36-1.75-.83-1.48-1.34-1.06-.29-1.68-.33-1.67.46-1.85,1.76-.76.2-1.55.63-1.44.5-1.57-.54-1.54.87-1.4,1.43-.8,1.57-.53,1-1.3.68-1.43.81-1.37.57-1.48.42-1.54,2-2.56.86-3.13-1.18-3.22,1.4-3.13,1.06-2.93,1-2.94,2.38-2.3.31-3.31-.09-3.17.75-3.08.66-3.2-1.2-3.06-1.4-3.09-2.45-2.34-.17-3.36.73-3.28-1.34-3.39,1.89-3.13-1.61-3,.37-3.4-1.07-3.4-3.11-1.75L998,97.22,997.09,94l-1.44-3.51,1.81-3.32-1.14-3.34.51-3.47,3-2.33,3.69-.83-.26-4,2.75-2.94,3.21-3.38-.08-4.65-1.85-3.9-1.65-4-3.29-2.4-3.86-1.32-2.83-2.85L992.8,45l-3.37-2-3.88-.66-3,3.14L978.3,45l-3.84-.62-2.6-2.88-3.26-2.36-3.93.92,2.38-3.18,3.27-2.25-2-3.84,1.69-4-3-2.56-.12-3.91-2-3.1-.41-3.64.73-3.89,1.6-3.62-2.16-3.3L963.16-.9l-3.57-2.35-4.22.72-2.61-3.09-1.33-3.83-1.38,1.18L948.26-8l-1.74-.39-1.45-1L944-10.54l-1-1.21-1.15-1.13-.87-1.33-1.1-1.31-1.7,0-1.42.62-1.55.12h-1.51l-1.3-.76-1.46,0h-1.46l-1-1.27-1.59-.39L926-18.55l-.77-1.36-1.49-.92-.18-1.75.45-1.57-.36-1.58-.77-1.4-1.53-.46-1-1.13-1.14-1-.69-1.5L917-31.79l-1.44-.59-1.54-.11-1.54-.7-.65-1.56-1.64,0-1.38-.88-1.52-.13-1.5-.31-1.47-.54-1.56.17-1.7-.37-1.57-.73-.95-1.49-.3-1.73-.65-1.7.92-1.55-.84-1.4L897-46.94l-1.54.48L894-47l-1.55.63-1.52-.71-1-1.19-1.4-.75-.56-1.48-1-1.2-1.5-.11-1.51-.11-1.54.08-1.36.72-.91-1.31-1.54-.38-1-1.19L876-54.39l-1.31.6-.78,1.2-1.43.34-.87,1.19-1.41.42-1.32.62-1.28-.8-1.51-.11.36,1.54-.84,1.33.14,1.57-1,1.19-.59,1.57-1.5.79-1.55.43-1.6-.3-.6,1.32-1.16.86-1.54-.07-1.06,1.1-1.22.88-1.5,0-1.19.87-.55,1.37-1,1.31-1.39.92-1.6-.6-1.68.32-1.06-1.12-1.11-1.07-1.63-.07-1.25-1-.68,1.38-.68,1.38L837-35l-1.31.9-.71,1.41-1.55.38L832-32l-1.33.6-1,1.13-.75,1.26-.19,1.46-.22,1.45-1,1.26.31,1.57-.28,1.5.68,1.38-1.07,1.27-1.66.13-.64,1.4-.73,1.35-1.68.09-1.4.94-1-1.49L818.34-17l-1.38.86-.21,1.6-1.57-.11-1.24,1-1.38-.09L811.18-14l-1.3.83-1.45-.5L806.75-12l-.59,2.28-.31,2.31-1.33,1.92L804.32-3l1.4,2L806,1.42l-1.2,2.13.85,2.34L807.06,8l-1.36,2.29.65,2.59-2.54.79-1.57,2.16.68,2.71-1.64,2.26-2.1,1.84-1,2.59L798.09,28l.86,2.61,1.89,1.82.9,2.48,1.36,2.32-.23,2.67-.64,2.74.58,2.76-2.32,1.59-1.38,2.46-2.28,1.43-2.7.08-1.81,1.92L790,54l-2.07,1.45L787,57.8l-.78,2.29L785,62.23l-1.52,2.48-2.89.27-1.49,2.31.3,2.73-.85,2.58-2,1.87-1.2,2.66,1.3,2.61,2.18,1.68,1.53,2.31,1.19,2.78-1.41,2.67,2.64.73L784.58,92,786,94.21l1.11,2.38.38,2.61.37,2.62-.18,2.84-2.07,2-.43,2.62,1.21,2.38-1.33,2.21-.35,2.56,2.86.39,2.09,2,1.67,2.46-.58,2.92,1.45,1.52.61,2,.94,2-.85,2.06,1.06,1.79,1.84.95.47,2.06,1.67,1.31,1.16,1.92-.26,2.24,1.75,1.21,2,.87,2.13.55,1.2,1.83.65,1.94.54,2-2.3.35-1.86,1.39L801,153.36,799.5,155l-1.36,1.79L797,158.75l-.22,2.37-1.69,1.67.07,2.56,1.71,1.9,2.3,1.12,1,2.36-1.27,2.15.35,2.48-1.59,2,.1,2.52.84,1.8.16,2,1.68,1.09,1,1.71,1.06,1.9-.75,2-1.51,1.41-.48,2-1.34,1.7-1.09,1.87-.28,2.32,1.42,1.85,1.1,1.63,1.36,1.43,1,1.75,1.82.94-.13,1.86-.15,1.86,1.34,1.33.8,1.74-.83,1.74.57,1.83,1.38,1.43-.17,2,.5,1.84,1.41,1.27-.31,1.83.51,1.8-1.48,1.56.28,2.12,1.33,1.46.67,1.86,1.36,4,2.23,3.62,4.53-.31,3.55,2.83,1.89,3.6-.15,4.07,3.47,2.41.91,4.14.3,4.22-2.6,3.34.44,3.95-.08,4L829,277l2.34,3.62-.91,4.22.92,4.21,1.83,4.29-1.06,4.53-.29,4.57-2.45,3.86-3.47,2.8-2.55,3.68L819,314l-3.68,2.57-2.6,3.91.7,4.65,1.33,4.5-2,4.24,2.56,4,.74,4.69,3.67,2.95,4.42,1.63-3.56,2.71-2.38,3.79.18,4.44-1,4.32-1,4.62-2.7,3.87,1.08,4.67L818,379.1l-1.72,4.41,1.33,4.54,4.11,2.24,2.17,4.16.67,4.44,1.47,4.23,4.5,1.13,3.23,3.33.35,4.31,2.6,3.45.43,4.32,2.72,3.37,4.82.14,2.87,3.88,3.38,3.07.82,4.51,4.22-1,4.14,1.3,3.5,2.3,3.79,1.79,4.32-1,3.85,2.22,2.77,3.53,4.47.46h0"/><path id="path23788-4" data-name="path23788" class="cls-2" d="M786.28,130.85l-2.2-4.44,1.49-4.75-1.85-4.42-3.89-2.79-3.76-2.88L772.91,108l-2.22-4.53L772,98.64l-5.17.29-4.26,2.93-5.44,1L753,99.3l-1.39-5-4.39-2.77-4.41-2.11-3.72-3.16-3.48,3.8-3.27,4-5.15.21-5.15.19-1.86-5.17-4.8-2.68-5.07-1.4-5.2.86-4.69-1.36-3.78-3.08L695.26,77l-1.45-4.55-4-2L686,67.9l-4.46-.75-4.49-.35L673,64.6l-4.68-.14L666,60l-4.86-1.24L657.08,57,653,55.27l-4-2.17-4.41-1-5,.45L634.82,51l-4.54,2-4.91.74-4.45,2.37-4,3.12.21,5.6-4.33,3.57-4.41-.21-4-1.76-4.8-.57-3.42,3.4-3-3.08L588.92,65l-3.45-2.69L581.11,62l-4.72-1-2.85-3.9-4.09,2.58-4.76-.85-4.79.12-3.65-3.08-1.61-4.22L551.9,48,551,49.27l-1.15,1.06-1.71.32-.78,1.56.84,1.45-.48,1.62.57,1.52-.37,1.57-1,1.38.28,1.67-1.48.47-1.36.8-.75,1.19-.42,1.35-1.07.94-.64,1.28-1.31.85-.95,1.24-1.34.81-1.57.21-1.44.65-.77,1.38L533.23,74l-1.66.21-1,1.45,0,1.76.25,1.76,1.29,1.21-1,1.33.12,1.67-1.46,1-.11,1.74-1.56.62L527.1,88,526,89.37l.19,1.75-1,1.22-.58,1.5-1.54.52-1.23,1-1.71-.1-1.6.62-1.66-.45-1.68.45-.7,1.63-1.58.83-1.18,1.22-.64,1.59-1.53.76-1.51.78-1.91.08-1.22-1.47-1.55.24-1.56-.19-1.63,0-1.34,1-1.58-.44L496,100.72l-.95-1.36-1.53-.62L492,98.49l-1.54-.39L488.84,98l-1.59,0-3-1.18-3.24.06-2.76,2-3.4-.45-3.11-.19-3.11-.14-2.88-1.64-3.26.64-3,1-3.17.16-3.26.27-2.59,2-2.56,2.23-1.56,3-3.17,1.11-3.36.23-2.87,2.24-3.53-.93-2.44,2.4-3.36.61-2.95,2-.8,3.48-2.93,1.58-2.8,1.77-2.95,2.38-3.7-.8-2.88,2-3.47.49L402,122.18l-1.84-3.3-3.78,1.38-3.59-1.8-4.15-2.13-4.44,1.4L381,120.6l-3.35,2.71-1.36,3.84-.18,4.07-1.94,3.52-1.91,3.54-1,3.81.47,3.91,3.85,1.95.79,4.24.49,3.85-2,3.32-1.35,3.79,2,3.51-3.72-1.38-3.08-2.51-3.11,3-4.31-.49-1.62,3.56-3.71,1.22-2.42,2.76-3.38,1.43-3.93.39-3.93-.5-2.55,3-3.07,2.51-1.24,4.09,1.88,3.84L335.08,191l-3.3,2.36,1.52,1,.77,1.64.12,1.77-.57,1.69-.76,1.4-.87,1.33-.76,1.42-1,1.22-.94,1.42.53,1.62,1,1.19.56,1.45.42,1.45-.36,1.46.37,1.41.42,1.4-.91,1.37.07,1.63-1.1,1.12-1.08,1.12-.46,1.69-1.63.67h-1.64l-1.42.79-1.12,1.14v1.6l-.81,1.23L321.5,230,320.25,231l-.16,1.63-.17,1.54.34,1.52L320,237.4l-1.31,1.07.42,1.58-.45,1.57.31,1.5.12,1.53-.09,1.56.6,1.44.12,1.74-.26,1.71-1.16,1.33-1.57.78-1.44,1.1-1.75-.44-1.11,1.2-1.24,1.06.9,1.35L312,259.1l1.05,1.31-.26,1.65-.84,1.34-.32,1.55-1.26,1-.87,1.31.32,1.47.31,1.47.52,1.46,1.08,1.11-1,1.23.07,1.59-.86,1.31.09,1.56.94,1.08,1.38.41.73,1.28,1.38.5.8,1.23,1,1.09-.41,1.45.32,1.48,1.38-.78,1.51.42,1.47-.57,1.44.67,1.67.12,1.18,1.21.85,1.38.17,1.61,1.43.2,1.16.87.36,1.5,1.36.71,1.19.91.39,1.45,1.17.9,1.47.14,1.56.61,1.26,1.08-.12,1.71.79,1.51-.77,1.34-.72,1.37.39,1.57-.64,1.5,1.52.26,1.51.26.56,1.49,1.23,1,1.56.29.8,1.37.64,1.3.95,1.11,1.35.59,1.43.37,1.45-.23,1.46-.21,1.48.6,1.42-.74,1.52-.16,1.13-1,1.52.66.6,1.56,1.52.22,1.5.32.56,1.58,1.3,1.07L362,321.4l.24,1.75,1.22,1.08L365,324l.34,1.53,1.29.91.31,1.36.2,1.38,1.17,1-.08,1.54,2.06,1.15,2.35-.08,2.31-.36,2.21.74,2.41-.51,1.54-1.91,2.24-1,2.38.55,2-1.48,1.6-1.9,2.58.66,2.3-1.36,1.48,2.22,2.51.89,2.41-1.42,2.63.93,2.36,1.49,2.78.25,2.66-.71,2.27-1.56,1.2-2.33,2.13-1.56,1.83-2,2.64-.53,2.81-.16,2.47-1.34,2.19,1.77,2.75.63,2,1.79.84,2.56,2.36,1.19,1.8,1.94,2,1.57,2.52.24,2.42.1,2.37.5,2.81.75,1.07,2.69,2.65.78,2.53-1.06,2.71.08,2.35,1.35,2.89.4,2.13-2,1-2.57,1.78-2.12,2.32-1.92,3,.59,0-2.74,1.53-2.26,1.69-2,2-1.73,2.4-1.11,2.41-1.09,2.78-.64,2.45,1.44,2.64-.33,1.94-1.83,2.5.65,2.54-.39-.42-2.85,1.29-2.57,1.89-2.3,3-.27,1.06-1.81,1.75-1.16,1.67-1.48,2.22.23,1.42-1.52.39-2,1.84-1,.79-2L518,297.2l2.22-.37.67-2,.27-2.12-.07-2.19,1.42-1.67,1.68-1.17,1.73-1.08,1,2.11,1.86,1.39,1.73,1.47,2,1,2.1.8,2.17.55,2.33-.46,2.09,1.15,2.43-.79L545,291.6l.42-2.53,2-1.62,2.44.61,2.27-1,2.34,1,2.39-.81,1.48-1.32,1.85-.71.57-1.91,1.34-1.49,1.53-1.56,2.17.15,1.77,1.05,2.07-.1,2,.79,2.1.52,2.31-.38,1.37-1.89,1.26-1.52,1-1.71,1.38-1.5.39-2,1.82-.4,1.83-.38.89-1.67,1.44-1.26,1.9.31,1.6-1.07,1-1.73,1.93-.38,1.62-1,.82-1.71,1.84-.22,1.59-1,1.91,1,2-.87,1-1.69,1.59-1.16,3.5-2.45,2.84-3.17-1.58-4.25,1.71-4.21,2.91-2.83,4-1,1.33-4,3.71-2.05,4-1.48,3.95,1.55,3.66-1.54,3.83-1,1.28-4.1,2.81-3.27,4.3-.33,3.78-2.07,3.6-3,4.64-.27,4.47-1,4.39,1.26,3.68,2.54,4.24,1.4,2.37,3.81,3.51,2.79,4.49,1.4,4.26-2,3.94-2.55,4.64.74,3.11-3.59,4.29-2,1.78-4.36.32-4.7,3.61,2.65,4.31,1.21,4.2-1.43,4.44-.21,4.71-.36,4.48,1.49,4.17-2.35,2.48-4.09,4.72.4,4-2.56,1-4.58,3.37-3.25,4.07-1.9,3.65-2.61-.2-4.64,2.28-4,4-1.55,2.58-3.47,4-1.63,2.46-3.57-1.23-4.66,2.91-3.85,2-4.12,4.1-2.05-2.19-3.76.08-4.34,1.22-4,.64-4.14-2.21-3.85,1-4.32,2.6-3.66-.82-4.41h0"/><path id="path23788-5" data-name="path23788" class="cls-2" d="M401.85-6.92l-4.7,1.62-4.51-2.09L388-6.13l-3.27,3.5L381.41.73,377.5,3.41,372.72,5l-4.65-2-.38,5.16,2.36,4.61.34,5.52-4.12,3.7-5.14.74-3.31,4-2.66,4.09-3.61,3.29,3.33,3.94,3.52,3.76L358,47l-.48,5.13-5.36,1.19-3.27,4.4-2,4.86.18,5.26L345,72.33l-3.54,3.36-4.73.74-4.7.86L329.53,81l-3,3.37-1.33,4.33-.92,4.41L321.57,97l-.74,4.62-4.71,1.66-1.86,4.65L312,111.72l-2.22,3.87-2.66,3.64-1.5,4.26-.2,5L303.17,133l1.38,4.76.11,5,1.78,4.72,2.59,4.33,5.57.51,3,4.75-.78,4.35-2.27,3.79-1.17,4.69,2.93,3.83-3.45,2.63-1.67,4-3.12,3.07-.91,4.29-1.6,4.55-4.24,2.32,2,4.39-1.46,4.61-.5,4.76-3.52,3.24-4.4,1-3.92,2.26,1.14,1.08.91,1.27.09,1.74,1.45,1,1.55-.65,1.55.68,1.57-.37,1.52.58,1.24,1.14,1.68-.06.28,1.53.62,1.45,1.08.89,1.29.6.8,1.18,1.18.8.68,1.41,1.1,1.1.64,1.43v1.58l.46,1.52,1.27.94,1.33,1v1.68l1.32,1.17,1.75.17,1.77,0,1.37-1.13,1.19,1.16,1.67.1.77,1.56,1.7.34.42,1.62,1.12,1.23,1.2,1.28,1.75,0,1.09,1.19,1.4.77.32,1.59.87,1.35-.32,1.69.41,1.66-.66,1.59.23,1.73,1.52.9.63,1.67,1.06,1.33,1.49.83.55,1.62.59,1.6-.17,1.9-1.62,1,.05,1.57-.4,1.52-.24,1.62.77,1.45-.64,1.51-1.28,1-1.47.77-.81,1.44-.45,1.52-.58,1.48-.33,1.56-.18,1.58-1.56,2.85-.36,3.22,1.67,3-.88,3.32-.59,3.06-.54,3.06-2,2.65.21,3.31.59,3.12-.26,3.16-.14,3.26,1.66,2.84,1.87,2.82L333.3,327l.69,3.29-.2,3.36,1.86,3.14-1.38,3.38,2.06,2.72.18,3.41,1.59,3.19,3.35,1.24,1.19,3.11,1.39,3,2,3.24-1.26,3.56,1.65,3.11,0,3.52L343.86,373l-3.52,1.4.89,3.93L339,381.69l-2.64,3.84.81,4.58,2.44,3.57,2.25,3.67,3.63,1.84,4,.7,3.24,2.37,3.27,2.35,3.64,1.49,3.94,0,2.43-3.57,4.3-.23h3.89l3,2.44,3.6,1.82,3.73-1.53-1.85,3.51-2.88,2.74,2.62,3.47-1,4.21,3.32,2.06.73,3.84,2.42,2.76,1,3.53-.11,3.95-1,3.83,2.65,2.92,2.09,3.36,3.89,1.76,4.06-1.37,3.07,2.64,1.91,3.57,1.18-1.38,1.73-.55,1.77.11,1.6.78,1.28.94,1.22,1,1.31.93,1.08,1.19,1.28,1.11,1.67-.31,1.31-.84,1.51-.37,1.49-.23,1.41.54,1.44-.18,1.44-.24,1.24,1.08,1.63.14,1,1.24,1,1.21,1.61.68.45,1.7-.19,1.62.59,1.51,1,1.26L438,465l1.11,1,1.28.76.92,1.37,1.59.38,1.51.36,1.55-.14,1.62.45.89,1.44,1.63-.22,1.5.65,1.52-.11,1.53.07,1.54.3,1.51-.41,1.73.1,1.67.48,1.17,1.32.57,1.66.91,1.57-.66,1.67,1,1.26.9,1.37,1.45-.72,1.59.32,1.43-.87,1.61.47,1.22,1,1.5.52.78,1.37,1.19,1,1.5-.13,1.51-.12,1.51-.33,1.23-.92,1.1,1.15,1.58.13,1.19,1,1.56.12,1.19-.8.59-1.32,1.36-.56.67-1.3,1.32-.64,1.21-.83,1.39.6,1.5-.13-.59-1.47.61-1.44-.38-1.54.86-1.33L497,472l1.35-1,1.47-.66,1.62,0,.39-1.39,1-1,1.53-.18.88-1.26,1.06-1.06,1.49-.19,1-1,.32-1.44.81-1.46,1.24-1.12,1.67.34,1.6-.59,1.23.94,1.27.88,1.61-.18,1.41.83.44-1.48.46-1.46,1.54-.36,1.16-1.09.48-1.51,1.47-.62,1.37-.47,1.22-.8.76-1.26.55-1.37-.05-1.47V449l.78-1.4-.55-1.5,0-1.52-.89-1.26.86-1.42,1.61-.39.41-1.49.52-1.45,1.64-.35,1.23-1.15,1.2,1.32H538l1.23-1.07,0-1.62,1.57-.13,1.07-1.17,1.38-.13,1.4,0,1.14-1,1.52.27,1.4-1.89.22-2.34-.06-2.33,1-2.11-.19-2.45-1.7-1.78-.7-2.34.85-2.3-1.21-2.17-1.68-1.83,1-2.47L545.18,407l2.38-1.18,1.21-2.37-1.1-2.58,1.27-2.49,1.78-2.15.6-2.72-.36-2.73-1.26-2.45-2.16-1.49-1.27-2.31-1.72-2.07-.18-2.68.2-2.81-1-2.63,2-1.93,1-2.65,2-1.77,2.65-.5,1.48-2.19,2.15-1.53,1.82-1.76.55-2.47.41-2.38.8-2.29,1.11-2.69,2.81-.72L563.5,349l-.72-2.65.43-2.67,1.64-2.16.76-2.82-1.68-2.37L561.5,335l-1.87-2L558,330.37l1-2.86-2.72-.31-2-1.81-1.78-1.94L551,321.28l-.8-2.51-.77-2.53-.28-2.84,1.74-2.25,0-2.66-1.57-2.16,1-2.39-.07-2.58-2.88.06L545,299.81l-2-2.17.11-3-1.66-1.28-.93-1.89-1.25-1.85.52-2.17-1.33-1.61-2-.64-.79-2-1.86-1-1.45-1.72-.09-2.25-1.92-.92-2.06-.55-2.19-.21L524.6,275l-1-1.81-.84-1.86,2.21-.7,1.62-1.67,1.69-1.53,1.24-1.9,1.06-2,.82-2.08-.15-2.37,1.4-1.92-.46-2.51-2-1.6-2.46-.75-1.35-2.17.91-2.33-.73-2.39,1.26-2.19-.5-2.48-1.11-1.64-.47-1.93-1.83-.81-1.3-1.52-1.35-1.72.43-2.13,1.27-1.62.16-2.06,1.05-1.9.78-2-.08-2.34-1.7-1.6L521.89,218l-1.57-1.2L519,215.25l-2-.64-.16-1.86-.14-1.86-1.54-1.11-1.06-1.58.54-1.85-.85-1.73-1.59-1.18-.13-2-.79-1.73-1.59-1,0-1.86-.78-1.7,1.21-1.76-.62-2.06L508,190.09l-1-1.73-2-3.78-2.77-3.22-4.42,1L494,180.14l-2.44-3.25-.49-4-3.8-1.84-1.56-3.93-1-4.12,2-3.72-1.06-3.83-.54-3.93-3.91-1.8-2.88-3.2.23-4.31-1.57-4-2.48-4,.33-4.64-.43-4.56,1.82-4.19,3-3.32,1.94-4,4.08-1.87,3.22-3.12,2-4.27L489,99.71l-2-4.23,1.33-4.5-3.16-3.55-1.48-4.52-4.09-2.32L475,79.67l3.09-3.24,1.75-4.12L479,68l.36-4.42.25-4.72,2.06-4.25-1.8-4.44-3.74-3,1-4.63-2-4.28-4.41-1.55-2.8-3.77-1.35-4.28-2.13-3.95-4.62-.41-3.71-2.78-1-4.2-3.12-3-1.1-4.2-3.22-2.9-4.78.62-3.44-3.38-3.83-2.49L434-2.39,430-.71l-4.29-.63-3.82-1.73-4-1.16-4.1,1.7-4.15-1.58-3.29-3-4.49.25h0"/><path id="path23788-6" data-name="path23788" class="cls-2" d="M931.81,178.67l2.43-4.33L939,172.9l2.61-4,.11-4.79.26-4.73,1.14-4.6,2.48-4.39,4.78-1.63-3.15-4.11-4.83-1.86-3.93-3.9.62-5.5,3.35-4-.19-5.19-.74-4.83.5-4.86-5.1-.72-5.13-.46-3.08-4.13-3.05-4.15,3.21-4.46-.49-5.46-1.7-5L923,86.34l-1.52-4.64.4-4.86,3-3.7,2.95-3.77-.61-4.47V60.39l-1.89-4.11-2.25-3.91-.51-4.66-2.52-3.94,2.41-4.38-1.71-4.71L920,30.3l-.92-4.37-.44-4.48-1.71-4.18-3.18-3.88-1.36-4.84-4.19-2.63-3.39-3.64L900.33-.06l-4.81-1.51L891,1.76,885.63.2l-2.32-3.76-.83-4.35-2.24-4.28-4.74-.9.83-4.26-1.42-4.1.29-4.38L873-29.63l-1.83-4.46,1.62-4.55-4.44-1.93-2-4.41-2.79-3.88.47-4.76,2.59-3.71,1.42-4.29-1.56-.05L865-62l-1.22-1.24L862-63l-.73,1.52L859.7-61l-.93,1.32-1.51.58-1.69,0-1.22,1.16-1.22-1-1.43-.68-1.41.06-1.35.41-1.38-.35-1.42.19-1.44-.6-1.56-.09-1.43-.65-1.05-1.17-1.35-.83-1.58.14-1.68.1-1.11-1.25h-1.76l-1.42,1-1.31,1.19-.27,1.75-1.67-.07-1.31,1-1.61-.66-1.5.89-1.39-.94-1.65-.17-1.75-.16L818-58.56l-1.59-.16-1.57.35-1.29-1L812-59.77l-.88-1.48-1.41-1-.57-1.63L807.78-65l-1.74.34-1.58-.83-1.67-.29-1.67.36-1.49-.84-1.5-.8L797-68.56l.53-1.84-1.08-1.14-.72-1.4-.89-1.37-1.54-.56-.53-1.56L793-78l.59-1.55-.36-1.62-.67-1.44-.55-1.49-.8-1.38-.91-1.3L789.61-90l-1.88-2.65-3.24-1.12L783-96.81l-1.6-2.67-1.64-2.65-.27-3.3-2.37-2.34-2.5-1.93-1.92-2.53-2.06-2.54-3.13-1-3.28-.86-3.36.42-2.71-2L756-120.86,752.56-122l-1.23-3.44-3.35-.66-2.4-2.43-3.31-1.32-3.32,1.3L736-130l-3-1.31-3.64-1.1L727.9-136l-3.31-1.23-2.37-2.59.1-3.79,1.69-3.38-3.28-2.34-.54-4-.58-4.62L716-160.78l-4.19-1-4.13-1.24-3.94,1-3.46,2.15-4,.39-4,.42-3.71,1.31-3,2.59.56,4.28-3.06,3-2.9,2.58-3.88.19-3.89,1-1.77,3.62-1-3.85.33-4-4.26-.85-2-3.83-3.86.67-3.1-2.39-3.64-.44L650-157l-2.55-3-1.79-3.52-3.93-.42L638-165.13l-4.08,1.28-2.12,3.72-4,.07-3.81-1.39,0,1.81-.92,1.56-1.4,1.1-1.72.48-1.58.16-1.59,0-1.6.18-1.59-.17-1.7,0-1,1.35-.42,1.5-.88,1.27-1,1.17-1.41.53-1,1.1-.92,1.14h-1.64l-1.31,1-1.54-.29-1.54-.25-1.66.57-1.46-1-.94-1.34-1.45-.73-1.57-.29-1.33.9-1.47,0-1.46.29-1.6-.42-1.44.78-1.37.74-1.06,1.13-1.51.74-1.62-.48-1.07,1.25-1.55.51-1.07,1.1-1.19,1-1.34.8-.86,1.32-1.36,1.07-1.56.76-1.75-.21-1.53-.86-1.73-.57-.62-1.69-1.61-.24-1.58-.42-.61,1.5-1.4.81-.49,1.6-1.51.73-1.58.05-1.46.61-1.5-.5-1.58,0-1,1.09-1,1.1-.91,1.25-.31,1.51-1.58-.13-1.28,1-1.56,0-1.24.94-.36,1.39.44,1.38-.64,1.32.36,1.42-.56,1.35-.36,1.43-1.42.48-1,1.09,1.41.7.51,1.49,1.3.89.26,1.57.84,1.45-.33,1.66-.66,1.47-1.24,1,.65,1.3-.08,1.44-1,1.15.18,1.52-.09,1.5-1,1.13-.09,1.48.72,1.29.37,1.63-.18,1.66-1.47.86-.81,1.5-1.54.12-1.53.18L533-93.36l-1.6.32.65,1.4.63,1.39-.91,1.3-.13,1.58.64,1.45-.69,1.43-.71,1.27-.38,1.41.27,1.45.51,1.38,1,1.07,1,1.09.34,1.56,1.42.76,1,1.16,1.5.34.31,1.64L536.84-70l.68,1.38.58,1.42-1,1.36L537-64.16l-1.78-.19-1.31,1.19-.2,1.62,1.11,1.17-1.08,1.15,0,1.58-.94,1-1,1-.16,1.53-1.32.81.21,2.34,1.4,1.9,1.59,1.7.64,2.24,1.78,1.71,2.45.19L540.37-42l.89,2.28,2.35.82,2.47.24.91,2.51L549.41-35l-1,2.47.67,2.58,2.53,1.18.72,2.7.1,2.8,1.36,2.43,2.08,1.8,2.57,1,2.61-.32,2.49.87,2.66.41,1.92,1.88L569.85-13l2.5,1.28-.24,2.81,1,2.62-.34,2.68-1.65,2.13.35,2.63-.59,2.57-.18,2.52L572,8.48l1.28,2.06.93,2.24,1,2.74-1.62,2.41.85,2.62,2.3,1.49,1.46,2.29.21,2.7,1.3,2.61,2.84.65,2.69-.63,2.75.28,2.9.83L592,33.56,594.23,32,597,32l2.61.26,2.54.65,2.26,1.35,2.27,1.37,2.09,1.94.2,2.84,1.76,2,2.6.57.87,2.43,1.76,1.88,2.12-2,2.85-.38,3,.27,1.89,2.29,2.09-.15,1.95.79,2.16.55,1.07,2,2.05.31,1.9-.82,1.89.93,2.07-.46,2.23.32,1.56,1.62,2-.59,1.9-1,1.77-1.3,2.18.23,1.91.73,1.87.82-1.18,2-.1,2.32L654.88,58l.33,2.25.53,2.18.77,2.1,1.69,1.67.23,2.37,2,1.56L663,70,665.33,69l2.45.72.87,2.35,2.14,1.3.52,2.47,2,1.52,1.92.48,1.63,1.13,1.91-.61,2,.27,2.15.38,1.1,1.88.13,2.06,1.25,1.64.48,2.11.75,2,1.62,1.69,2.33.07,2,.18,2-.15,2,.29,1.88-.82,1.36,1.29,1.35,1.29,1.88-.2,1.85.48.82,1.74,1.78.72,2-.17,1.42,1.38,1.74.77,1.87-.28,1.22,1.39,1.72.75.27,2.13,1.83,1.12,2-.1,1.86.65,4,1.51,4.21.56,2.63-3.7,4.43-1,4,.81,3.06,2.69,4.06-1.16,3.78,1.91,3.46,2.43,1,4.13,3.33,2.16,3,2.57,4.12-1.25,4.28.47,2.7,3.37,3.84,2,4.48,1.3,2.84,3.69,3.35,3.12,1.44,4.34,0,4.46,1.23,4.29-1.81,4.11-.32,4.47,1.37,4.5,4,2.4,4.32,1.81,2,4.25,4.72.55,4.11,2.39,4.6-1,4.05-2.38-.15,4.47,1.43,4.24,3.56,2.67,2.67,3.54,3,3.69,1.29,4.54,4.3,2.12,4.77-.26,2.33,4.13,4.36,1.84,4.33-1.77,4.59,1,3.86,2.29,4.22,1.53,3.71-2.77,4.63-.39L876,196l4.32.17,3.62,2.4,4.33,0,3.16-3.64,4.82.23,4.52-.68,4,2.22,1.87-3.92,3.62-2.39,4-1.25,3.78-1.81,1.94-4,4.14-1.58,4.49.09,3.19-3.17h0"/><path class="cls-5" d="M684.75,419.39a27.91,27.91,0,0,0-4,1.81,3.32,3.32,0,0,1,2.09,0,2,2,0,0,1,.56.42c-1.2.07-2.19.18-2.93.28a2.17,2.17,0,0,0-1.25.42,2.22,2.22,0,0,0-.7,1.67,1.57,1.57,0,0,1-.7-1.26c.12-.74,1.39-1.11,1.4-1.11a6.66,6.66,0,0,0-2.09,1.25,5.13,5.13,0,0,0-1.68,2.09c0,.09-.08.28-.13.28s-.28-.8-.14-1.39c.28-1.24,1.88-1.75,2.09-1.81a2.55,2.55,0,0,0-2.23,1,1.8,1.8,0,0,1,.69-1.39c.44-.25.87-.05,1.4,0,1.1.1,1.83-.6,3.06-1.39a17.58,17.58,0,0,1,3.76-1.82Z"/><path class="cls-5" d="M692,416.88c-.36,0-.54.94-1.39,2.93a1.8,1.8,0,0,1-.42.69c-.54.54-1.16.35-1.67.7-.33.23-.66.71-.7,1.81a3.41,3.41,0,0,1,.7-.83,3.37,3.37,0,0,1,1.25-.7,5.11,5.11,0,0,0-1.25,2.65,5,5,0,0,0,.14,2.09,8.85,8.85,0,0,0,.42-1c.28-.83.19-1.09.42-1.81s.68-1.72,1.11-1.67c.07,0,.12.05.42.42.56.69.76,1.14.83,1.11s0-.38-.14-1-.17-.93-.27-1.4,0-1.57,1.11-3.48C692.29,417,692.11,416.87,692,416.88Z"/><path class="cls-3" d="M667.19,402.11a4.05,4.05,0,0,1,1.82-1.39c.92-.34,1.84-.22,2.5-1a2.71,2.71,0,0,0,.28-.42c.73-1.27,3.19-2.15,5.44-2.09a8.63,8.63,0,0,1,4.18,1.25c1.35.83,1.46,1.44,2.92,2.37s1.81.49,3.48,1.39c1,.51.71.56,3.35,2.51,1.18.87,2.22,1.6,2.92,2.09,1.13.79,1.32.9,2.23,1.53.73.51,1.79,1.26,3.07,2.23a1.16,1.16,0,0,0-.28.7c0,.9,1.41,1.55,1.95,1.81,1.9.9,5.77,2.89,11,5.57a1.77,1.77,0,0,0-1.26.14A1.74,1.74,0,0,0,710,420a24,24,0,0,0-7.53-3.35,23.7,23.7,0,0,0-5.15-.69c-.23.25-.56.59-1,1a15.88,15.88,0,0,1-11.84,3.9c-9.6-1-14.54-11.88-13.65-13.65a4.78,4.78,0,0,0,.55-1.81,2.52,2.52,0,0,0-.14-1.53c-.44-.87-1.33-.68-2.64-1.54a1.49,1.49,0,0,0-.84-.27A1.44,1.44,0,0,0,667.19,402.11Z"/><path class="cls-5" d="M679.59,404.2c0-.2.21-.53,4.32-2.09,1.7-.64,2.1-.74,2.65-.69a5.22,5.22,0,0,1,3.2,2.09c3.6,3.81,5.93,2.64,9.62,6.82,1,1.2,2.44,3.09,2.09,3.49s-1.29-.29-2.09-.7c-.58-.29-3-1-7.8-2.51-5.67-1.74-6.48-1.73-8.5-2.92C682,407.06,679.31,405.47,679.59,404.2Z"/></svg>