<svg id="Layer_1" data-name="Layer 1" xmlns="http://www.w3.org/2000/svg" viewBox="0 0 1366 768"><defs><style>.cls-1{fill:aqua;}</style></defs><path class="cls-1" d="M741.37,691.76c1.07-.23,1.31,21.49,17.12,33.41,6.5,4.9,13.55,6.58,13.24,7.56s-9.89.85-17.16-3.81C738.78,718.79,740.18,692,741.37,691.76Z"/><path class="cls-1" d="M763,688.42c1.73.49-8.44,23.25,2.52,38,2.81,3.78,6.55,6.42,5.86,7.54-1,1.63-11-.44-15.92-6.42C745.07,714.77,761.08,687.88,763,688.42Z"/><path class="cls-1" d="M780.47,711.53c-.49-.65-12.91,4.18-14.36,13.22-.71,4.48,1.42,9,2.47,8.92s.27-5.81,3.53-12.37C775.5,714.48,780.8,712,780.47,711.53Z"/><path class="cls-1" d="M-165,692c49.87-61,139.24-51.21,149-50,61.25,15,148.91,35.8,255,59,142.69,31.21,214,46.81,251,49,169.43,10,202.21-43.39,366-23,97.92,12.19,87.85,31.49,168,34,94.66,3,135.75-23.1,283-31,103.84-5.57,131.39,4.81,146,24,22.94,30.11,17.07,85.94-6,120-65.69,97-268.5,12.32-711-9-198.82-9.58-373-7-373-7-339.51,5-512.31,39-553-40C-209.69,779.77-191.46,724.33-165,692Z"/><path class="cls-1" d="M757.16,691.6c1.08-.23,1.32,21.49,17.13,33.42,6.5,4.89,13.55,6.58,13.24,7.55s-9.89.85-17.16-3.81C754.58,718.63,756,691.86,757.16,691.6Z"/><path class="cls-1" d="M778.79,688.26c1.73.49-8.44,23.25,2.51,38,2.82,3.79,6.56,6.42,5.87,7.54-1,1.63-11-.44-15.92-6.42C760.86,714.61,776.88,687.72,778.79,688.26Z"/><path class="cls-1" d="M796.27,711.37c-.49-.65-12.91,4.18-14.36,13.23-.71,4.47,1.42,9,2.47,8.91s.26-5.8,3.53-12.36C791.3,714.32,796.6,711.81,796.27,711.37Z"/><path class="cls-1" d="M1149.16,714.6c1.08-.23,1.32,21.49,17.13,33.42,6.5,4.89,13.55,6.58,13.24,7.55s-9.89.85-17.16-3.81C1146.58,741.63,1148,714.86,1149.16,714.6Z"/><path class="cls-1" d="M1170.79,711.26c1.73.49-8.44,23.25,2.51,38,2.82,3.79,6.56,6.42,5.87,7.54-1,1.63-11.05-.44-15.92-6.42C1152.86,737.61,1168.88,710.72,1170.79,711.26Z"/><path class="cls-1" d="M1188.27,734.37c-.49-.65-12.91,4.18-14.36,13.23-.71,4.47,1.42,9,2.47,8.91s.26-5.8,3.53-12.36C1183.3,737.32,1188.6,734.81,1188.27,734.37Z"/><path class="cls-1" d="M105.16,643.6c1.08-.23,1.32,21.49,17.13,33.42,6.5,4.89,13.55,6.58,13.24,7.55s-9.89.85-17.16-3.81C102.58,670.63,104,643.86,105.16,643.6Z"/><path class="cls-1" d="M126.79,640.26c1.73.49-8.44,23.25,2.51,38,2.82,3.79,6.56,6.42,5.87,7.54-1,1.63-11-.44-15.92-6.42C108.86,666.61,124.88,639.72,126.79,640.26Z"/><path class="cls-1" d="M144.27,663.37c-.49-.65-12.91,4.18-14.36,13.23-.71,4.47,1.42,9,2.47,8.91s.26-5.8,3.53-12.36C139.3,666.32,144.6,663.81,144.27,663.37Z"/><path class="cls-1" d="M114.62,643.6c-1.08-.23-1.31,21.49-17.13,33.42-6.49,4.89-13.55,6.58-13.24,7.55s9.89.85,17.16-3.81C117.21,670.63,115.81,643.86,114.62,643.6Z"/><path class="cls-1" d="M93,640.26c-1.72.49,8.44,23.25-2.51,38-2.81,3.79-6.56,6.42-5.87,7.54,1,1.63,11-.44,15.92-6.42C110.92,666.61,94.9,639.72,93,640.26Z"/><path class="cls-1" d="M75.51,663.37c.49-.65,12.91,4.18,14.36,13.23.72,4.47-1.41,9-2.46,8.91s-.27-5.8-3.53-12.36C80.49,666.32,75.19,663.81,75.51,663.37Z"/><path class="cls-1" d="M529,717.6c-1.08-.23-1.31,21.49-17.13,33.42-6.49,4.89-13.55,6.58-13.24,7.55s9.89.85,17.16-3.81C531.6,744.63,530.2,717.86,529,717.6Z"/><path class="cls-1" d="M507.38,714.26c-1.72.49,8.44,23.25-2.51,38-2.81,3.79-6.56,6.42-5.87,7.54,1,1.63,11.05-.44,15.92-6.42C525.31,740.61,509.29,713.72,507.38,714.26Z"/><path class="cls-1" d="M489.9,737.37c.49-.65,12.91,4.18,14.36,13.23.72,4.47-1.41,9-2.46,8.91s-.27-5.8-3.53-12.36C494.88,740.32,489.58,737.81,489.9,737.37Z"/><path class="cls-1" d="M1291,705.6c-1.08-.23-1.31,21.49-17.13,33.42-6.49,4.89-13.55,6.58-13.24,7.55s9.89.85,17.16-3.81C1293.6,732.63,1292.2,705.86,1291,705.6Z"/><path class="cls-1" d="M1269.38,702.26c-1.72.49,8.44,23.25-2.51,38-2.81,3.79-6.56,6.42-5.87,7.54,1,1.63,11-.44,15.92-6.42C1287.31,728.61,1271.29,701.72,1269.38,702.26Z"/><path class="cls-1" d="M1251.9,725.37c.49-.65,12.91,4.18,14.36,13.23.72,4.47-1.41,9-2.46,8.91s-.27-5.8-3.53-12.36C1256.88,728.32,1251.58,725.81,1251.9,725.37Z"/><path class="cls-1" d="M28,610.6c-1.08-.23-1.31,21.49-17.13,33.42-6.49,4.89-13.55,6.58-13.24,7.55s9.89.85,17.16-3.81C30.6,637.63,29.2,610.86,28,610.6Z"/><path class="cls-1" d="M6.38,607.26c-1.72.49,8.44,23.25-2.51,38C1.06,649-2.69,651.66-2,652.78c1,1.63,11.05-.44,15.92-6.42C24.31,633.61,8.29,606.72,6.38,607.26Z"/><path class="cls-1" d="M-11.1,630.37c.49-.65,12.91,4.18,14.36,13.23.72,4.47-1.41,9-2.46,8.91s-.27-5.8-3.53-12.36C-6.12,633.32-11.42,630.81-11.1,630.37Z"/></svg>