<?xml version="1.0" encoding="utf-8"?>
<!-- Generator: Adobe Illustrator 25.3.0, SVG Export Plug-In . SVG Version: 6.00 Build 0)  -->
<svg version="1.1" id="Layer_1" xmlns="http://www.w3.org/2000/svg" xmlns:xlink="http://www.w3.org/1999/xlink" x="0px" y="0px"
	 viewBox="0 0 1366 768" style="enable-background:new 0 0 1366 768;" xml:space="preserve">
<style type="text/css">
	.st0{fill:#FFEBBA;}
	.st1{fill:#FFFFFF;}
</style>
<g>
	<path class="st0" d="M683,278.1c58.4,0,105.9,47.5,105.9,105.9S741.4,489.9,683,489.9S577.1,442.4,577.1,384S624.6,278.1,683,278.1
		 M683,271.1c-62.3,0-112.9,50.5-112.9,112.9S620.7,496.9,683,496.9S795.9,446.3,795.9,384S745.3,271.1,683,271.1L683,271.1z"/>
</g>
<g>
	<path class="st0" d="M725.9,388c-0.6,0.7,22.5,17,27,38.7c0.5,2.4,1.8,10.1,3.1,10c1-0.1,1.4-4.6,1.5-5.5
		C759.2,414.6,726.7,387.1,725.9,388z"/>
	<path class="st0" d="M753.6,420.6c1.5,1.8,10.2-2,14.1-9.8c1.2-2.4,1.9-5.1,2.1-7.7c-3.1,0.8-5.9,2.3-8.4,4.3
		C756.2,411.6,752.3,419,753.6,420.6z"/>
	<path class="st0" d="M749.6,412.8c1.5,1.2,8.2-3.1,10.3-10.1c0.6-2.2,0.9-4.4,0.7-6.7c-2.4,1.1-4.6,2.7-6.3,4.7
		C750.4,405.1,748.2,411.7,749.6,412.8z"/>
	<path class="st0" d="M743.3,404.4c1.4,0.7,6-3.9,6.5-9.8c0.1-1.8-0.1-3.7-0.6-5.4c-1.7,1.3-3.2,2.9-4.2,4.8
		C742.6,398.1,742,403.8,743.3,404.4z"/>
	<path class="st0" d="M736.4,397c1.2,0.3,3.7-4.1,2.9-8.7c-0.3-1.4-0.8-2.8-1.6-4c-1.1,1.3-1.8,2.9-2.2,4.5
		C734.7,392.3,735.3,396.7,736.4,397z"/>
	<path class="st0" d="M730.2,390.9c0.9-0.1,1.6-3.9-0.1-7c-0.6-1-1.3-1.8-2.2-2.5c-0.4,1.2-0.6,2.5-0.5,3.8
		C727.7,388,729.3,390.9,730.2,390.9z"/>
	<path class="st0" d="M715.3,396c1.1-1,25,36.2,58.6,44.5c3.7,0.9,15.6,3.5,15.4,5.4c-0.1,1.5-7.3,1.9-8.6,2
		C754.6,449.5,713.9,397.1,715.3,396z"/>
	<path class="st0" d="M764.3,441.2c2.6,2.4-3.8,15.8-16.2,21.4c-3.9,1.7-8,2.6-12.2,2.8c1.5-4.7,3.9-9.1,7.2-12.8
		C750.2,444.6,761.9,438.9,764.3,441.2z"/>
	<path class="st0" d="M752.5,434.3c1.8,2.4-5.4,12.5-16.4,15.4c-3.4,0.9-7,1.1-10.5,0.6c1.9-3.7,4.5-7,7.7-9.6
		C740.4,435.2,750.8,432.1,752.5,434.3z"/>
	<path class="st0" d="M739.8,424c1.1,2.2-6.4,9-15.7,9.4c-2.9,0.1-5.7-0.4-8.4-1.3c2.1-2.6,4.8-4.8,7.8-6.3
		C730,422.5,738.8,421.9,739.8,424z"/>
	<path class="st0" d="M728.6,412.8c0.4,1.9-6.7,5.6-13.8,4c-2.2-0.5-4.3-1.4-6.1-2.7c2.1-1.6,4.6-2.7,7.2-3.2
		C721.4,409.8,728.3,411.1,728.6,412.8z"/>
	<path class="st0" d="M719.5,402.8c-0.2,1.5-6.2,2.3-10.9-0.6c-1.5-0.9-2.7-2.1-3.7-3.5c1.9-0.6,4-0.7,6-0.5
		C715.1,398.8,719.7,401.5,719.5,402.8z"/>
</g>
<g>
	<path class="st0" d="M657.5,352.7c0.7-1.1-35.6-16.4-48.1-44.6c-1.4-3.1-5.5-13.2-7.2-12.7c-1.3,0.4-0.6,6.7-0.4,7.9
		C604.5,326.4,656.7,354.1,657.5,352.7z"/>
	<path class="st0" d="M610.3,316.5c-2.5-1.9-13.3,5.8-16.3,17.5c-0.9,3.6-1.1,7.4-0.6,11.1c3.9-2,7.4-4.8,10.1-8.3
		C609.5,329.5,612.6,318.3,610.3,316.5z"/>
	<path class="st0" d="M618.3,325.8c-2.4-1.2-10.1,6.7-10.9,16.8c-0.2,3.1,0.2,6.3,1.1,9.3c3-2.2,5.4-5.1,7.2-8.3
		C619.5,336.6,620.5,326.9,618.3,325.8z"/>
	<path class="st0" d="M629.5,335.5c-2.1-0.6-6.9,7-5.8,15.2c0.4,2.5,1.2,5,2.5,7.2c2-2.3,3.4-4.9,4.3-7.8
		C632.2,343.8,631.4,336,629.5,335.5z"/>
	<path class="st0" d="M640.7,343.6c-1.7,0-3.8,6.7-1.4,12.7c0.8,1.8,1.9,3.5,3.3,5c1-2.1,1.6-4.4,1.7-6.8
		C644.5,349.4,642.3,343.6,640.7,343.6z"/>
	<path class="st0" d="M650.9,350c-1.2,0.4-1.1,5.8,2.2,9.5c1,1.1,2.3,2.1,3.7,2.7c0.2-1.8,0-3.6-0.5-5.3
		C655.1,353.2,652,349.7,650.9,350z"/>
</g>
<path class="st1" d="M0,0v768h1366V0H0z M683,496.9c-62.3,0-112.9-50.5-112.9-112.9S620.7,271.1,683,271.1S795.9,321.7,795.9,384
	S745.3,496.9,683,496.9z"/>
</svg>
