<svg id="Layer_1" data-name="Layer 1" xmlns="http://www.w3.org/2000/svg" viewBox="0 0 1366 768"><defs><style>.cls-1{fill:#43C59E;}</style></defs><path class="cls-1" d="M96,775c86.53-75.71-76.94-311.14,32-458,17.52-23.61,45.61-49.86,49-53,80.3-74.57,136.46-74.9,169-131,10.7-18.45,22.28-48.84,18-97,0,0,.84,26.36-10,53-18.31,45-56.95,58.61-118,98-74.91,48.34-118.73,93.65-121,91s48.67-41.71,99-115c37.67-54.85,43.65-83.28,45-103,3.1-45.38-15.52-85.84-20-85s6.27,41.48,2,84c-4.39,43.72-26,103.34-103,171,1.66-12.29,2.1-30.07-6-48-7.79-17.25-17.63-21.69-22-36-3.4-11.16-3.56-28.6,13-55-14.67,20.12-29.54,47.63-21,72,5.19,14.8,15.16,17.48,20,33,9.69,31.07-13.37,74.54-30,74-21-.68-38.3-71.59-41-122C47,73.13,73.54,12.36,94-24,61.79-34.76,32.45-36.49,10-23-26.2-1.25-11.48,40.23-52,93c-37.17,48.41-77.07,49.07-80,80-3.05,32.22,37.11,53.92,60,77C48.12,371.14-158.54,680.82-61,773-22.91,809,58,808.28,96,775Z"/><path class="cls-1" d="M94,67c-32.64,3.92-50.08,30.08-46,46,3.65,14.22,26.21,27,53,22-2.25,10.92,2.34,21.85,11,27,10.73,6.38,26.09,2.93,34-9a29.49,29.49,0,0,0,50-30c16.65-10.47,25.37-29.37,22-47-4.2-22-26.61-38.66-52-36C163.5,16.32,142.77-.2,122,2S87.91,24.29,87,42C86.39,53.8,91.39,62.92,94,67Z"/><path class="cls-1" d="M207.18,4.17c-32.64,3.92-50.08,30.07-46,46,3.65,14.22,26.21,27,53,22-2.24,10.92,2.34,21.85,11,27,10.73,6.38,26.09,2.93,34-9a29.49,29.49,0,0,0,50-30c16.65-10.47,25.37-29.37,22-47-4.2-22-26.6-38.66-52-36-2.49-23.68-23.23-40.2-44-38s-34.09,22.28-35,40C199.58-9,204.57.09,207.18,4.17Z"/><path class="cls-1" d="M281.85,154c-29.75-14-58.41-1-63.38,14.64-4.45,14,7.9,36.8,33.28,46.74-7.69,8.07-9.59,19.76-5,28.72,5.71,11.1,20.57,16.32,33.6,10.39a29.49,29.49,0,0,0,58.3,1c19.66,0,37.08-11.46,43.56-28.2,8.1-20.89-2.08-46.88-25-58.08,10.43-21.41,1.6-46.4-17.18-55.54s-40.72.83-50.88,15.37C282.4,138.75,281.8,149.13,281.85,154Z"/><path class="cls-1" d="M309.39,103.8c-23.81-11.18-46.73-.83-50.71,11.71C255.12,126.7,265,145,285.31,152.9c-6.16,6.46-7.68,15.81-4,23,4.58,8.88,16.46,13.05,26.89,8.31a23.59,23.59,0,0,0,46.64.84c15.73,0,29.66-9.17,34.85-22.56,6.47-16.71-1.67-37.5-20-46.47C378,98.88,371,78.88,355.94,71.57s-32.58.67-40.7,12.3A34.17,34.17,0,0,0,309.39,103.8Z"/><path class="cls-1" d="M1139,827c-28.73-70,108.63-131.48,107-282-.17-15.5-1.24-115.06-67-166-71.82-55.63-144.86,5.54-229-46-92.93-56.93-104.07-193-104-193s8.51,90,75,140c92,69.19,260.45,35.82,278-20,6-19.15-4-46.55-21-57-19.14-11.73-35.6,5-72,1-43.47-4.82-72.27-34.54-72-35s22.69,18.34,57,23c4.14.56,48.88,6.27,57-11,7.94-16.88-19.57-54.76-54-64-16.62-4.46-29.61-.84-75,15-50.71,17.69-102.18,36.8-103,35-1.23-2.72,117.12-43.51,113-75-4-30.71-122.57-37.91-122-42,.39-2.83,57.89-4.41,118,12,51.33,14,137.22,50.06,224,159,25.47-133.38,18.51-198.87,6-234-2.48-6.95-10.09-26.53-1-40,14.56-21.56,65.5-18.23,88-8,146.41,66.58-34.13,518.69,62,828,5.56,17.89,20.07,61.12-1,91C1358.17,921.56,1169.26,900.65,1139,827Z"/><path class="cls-1" d="M860.26,214.18c-29.76-14-58.41-1-63.39,14.63-4.44,14,7.9,36.81,33.29,46.75-7.69,8.07-9.6,19.76-5,28.72,5.72,11.1,20.57,16.32,33.61,10.39a29.49,29.49,0,0,0,58.3,1.05c19.66-.05,37.07-11.46,43.56-28.2,8.09-20.89-2.08-46.88-25-58.08,10.43-21.41,1.59-46.4-17.18-55.55s-40.72.84-50.88,15.38C860.8,199,860.21,209.33,860.26,214.18Z"/><path class="cls-1" d="M1213.26-20.82c-29.76-14-58.41-1-63.39,14.63-4.44,14,7.9,36.81,33.29,46.75-7.69,8.07-9.6,19.76-5,28.72,5.72,11.1,20.57,16.32,33.61,10.39a29.49,29.49,0,0,0,58.3,1c19.66,0,37.07-11.46,43.56-28.2,8.09-20.89-2.08-46.88-25-58.08,10.43-21.41,1.59-46.4-17.18-55.55s-40.72.84-50.88,15.38C1213.8-36,1213.21-25.67,1213.26-20.82Z"/><path class="cls-1" d="M972.33,18.92c-23.81-11.18-46.73-.83-50.71,11.71-3.56,11.19,6.32,29.44,26.63,37.39-6.16,6.46-7.68,15.81-4,23,4.58,8.88,16.46,13,26.89,8.31a23.59,23.59,0,0,0,46.64.84c15.73,0,29.66-9.17,34.85-22.56,6.47-16.71-1.67-37.51-20-46.47C1041,14,1033.9-6,1018.88-13.31S986.3-12.64,978.17-1A34.22,34.22,0,0,0,972.33,18.92Z"/><path class="cls-1" d="M1047.33,154.92c-23.81-11.18-46.73-.83-50.71,11.71-3.56,11.19,6.32,29.44,26.63,37.39-6.16,6.46-7.68,15.81-4,23,4.58,8.88,16.46,13.05,26.89,8.31a23.59,23.59,0,0,0,46.64.84c15.73,0,29.66-9.17,34.85-22.56,6.47-16.71-1.67-37.51-20-46.47,8.35-17.12,1.28-37.12-13.74-44.43s-32.58.67-40.71,12.3A34.22,34.22,0,0,0,1047.33,154.92Z"/></svg>