<svg id="Layer_1" data-name="Layer 1" xmlns="http://www.w3.org/2000/svg" viewBox="0 0 1366 768"><defs><style>.cls-1{fill:#fff;}.cls-2{fill:red;}</style></defs><path class="cls-1" d="M.5,767.5V.5h1365v767Zm465-435h142v-136h-19v-92h-123v49h-125v165h125Z"/><path d="M1365,1V767H1V1H1365M465,153H340V319H465v14H608V196H589V104H465v49M1366,0H0V768H1366V0ZM341,318V154H466V105H588v92h19V332H466V318Z"/><path class="cls-2" d="M494.5,164V308h-143V164h143m10-10h-163V318h163V154Z"/><path class="cls-2" d="M597.5,207V322h-121V207h121m10-10h-141V332h141V197Z"/><path class="cls-2" d="M578.5,115V217h-102V115h102m10-10h-122V227h122V105Z"/></svg>