<?xml version="1.0" encoding="utf-8"?>
<!-- Svg Vector Icons : http://www.onlinewebfonts.com/icon -->
<!DOCTYPE svg PUBLIC "-//W3C//DTD SVG 1.1//EN" "http://www.w3.org/Graphics/SVG/1.1/DTD/svg11.dtd">
<svg version="1.1" xmlns="http://www.w3.org/2000/svg" xmlns:xlink="http://www.w3.org/1999/xlink" x="0px" y="0px" viewBox="0 0 1000 1000" enable-background="new 0 0 1000 1000" xml:space="preserve">
<metadata> Svg Vector Icons : http://www.onlinewebfonts.com/icon </metadata>
<g><g transform="translate(0.000000,482.000000) scale(0.100000,-0.100000)"><path fill="#FFFFFF" d="M7417.3,4711c-324.2-30.6-638.2-171.3-809.5-360.9c-36.7-40.8-136.6-187.6-220.2-326.2c-83.6-136.6-191.7-299.7-238.6-360.9c-112.1-142.7-150.9-144.8-456.7-18.3c-340.5,138.6-515.9,177.4-752.4,167.2c-293.6-14.3-544.4-128.5-801.3-362.9c-297.7-271.2-416-621.9-362.9-1076.6c14.3-120.3,46.9-330.3,75.4-469c69.3-352.7,73.4-330.3-77.5-330.3c-128.5,0-385.4-38.7-536.3-83.6c-279.3-79.5-575-322.2-705.5-579.1c-101.9-195.7-128.4-307.9-116.2-487.3c14.3-214.1,101.9-387.4,371.1-723.8c120.3-148.8,236.5-307.9,256.9-350.7c44.9-83.6,59.1-232.4,28.5-263c-10.2-10.2-106-28.6-212.1-40.8c-346.6-38.7-491.4-99.9-644.3-273.2c-418-469-489.4-1048-189.6-1555.7c136.6-232.4,485.3-544.4,768.7-687.1c57.1-28.5,106-57.1,106-61.2c0-4.1-89.7-65.2-199.8-138.6c-558.7-373.1-1035.8-572.9-1694.4-707.5c-159-34.6-314-75.4-342.6-93.8c-79.5-53-128.5-152.9-128.5-261c0-179.4,83.6-297.7,238.6-338.5C1019-5137.3,1881.5-4792.7,2487-4389c252.8,169.2,681,503.6,778.9,607.6c28.5,28.5,57.1,53,63.2,53c8.1,0,77.5-34.7,157-77.5c595.4-328.3,1194.8-334.4,1810.6-18.4c252.8,130.5,413.9,303.8,585.2,636.2c75.4,146.8,161.1,289.5,193.7,320.1c99.9,95.8,144.8,101.9,577,87.7c458.8-16.3,611.7,6.1,821.7,116.2c150.9,79.5,365,287.5,466.9,454.7c40.8,67.3,99.9,195.7,128.4,285.4c75.4,222.2,67.3,446.5-30.6,713.7C7912.7-855.4,7876-712.7,7890.3-623c16.3,110.1,61.2,148.8,203.9,177.4c513.8,102,742.2,203.9,968.5,428.2c179.4,179.4,291.6,383.3,362.9,660.6c67.3,269.1,48.9,464.9-73.4,715.7c-83.6,175.4-181.5,305.8-454.7,603.5c-116.2,126.4-218.2,254.9-230.4,283.4c-10.2,28.5-18.3,130.5-18.3,228.4c0,152.9,10.2,210,81.6,418c102,303.8,124.4,413.9,124.4,630c0,348.7-118.3,662.7-324.2,864.5C8281.8,4631.4,7855.7,4755.8,7417.3,4711z M7806.7,4286.9c375.2-71.4,564.8-256.9,619.8-605.6c30.6-191.7,8.2-346.6-93.8-654.5c-104-312-130.5-540.3-91.7-768.7c36.7-208,83.6-287.5,330.3-554.6c234.5-252.8,405.8-487.3,446.5-613.7c16.3-42.8,22.4-136.6,16.3-228.4c-18.3-297.7-218.2-611.7-471-740.2c-71.4-34.6-248.8-89.7-424.1-130.5c-167.2-36.7-340.5-87.7-383.3-108.1C7639.5-176.4,7558-284.5,7509-437.5c-73.4-238.5-53-393.5,108-823.7c95.8-259,106-336.4,67.3-489.4c-59.1-226.3-226.3-450.6-407.8-546.4l-104-55.1l-499.6-2.1c-426.2,0-513.8-6.1-599.5-36.7c-242.6-87.7-367-218.2-548.5-575c-89.7-177.4-163.1-291.6-222.3-348.7c-230.4-224.3-734-371.1-1078.6-314c-169.2,26.5-411.9,108.1-483.2,161.1l-46.9,36.7l157,171.3c850.2,940,1822.8,2497.7,3036,4860.9c189.6,371.1,216.1,436.3,205.9,499.5c-26.5,161.1-212,232.4-328.3,124.4c-28.5-26.5-163.1-265.1-299.7-528.1c-754.4-1468.1-1360-2522.2-1979.8-3447.9c-383.3-573-864.5-1174.5-1131.6-1417.1l-79.5-71.4l-191.7,93.8c-575,279.3-887,707.5-815.6,1117.4c26.5,155,138.7,383.3,246.7,505.7c91.8,104,142.7,122.3,458.8,159c399.6,46.9,560.7,224.3,534.2,583.1c-16.3,208-106,385.4-360.9,701.4c-114.2,140.7-230.4,301.8-259,356.8c-73.4,138.6-73.4,269.1,2,418c148.8,297.7,411.9,430.2,919.6,460.8c289.5,18.4,381.3,61.2,460.8,216.1c55,110.1,48.9,291.6-24.5,697.3c-112.1,611.7-71.4,846.2,185.5,1078.6c140.7,126.4,299.7,210,460.8,242.7c152.9,30.6,309.9,0,597.4-116.2c295.7-118.3,418-152.9,530.1-152.9c242.6,2,418,169.2,734,699.4c136.6,226.3,187.6,287.5,303.8,354.8C7241.9,4286.9,7564.1,4331.7,7806.7,4286.9z"/></g></g>
</svg>